%FSLAX45Y45*%
G04 Gerber Fmt 4.5, Leading zero omitted, Abs format (unit mm)*
G04 Created by KiCad (PCBNEW 5.1.9+dfsg1-1~bpo10+1) date 2022-02-06 17:07:49*
%MOMM*%
%LPD*%
G01*
G04 APERTURE LIST*
%TA.AperFunction,Profile*%
%ADD10C,0.100000*%
%TD*%
%ADD11C,0.200000*%
%ADD12C,0.300000*%
G04 APERTURE END LIST*
D10*
X10033000Y-4000500D02*
X10033000Y-5270500D01*
X6858000Y-4000500D02*
X10033000Y-4000500D01*
X6858000Y-8953500D02*
X6858000Y-4000500D01*
X10033000Y-8953500D02*
X6858000Y-8953500D01*
X10033000Y-7683500D02*
X10033000Y-8953500D01*
X8636000Y-7683500D02*
X10033000Y-7683500D01*
X8636000Y-5270500D02*
X8636000Y-7683500D01*
X10033000Y-5270500D02*
X8636000Y-5270500D01*
D11*
X6926900Y-5288600D02*
X6966900Y-5328600D01*
X6966900Y-5288600D02*
X6926900Y-5328600D01*
X6990400Y-4590100D02*
X7030400Y-4630100D01*
X7030400Y-4590100D02*
X6990400Y-4630100D01*
X6990400Y-4933000D02*
X7030400Y-4973000D01*
X7030400Y-4933000D02*
X6990400Y-4973000D01*
X7003100Y-4475800D02*
X7043100Y-4515800D01*
X7043100Y-4475800D02*
X7003100Y-4515800D01*
X7003100Y-8806500D02*
X7043100Y-8846500D01*
X7043100Y-8806500D02*
X7003100Y-8846500D01*
X7028500Y-5796600D02*
X7068500Y-5836600D01*
X7068500Y-5796600D02*
X7028500Y-5836600D01*
X7041200Y-6990400D02*
X7081200Y-7030400D01*
X7081200Y-6990400D02*
X7041200Y-7030400D01*
X7066600Y-5136200D02*
X7106600Y-5176200D01*
X7106600Y-5136200D02*
X7066600Y-5176200D01*
X7066600Y-6253800D02*
X7106600Y-6293800D01*
X7106600Y-6253800D02*
X7066600Y-6293800D01*
X7066600Y-6876100D02*
X7106600Y-6916100D01*
X7106600Y-6876100D02*
X7066600Y-6916100D01*
X7092000Y-5644200D02*
X7132000Y-5684200D01*
X7132000Y-5644200D02*
X7092000Y-5684200D01*
X7104700Y-6139500D02*
X7144700Y-6179500D01*
X7144700Y-6139500D02*
X7104700Y-6179500D01*
X7219000Y-8717600D02*
X7259000Y-8757600D01*
X7259000Y-8717600D02*
X7219000Y-8757600D01*
X7244400Y-8616000D02*
X7284400Y-8656000D01*
X7284400Y-8616000D02*
X7244400Y-8656000D01*
X7307900Y-6495100D02*
X7347900Y-6535100D01*
X7347900Y-6495100D02*
X7307900Y-6535100D01*
X7307900Y-6584000D02*
X7347900Y-6624000D01*
X7347900Y-6584000D02*
X7307900Y-6624000D01*
X7396800Y-4818700D02*
X7436800Y-4858700D01*
X7436800Y-4818700D02*
X7396800Y-4858700D01*
X7396800Y-7600000D02*
X7436800Y-7640000D01*
X7436800Y-7600000D02*
X7396800Y-7640000D01*
X7447600Y-6647500D02*
X7487600Y-6687500D01*
X7487600Y-6647500D02*
X7447600Y-6687500D01*
X7460300Y-7752400D02*
X7500300Y-7792400D01*
X7500300Y-7752400D02*
X7460300Y-7792400D01*
X7485700Y-4996500D02*
X7525700Y-5036500D01*
X7525700Y-4996500D02*
X7485700Y-5036500D01*
X7498400Y-4666300D02*
X7538400Y-4706300D01*
X7538400Y-4666300D02*
X7498400Y-4706300D01*
X7549200Y-8781100D02*
X7589200Y-8821100D01*
X7589200Y-8781100D02*
X7549200Y-8821100D01*
X7574600Y-6495100D02*
X7614600Y-6535100D01*
X7614600Y-6495100D02*
X7574600Y-6535100D01*
X7663500Y-7612700D02*
X7703500Y-7652700D01*
X7703500Y-7612700D02*
X7663500Y-7652700D01*
X7714300Y-7536500D02*
X7754300Y-7576500D01*
X7754300Y-7536500D02*
X7714300Y-7576500D01*
X7803200Y-4806000D02*
X7843200Y-4846000D01*
X7843200Y-4806000D02*
X7803200Y-4846000D01*
X7828600Y-8692200D02*
X7868600Y-8732200D01*
X7868600Y-8692200D02*
X7828600Y-8732200D01*
X7841300Y-5466400D02*
X7881300Y-5506400D01*
X7881300Y-5466400D02*
X7841300Y-5506400D01*
X7841300Y-6126800D02*
X7881300Y-6166800D01*
X7881300Y-6126800D02*
X7841300Y-6166800D01*
X7841300Y-8069900D02*
X7881300Y-8109900D01*
X7881300Y-8069900D02*
X7841300Y-8109900D01*
X7892100Y-8768400D02*
X7932100Y-8808400D01*
X7932100Y-8768400D02*
X7892100Y-8808400D01*
X7904800Y-5644200D02*
X7944800Y-5684200D01*
X7944800Y-5644200D02*
X7904800Y-5684200D01*
X7955600Y-4285300D02*
X7995600Y-4325300D01*
X7995600Y-4285300D02*
X7955600Y-4325300D01*
X7968300Y-4171000D02*
X8008300Y-4211000D01*
X8008300Y-4171000D02*
X7968300Y-4211000D01*
X7968300Y-4602800D02*
X8008300Y-4642800D01*
X8008300Y-4602800D02*
X7968300Y-4642800D01*
X7968300Y-4945700D02*
X8008300Y-4985700D01*
X8008300Y-4945700D02*
X7968300Y-4985700D01*
X8095300Y-8743000D02*
X8135300Y-8783000D01*
X8135300Y-8743000D02*
X8095300Y-8783000D01*
X8133400Y-7295200D02*
X8173400Y-7335200D01*
X8173400Y-7295200D02*
X8133400Y-7335200D01*
X8158800Y-8108000D02*
X8198800Y-8148000D01*
X8198800Y-8108000D02*
X8158800Y-8148000D01*
X8184200Y-8628700D02*
X8224200Y-8668700D01*
X8224200Y-8628700D02*
X8184200Y-8668700D01*
X8247700Y-4615500D02*
X8287700Y-4655500D01*
X8287700Y-4615500D02*
X8247700Y-4655500D01*
X8298500Y-8095300D02*
X8338500Y-8135300D01*
X8338500Y-8095300D02*
X8298500Y-8135300D01*
X8323900Y-8006400D02*
X8363900Y-8046400D01*
X8363900Y-8006400D02*
X8323900Y-8046400D01*
X8336600Y-4844100D02*
X8376600Y-4884100D01*
X8376600Y-4844100D02*
X8336600Y-4884100D01*
X8362000Y-7828600D02*
X8402000Y-7868600D01*
X8402000Y-7828600D02*
X8362000Y-7868600D01*
X8387400Y-4412300D02*
X8427400Y-4452300D01*
X8427400Y-4412300D02*
X8387400Y-4452300D01*
X8387400Y-7028500D02*
X8427400Y-7068500D01*
X8427400Y-7028500D02*
X8387400Y-7068500D01*
X8400100Y-4272600D02*
X8440100Y-4312600D01*
X8440100Y-4272600D02*
X8400100Y-4312600D01*
X8412800Y-8730300D02*
X8452800Y-8770300D01*
X8452800Y-8730300D02*
X8412800Y-8770300D01*
X8438200Y-7752400D02*
X8478200Y-7792400D01*
X8478200Y-7752400D02*
X8438200Y-7792400D01*
X8501700Y-7257100D02*
X8541700Y-7297100D01*
X8541700Y-7257100D02*
X8501700Y-7297100D01*
X8514400Y-8412800D02*
X8554400Y-8452800D01*
X8554400Y-8412800D02*
X8514400Y-8452800D01*
X8527100Y-6977700D02*
X8567100Y-7017700D01*
X8567100Y-6977700D02*
X8527100Y-7017700D01*
X8577900Y-8260400D02*
X8617900Y-8300400D01*
X8617900Y-8260400D02*
X8577900Y-8300400D01*
X8793800Y-4780600D02*
X8833800Y-4820600D01*
X8833800Y-4780600D02*
X8793800Y-4820600D01*
X8819200Y-4628200D02*
X8859200Y-4668200D01*
X8859200Y-4628200D02*
X8819200Y-4668200D01*
X8844600Y-8209600D02*
X8884600Y-8249600D01*
X8884600Y-8209600D02*
X8844600Y-8249600D01*
X8997000Y-8082600D02*
X9037000Y-8122600D01*
X9037000Y-8082600D02*
X8997000Y-8122600D01*
X9149400Y-4691700D02*
X9189400Y-4731700D01*
X9189400Y-4691700D02*
X9149400Y-4731700D01*
X9301800Y-4793300D02*
X9341800Y-4833300D01*
X9341800Y-4793300D02*
X9301800Y-4833300D01*
X9339900Y-8209600D02*
X9379900Y-8249600D01*
X9379900Y-8209600D02*
X9339900Y-8249600D01*
X9441500Y-8171500D02*
X9481500Y-8211500D01*
X9481500Y-8171500D02*
X9441500Y-8211500D01*
X9682800Y-4704400D02*
X9722800Y-4744400D01*
X9722800Y-4704400D02*
X9682800Y-4744400D01*
X9695500Y-8120700D02*
X9735500Y-8160700D01*
X9735500Y-8120700D02*
X9695500Y-8160700D01*
X9822500Y-4831400D02*
X9862500Y-4871400D01*
X9862500Y-4831400D02*
X9822500Y-4871400D01*
X9860600Y-8222300D02*
X9900600Y-8262300D01*
X9900600Y-8222300D02*
X9860600Y-8262300D01*
X7113800Y-8027700D02*
G75*
G03*
X7113800Y-8027700I-40000J0D01*
G01*
X7043800Y-7967700D02*
X7043800Y-8087700D01*
X7103800Y-7967700D02*
X7103800Y-8087700D01*
X7043800Y-8087700D02*
G75*
G03*
X7103800Y-8087700I30000J0D01*
G01*
X7103800Y-7967700D02*
G75*
G03*
X7043800Y-7967700I-30000J0D01*
G01*
X7113800Y-8507700D02*
G75*
G03*
X7113800Y-8507700I-40000J0D01*
G01*
X7043800Y-8447700D02*
X7043800Y-8567700D01*
X7103800Y-8447700D02*
X7103800Y-8567700D01*
X7043800Y-8567700D02*
G75*
G03*
X7103800Y-8567700I30000J0D01*
G01*
X7103800Y-8447700D02*
G75*
G03*
X7043800Y-8447700I-30000J0D01*
G01*
X7583800Y-8027700D02*
G75*
G03*
X7583800Y-8027700I-40000J0D01*
G01*
X7513800Y-7967700D02*
X7513800Y-8087700D01*
X7573800Y-7967700D02*
X7573800Y-8087700D01*
X7513800Y-8087700D02*
G75*
G03*
X7573800Y-8087700I30000J0D01*
G01*
X7573800Y-7967700D02*
G75*
G03*
X7513800Y-7967700I-30000J0D01*
G01*
X7583800Y-8507700D02*
G75*
G03*
X7583800Y-8507700I-40000J0D01*
G01*
X7513800Y-8447700D02*
X7513800Y-8567700D01*
X7573800Y-8447700D02*
X7573800Y-8567700D01*
X7513800Y-8567700D02*
G75*
G03*
X7573800Y-8567700I30000J0D01*
G01*
X7573800Y-8447700D02*
G75*
G03*
X7513800Y-8447700I-30000J0D01*
G01*
X8053800Y-8027700D02*
G75*
G03*
X8053800Y-8027700I-40000J0D01*
G01*
X7983800Y-7967700D02*
X7983800Y-8087700D01*
X8043800Y-7967700D02*
X8043800Y-8087700D01*
X7983800Y-8087700D02*
G75*
G03*
X8043800Y-8087700I30000J0D01*
G01*
X8043800Y-7967700D02*
G75*
G03*
X7983800Y-7967700I-30000J0D01*
G01*
X8053800Y-8507700D02*
G75*
G03*
X8053800Y-8507700I-40000J0D01*
G01*
X7983800Y-8447700D02*
X7983800Y-8567700D01*
X8043800Y-8447700D02*
X8043800Y-8567700D01*
X7983800Y-8567700D02*
G75*
G03*
X8043800Y-8567700I30000J0D01*
G01*
X8043800Y-8447700D02*
G75*
G03*
X7983800Y-8447700I-30000J0D01*
G01*
X8180700Y-6743700D02*
G75*
G03*
X8180700Y-6743700I-40000J0D01*
G01*
X8180700Y-7505700D02*
G75*
G03*
X8180700Y-7505700I-40000J0D01*
G01*
X8333100Y-5217350D02*
G75*
G03*
X8333100Y-5217350I-40000J0D01*
G01*
X8333100Y-5467350D02*
G75*
G03*
X8333100Y-5467350I-40000J0D01*
G01*
X8333100Y-5981700D02*
G75*
G03*
X8333100Y-5981700I-40000J0D01*
G01*
X8333100Y-6231700D02*
G75*
G03*
X8333100Y-6231700I-40000J0D01*
G01*
X8498200Y-6743700D02*
G75*
G03*
X8498200Y-6743700I-40000J0D01*
G01*
X8498200Y-7505700D02*
G75*
G03*
X8498200Y-7505700I-40000J0D01*
G01*
X7112000Y-7244800D02*
X7112000Y-7334800D01*
X7067000Y-7289800D02*
X7157000Y-7289800D01*
X7366000Y-7244800D02*
X7366000Y-7334800D01*
X7321000Y-7289800D02*
X7411000Y-7289800D01*
X7607300Y-7244800D02*
X7607300Y-7334800D01*
X7562300Y-7289800D02*
X7652300Y-7289800D01*
X7861300Y-7244800D02*
X7861300Y-7334800D01*
X7816300Y-7289800D02*
X7906300Y-7289800D01*
X7247188Y-4364288D02*
X7247188Y-4297112D01*
X7180012Y-4297112D01*
X7180012Y-4364288D01*
X7247188Y-4364288D01*
X7497188Y-4364288D02*
X7497188Y-4297112D01*
X7430012Y-4297112D01*
X7430012Y-4364288D01*
X7497188Y-4364288D01*
X7747188Y-4364288D02*
X7747188Y-4297112D01*
X7680012Y-4297112D01*
X7680012Y-4364288D01*
X7747188Y-4364288D01*
X7302500Y-5333200D02*
X7352500Y-5283200D01*
X7302500Y-5233200D01*
X7252500Y-5283200D01*
X7302500Y-5333200D01*
X7302500Y-5587200D02*
X7352500Y-5537200D01*
X7302500Y-5487200D01*
X7252500Y-5537200D01*
X7302500Y-5587200D01*
X7302500Y-5841200D02*
X7352500Y-5791200D01*
X7302500Y-5741200D01*
X7252500Y-5791200D01*
X7302500Y-5841200D01*
X7302500Y-6095200D02*
X7352500Y-6045200D01*
X7302500Y-5995200D01*
X7252500Y-6045200D01*
X7302500Y-6095200D01*
X7302500Y-6349200D02*
X7352500Y-6299200D01*
X7302500Y-6249200D01*
X7252500Y-6299200D01*
X7302500Y-6349200D01*
X7556500Y-5333200D02*
X7606500Y-5283200D01*
X7556500Y-5233200D01*
X7506500Y-5283200D01*
X7556500Y-5333200D01*
X7556500Y-5587200D02*
X7606500Y-5537200D01*
X7556500Y-5487200D01*
X7506500Y-5537200D01*
X7556500Y-5587200D01*
X7556500Y-5841200D02*
X7606500Y-5791200D01*
X7556500Y-5741200D01*
X7506500Y-5791200D01*
X7556500Y-5841200D01*
X7556500Y-6095200D02*
X7606500Y-6045200D01*
X7556500Y-5995200D01*
X7506500Y-6045200D01*
X7556500Y-6095200D01*
X7556500Y-6349200D02*
X7606500Y-6299200D01*
X7556500Y-6249200D01*
X7506500Y-6299200D01*
X7556500Y-6349200D01*
X8813800Y-5130000D02*
X8863800Y-5080000D01*
X8813800Y-5030000D01*
X8763800Y-5080000D01*
X8813800Y-5130000D01*
X8826500Y-4241000D02*
X8876500Y-4191000D01*
X8826500Y-4141000D01*
X8776500Y-4191000D01*
X8826500Y-4241000D01*
X8826500Y-4495000D02*
X8876500Y-4445000D01*
X8826500Y-4395000D01*
X8776500Y-4445000D01*
X8826500Y-4495000D01*
X8826500Y-7924000D02*
X8876500Y-7874000D01*
X8826500Y-7824000D01*
X8776500Y-7874000D01*
X8826500Y-7924000D01*
X8826500Y-8559000D02*
X8876500Y-8509000D01*
X8826500Y-8459000D01*
X8776500Y-8509000D01*
X8826500Y-8559000D01*
X8826500Y-8813000D02*
X8876500Y-8763000D01*
X8826500Y-8713000D01*
X8776500Y-8763000D01*
X8826500Y-8813000D01*
X9067800Y-5130000D02*
X9117800Y-5080000D01*
X9067800Y-5030000D01*
X9017800Y-5080000D01*
X9067800Y-5130000D01*
X9080500Y-4241000D02*
X9130500Y-4191000D01*
X9080500Y-4141000D01*
X9030500Y-4191000D01*
X9080500Y-4241000D01*
X9080500Y-4495000D02*
X9130500Y-4445000D01*
X9080500Y-4395000D01*
X9030500Y-4445000D01*
X9080500Y-4495000D01*
X9080500Y-7924000D02*
X9130500Y-7874000D01*
X9080500Y-7824000D01*
X9030500Y-7874000D01*
X9080500Y-7924000D01*
X9080500Y-8559000D02*
X9130500Y-8509000D01*
X9080500Y-8459000D01*
X9030500Y-8509000D01*
X9080500Y-8559000D01*
X9080500Y-8813000D02*
X9130500Y-8763000D01*
X9080500Y-8713000D01*
X9030500Y-8763000D01*
X9080500Y-8813000D01*
X9321800Y-5130000D02*
X9371800Y-5080000D01*
X9321800Y-5030000D01*
X9271800Y-5080000D01*
X9321800Y-5130000D01*
X9334500Y-4241000D02*
X9384500Y-4191000D01*
X9334500Y-4141000D01*
X9284500Y-4191000D01*
X9334500Y-4241000D01*
X9334500Y-4495000D02*
X9384500Y-4445000D01*
X9334500Y-4395000D01*
X9284500Y-4445000D01*
X9334500Y-4495000D01*
X9334500Y-7924000D02*
X9384500Y-7874000D01*
X9334500Y-7824000D01*
X9284500Y-7874000D01*
X9334500Y-7924000D01*
X9334500Y-8559000D02*
X9384500Y-8509000D01*
X9334500Y-8459000D01*
X9284500Y-8509000D01*
X9334500Y-8559000D01*
X9334500Y-8813000D02*
X9384500Y-8763000D01*
X9334500Y-8713000D01*
X9284500Y-8763000D01*
X9334500Y-8813000D01*
X9575800Y-5130000D02*
X9625800Y-5080000D01*
X9575800Y-5030000D01*
X9525800Y-5080000D01*
X9575800Y-5130000D01*
X9588500Y-4241000D02*
X9638500Y-4191000D01*
X9588500Y-4141000D01*
X9538500Y-4191000D01*
X9588500Y-4241000D01*
X9588500Y-4495000D02*
X9638500Y-4445000D01*
X9588500Y-4395000D01*
X9538500Y-4445000D01*
X9588500Y-4495000D01*
X9588500Y-7924000D02*
X9638500Y-7874000D01*
X9588500Y-7824000D01*
X9538500Y-7874000D01*
X9588500Y-7924000D01*
X9588500Y-8559000D02*
X9638500Y-8509000D01*
X9588500Y-8459000D01*
X9538500Y-8509000D01*
X9588500Y-8559000D01*
X9588500Y-8813000D02*
X9638500Y-8763000D01*
X9588500Y-8713000D01*
X9538500Y-8763000D01*
X9588500Y-8813000D01*
X9829800Y-5130000D02*
X9879800Y-5080000D01*
X9829800Y-5030000D01*
X9779800Y-5080000D01*
X9829800Y-5130000D01*
X9842500Y-4241000D02*
X9892500Y-4191000D01*
X9842500Y-4141000D01*
X9792500Y-4191000D01*
X9842500Y-4241000D01*
X9842500Y-4495000D02*
X9892500Y-4445000D01*
X9842500Y-4395000D01*
X9792500Y-4445000D01*
X9842500Y-4495000D01*
X9842500Y-7924000D02*
X9892500Y-7874000D01*
X9842500Y-7824000D01*
X9792500Y-7874000D01*
X9842500Y-7924000D01*
X9842500Y-8559000D02*
X9892500Y-8509000D01*
X9842500Y-8459000D01*
X9792500Y-8509000D01*
X9842500Y-8559000D01*
X9842500Y-8813000D02*
X9892500Y-8763000D01*
X9842500Y-8713000D01*
X9792500Y-8763000D01*
X9842500Y-8813000D01*
D12*
X7139428Y-9424214D02*
X7139428Y-9124214D01*
X7210857Y-9124214D01*
X7253714Y-9138500D01*
X7282286Y-9167072D01*
X7296571Y-9195643D01*
X7310857Y-9252786D01*
X7310857Y-9295643D01*
X7296571Y-9352786D01*
X7282286Y-9381357D01*
X7253714Y-9409929D01*
X7210857Y-9424214D01*
X7139428Y-9424214D01*
X7439428Y-9424214D02*
X7439428Y-9224214D01*
X7439428Y-9281357D02*
X7453714Y-9252786D01*
X7468000Y-9238500D01*
X7496571Y-9224214D01*
X7525143Y-9224214D01*
X7625143Y-9424214D02*
X7625143Y-9224214D01*
X7625143Y-9124214D02*
X7610857Y-9138500D01*
X7625143Y-9152786D01*
X7639428Y-9138500D01*
X7625143Y-9124214D01*
X7625143Y-9152786D01*
X7810857Y-9424214D02*
X7782286Y-9409929D01*
X7768000Y-9381357D01*
X7768000Y-9124214D01*
X7968000Y-9424214D02*
X7939428Y-9409929D01*
X7925143Y-9381357D01*
X7925143Y-9124214D01*
X8310857Y-9424214D02*
X8310857Y-9124214D01*
X8410857Y-9338500D01*
X8510857Y-9124214D01*
X8510857Y-9424214D01*
X8782286Y-9424214D02*
X8782286Y-9267072D01*
X8768000Y-9238500D01*
X8739428Y-9224214D01*
X8682286Y-9224214D01*
X8653714Y-9238500D01*
X8782286Y-9409929D02*
X8753714Y-9424214D01*
X8682286Y-9424214D01*
X8653714Y-9409929D01*
X8639428Y-9381357D01*
X8639428Y-9352786D01*
X8653714Y-9324214D01*
X8682286Y-9309929D01*
X8753714Y-9309929D01*
X8782286Y-9295643D01*
X8925143Y-9224214D02*
X8925143Y-9524214D01*
X8925143Y-9238500D02*
X8953714Y-9224214D01*
X9010857Y-9224214D01*
X9039428Y-9238500D01*
X9053714Y-9252786D01*
X9068000Y-9281357D01*
X9068000Y-9367072D01*
X9053714Y-9395643D01*
X9039428Y-9409929D01*
X9010857Y-9424214D01*
X8953714Y-9424214D01*
X8925143Y-9409929D01*
X9196571Y-9395643D02*
X9210857Y-9409929D01*
X9196571Y-9424214D01*
X9182286Y-9409929D01*
X9196571Y-9395643D01*
X9196571Y-9424214D01*
X9196571Y-9238500D02*
X9210857Y-9252786D01*
X9196571Y-9267072D01*
X9182286Y-9252786D01*
X9196571Y-9238500D01*
X9196571Y-9267072D01*
X6813000Y-9898500D02*
X6853000Y-9938500D01*
X6853000Y-9898500D02*
X6813000Y-9938500D01*
X7196571Y-9754214D02*
X7225143Y-9754214D01*
X7253714Y-9768500D01*
X7268000Y-9782786D01*
X7282286Y-9811357D01*
X7296571Y-9868500D01*
X7296571Y-9939929D01*
X7282286Y-9997072D01*
X7268000Y-10025643D01*
X7253714Y-10039929D01*
X7225143Y-10054214D01*
X7196571Y-10054214D01*
X7168000Y-10039929D01*
X7153714Y-10025643D01*
X7139428Y-9997072D01*
X7125143Y-9939929D01*
X7125143Y-9868500D01*
X7139428Y-9811357D01*
X7153714Y-9782786D01*
X7168000Y-9768500D01*
X7196571Y-9754214D01*
X7425143Y-10025643D02*
X7439428Y-10039929D01*
X7425143Y-10054214D01*
X7410857Y-10039929D01*
X7425143Y-10025643D01*
X7425143Y-10054214D01*
X7696571Y-9854214D02*
X7696571Y-10054214D01*
X7625143Y-9739929D02*
X7553714Y-9954214D01*
X7739428Y-9954214D01*
X7910857Y-9754214D02*
X7939428Y-9754214D01*
X7968000Y-9768500D01*
X7982286Y-9782786D01*
X7996571Y-9811357D01*
X8010857Y-9868500D01*
X8010857Y-9939929D01*
X7996571Y-9997072D01*
X7982286Y-10025643D01*
X7968000Y-10039929D01*
X7939428Y-10054214D01*
X7910857Y-10054214D01*
X7882286Y-10039929D01*
X7868000Y-10025643D01*
X7853714Y-9997072D01*
X7839428Y-9939929D01*
X7839428Y-9868500D01*
X7853714Y-9811357D01*
X7868000Y-9782786D01*
X7882286Y-9768500D01*
X7910857Y-9754214D01*
X8139428Y-10054214D02*
X8139428Y-9854214D01*
X8139428Y-9882786D02*
X8153714Y-9868500D01*
X8182286Y-9854214D01*
X8225143Y-9854214D01*
X8253714Y-9868500D01*
X8268000Y-9897072D01*
X8268000Y-10054214D01*
X8268000Y-9897072D02*
X8282286Y-9868500D01*
X8310857Y-9854214D01*
X8353714Y-9854214D01*
X8382286Y-9868500D01*
X8396571Y-9897072D01*
X8396571Y-10054214D01*
X8539428Y-10054214D02*
X8539428Y-9854214D01*
X8539428Y-9882786D02*
X8553714Y-9868500D01*
X8582286Y-9854214D01*
X8625143Y-9854214D01*
X8653714Y-9868500D01*
X8668000Y-9897072D01*
X8668000Y-10054214D01*
X8668000Y-9897072D02*
X8682286Y-9868500D01*
X8710857Y-9854214D01*
X8753714Y-9854214D01*
X8782286Y-9868500D01*
X8796571Y-9897072D01*
X8796571Y-10054214D01*
X9382286Y-9739929D02*
X9125143Y-10125643D01*
X9768000Y-9754214D02*
X9796571Y-9754214D01*
X9825143Y-9768500D01*
X9839428Y-9782786D01*
X9853714Y-9811357D01*
X9868000Y-9868500D01*
X9868000Y-9939929D01*
X9853714Y-9997072D01*
X9839428Y-10025643D01*
X9825143Y-10039929D01*
X9796571Y-10054214D01*
X9768000Y-10054214D01*
X9739428Y-10039929D01*
X9725143Y-10025643D01*
X9710857Y-9997072D01*
X9696571Y-9939929D01*
X9696571Y-9868500D01*
X9710857Y-9811357D01*
X9725143Y-9782786D01*
X9739428Y-9768500D01*
X9768000Y-9754214D01*
X9996571Y-10025643D02*
X10010857Y-10039929D01*
X9996571Y-10054214D01*
X9982286Y-10039929D01*
X9996571Y-10025643D01*
X9996571Y-10054214D01*
X10196571Y-9754214D02*
X10225143Y-9754214D01*
X10253714Y-9768500D01*
X10268000Y-9782786D01*
X10282286Y-9811357D01*
X10296571Y-9868500D01*
X10296571Y-9939929D01*
X10282286Y-9997072D01*
X10268000Y-10025643D01*
X10253714Y-10039929D01*
X10225143Y-10054214D01*
X10196571Y-10054214D01*
X10168000Y-10039929D01*
X10153714Y-10025643D01*
X10139428Y-9997072D01*
X10125143Y-9939929D01*
X10125143Y-9868500D01*
X10139428Y-9811357D01*
X10153714Y-9782786D01*
X10168000Y-9768500D01*
X10196571Y-9754214D01*
X10582286Y-10054214D02*
X10410857Y-10054214D01*
X10496571Y-10054214D02*
X10496571Y-9754214D01*
X10468000Y-9797072D01*
X10439428Y-9825643D01*
X10410857Y-9839929D01*
X10839428Y-9754214D02*
X10782286Y-9754214D01*
X10753714Y-9768500D01*
X10739428Y-9782786D01*
X10710857Y-9825643D01*
X10696571Y-9882786D01*
X10696571Y-9997072D01*
X10710857Y-10025643D01*
X10725143Y-10039929D01*
X10753714Y-10054214D01*
X10810857Y-10054214D01*
X10839428Y-10039929D01*
X10853714Y-10025643D01*
X10868000Y-9997072D01*
X10868000Y-9925643D01*
X10853714Y-9897072D01*
X10839428Y-9882786D01*
X10810857Y-9868500D01*
X10753714Y-9868500D01*
X10725143Y-9882786D01*
X10710857Y-9897072D01*
X10696571Y-9925643D01*
X10982286Y-9754214D02*
X10982286Y-9811357D01*
X11096571Y-9754214D02*
X11096571Y-9811357D01*
X11539428Y-10168500D02*
X11525143Y-10154214D01*
X11496571Y-10111357D01*
X11482286Y-10082786D01*
X11468000Y-10039929D01*
X11453714Y-9968500D01*
X11453714Y-9911357D01*
X11468000Y-9839929D01*
X11482286Y-9797072D01*
X11496571Y-9768500D01*
X11525143Y-9725643D01*
X11539428Y-9711357D01*
X11782286Y-9754214D02*
X11725143Y-9754214D01*
X11696571Y-9768500D01*
X11682286Y-9782786D01*
X11653714Y-9825643D01*
X11639428Y-9882786D01*
X11639428Y-9997072D01*
X11653714Y-10025643D01*
X11668000Y-10039929D01*
X11696571Y-10054214D01*
X11753714Y-10054214D01*
X11782286Y-10039929D01*
X11796571Y-10025643D01*
X11810857Y-9997072D01*
X11810857Y-9925643D01*
X11796571Y-9897072D01*
X11782286Y-9882786D01*
X11753714Y-9868500D01*
X11696571Y-9868500D01*
X11668000Y-9882786D01*
X11653714Y-9897072D01*
X11639428Y-9925643D01*
X11910857Y-9754214D02*
X12110857Y-9754214D01*
X11982286Y-10054214D01*
X12453714Y-10054214D02*
X12453714Y-9754214D01*
X12582286Y-10054214D02*
X12582286Y-9897072D01*
X12568000Y-9868500D01*
X12539428Y-9854214D01*
X12496571Y-9854214D01*
X12468000Y-9868500D01*
X12453714Y-9882786D01*
X12768000Y-10054214D02*
X12739428Y-10039929D01*
X12725143Y-10025643D01*
X12710857Y-9997072D01*
X12710857Y-9911357D01*
X12725143Y-9882786D01*
X12739428Y-9868500D01*
X12768000Y-9854214D01*
X12810857Y-9854214D01*
X12839428Y-9868500D01*
X12853714Y-9882786D01*
X12868000Y-9911357D01*
X12868000Y-9997072D01*
X12853714Y-10025643D01*
X12839428Y-10039929D01*
X12810857Y-10054214D01*
X12768000Y-10054214D01*
X13039428Y-10054214D02*
X13010857Y-10039929D01*
X12996571Y-10011357D01*
X12996571Y-9754214D01*
X13268000Y-10039929D02*
X13239428Y-10054214D01*
X13182286Y-10054214D01*
X13153714Y-10039929D01*
X13139428Y-10011357D01*
X13139428Y-9897072D01*
X13153714Y-9868500D01*
X13182286Y-9854214D01*
X13239428Y-9854214D01*
X13268000Y-9868500D01*
X13282286Y-9897072D01*
X13282286Y-9925643D01*
X13139428Y-9954214D01*
X13396571Y-10039929D02*
X13425143Y-10054214D01*
X13482286Y-10054214D01*
X13510857Y-10039929D01*
X13525143Y-10011357D01*
X13525143Y-9997072D01*
X13510857Y-9968500D01*
X13482286Y-9954214D01*
X13439428Y-9954214D01*
X13410857Y-9939929D01*
X13396571Y-9911357D01*
X13396571Y-9897072D01*
X13410857Y-9868500D01*
X13439428Y-9854214D01*
X13482286Y-9854214D01*
X13510857Y-9868500D01*
X13625143Y-10168500D02*
X13639428Y-10154214D01*
X13668000Y-10111357D01*
X13682286Y-10082786D01*
X13696571Y-10039929D01*
X13710857Y-9968500D01*
X13710857Y-9911357D01*
X13696571Y-9839929D01*
X13682286Y-9797072D01*
X13668000Y-9768500D01*
X13639428Y-9725643D01*
X13625143Y-9711357D01*
X6853000Y-10314500D02*
G75*
G03*
X6853000Y-10314500I-40000J0D01*
G01*
X7196571Y-10150214D02*
X7225143Y-10150214D01*
X7253714Y-10164500D01*
X7268000Y-10178786D01*
X7282286Y-10207357D01*
X7296571Y-10264500D01*
X7296571Y-10335929D01*
X7282286Y-10393072D01*
X7268000Y-10421643D01*
X7253714Y-10435929D01*
X7225143Y-10450214D01*
X7196571Y-10450214D01*
X7168000Y-10435929D01*
X7153714Y-10421643D01*
X7139428Y-10393072D01*
X7125143Y-10335929D01*
X7125143Y-10264500D01*
X7139428Y-10207357D01*
X7153714Y-10178786D01*
X7168000Y-10164500D01*
X7196571Y-10150214D01*
X7425143Y-10421643D02*
X7439428Y-10435929D01*
X7425143Y-10450214D01*
X7410857Y-10435929D01*
X7425143Y-10421643D01*
X7425143Y-10450214D01*
X7610857Y-10278786D02*
X7582286Y-10264500D01*
X7568000Y-10250214D01*
X7553714Y-10221643D01*
X7553714Y-10207357D01*
X7568000Y-10178786D01*
X7582286Y-10164500D01*
X7610857Y-10150214D01*
X7668000Y-10150214D01*
X7696571Y-10164500D01*
X7710857Y-10178786D01*
X7725143Y-10207357D01*
X7725143Y-10221643D01*
X7710857Y-10250214D01*
X7696571Y-10264500D01*
X7668000Y-10278786D01*
X7610857Y-10278786D01*
X7582286Y-10293072D01*
X7568000Y-10307357D01*
X7553714Y-10335929D01*
X7553714Y-10393072D01*
X7568000Y-10421643D01*
X7582286Y-10435929D01*
X7610857Y-10450214D01*
X7668000Y-10450214D01*
X7696571Y-10435929D01*
X7710857Y-10421643D01*
X7725143Y-10393072D01*
X7725143Y-10335929D01*
X7710857Y-10307357D01*
X7696571Y-10293072D01*
X7668000Y-10278786D01*
X7910857Y-10150214D02*
X7939428Y-10150214D01*
X7968000Y-10164500D01*
X7982286Y-10178786D01*
X7996571Y-10207357D01*
X8010857Y-10264500D01*
X8010857Y-10335929D01*
X7996571Y-10393072D01*
X7982286Y-10421643D01*
X7968000Y-10435929D01*
X7939428Y-10450214D01*
X7910857Y-10450214D01*
X7882286Y-10435929D01*
X7868000Y-10421643D01*
X7853714Y-10393072D01*
X7839428Y-10335929D01*
X7839428Y-10264500D01*
X7853714Y-10207357D01*
X7868000Y-10178786D01*
X7882286Y-10164500D01*
X7910857Y-10150214D01*
X8139428Y-10450214D02*
X8139428Y-10250214D01*
X8139428Y-10278786D02*
X8153714Y-10264500D01*
X8182286Y-10250214D01*
X8225143Y-10250214D01*
X8253714Y-10264500D01*
X8268000Y-10293072D01*
X8268000Y-10450214D01*
X8268000Y-10293072D02*
X8282286Y-10264500D01*
X8310857Y-10250214D01*
X8353714Y-10250214D01*
X8382286Y-10264500D01*
X8396571Y-10293072D01*
X8396571Y-10450214D01*
X8539428Y-10450214D02*
X8539428Y-10250214D01*
X8539428Y-10278786D02*
X8553714Y-10264500D01*
X8582286Y-10250214D01*
X8625143Y-10250214D01*
X8653714Y-10264500D01*
X8668000Y-10293072D01*
X8668000Y-10450214D01*
X8668000Y-10293072D02*
X8682286Y-10264500D01*
X8710857Y-10250214D01*
X8753714Y-10250214D01*
X8782286Y-10264500D01*
X8796571Y-10293072D01*
X8796571Y-10450214D01*
X9382286Y-10135929D02*
X9125143Y-10521643D01*
X9768000Y-10150214D02*
X9796571Y-10150214D01*
X9825143Y-10164500D01*
X9839428Y-10178786D01*
X9853714Y-10207357D01*
X9868000Y-10264500D01*
X9868000Y-10335929D01*
X9853714Y-10393072D01*
X9839428Y-10421643D01*
X9825143Y-10435929D01*
X9796571Y-10450214D01*
X9768000Y-10450214D01*
X9739428Y-10435929D01*
X9725143Y-10421643D01*
X9710857Y-10393072D01*
X9696571Y-10335929D01*
X9696571Y-10264500D01*
X9710857Y-10207357D01*
X9725143Y-10178786D01*
X9739428Y-10164500D01*
X9768000Y-10150214D01*
X9996571Y-10421643D02*
X10010857Y-10435929D01*
X9996571Y-10450214D01*
X9982286Y-10435929D01*
X9996571Y-10421643D01*
X9996571Y-10450214D01*
X10196571Y-10150214D02*
X10225143Y-10150214D01*
X10253714Y-10164500D01*
X10268000Y-10178786D01*
X10282286Y-10207357D01*
X10296571Y-10264500D01*
X10296571Y-10335929D01*
X10282286Y-10393072D01*
X10268000Y-10421643D01*
X10253714Y-10435929D01*
X10225143Y-10450214D01*
X10196571Y-10450214D01*
X10168000Y-10435929D01*
X10153714Y-10421643D01*
X10139428Y-10393072D01*
X10125143Y-10335929D01*
X10125143Y-10264500D01*
X10139428Y-10207357D01*
X10153714Y-10178786D01*
X10168000Y-10164500D01*
X10196571Y-10150214D01*
X10396571Y-10150214D02*
X10582286Y-10150214D01*
X10482286Y-10264500D01*
X10525143Y-10264500D01*
X10553714Y-10278786D01*
X10568000Y-10293072D01*
X10582286Y-10321643D01*
X10582286Y-10393072D01*
X10568000Y-10421643D01*
X10553714Y-10435929D01*
X10525143Y-10450214D01*
X10439428Y-10450214D01*
X10410857Y-10435929D01*
X10396571Y-10421643D01*
X10868000Y-10450214D02*
X10696571Y-10450214D01*
X10782286Y-10450214D02*
X10782286Y-10150214D01*
X10753714Y-10193072D01*
X10725143Y-10221643D01*
X10696571Y-10235929D01*
X10982286Y-10150214D02*
X10982286Y-10207357D01*
X11096571Y-10150214D02*
X11096571Y-10207357D01*
X11539428Y-10564500D02*
X11525143Y-10550214D01*
X11496571Y-10507357D01*
X11482286Y-10478786D01*
X11468000Y-10435929D01*
X11453714Y-10364500D01*
X11453714Y-10307357D01*
X11468000Y-10235929D01*
X11482286Y-10193072D01*
X11496571Y-10164500D01*
X11525143Y-10121643D01*
X11539428Y-10107357D01*
X11696571Y-10278786D02*
X11668000Y-10264500D01*
X11653714Y-10250214D01*
X11639428Y-10221643D01*
X11639428Y-10207357D01*
X11653714Y-10178786D01*
X11668000Y-10164500D01*
X11696571Y-10150214D01*
X11753714Y-10150214D01*
X11782286Y-10164500D01*
X11796571Y-10178786D01*
X11810857Y-10207357D01*
X11810857Y-10221643D01*
X11796571Y-10250214D01*
X11782286Y-10264500D01*
X11753714Y-10278786D01*
X11696571Y-10278786D01*
X11668000Y-10293072D01*
X11653714Y-10307357D01*
X11639428Y-10335929D01*
X11639428Y-10393072D01*
X11653714Y-10421643D01*
X11668000Y-10435929D01*
X11696571Y-10450214D01*
X11753714Y-10450214D01*
X11782286Y-10435929D01*
X11796571Y-10421643D01*
X11810857Y-10393072D01*
X11810857Y-10335929D01*
X11796571Y-10307357D01*
X11782286Y-10293072D01*
X11753714Y-10278786D01*
X12168000Y-10450214D02*
X12168000Y-10150214D01*
X12296571Y-10450214D02*
X12296571Y-10293072D01*
X12282286Y-10264500D01*
X12253714Y-10250214D01*
X12210857Y-10250214D01*
X12182286Y-10264500D01*
X12168000Y-10278786D01*
X12482286Y-10450214D02*
X12453714Y-10435929D01*
X12439428Y-10421643D01*
X12425143Y-10393072D01*
X12425143Y-10307357D01*
X12439428Y-10278786D01*
X12453714Y-10264500D01*
X12482286Y-10250214D01*
X12525143Y-10250214D01*
X12553714Y-10264500D01*
X12568000Y-10278786D01*
X12582286Y-10307357D01*
X12582286Y-10393072D01*
X12568000Y-10421643D01*
X12553714Y-10435929D01*
X12525143Y-10450214D01*
X12482286Y-10450214D01*
X12753714Y-10450214D02*
X12725143Y-10435929D01*
X12710857Y-10407357D01*
X12710857Y-10150214D01*
X12982286Y-10435929D02*
X12953714Y-10450214D01*
X12896571Y-10450214D01*
X12868000Y-10435929D01*
X12853714Y-10407357D01*
X12853714Y-10293072D01*
X12868000Y-10264500D01*
X12896571Y-10250214D01*
X12953714Y-10250214D01*
X12982286Y-10264500D01*
X12996571Y-10293072D01*
X12996571Y-10321643D01*
X12853714Y-10350214D01*
X13110857Y-10435929D02*
X13139428Y-10450214D01*
X13196571Y-10450214D01*
X13225143Y-10435929D01*
X13239428Y-10407357D01*
X13239428Y-10393072D01*
X13225143Y-10364500D01*
X13196571Y-10350214D01*
X13153714Y-10350214D01*
X13125143Y-10335929D01*
X13110857Y-10307357D01*
X13110857Y-10293072D01*
X13125143Y-10264500D01*
X13153714Y-10250214D01*
X13196571Y-10250214D01*
X13225143Y-10264500D01*
X13596571Y-10335929D02*
X13825143Y-10335929D01*
X13710857Y-10450214D02*
X13710857Y-10221643D01*
X14325143Y-10150214D02*
X14268000Y-10150214D01*
X14239428Y-10164500D01*
X14225143Y-10178786D01*
X14196571Y-10221643D01*
X14182286Y-10278786D01*
X14182286Y-10393072D01*
X14196571Y-10421643D01*
X14210857Y-10435929D01*
X14239428Y-10450214D01*
X14296571Y-10450214D01*
X14325143Y-10435929D01*
X14339428Y-10421643D01*
X14353714Y-10393072D01*
X14353714Y-10321643D01*
X14339428Y-10293072D01*
X14325143Y-10278786D01*
X14296571Y-10264500D01*
X14239428Y-10264500D01*
X14210857Y-10278786D01*
X14196571Y-10293072D01*
X14182286Y-10321643D01*
X14696571Y-10435929D02*
X14725143Y-10450214D01*
X14782286Y-10450214D01*
X14810857Y-10435929D01*
X14825143Y-10407357D01*
X14825143Y-10393072D01*
X14810857Y-10364500D01*
X14782286Y-10350214D01*
X14739428Y-10350214D01*
X14710857Y-10335929D01*
X14696571Y-10307357D01*
X14696571Y-10293072D01*
X14710857Y-10264500D01*
X14739428Y-10250214D01*
X14782286Y-10250214D01*
X14810857Y-10264500D01*
X14996571Y-10450214D02*
X14968000Y-10435929D01*
X14953714Y-10407357D01*
X14953714Y-10150214D01*
X15153714Y-10450214D02*
X15125143Y-10435929D01*
X15110857Y-10421643D01*
X15096571Y-10393072D01*
X15096571Y-10307357D01*
X15110857Y-10278786D01*
X15125143Y-10264500D01*
X15153714Y-10250214D01*
X15196571Y-10250214D01*
X15225143Y-10264500D01*
X15239428Y-10278786D01*
X15253714Y-10307357D01*
X15253714Y-10393072D01*
X15239428Y-10421643D01*
X15225143Y-10435929D01*
X15196571Y-10450214D01*
X15153714Y-10450214D01*
X15339428Y-10250214D02*
X15453714Y-10250214D01*
X15382286Y-10150214D02*
X15382286Y-10407357D01*
X15396571Y-10435929D01*
X15425143Y-10450214D01*
X15453714Y-10450214D01*
X15539428Y-10435929D02*
X15568000Y-10450214D01*
X15625143Y-10450214D01*
X15653714Y-10435929D01*
X15668000Y-10407357D01*
X15668000Y-10393072D01*
X15653714Y-10364500D01*
X15625143Y-10350214D01*
X15582286Y-10350214D01*
X15553714Y-10335929D01*
X15539428Y-10307357D01*
X15539428Y-10293072D01*
X15553714Y-10264500D01*
X15582286Y-10250214D01*
X15625143Y-10250214D01*
X15653714Y-10264500D01*
X15768000Y-10564500D02*
X15782286Y-10550214D01*
X15810857Y-10507357D01*
X15825143Y-10478786D01*
X15839428Y-10435929D01*
X15853714Y-10364500D01*
X15853714Y-10307357D01*
X15839428Y-10235929D01*
X15825143Y-10193072D01*
X15810857Y-10164500D01*
X15782286Y-10121643D01*
X15768000Y-10107357D01*
X6808000Y-10665500D02*
X6808000Y-10755500D01*
X6763000Y-10710500D02*
X6853000Y-10710500D01*
X7196571Y-10546214D02*
X7225143Y-10546214D01*
X7253714Y-10560500D01*
X7268000Y-10574786D01*
X7282286Y-10603357D01*
X7296571Y-10660500D01*
X7296571Y-10731929D01*
X7282286Y-10789072D01*
X7268000Y-10817643D01*
X7253714Y-10831929D01*
X7225143Y-10846214D01*
X7196571Y-10846214D01*
X7168000Y-10831929D01*
X7153714Y-10817643D01*
X7139428Y-10789072D01*
X7125143Y-10731929D01*
X7125143Y-10660500D01*
X7139428Y-10603357D01*
X7153714Y-10574786D01*
X7168000Y-10560500D01*
X7196571Y-10546214D01*
X7425143Y-10817643D02*
X7439428Y-10831929D01*
X7425143Y-10846214D01*
X7410857Y-10831929D01*
X7425143Y-10817643D01*
X7425143Y-10846214D01*
X7582286Y-10846214D02*
X7639428Y-10846214D01*
X7668000Y-10831929D01*
X7682286Y-10817643D01*
X7710857Y-10774786D01*
X7725143Y-10717643D01*
X7725143Y-10603357D01*
X7710857Y-10574786D01*
X7696571Y-10560500D01*
X7668000Y-10546214D01*
X7610857Y-10546214D01*
X7582286Y-10560500D01*
X7568000Y-10574786D01*
X7553714Y-10603357D01*
X7553714Y-10674786D01*
X7568000Y-10703357D01*
X7582286Y-10717643D01*
X7610857Y-10731929D01*
X7668000Y-10731929D01*
X7696571Y-10717643D01*
X7710857Y-10703357D01*
X7725143Y-10674786D01*
X7910857Y-10546214D02*
X7939428Y-10546214D01*
X7968000Y-10560500D01*
X7982286Y-10574786D01*
X7996571Y-10603357D01*
X8010857Y-10660500D01*
X8010857Y-10731929D01*
X7996571Y-10789072D01*
X7982286Y-10817643D01*
X7968000Y-10831929D01*
X7939428Y-10846214D01*
X7910857Y-10846214D01*
X7882286Y-10831929D01*
X7868000Y-10817643D01*
X7853714Y-10789072D01*
X7839428Y-10731929D01*
X7839428Y-10660500D01*
X7853714Y-10603357D01*
X7868000Y-10574786D01*
X7882286Y-10560500D01*
X7910857Y-10546214D01*
X8139428Y-10846214D02*
X8139428Y-10646214D01*
X8139428Y-10674786D02*
X8153714Y-10660500D01*
X8182286Y-10646214D01*
X8225143Y-10646214D01*
X8253714Y-10660500D01*
X8268000Y-10689072D01*
X8268000Y-10846214D01*
X8268000Y-10689072D02*
X8282286Y-10660500D01*
X8310857Y-10646214D01*
X8353714Y-10646214D01*
X8382286Y-10660500D01*
X8396571Y-10689072D01*
X8396571Y-10846214D01*
X8539428Y-10846214D02*
X8539428Y-10646214D01*
X8539428Y-10674786D02*
X8553714Y-10660500D01*
X8582286Y-10646214D01*
X8625143Y-10646214D01*
X8653714Y-10660500D01*
X8668000Y-10689072D01*
X8668000Y-10846214D01*
X8668000Y-10689072D02*
X8682286Y-10660500D01*
X8710857Y-10646214D01*
X8753714Y-10646214D01*
X8782286Y-10660500D01*
X8796571Y-10689072D01*
X8796571Y-10846214D01*
X9382286Y-10531929D02*
X9125143Y-10917643D01*
X9768000Y-10546214D02*
X9796571Y-10546214D01*
X9825143Y-10560500D01*
X9839428Y-10574786D01*
X9853714Y-10603357D01*
X9868000Y-10660500D01*
X9868000Y-10731929D01*
X9853714Y-10789072D01*
X9839428Y-10817643D01*
X9825143Y-10831929D01*
X9796571Y-10846214D01*
X9768000Y-10846214D01*
X9739428Y-10831929D01*
X9725143Y-10817643D01*
X9710857Y-10789072D01*
X9696571Y-10731929D01*
X9696571Y-10660500D01*
X9710857Y-10603357D01*
X9725143Y-10574786D01*
X9739428Y-10560500D01*
X9768000Y-10546214D01*
X9996571Y-10817643D02*
X10010857Y-10831929D01*
X9996571Y-10846214D01*
X9982286Y-10831929D01*
X9996571Y-10817643D01*
X9996571Y-10846214D01*
X10196571Y-10546214D02*
X10225143Y-10546214D01*
X10253714Y-10560500D01*
X10268000Y-10574786D01*
X10282286Y-10603357D01*
X10296571Y-10660500D01*
X10296571Y-10731929D01*
X10282286Y-10789072D01*
X10268000Y-10817643D01*
X10253714Y-10831929D01*
X10225143Y-10846214D01*
X10196571Y-10846214D01*
X10168000Y-10831929D01*
X10153714Y-10817643D01*
X10139428Y-10789072D01*
X10125143Y-10731929D01*
X10125143Y-10660500D01*
X10139428Y-10603357D01*
X10153714Y-10574786D01*
X10168000Y-10560500D01*
X10196571Y-10546214D01*
X10396571Y-10546214D02*
X10582286Y-10546214D01*
X10482286Y-10660500D01*
X10525143Y-10660500D01*
X10553714Y-10674786D01*
X10568000Y-10689072D01*
X10582286Y-10717643D01*
X10582286Y-10789072D01*
X10568000Y-10817643D01*
X10553714Y-10831929D01*
X10525143Y-10846214D01*
X10439428Y-10846214D01*
X10410857Y-10831929D01*
X10396571Y-10817643D01*
X10853714Y-10546214D02*
X10710857Y-10546214D01*
X10696571Y-10689072D01*
X10710857Y-10674786D01*
X10739428Y-10660500D01*
X10810857Y-10660500D01*
X10839428Y-10674786D01*
X10853714Y-10689072D01*
X10868000Y-10717643D01*
X10868000Y-10789072D01*
X10853714Y-10817643D01*
X10839428Y-10831929D01*
X10810857Y-10846214D01*
X10739428Y-10846214D01*
X10710857Y-10831929D01*
X10696571Y-10817643D01*
X10982286Y-10546214D02*
X10982286Y-10603357D01*
X11096571Y-10546214D02*
X11096571Y-10603357D01*
X11539428Y-10960500D02*
X11525143Y-10946214D01*
X11496571Y-10903357D01*
X11482286Y-10874786D01*
X11468000Y-10831929D01*
X11453714Y-10760500D01*
X11453714Y-10703357D01*
X11468000Y-10631929D01*
X11482286Y-10589072D01*
X11496571Y-10560500D01*
X11525143Y-10517643D01*
X11539428Y-10503357D01*
X11782286Y-10646214D02*
X11782286Y-10846214D01*
X11710857Y-10531929D02*
X11639428Y-10746214D01*
X11825143Y-10746214D01*
X12168000Y-10846214D02*
X12168000Y-10546214D01*
X12296571Y-10846214D02*
X12296571Y-10689072D01*
X12282286Y-10660500D01*
X12253714Y-10646214D01*
X12210857Y-10646214D01*
X12182286Y-10660500D01*
X12168000Y-10674786D01*
X12482286Y-10846214D02*
X12453714Y-10831929D01*
X12439428Y-10817643D01*
X12425143Y-10789072D01*
X12425143Y-10703357D01*
X12439428Y-10674786D01*
X12453714Y-10660500D01*
X12482286Y-10646214D01*
X12525143Y-10646214D01*
X12553714Y-10660500D01*
X12568000Y-10674786D01*
X12582286Y-10703357D01*
X12582286Y-10789072D01*
X12568000Y-10817643D01*
X12553714Y-10831929D01*
X12525143Y-10846214D01*
X12482286Y-10846214D01*
X12753714Y-10846214D02*
X12725143Y-10831929D01*
X12710857Y-10803357D01*
X12710857Y-10546214D01*
X12982286Y-10831929D02*
X12953714Y-10846214D01*
X12896571Y-10846214D01*
X12868000Y-10831929D01*
X12853714Y-10803357D01*
X12853714Y-10689072D01*
X12868000Y-10660500D01*
X12896571Y-10646214D01*
X12953714Y-10646214D01*
X12982286Y-10660500D01*
X12996571Y-10689072D01*
X12996571Y-10717643D01*
X12853714Y-10746214D01*
X13110857Y-10831929D02*
X13139428Y-10846214D01*
X13196571Y-10846214D01*
X13225143Y-10831929D01*
X13239428Y-10803357D01*
X13239428Y-10789072D01*
X13225143Y-10760500D01*
X13196571Y-10746214D01*
X13153714Y-10746214D01*
X13125143Y-10731929D01*
X13110857Y-10703357D01*
X13110857Y-10689072D01*
X13125143Y-10660500D01*
X13153714Y-10646214D01*
X13196571Y-10646214D01*
X13225143Y-10660500D01*
X13339428Y-10960500D02*
X13353714Y-10946214D01*
X13382286Y-10903357D01*
X13396571Y-10874786D01*
X13410857Y-10831929D01*
X13425143Y-10760500D01*
X13425143Y-10703357D01*
X13410857Y-10631929D01*
X13396571Y-10589072D01*
X13382286Y-10560500D01*
X13353714Y-10517643D01*
X13339428Y-10503357D01*
X6839088Y-11140088D02*
X6839088Y-11072912D01*
X6771912Y-11072912D01*
X6771912Y-11140088D01*
X6839088Y-11140088D01*
X7196571Y-10942214D02*
X7225143Y-10942214D01*
X7253714Y-10956500D01*
X7268000Y-10970786D01*
X7282286Y-10999357D01*
X7296571Y-11056500D01*
X7296571Y-11127929D01*
X7282286Y-11185071D01*
X7268000Y-11213643D01*
X7253714Y-11227929D01*
X7225143Y-11242214D01*
X7196571Y-11242214D01*
X7168000Y-11227929D01*
X7153714Y-11213643D01*
X7139428Y-11185071D01*
X7125143Y-11127929D01*
X7125143Y-11056500D01*
X7139428Y-10999357D01*
X7153714Y-10970786D01*
X7168000Y-10956500D01*
X7196571Y-10942214D01*
X7425143Y-11213643D02*
X7439428Y-11227929D01*
X7425143Y-11242214D01*
X7410857Y-11227929D01*
X7425143Y-11213643D01*
X7425143Y-11242214D01*
X7582286Y-11242214D02*
X7639428Y-11242214D01*
X7668000Y-11227929D01*
X7682286Y-11213643D01*
X7710857Y-11170786D01*
X7725143Y-11113643D01*
X7725143Y-10999357D01*
X7710857Y-10970786D01*
X7696571Y-10956500D01*
X7668000Y-10942214D01*
X7610857Y-10942214D01*
X7582286Y-10956500D01*
X7568000Y-10970786D01*
X7553714Y-10999357D01*
X7553714Y-11070786D01*
X7568000Y-11099357D01*
X7582286Y-11113643D01*
X7610857Y-11127929D01*
X7668000Y-11127929D01*
X7696571Y-11113643D01*
X7710857Y-11099357D01*
X7725143Y-11070786D01*
X7996571Y-10942214D02*
X7853714Y-10942214D01*
X7839428Y-11085072D01*
X7853714Y-11070786D01*
X7882286Y-11056500D01*
X7953714Y-11056500D01*
X7982286Y-11070786D01*
X7996571Y-11085072D01*
X8010857Y-11113643D01*
X8010857Y-11185071D01*
X7996571Y-11213643D01*
X7982286Y-11227929D01*
X7953714Y-11242214D01*
X7882286Y-11242214D01*
X7853714Y-11227929D01*
X7839428Y-11213643D01*
X8139428Y-11242214D02*
X8139428Y-11042214D01*
X8139428Y-11070786D02*
X8153714Y-11056500D01*
X8182286Y-11042214D01*
X8225143Y-11042214D01*
X8253714Y-11056500D01*
X8268000Y-11085072D01*
X8268000Y-11242214D01*
X8268000Y-11085072D02*
X8282286Y-11056500D01*
X8310857Y-11042214D01*
X8353714Y-11042214D01*
X8382286Y-11056500D01*
X8396571Y-11085072D01*
X8396571Y-11242214D01*
X8539428Y-11242214D02*
X8539428Y-11042214D01*
X8539428Y-11070786D02*
X8553714Y-11056500D01*
X8582286Y-11042214D01*
X8625143Y-11042214D01*
X8653714Y-11056500D01*
X8668000Y-11085072D01*
X8668000Y-11242214D01*
X8668000Y-11085072D02*
X8682286Y-11056500D01*
X8710857Y-11042214D01*
X8753714Y-11042214D01*
X8782286Y-11056500D01*
X8796571Y-11085072D01*
X8796571Y-11242214D01*
X9382286Y-10927929D02*
X9125143Y-11313643D01*
X9768000Y-10942214D02*
X9796571Y-10942214D01*
X9825143Y-10956500D01*
X9839428Y-10970786D01*
X9853714Y-10999357D01*
X9868000Y-11056500D01*
X9868000Y-11127929D01*
X9853714Y-11185071D01*
X9839428Y-11213643D01*
X9825143Y-11227929D01*
X9796571Y-11242214D01*
X9768000Y-11242214D01*
X9739428Y-11227929D01*
X9725143Y-11213643D01*
X9710857Y-11185071D01*
X9696571Y-11127929D01*
X9696571Y-11056500D01*
X9710857Y-10999357D01*
X9725143Y-10970786D01*
X9739428Y-10956500D01*
X9768000Y-10942214D01*
X9996571Y-11213643D02*
X10010857Y-11227929D01*
X9996571Y-11242214D01*
X9982286Y-11227929D01*
X9996571Y-11213643D01*
X9996571Y-11242214D01*
X10196571Y-10942214D02*
X10225143Y-10942214D01*
X10253714Y-10956500D01*
X10268000Y-10970786D01*
X10282286Y-10999357D01*
X10296571Y-11056500D01*
X10296571Y-11127929D01*
X10282286Y-11185071D01*
X10268000Y-11213643D01*
X10253714Y-11227929D01*
X10225143Y-11242214D01*
X10196571Y-11242214D01*
X10168000Y-11227929D01*
X10153714Y-11213643D01*
X10139428Y-11185071D01*
X10125143Y-11127929D01*
X10125143Y-11056500D01*
X10139428Y-10999357D01*
X10153714Y-10970786D01*
X10168000Y-10956500D01*
X10196571Y-10942214D01*
X10396571Y-10942214D02*
X10582286Y-10942214D01*
X10482286Y-11056500D01*
X10525143Y-11056500D01*
X10553714Y-11070786D01*
X10568000Y-11085072D01*
X10582286Y-11113643D01*
X10582286Y-11185071D01*
X10568000Y-11213643D01*
X10553714Y-11227929D01*
X10525143Y-11242214D01*
X10439428Y-11242214D01*
X10410857Y-11227929D01*
X10396571Y-11213643D01*
X10682286Y-10942214D02*
X10882286Y-10942214D01*
X10753714Y-11242214D01*
X10982286Y-10942214D02*
X10982286Y-10999357D01*
X11096571Y-10942214D02*
X11096571Y-10999357D01*
X11539428Y-11356500D02*
X11525143Y-11342214D01*
X11496571Y-11299357D01*
X11482286Y-11270786D01*
X11468000Y-11227929D01*
X11453714Y-11156500D01*
X11453714Y-11099357D01*
X11468000Y-11027929D01*
X11482286Y-10985072D01*
X11496571Y-10956500D01*
X11525143Y-10913643D01*
X11539428Y-10899357D01*
X11625143Y-10942214D02*
X11810857Y-10942214D01*
X11710857Y-11056500D01*
X11753714Y-11056500D01*
X11782286Y-11070786D01*
X11796571Y-11085072D01*
X11810857Y-11113643D01*
X11810857Y-11185071D01*
X11796571Y-11213643D01*
X11782286Y-11227929D01*
X11753714Y-11242214D01*
X11668000Y-11242214D01*
X11639428Y-11227929D01*
X11625143Y-11213643D01*
X12168000Y-11242214D02*
X12168000Y-10942214D01*
X12296571Y-11242214D02*
X12296571Y-11085072D01*
X12282286Y-11056500D01*
X12253714Y-11042214D01*
X12210857Y-11042214D01*
X12182286Y-11056500D01*
X12168000Y-11070786D01*
X12482286Y-11242214D02*
X12453714Y-11227929D01*
X12439428Y-11213643D01*
X12425143Y-11185071D01*
X12425143Y-11099357D01*
X12439428Y-11070786D01*
X12453714Y-11056500D01*
X12482286Y-11042214D01*
X12525143Y-11042214D01*
X12553714Y-11056500D01*
X12568000Y-11070786D01*
X12582286Y-11099357D01*
X12582286Y-11185071D01*
X12568000Y-11213643D01*
X12553714Y-11227929D01*
X12525143Y-11242214D01*
X12482286Y-11242214D01*
X12753714Y-11242214D02*
X12725143Y-11227929D01*
X12710857Y-11199357D01*
X12710857Y-10942214D01*
X12982286Y-11227929D02*
X12953714Y-11242214D01*
X12896571Y-11242214D01*
X12868000Y-11227929D01*
X12853714Y-11199357D01*
X12853714Y-11085072D01*
X12868000Y-11056500D01*
X12896571Y-11042214D01*
X12953714Y-11042214D01*
X12982286Y-11056500D01*
X12996571Y-11085072D01*
X12996571Y-11113643D01*
X12853714Y-11142214D01*
X13110857Y-11227929D02*
X13139428Y-11242214D01*
X13196571Y-11242214D01*
X13225143Y-11227929D01*
X13239428Y-11199357D01*
X13239428Y-11185071D01*
X13225143Y-11156500D01*
X13196571Y-11142214D01*
X13153714Y-11142214D01*
X13125143Y-11127929D01*
X13110857Y-11099357D01*
X13110857Y-11085072D01*
X13125143Y-11056500D01*
X13153714Y-11042214D01*
X13196571Y-11042214D01*
X13225143Y-11056500D01*
X13339428Y-11356500D02*
X13353714Y-11342214D01*
X13382286Y-11299357D01*
X13396571Y-11270786D01*
X13410857Y-11227929D01*
X13425143Y-11156500D01*
X13425143Y-11099357D01*
X13410857Y-11027929D01*
X13396571Y-10985072D01*
X13382286Y-10956500D01*
X13353714Y-10913643D01*
X13339428Y-10899357D01*
X6803000Y-11552500D02*
X6853000Y-11502500D01*
X6803000Y-11452500D01*
X6753000Y-11502500D01*
X6803000Y-11552500D01*
X7296571Y-11638214D02*
X7125143Y-11638214D01*
X7210857Y-11638214D02*
X7210857Y-11338214D01*
X7182286Y-11381071D01*
X7153714Y-11409643D01*
X7125143Y-11423929D01*
X7425143Y-11609643D02*
X7439428Y-11623929D01*
X7425143Y-11638214D01*
X7410857Y-11623929D01*
X7425143Y-11609643D01*
X7425143Y-11638214D01*
X7625143Y-11338214D02*
X7653714Y-11338214D01*
X7682286Y-11352500D01*
X7696571Y-11366786D01*
X7710857Y-11395357D01*
X7725143Y-11452500D01*
X7725143Y-11523929D01*
X7710857Y-11581071D01*
X7696571Y-11609643D01*
X7682286Y-11623929D01*
X7653714Y-11638214D01*
X7625143Y-11638214D01*
X7596571Y-11623929D01*
X7582286Y-11609643D01*
X7568000Y-11581071D01*
X7553714Y-11523929D01*
X7553714Y-11452500D01*
X7568000Y-11395357D01*
X7582286Y-11366786D01*
X7596571Y-11352500D01*
X7625143Y-11338214D01*
X7910857Y-11338214D02*
X7939428Y-11338214D01*
X7968000Y-11352500D01*
X7982286Y-11366786D01*
X7996571Y-11395357D01*
X8010857Y-11452500D01*
X8010857Y-11523929D01*
X7996571Y-11581071D01*
X7982286Y-11609643D01*
X7968000Y-11623929D01*
X7939428Y-11638214D01*
X7910857Y-11638214D01*
X7882286Y-11623929D01*
X7868000Y-11609643D01*
X7853714Y-11581071D01*
X7839428Y-11523929D01*
X7839428Y-11452500D01*
X7853714Y-11395357D01*
X7868000Y-11366786D01*
X7882286Y-11352500D01*
X7910857Y-11338214D01*
X8139428Y-11638214D02*
X8139428Y-11438214D01*
X8139428Y-11466786D02*
X8153714Y-11452500D01*
X8182286Y-11438214D01*
X8225143Y-11438214D01*
X8253714Y-11452500D01*
X8268000Y-11481071D01*
X8268000Y-11638214D01*
X8268000Y-11481071D02*
X8282286Y-11452500D01*
X8310857Y-11438214D01*
X8353714Y-11438214D01*
X8382286Y-11452500D01*
X8396571Y-11481071D01*
X8396571Y-11638214D01*
X8539428Y-11638214D02*
X8539428Y-11438214D01*
X8539428Y-11466786D02*
X8553714Y-11452500D01*
X8582286Y-11438214D01*
X8625143Y-11438214D01*
X8653714Y-11452500D01*
X8668000Y-11481071D01*
X8668000Y-11638214D01*
X8668000Y-11481071D02*
X8682286Y-11452500D01*
X8710857Y-11438214D01*
X8753714Y-11438214D01*
X8782286Y-11452500D01*
X8796571Y-11481071D01*
X8796571Y-11638214D01*
X9382286Y-11323929D02*
X9125143Y-11709643D01*
X9768000Y-11338214D02*
X9796571Y-11338214D01*
X9825143Y-11352500D01*
X9839428Y-11366786D01*
X9853714Y-11395357D01*
X9868000Y-11452500D01*
X9868000Y-11523929D01*
X9853714Y-11581071D01*
X9839428Y-11609643D01*
X9825143Y-11623929D01*
X9796571Y-11638214D01*
X9768000Y-11638214D01*
X9739428Y-11623929D01*
X9725143Y-11609643D01*
X9710857Y-11581071D01*
X9696571Y-11523929D01*
X9696571Y-11452500D01*
X9710857Y-11395357D01*
X9725143Y-11366786D01*
X9739428Y-11352500D01*
X9768000Y-11338214D01*
X9996571Y-11609643D02*
X10010857Y-11623929D01*
X9996571Y-11638214D01*
X9982286Y-11623929D01*
X9996571Y-11609643D01*
X9996571Y-11638214D01*
X10196571Y-11338214D02*
X10225143Y-11338214D01*
X10253714Y-11352500D01*
X10268000Y-11366786D01*
X10282286Y-11395357D01*
X10296571Y-11452500D01*
X10296571Y-11523929D01*
X10282286Y-11581071D01*
X10268000Y-11609643D01*
X10253714Y-11623929D01*
X10225143Y-11638214D01*
X10196571Y-11638214D01*
X10168000Y-11623929D01*
X10153714Y-11609643D01*
X10139428Y-11581071D01*
X10125143Y-11523929D01*
X10125143Y-11452500D01*
X10139428Y-11395357D01*
X10153714Y-11366786D01*
X10168000Y-11352500D01*
X10196571Y-11338214D01*
X10396571Y-11338214D02*
X10582286Y-11338214D01*
X10482286Y-11452500D01*
X10525143Y-11452500D01*
X10553714Y-11466786D01*
X10568000Y-11481071D01*
X10582286Y-11509643D01*
X10582286Y-11581071D01*
X10568000Y-11609643D01*
X10553714Y-11623929D01*
X10525143Y-11638214D01*
X10439428Y-11638214D01*
X10410857Y-11623929D01*
X10396571Y-11609643D01*
X10725143Y-11638214D02*
X10782286Y-11638214D01*
X10810857Y-11623929D01*
X10825143Y-11609643D01*
X10853714Y-11566786D01*
X10868000Y-11509643D01*
X10868000Y-11395357D01*
X10853714Y-11366786D01*
X10839428Y-11352500D01*
X10810857Y-11338214D01*
X10753714Y-11338214D01*
X10725143Y-11352500D01*
X10710857Y-11366786D01*
X10696571Y-11395357D01*
X10696571Y-11466786D01*
X10710857Y-11495357D01*
X10725143Y-11509643D01*
X10753714Y-11523929D01*
X10810857Y-11523929D01*
X10839428Y-11509643D01*
X10853714Y-11495357D01*
X10868000Y-11466786D01*
X10982286Y-11338214D02*
X10982286Y-11395357D01*
X11096571Y-11338214D02*
X11096571Y-11395357D01*
X11539428Y-11752500D02*
X11525143Y-11738214D01*
X11496571Y-11695357D01*
X11482286Y-11666786D01*
X11468000Y-11623929D01*
X11453714Y-11552500D01*
X11453714Y-11495357D01*
X11468000Y-11423929D01*
X11482286Y-11381071D01*
X11496571Y-11352500D01*
X11525143Y-11309643D01*
X11539428Y-11295357D01*
X11782286Y-11438214D02*
X11782286Y-11638214D01*
X11710857Y-11323929D02*
X11639428Y-11538214D01*
X11825143Y-11538214D01*
X11996571Y-11338214D02*
X12025143Y-11338214D01*
X12053714Y-11352500D01*
X12068000Y-11366786D01*
X12082286Y-11395357D01*
X12096571Y-11452500D01*
X12096571Y-11523929D01*
X12082286Y-11581071D01*
X12068000Y-11609643D01*
X12053714Y-11623929D01*
X12025143Y-11638214D01*
X11996571Y-11638214D01*
X11968000Y-11623929D01*
X11953714Y-11609643D01*
X11939428Y-11581071D01*
X11925143Y-11523929D01*
X11925143Y-11452500D01*
X11939428Y-11395357D01*
X11953714Y-11366786D01*
X11968000Y-11352500D01*
X11996571Y-11338214D01*
X12453714Y-11638214D02*
X12453714Y-11338214D01*
X12582286Y-11638214D02*
X12582286Y-11481071D01*
X12568000Y-11452500D01*
X12539428Y-11438214D01*
X12496571Y-11438214D01*
X12468000Y-11452500D01*
X12453714Y-11466786D01*
X12768000Y-11638214D02*
X12739428Y-11623929D01*
X12725143Y-11609643D01*
X12710857Y-11581071D01*
X12710857Y-11495357D01*
X12725143Y-11466786D01*
X12739428Y-11452500D01*
X12768000Y-11438214D01*
X12810857Y-11438214D01*
X12839428Y-11452500D01*
X12853714Y-11466786D01*
X12868000Y-11495357D01*
X12868000Y-11581071D01*
X12853714Y-11609643D01*
X12839428Y-11623929D01*
X12810857Y-11638214D01*
X12768000Y-11638214D01*
X13039428Y-11638214D02*
X13010857Y-11623929D01*
X12996571Y-11595357D01*
X12996571Y-11338214D01*
X13268000Y-11623929D02*
X13239428Y-11638214D01*
X13182286Y-11638214D01*
X13153714Y-11623929D01*
X13139428Y-11595357D01*
X13139428Y-11481071D01*
X13153714Y-11452500D01*
X13182286Y-11438214D01*
X13239428Y-11438214D01*
X13268000Y-11452500D01*
X13282286Y-11481071D01*
X13282286Y-11509643D01*
X13139428Y-11538214D01*
X13396571Y-11623929D02*
X13425143Y-11638214D01*
X13482286Y-11638214D01*
X13510857Y-11623929D01*
X13525143Y-11595357D01*
X13525143Y-11581071D01*
X13510857Y-11552500D01*
X13482286Y-11538214D01*
X13439428Y-11538214D01*
X13410857Y-11523929D01*
X13396571Y-11495357D01*
X13396571Y-11481071D01*
X13410857Y-11452500D01*
X13439428Y-11438214D01*
X13482286Y-11438214D01*
X13510857Y-11452500D01*
X13625143Y-11752500D02*
X13639428Y-11738214D01*
X13668000Y-11695357D01*
X13682286Y-11666786D01*
X13696571Y-11623929D01*
X13710857Y-11552500D01*
X13710857Y-11495357D01*
X13696571Y-11423929D01*
X13682286Y-11381071D01*
X13668000Y-11352500D01*
X13639428Y-11309643D01*
X13625143Y-11295357D01*
M02*
