%TF.GenerationSoftware,KiCad,Pcbnew,5.1.9+dfsg1-1~bpo10+1*%
%TF.CreationDate,2022-02-06T15:46:01+08:00*%
%TF.ProjectId,euro2breadboard,6575726f-3262-4726-9561-64626f617264,rev?*%
%TF.SameCoordinates,Original*%
%TF.FileFunction,Legend,Top*%
%TF.FilePolarity,Positive*%
%FSLAX46Y46*%
G04 Gerber Fmt 4.6, Leading zero omitted, Abs format (unit mm)*
G04 Created by KiCad (PCBNEW 5.1.9+dfsg1-1~bpo10+1) date 2022-02-06 15:46:01*
%MOMM*%
%LPD*%
G01*
G04 APERTURE LIST*
%ADD10C,0.150000*%
%ADD11C,0.120000*%
G04 APERTURE END LIST*
D10*
X68286380Y-86677380D02*
X68286380Y-86486904D01*
X68334000Y-86391666D01*
X68429238Y-86296428D01*
X68619714Y-86248809D01*
X68953047Y-86248809D01*
X69143523Y-86296428D01*
X69238761Y-86391666D01*
X69286380Y-86486904D01*
X69286380Y-86677380D01*
X69238761Y-86772619D01*
X69143523Y-86867857D01*
X68953047Y-86915476D01*
X68619714Y-86915476D01*
X68429238Y-86867857D01*
X68334000Y-86772619D01*
X68286380Y-86677380D01*
X68762571Y-85486904D02*
X68762571Y-85820238D01*
X69286380Y-85820238D02*
X68286380Y-85820238D01*
X68286380Y-85344047D01*
X68762571Y-84629761D02*
X68762571Y-84963095D01*
X69286380Y-84963095D02*
X68286380Y-84963095D01*
X68286380Y-84486904D01*
X83272380Y-79994047D02*
X83272380Y-79803571D01*
X83320000Y-79708333D01*
X83415238Y-79613095D01*
X83605714Y-79565476D01*
X83939047Y-79565476D01*
X84129523Y-79613095D01*
X84224761Y-79708333D01*
X84272380Y-79803571D01*
X84272380Y-79994047D01*
X84224761Y-80089285D01*
X84129523Y-80184523D01*
X83939047Y-80232142D01*
X83605714Y-80232142D01*
X83415238Y-80184523D01*
X83320000Y-80089285D01*
X83272380Y-79994047D01*
X84272380Y-79136904D02*
X83272380Y-79136904D01*
X84272380Y-78565476D01*
X83272380Y-78565476D01*
X69279285Y-90742238D02*
X69174523Y-90794619D01*
X68965000Y-90794619D01*
X68860238Y-90742238D01*
X68807857Y-90637476D01*
X68807857Y-90218428D01*
X68860238Y-90113666D01*
X68965000Y-90061285D01*
X69174523Y-90061285D01*
X69279285Y-90113666D01*
X69331666Y-90218428D01*
X69331666Y-90323190D01*
X68807857Y-90427952D01*
X70274523Y-90061285D02*
X70274523Y-90794619D01*
X69803095Y-90061285D02*
X69803095Y-90637476D01*
X69855476Y-90742238D01*
X69960238Y-90794619D01*
X70117380Y-90794619D01*
X70222142Y-90742238D01*
X70274523Y-90689857D01*
X70798333Y-90794619D02*
X70798333Y-90061285D01*
X70798333Y-90270809D02*
X70850714Y-90166047D01*
X70903095Y-90113666D01*
X71007857Y-90061285D01*
X71112619Y-90061285D01*
X71636428Y-90794619D02*
X71531666Y-90742238D01*
X71479285Y-90689857D01*
X71426904Y-90585095D01*
X71426904Y-90270809D01*
X71479285Y-90166047D01*
X71531666Y-90113666D01*
X71636428Y-90061285D01*
X71793571Y-90061285D01*
X71898333Y-90113666D01*
X71950714Y-90166047D01*
X72003095Y-90270809D01*
X72003095Y-90585095D01*
X71950714Y-90689857D01*
X71898333Y-90742238D01*
X71793571Y-90794619D01*
X71636428Y-90794619D01*
X72422142Y-89799380D02*
X72474523Y-89747000D01*
X72579285Y-89694619D01*
X72841190Y-89694619D01*
X72945952Y-89747000D01*
X72998333Y-89799380D01*
X73050714Y-89904142D01*
X73050714Y-90008904D01*
X72998333Y-90166047D01*
X72369761Y-90794619D01*
X73050714Y-90794619D01*
X73522142Y-90794619D02*
X73522142Y-89694619D01*
X73522142Y-90113666D02*
X73626904Y-90061285D01*
X73836428Y-90061285D01*
X73941190Y-90113666D01*
X73993571Y-90166047D01*
X74045952Y-90270809D01*
X74045952Y-90585095D01*
X73993571Y-90689857D01*
X73941190Y-90742238D01*
X73836428Y-90794619D01*
X73626904Y-90794619D01*
X73522142Y-90742238D01*
X74517380Y-90794619D02*
X74517380Y-90061285D01*
X74517380Y-90270809D02*
X74569761Y-90166047D01*
X74622142Y-90113666D01*
X74726904Y-90061285D01*
X74831666Y-90061285D01*
X75617380Y-90742238D02*
X75512619Y-90794619D01*
X75303095Y-90794619D01*
X75198333Y-90742238D01*
X75145952Y-90637476D01*
X75145952Y-90218428D01*
X75198333Y-90113666D01*
X75303095Y-90061285D01*
X75512619Y-90061285D01*
X75617380Y-90113666D01*
X75669761Y-90218428D01*
X75669761Y-90323190D01*
X75145952Y-90427952D01*
X76612619Y-90794619D02*
X76612619Y-90218428D01*
X76560238Y-90113666D01*
X76455476Y-90061285D01*
X76245952Y-90061285D01*
X76141190Y-90113666D01*
X76612619Y-90742238D02*
X76507857Y-90794619D01*
X76245952Y-90794619D01*
X76141190Y-90742238D01*
X76088809Y-90637476D01*
X76088809Y-90532714D01*
X76141190Y-90427952D01*
X76245952Y-90375571D01*
X76507857Y-90375571D01*
X76612619Y-90323190D01*
X77607857Y-90794619D02*
X77607857Y-89694619D01*
X77607857Y-90742238D02*
X77503095Y-90794619D01*
X77293571Y-90794619D01*
X77188809Y-90742238D01*
X77136428Y-90689857D01*
X77084047Y-90585095D01*
X77084047Y-90270809D01*
X77136428Y-90166047D01*
X77188809Y-90113666D01*
X77293571Y-90061285D01*
X77503095Y-90061285D01*
X77607857Y-90113666D01*
X78131666Y-90794619D02*
X78131666Y-89694619D01*
X78131666Y-90113666D02*
X78236428Y-90061285D01*
X78445952Y-90061285D01*
X78550714Y-90113666D01*
X78603095Y-90166047D01*
X78655476Y-90270809D01*
X78655476Y-90585095D01*
X78603095Y-90689857D01*
X78550714Y-90742238D01*
X78445952Y-90794619D01*
X78236428Y-90794619D01*
X78131666Y-90742238D01*
X79284047Y-90794619D02*
X79179285Y-90742238D01*
X79126904Y-90689857D01*
X79074523Y-90585095D01*
X79074523Y-90270809D01*
X79126904Y-90166047D01*
X79179285Y-90113666D01*
X79284047Y-90061285D01*
X79441190Y-90061285D01*
X79545952Y-90113666D01*
X79598333Y-90166047D01*
X79650714Y-90270809D01*
X79650714Y-90585095D01*
X79598333Y-90689857D01*
X79545952Y-90742238D01*
X79441190Y-90794619D01*
X79284047Y-90794619D01*
X80593571Y-90794619D02*
X80593571Y-90218428D01*
X80541190Y-90113666D01*
X80436428Y-90061285D01*
X80226904Y-90061285D01*
X80122142Y-90113666D01*
X80593571Y-90742238D02*
X80488809Y-90794619D01*
X80226904Y-90794619D01*
X80122142Y-90742238D01*
X80069761Y-90637476D01*
X80069761Y-90532714D01*
X80122142Y-90427952D01*
X80226904Y-90375571D01*
X80488809Y-90375571D01*
X80593571Y-90323190D01*
X81117380Y-90794619D02*
X81117380Y-90061285D01*
X81117380Y-90270809D02*
X81169761Y-90166047D01*
X81222142Y-90113666D01*
X81326904Y-90061285D01*
X81431666Y-90061285D01*
X82269761Y-90794619D02*
X82269761Y-89694619D01*
X82269761Y-90742238D02*
X82165000Y-90794619D01*
X81955476Y-90794619D01*
X81850714Y-90742238D01*
X81798333Y-90689857D01*
X81745952Y-90585095D01*
X81745952Y-90270809D01*
X81798333Y-90166047D01*
X81850714Y-90113666D01*
X81955476Y-90061285D01*
X82165000Y-90061285D01*
X82269761Y-90113666D01*
X68904523Y-92182904D02*
X68904523Y-91382904D01*
X68904523Y-91687666D02*
X68980714Y-91649571D01*
X69133095Y-91649571D01*
X69209285Y-91687666D01*
X69247380Y-91725761D01*
X69285476Y-91801952D01*
X69285476Y-92030523D01*
X69247380Y-92106714D01*
X69209285Y-92144809D01*
X69133095Y-92182904D01*
X68980714Y-92182904D01*
X68904523Y-92144809D01*
X69552142Y-91649571D02*
X69742619Y-92182904D01*
X69933095Y-91649571D02*
X69742619Y-92182904D01*
X69666428Y-92373380D01*
X69628333Y-92411476D01*
X69552142Y-92449571D01*
X70847380Y-92182904D02*
X70847380Y-91382904D01*
X70847380Y-91687666D02*
X70923571Y-91649571D01*
X71075952Y-91649571D01*
X71152142Y-91687666D01*
X71190238Y-91725761D01*
X71228333Y-91801952D01*
X71228333Y-92030523D01*
X71190238Y-92106714D01*
X71152142Y-92144809D01*
X71075952Y-92182904D01*
X70923571Y-92182904D01*
X70847380Y-92144809D01*
X71875952Y-92144809D02*
X71799761Y-92182904D01*
X71647380Y-92182904D01*
X71571190Y-92144809D01*
X71533095Y-92068619D01*
X71533095Y-91763857D01*
X71571190Y-91687666D01*
X71647380Y-91649571D01*
X71799761Y-91649571D01*
X71875952Y-91687666D01*
X71914047Y-91763857D01*
X71914047Y-91840047D01*
X71533095Y-91916238D01*
X72256904Y-91649571D02*
X72256904Y-92182904D01*
X72256904Y-91725761D02*
X72294999Y-91687666D01*
X72371190Y-91649571D01*
X72485476Y-91649571D01*
X72561666Y-91687666D01*
X72599761Y-91763857D01*
X72599761Y-92182904D01*
X72980714Y-91649571D02*
X72980714Y-92335285D01*
X72942619Y-92411476D01*
X72866428Y-92449571D01*
X72828333Y-92449571D01*
X72980714Y-91382904D02*
X72942619Y-91421000D01*
X72980714Y-91459095D01*
X73018809Y-91421000D01*
X72980714Y-91382904D01*
X72980714Y-91459095D01*
X73361666Y-92182904D02*
X73361666Y-91649571D01*
X73361666Y-91382904D02*
X73323571Y-91421000D01*
X73361666Y-91459095D01*
X73399761Y-91421000D01*
X73361666Y-91382904D01*
X73361666Y-91459095D01*
X74085476Y-92182904D02*
X74085476Y-91763857D01*
X74047380Y-91687666D01*
X73971190Y-91649571D01*
X73818809Y-91649571D01*
X73742619Y-91687666D01*
X74085476Y-92144809D02*
X74009285Y-92182904D01*
X73818809Y-92182904D01*
X73742619Y-92144809D01*
X73704523Y-92068619D01*
X73704523Y-91992428D01*
X73742619Y-91916238D01*
X73818809Y-91878142D01*
X74009285Y-91878142D01*
X74085476Y-91840047D01*
X74580714Y-92182904D02*
X74504523Y-92144809D01*
X74466428Y-92106714D01*
X74428333Y-92030523D01*
X74428333Y-91801952D01*
X74466428Y-91725761D01*
X74504523Y-91687666D01*
X74580714Y-91649571D01*
X74694999Y-91649571D01*
X74771190Y-91687666D01*
X74809285Y-91725761D01*
X74847380Y-91801952D01*
X74847380Y-92030523D01*
X74809285Y-92106714D01*
X74771190Y-92144809D01*
X74694999Y-92182904D01*
X74580714Y-92182904D01*
X75190238Y-92182904D02*
X75190238Y-91649571D01*
X75190238Y-91725761D02*
X75228333Y-91687666D01*
X75304523Y-91649571D01*
X75418809Y-91649571D01*
X75494999Y-91687666D01*
X75533095Y-91763857D01*
X75533095Y-92182904D01*
X75533095Y-91763857D02*
X75571190Y-91687666D01*
X75647380Y-91649571D01*
X75761666Y-91649571D01*
X75837857Y-91687666D01*
X75875952Y-91763857D01*
X75875952Y-92182904D01*
X76371190Y-92182904D02*
X76294999Y-92144809D01*
X76256904Y-92106714D01*
X76218809Y-92030523D01*
X76218809Y-91801952D01*
X76256904Y-91725761D01*
X76294999Y-91687666D01*
X76371190Y-91649571D01*
X76485476Y-91649571D01*
X76561666Y-91687666D01*
X76599761Y-91725761D01*
X76637857Y-91801952D01*
X76637857Y-92030523D01*
X76599761Y-92106714D01*
X76561666Y-92144809D01*
X76485476Y-92182904D01*
X76371190Y-92182904D01*
X77323571Y-92182904D02*
X77323571Y-91382904D01*
X77323571Y-92144809D02*
X77247380Y-92182904D01*
X77094999Y-92182904D01*
X77018809Y-92144809D01*
X76980714Y-92106714D01*
X76942619Y-92030523D01*
X76942619Y-91801952D01*
X76980714Y-91725761D01*
X77018809Y-91687666D01*
X77094999Y-91649571D01*
X77247380Y-91649571D01*
X77323571Y-91687666D01*
X78047380Y-91649571D02*
X78047380Y-92182904D01*
X77704523Y-91649571D02*
X77704523Y-92068619D01*
X77742619Y-92144809D01*
X77818809Y-92182904D01*
X77933095Y-92182904D01*
X78009285Y-92144809D01*
X78047380Y-92106714D01*
X78542619Y-92182904D02*
X78466428Y-92144809D01*
X78428333Y-92068619D01*
X78428333Y-91382904D01*
X79190238Y-92182904D02*
X79190238Y-91763857D01*
X79152142Y-91687666D01*
X79075952Y-91649571D01*
X78923571Y-91649571D01*
X78847380Y-91687666D01*
X79190238Y-92144809D02*
X79114047Y-92182904D01*
X78923571Y-92182904D01*
X78847380Y-92144809D01*
X78809285Y-92068619D01*
X78809285Y-91992428D01*
X78847380Y-91916238D01*
X78923571Y-91878142D01*
X79114047Y-91878142D01*
X79190238Y-91840047D01*
X79571190Y-92182904D02*
X79571190Y-91649571D01*
X79571190Y-91801952D02*
X79609285Y-91725761D01*
X79647380Y-91687666D01*
X79723571Y-91649571D01*
X79799761Y-91649571D01*
X82693095Y-50871428D02*
X83455000Y-50871428D01*
X84455000Y-51252380D02*
X83883571Y-51252380D01*
X84169285Y-51252380D02*
X84169285Y-50252380D01*
X84074047Y-50395238D01*
X83978809Y-50490476D01*
X83883571Y-50538095D01*
X84835952Y-50347619D02*
X84883571Y-50300000D01*
X84978809Y-50252380D01*
X85216904Y-50252380D01*
X85312142Y-50300000D01*
X85359761Y-50347619D01*
X85407380Y-50442857D01*
X85407380Y-50538095D01*
X85359761Y-50680952D01*
X84788333Y-51252380D01*
X85407380Y-51252380D01*
X85693095Y-50252380D02*
X86026428Y-51252380D01*
X86359761Y-50252380D01*
X83328095Y-82875428D02*
X84090000Y-82875428D01*
X85090000Y-83256380D02*
X84518571Y-83256380D01*
X84804285Y-83256380D02*
X84804285Y-82256380D01*
X84709047Y-82399238D01*
X84613809Y-82494476D01*
X84518571Y-82542095D01*
X85470952Y-82351619D02*
X85518571Y-82304000D01*
X85613809Y-82256380D01*
X85851904Y-82256380D01*
X85947142Y-82304000D01*
X85994761Y-82351619D01*
X86042380Y-82446857D01*
X86042380Y-82542095D01*
X85994761Y-82684952D01*
X85423333Y-83256380D01*
X86042380Y-83256380D01*
X86328095Y-82256380D02*
X86661428Y-83256380D01*
X86994761Y-82256380D01*
X84328095Y-88400000D02*
X84232857Y-88352380D01*
X84090000Y-88352380D01*
X83947142Y-88400000D01*
X83851904Y-88495238D01*
X83804285Y-88590476D01*
X83756666Y-88780952D01*
X83756666Y-88923809D01*
X83804285Y-89114285D01*
X83851904Y-89209523D01*
X83947142Y-89304761D01*
X84090000Y-89352380D01*
X84185238Y-89352380D01*
X84328095Y-89304761D01*
X84375714Y-89257142D01*
X84375714Y-88923809D01*
X84185238Y-88923809D01*
X84804285Y-89352380D02*
X84804285Y-88352380D01*
X85375714Y-89352380D01*
X85375714Y-88352380D01*
X85851904Y-89352380D02*
X85851904Y-88352380D01*
X86090000Y-88352380D01*
X86232857Y-88400000D01*
X86328095Y-88495238D01*
X86375714Y-88590476D01*
X86423333Y-88780952D01*
X86423333Y-88923809D01*
X86375714Y-89114285D01*
X86328095Y-89209523D01*
X86232857Y-89304761D01*
X86090000Y-89352380D01*
X85851904Y-89352380D01*
X83328095Y-91511428D02*
X84090000Y-91511428D01*
X83709047Y-91892380D02*
X83709047Y-91130476D01*
X85090000Y-91892380D02*
X84518571Y-91892380D01*
X84804285Y-91892380D02*
X84804285Y-90892380D01*
X84709047Y-91035238D01*
X84613809Y-91130476D01*
X84518571Y-91178095D01*
X85470952Y-90987619D02*
X85518571Y-90940000D01*
X85613809Y-90892380D01*
X85851904Y-90892380D01*
X85947142Y-90940000D01*
X85994761Y-90987619D01*
X86042380Y-91082857D01*
X86042380Y-91178095D01*
X85994761Y-91320952D01*
X85423333Y-91892380D01*
X86042380Y-91892380D01*
X86328095Y-90892380D02*
X86661428Y-91892380D01*
X86994761Y-90892380D01*
X82693095Y-44521428D02*
X83455000Y-44521428D01*
X83074047Y-44902380D02*
X83074047Y-44140476D01*
X84455000Y-44902380D02*
X83883571Y-44902380D01*
X84169285Y-44902380D02*
X84169285Y-43902380D01*
X84074047Y-44045238D01*
X83978809Y-44140476D01*
X83883571Y-44188095D01*
X84835952Y-43997619D02*
X84883571Y-43950000D01*
X84978809Y-43902380D01*
X85216904Y-43902380D01*
X85312142Y-43950000D01*
X85359761Y-43997619D01*
X85407380Y-44092857D01*
X85407380Y-44188095D01*
X85359761Y-44330952D01*
X84788333Y-44902380D01*
X85407380Y-44902380D01*
X85693095Y-43902380D02*
X86026428Y-44902380D01*
X86359761Y-43902380D01*
X84328095Y-41410000D02*
X84232857Y-41362380D01*
X84090000Y-41362380D01*
X83947142Y-41410000D01*
X83851904Y-41505238D01*
X83804285Y-41600476D01*
X83756666Y-41790952D01*
X83756666Y-41933809D01*
X83804285Y-42124285D01*
X83851904Y-42219523D01*
X83947142Y-42314761D01*
X84090000Y-42362380D01*
X84185238Y-42362380D01*
X84328095Y-42314761D01*
X84375714Y-42267142D01*
X84375714Y-41933809D01*
X84185238Y-41933809D01*
X84804285Y-42362380D02*
X84804285Y-41362380D01*
X85375714Y-42362380D01*
X85375714Y-41362380D01*
X85851904Y-42362380D02*
X85851904Y-41362380D01*
X86090000Y-41362380D01*
X86232857Y-41410000D01*
X86328095Y-41505238D01*
X86375714Y-41600476D01*
X86423333Y-41790952D01*
X86423333Y-41933809D01*
X86375714Y-42124285D01*
X86328095Y-42219523D01*
X86232857Y-42314761D01*
X86090000Y-42362380D01*
X85851904Y-42362380D01*
%TO.C,SW1*%
X69700000Y-89225000D02*
X69700000Y-76525000D01*
X69700000Y-76525000D02*
X82900000Y-76525000D01*
X82900000Y-89225000D02*
X69700000Y-89225000D01*
X82900000Y-76525000D02*
X82900000Y-89225000D01*
X79200417Y-82824584D02*
G75*
G03*
X79200417Y-82824584I-3000417J0D01*
G01*
D11*
%TO.C,C1*%
X78306000Y-70196225D02*
X77806000Y-70196225D01*
X78056000Y-69946225D02*
X78056000Y-70446225D01*
X76865000Y-75352000D02*
X76297000Y-75352000D01*
X77099000Y-75312000D02*
X76063000Y-75312000D01*
X77258000Y-75272000D02*
X75904000Y-75272000D01*
X77386000Y-75232000D02*
X75776000Y-75232000D01*
X77496000Y-75192000D02*
X75666000Y-75192000D01*
X77592000Y-75152000D02*
X75570000Y-75152000D01*
X77679000Y-75112000D02*
X75483000Y-75112000D01*
X77759000Y-75072000D02*
X75403000Y-75072000D01*
X75541000Y-75032000D02*
X75330000Y-75032000D01*
X77832000Y-75032000D02*
X77621000Y-75032000D01*
X75541000Y-74992000D02*
X75262000Y-74992000D01*
X77900000Y-74992000D02*
X77621000Y-74992000D01*
X75541000Y-74952000D02*
X75198000Y-74952000D01*
X77964000Y-74952000D02*
X77621000Y-74952000D01*
X75541000Y-74912000D02*
X75138000Y-74912000D01*
X78024000Y-74912000D02*
X77621000Y-74912000D01*
X75541000Y-74872000D02*
X75081000Y-74872000D01*
X78081000Y-74872000D02*
X77621000Y-74872000D01*
X75541000Y-74832000D02*
X75027000Y-74832000D01*
X78135000Y-74832000D02*
X77621000Y-74832000D01*
X75541000Y-74792000D02*
X74976000Y-74792000D01*
X78186000Y-74792000D02*
X77621000Y-74792000D01*
X75541000Y-74752000D02*
X74928000Y-74752000D01*
X78234000Y-74752000D02*
X77621000Y-74752000D01*
X75541000Y-74712000D02*
X74882000Y-74712000D01*
X78280000Y-74712000D02*
X77621000Y-74712000D01*
X75541000Y-74672000D02*
X74838000Y-74672000D01*
X78324000Y-74672000D02*
X77621000Y-74672000D01*
X75541000Y-74632000D02*
X74796000Y-74632000D01*
X78366000Y-74632000D02*
X77621000Y-74632000D01*
X75541000Y-74592000D02*
X74755000Y-74592000D01*
X78407000Y-74592000D02*
X77621000Y-74592000D01*
X75541000Y-74552000D02*
X74717000Y-74552000D01*
X78445000Y-74552000D02*
X77621000Y-74552000D01*
X75541000Y-74512000D02*
X74680000Y-74512000D01*
X78482000Y-74512000D02*
X77621000Y-74512000D01*
X75541000Y-74472000D02*
X74644000Y-74472000D01*
X78518000Y-74472000D02*
X77621000Y-74472000D01*
X75541000Y-74432000D02*
X74610000Y-74432000D01*
X78552000Y-74432000D02*
X77621000Y-74432000D01*
X75541000Y-74392000D02*
X74577000Y-74392000D01*
X78585000Y-74392000D02*
X77621000Y-74392000D01*
X75541000Y-74352000D02*
X74546000Y-74352000D01*
X78616000Y-74352000D02*
X77621000Y-74352000D01*
X75541000Y-74312000D02*
X74516000Y-74312000D01*
X78646000Y-74312000D02*
X77621000Y-74312000D01*
X75541000Y-74272000D02*
X74486000Y-74272000D01*
X78676000Y-74272000D02*
X77621000Y-74272000D01*
X75541000Y-74232000D02*
X74459000Y-74232000D01*
X78703000Y-74232000D02*
X77621000Y-74232000D01*
X75541000Y-74192000D02*
X74432000Y-74192000D01*
X78730000Y-74192000D02*
X77621000Y-74192000D01*
X75541000Y-74152000D02*
X74406000Y-74152000D01*
X78756000Y-74152000D02*
X77621000Y-74152000D01*
X75541000Y-74112000D02*
X74381000Y-74112000D01*
X78781000Y-74112000D02*
X77621000Y-74112000D01*
X75541000Y-74072000D02*
X74357000Y-74072000D01*
X78805000Y-74072000D02*
X77621000Y-74072000D01*
X75541000Y-74032000D02*
X74334000Y-74032000D01*
X78828000Y-74032000D02*
X77621000Y-74032000D01*
X75541000Y-73992000D02*
X74313000Y-73992000D01*
X78849000Y-73992000D02*
X77621000Y-73992000D01*
X75541000Y-73952000D02*
X74291000Y-73952000D01*
X78871000Y-73952000D02*
X77621000Y-73952000D01*
X75541000Y-73912000D02*
X74271000Y-73912000D01*
X78891000Y-73912000D02*
X77621000Y-73912000D01*
X75541000Y-73872000D02*
X74252000Y-73872000D01*
X78910000Y-73872000D02*
X77621000Y-73872000D01*
X75541000Y-73832000D02*
X74233000Y-73832000D01*
X78929000Y-73832000D02*
X77621000Y-73832000D01*
X75541000Y-73792000D02*
X74216000Y-73792000D01*
X78946000Y-73792000D02*
X77621000Y-73792000D01*
X75541000Y-73752000D02*
X74199000Y-73752000D01*
X78963000Y-73752000D02*
X77621000Y-73752000D01*
X75541000Y-73712000D02*
X74183000Y-73712000D01*
X78979000Y-73712000D02*
X77621000Y-73712000D01*
X75541000Y-73672000D02*
X74167000Y-73672000D01*
X78995000Y-73672000D02*
X77621000Y-73672000D01*
X75541000Y-73632000D02*
X74153000Y-73632000D01*
X79009000Y-73632000D02*
X77621000Y-73632000D01*
X75541000Y-73592000D02*
X74139000Y-73592000D01*
X79023000Y-73592000D02*
X77621000Y-73592000D01*
X75541000Y-73552000D02*
X74126000Y-73552000D01*
X79036000Y-73552000D02*
X77621000Y-73552000D01*
X75541000Y-73512000D02*
X74113000Y-73512000D01*
X79049000Y-73512000D02*
X77621000Y-73512000D01*
X75541000Y-73472000D02*
X74101000Y-73472000D01*
X79061000Y-73472000D02*
X77621000Y-73472000D01*
X75541000Y-73431000D02*
X74090000Y-73431000D01*
X79072000Y-73431000D02*
X77621000Y-73431000D01*
X75541000Y-73391000D02*
X74080000Y-73391000D01*
X79082000Y-73391000D02*
X77621000Y-73391000D01*
X75541000Y-73351000D02*
X74070000Y-73351000D01*
X79092000Y-73351000D02*
X77621000Y-73351000D01*
X75541000Y-73311000D02*
X74061000Y-73311000D01*
X79101000Y-73311000D02*
X77621000Y-73311000D01*
X75541000Y-73271000D02*
X74053000Y-73271000D01*
X79109000Y-73271000D02*
X77621000Y-73271000D01*
X75541000Y-73231000D02*
X74045000Y-73231000D01*
X79117000Y-73231000D02*
X77621000Y-73231000D01*
X75541000Y-73191000D02*
X74038000Y-73191000D01*
X79124000Y-73191000D02*
X77621000Y-73191000D01*
X75541000Y-73151000D02*
X74031000Y-73151000D01*
X79131000Y-73151000D02*
X77621000Y-73151000D01*
X75541000Y-73111000D02*
X74025000Y-73111000D01*
X79137000Y-73111000D02*
X77621000Y-73111000D01*
X75541000Y-73071000D02*
X74020000Y-73071000D01*
X79142000Y-73071000D02*
X77621000Y-73071000D01*
X75541000Y-73031000D02*
X74016000Y-73031000D01*
X79146000Y-73031000D02*
X77621000Y-73031000D01*
X75541000Y-72991000D02*
X74012000Y-72991000D01*
X79150000Y-72991000D02*
X77621000Y-72991000D01*
X79154000Y-72951000D02*
X74008000Y-72951000D01*
X79157000Y-72911000D02*
X74005000Y-72911000D01*
X79159000Y-72871000D02*
X74003000Y-72871000D01*
X79160000Y-72831000D02*
X74002000Y-72831000D01*
X79161000Y-72791000D02*
X74001000Y-72791000D01*
X79161000Y-72751000D02*
X74001000Y-72751000D01*
X79201000Y-72751000D02*
G75*
G03*
X79201000Y-72751000I-2620000J0D01*
G01*
%TO.C,C2*%
X73232000Y-72664000D02*
G75*
G03*
X73232000Y-72664000I-2620000J0D01*
G01*
X68032000Y-72664000D02*
X73192000Y-72664000D01*
X68032000Y-72624000D02*
X73192000Y-72624000D01*
X68033000Y-72584000D02*
X73191000Y-72584000D01*
X68034000Y-72544000D02*
X73190000Y-72544000D01*
X68036000Y-72504000D02*
X73188000Y-72504000D01*
X68039000Y-72464000D02*
X73185000Y-72464000D01*
X68043000Y-72424000D02*
X69572000Y-72424000D01*
X71652000Y-72424000D02*
X73181000Y-72424000D01*
X68047000Y-72384000D02*
X69572000Y-72384000D01*
X71652000Y-72384000D02*
X73177000Y-72384000D01*
X68051000Y-72344000D02*
X69572000Y-72344000D01*
X71652000Y-72344000D02*
X73173000Y-72344000D01*
X68056000Y-72304000D02*
X69572000Y-72304000D01*
X71652000Y-72304000D02*
X73168000Y-72304000D01*
X68062000Y-72264000D02*
X69572000Y-72264000D01*
X71652000Y-72264000D02*
X73162000Y-72264000D01*
X68069000Y-72224000D02*
X69572000Y-72224000D01*
X71652000Y-72224000D02*
X73155000Y-72224000D01*
X68076000Y-72184000D02*
X69572000Y-72184000D01*
X71652000Y-72184000D02*
X73148000Y-72184000D01*
X68084000Y-72144000D02*
X69572000Y-72144000D01*
X71652000Y-72144000D02*
X73140000Y-72144000D01*
X68092000Y-72104000D02*
X69572000Y-72104000D01*
X71652000Y-72104000D02*
X73132000Y-72104000D01*
X68101000Y-72064000D02*
X69572000Y-72064000D01*
X71652000Y-72064000D02*
X73123000Y-72064000D01*
X68111000Y-72024000D02*
X69572000Y-72024000D01*
X71652000Y-72024000D02*
X73113000Y-72024000D01*
X68121000Y-71984000D02*
X69572000Y-71984000D01*
X71652000Y-71984000D02*
X73103000Y-71984000D01*
X68132000Y-71943000D02*
X69572000Y-71943000D01*
X71652000Y-71943000D02*
X73092000Y-71943000D01*
X68144000Y-71903000D02*
X69572000Y-71903000D01*
X71652000Y-71903000D02*
X73080000Y-71903000D01*
X68157000Y-71863000D02*
X69572000Y-71863000D01*
X71652000Y-71863000D02*
X73067000Y-71863000D01*
X68170000Y-71823000D02*
X69572000Y-71823000D01*
X71652000Y-71823000D02*
X73054000Y-71823000D01*
X68184000Y-71783000D02*
X69572000Y-71783000D01*
X71652000Y-71783000D02*
X73040000Y-71783000D01*
X68198000Y-71743000D02*
X69572000Y-71743000D01*
X71652000Y-71743000D02*
X73026000Y-71743000D01*
X68214000Y-71703000D02*
X69572000Y-71703000D01*
X71652000Y-71703000D02*
X73010000Y-71703000D01*
X68230000Y-71663000D02*
X69572000Y-71663000D01*
X71652000Y-71663000D02*
X72994000Y-71663000D01*
X68247000Y-71623000D02*
X69572000Y-71623000D01*
X71652000Y-71623000D02*
X72977000Y-71623000D01*
X68264000Y-71583000D02*
X69572000Y-71583000D01*
X71652000Y-71583000D02*
X72960000Y-71583000D01*
X68283000Y-71543000D02*
X69572000Y-71543000D01*
X71652000Y-71543000D02*
X72941000Y-71543000D01*
X68302000Y-71503000D02*
X69572000Y-71503000D01*
X71652000Y-71503000D02*
X72922000Y-71503000D01*
X68322000Y-71463000D02*
X69572000Y-71463000D01*
X71652000Y-71463000D02*
X72902000Y-71463000D01*
X68344000Y-71423000D02*
X69572000Y-71423000D01*
X71652000Y-71423000D02*
X72880000Y-71423000D01*
X68365000Y-71383000D02*
X69572000Y-71383000D01*
X71652000Y-71383000D02*
X72859000Y-71383000D01*
X68388000Y-71343000D02*
X69572000Y-71343000D01*
X71652000Y-71343000D02*
X72836000Y-71343000D01*
X68412000Y-71303000D02*
X69572000Y-71303000D01*
X71652000Y-71303000D02*
X72812000Y-71303000D01*
X68437000Y-71263000D02*
X69572000Y-71263000D01*
X71652000Y-71263000D02*
X72787000Y-71263000D01*
X68463000Y-71223000D02*
X69572000Y-71223000D01*
X71652000Y-71223000D02*
X72761000Y-71223000D01*
X68490000Y-71183000D02*
X69572000Y-71183000D01*
X71652000Y-71183000D02*
X72734000Y-71183000D01*
X68517000Y-71143000D02*
X69572000Y-71143000D01*
X71652000Y-71143000D02*
X72707000Y-71143000D01*
X68547000Y-71103000D02*
X69572000Y-71103000D01*
X71652000Y-71103000D02*
X72677000Y-71103000D01*
X68577000Y-71063000D02*
X69572000Y-71063000D01*
X71652000Y-71063000D02*
X72647000Y-71063000D01*
X68608000Y-71023000D02*
X69572000Y-71023000D01*
X71652000Y-71023000D02*
X72616000Y-71023000D01*
X68641000Y-70983000D02*
X69572000Y-70983000D01*
X71652000Y-70983000D02*
X72583000Y-70983000D01*
X68675000Y-70943000D02*
X69572000Y-70943000D01*
X71652000Y-70943000D02*
X72549000Y-70943000D01*
X68711000Y-70903000D02*
X69572000Y-70903000D01*
X71652000Y-70903000D02*
X72513000Y-70903000D01*
X68748000Y-70863000D02*
X69572000Y-70863000D01*
X71652000Y-70863000D02*
X72476000Y-70863000D01*
X68786000Y-70823000D02*
X69572000Y-70823000D01*
X71652000Y-70823000D02*
X72438000Y-70823000D01*
X68827000Y-70783000D02*
X69572000Y-70783000D01*
X71652000Y-70783000D02*
X72397000Y-70783000D01*
X68869000Y-70743000D02*
X69572000Y-70743000D01*
X71652000Y-70743000D02*
X72355000Y-70743000D01*
X68913000Y-70703000D02*
X69572000Y-70703000D01*
X71652000Y-70703000D02*
X72311000Y-70703000D01*
X68959000Y-70663000D02*
X69572000Y-70663000D01*
X71652000Y-70663000D02*
X72265000Y-70663000D01*
X69007000Y-70623000D02*
X69572000Y-70623000D01*
X71652000Y-70623000D02*
X72217000Y-70623000D01*
X69058000Y-70583000D02*
X69572000Y-70583000D01*
X71652000Y-70583000D02*
X72166000Y-70583000D01*
X69112000Y-70543000D02*
X69572000Y-70543000D01*
X71652000Y-70543000D02*
X72112000Y-70543000D01*
X69169000Y-70503000D02*
X69572000Y-70503000D01*
X71652000Y-70503000D02*
X72055000Y-70503000D01*
X69229000Y-70463000D02*
X69572000Y-70463000D01*
X71652000Y-70463000D02*
X71995000Y-70463000D01*
X69293000Y-70423000D02*
X69572000Y-70423000D01*
X71652000Y-70423000D02*
X71931000Y-70423000D01*
X69361000Y-70383000D02*
X69572000Y-70383000D01*
X71652000Y-70383000D02*
X71863000Y-70383000D01*
X69434000Y-70343000D02*
X71790000Y-70343000D01*
X69514000Y-70303000D02*
X71710000Y-70303000D01*
X69601000Y-70263000D02*
X71623000Y-70263000D01*
X69697000Y-70223000D02*
X71527000Y-70223000D01*
X69807000Y-70183000D02*
X71417000Y-70183000D01*
X69935000Y-70143000D02*
X71289000Y-70143000D01*
X70094000Y-70103000D02*
X71130000Y-70103000D01*
X70328000Y-70063000D02*
X70896000Y-70063000D01*
X69137000Y-75468775D02*
X69137000Y-74968775D01*
X68887000Y-75218775D02*
X69387000Y-75218775D01*
%TO.C,J2*%
X77966000Y-68202000D02*
X68846000Y-68202000D01*
X68846000Y-68202000D02*
X68846000Y-47622000D01*
X68846000Y-47622000D02*
X77966000Y-47622000D01*
X77966000Y-47622000D02*
X77966000Y-68202000D01*
X77966000Y-59962000D02*
X76656000Y-59962000D01*
X76656000Y-59962000D02*
X76656000Y-66902000D01*
X76656000Y-66902000D02*
X70156000Y-66902000D01*
X70156000Y-66902000D02*
X70156000Y-48922000D01*
X70156000Y-48922000D02*
X76656000Y-48922000D01*
X76656000Y-48922000D02*
X76656000Y-55862000D01*
X76656000Y-55862000D02*
X76656000Y-55862000D01*
X76656000Y-55862000D02*
X77966000Y-55862000D01*
X78356000Y-62992000D02*
X79356000Y-63492000D01*
X79356000Y-63492000D02*
X79356000Y-62492000D01*
X79356000Y-62492000D02*
X78356000Y-62992000D01*
%TO.C,J1*%
X68306000Y-40847000D02*
X68306000Y-46817000D01*
X68306000Y-46817000D02*
X78426000Y-46817000D01*
X78426000Y-46817000D02*
X78426000Y-40847000D01*
X78426000Y-40847000D02*
X68306000Y-40847000D01*
X71616000Y-40857000D02*
X71616000Y-41607000D01*
X71616000Y-41607000D02*
X75116000Y-41607000D01*
X75116000Y-41607000D02*
X75116000Y-40857000D01*
X75116000Y-40857000D02*
X71616000Y-40857000D01*
X68316000Y-40857000D02*
X68316000Y-41607000D01*
X68316000Y-41607000D02*
X70116000Y-41607000D01*
X70116000Y-41607000D02*
X70116000Y-40857000D01*
X70116000Y-40857000D02*
X68316000Y-40857000D01*
X76616000Y-40857000D02*
X76616000Y-41607000D01*
X76616000Y-41607000D02*
X78416000Y-41607000D01*
X78416000Y-41607000D02*
X78416000Y-40857000D01*
X78416000Y-40857000D02*
X76616000Y-40857000D01*
X68316000Y-43107000D02*
X69066000Y-43107000D01*
X69066000Y-43107000D02*
X69066000Y-46057000D01*
X69066000Y-46057000D02*
X73366000Y-46057000D01*
X78416000Y-43107000D02*
X77666000Y-43107000D01*
X77666000Y-43107000D02*
X77666000Y-46057000D01*
X77666000Y-46057000D02*
X73366000Y-46057000D01*
X69266000Y-40557000D02*
X68016000Y-40557000D01*
X68016000Y-40557000D02*
X68016000Y-41807000D01*
%TO.C,-12V*%
X83630000Y-62774000D02*
X83786000Y-62774000D01*
X81314000Y-62774000D02*
X81470000Y-62774000D01*
X83629837Y-60172870D02*
G75*
G02*
X83630000Y-62254961I-1079837J-1041130D01*
G01*
X81470163Y-60172870D02*
G75*
G03*
X81470000Y-62254961I1079837J-1041130D01*
G01*
X83628608Y-59541665D02*
G75*
G02*
X83785516Y-62774000I-1078608J-1672335D01*
G01*
X81471392Y-59541665D02*
G75*
G03*
X81314484Y-62774000I1078608J-1672335D01*
G01*
%TO.C,+12V*%
X83786000Y-53939000D02*
X83630000Y-53939000D01*
X81470000Y-53939000D02*
X81314000Y-53939000D01*
X83628608Y-57171335D02*
G75*
G03*
X83785516Y-53939000I-1078608J1672335D01*
G01*
X81471392Y-57171335D02*
G75*
G02*
X81314484Y-53939000I1078608J1672335D01*
G01*
X83629837Y-56540130D02*
G75*
G03*
X83630000Y-54458039I-1079837J1041130D01*
G01*
X81470163Y-56540130D02*
G75*
G02*
X81470000Y-54458039I1079837J1041130D01*
G01*
%TO.C,R1*%
X85571000Y-74390000D02*
X85241000Y-74390000D01*
X83161000Y-67850000D02*
X82831000Y-67850000D01*
X82831000Y-74390000D02*
X83161000Y-74390000D01*
X82831000Y-67850000D02*
X82831000Y-74390000D01*
X85241000Y-67850000D02*
X85571000Y-67850000D01*
X85571000Y-67850000D02*
X85571000Y-74390000D01*
%TO.C,R2*%
X82523000Y-67850000D02*
X82523000Y-74390000D01*
X82193000Y-67850000D02*
X82523000Y-67850000D01*
X79783000Y-67850000D02*
X79783000Y-74390000D01*
X79783000Y-74390000D02*
X80113000Y-74390000D01*
X80113000Y-67850000D02*
X79783000Y-67850000D01*
X82523000Y-74390000D02*
X82193000Y-74390000D01*
%TO.C,C1*%
D10*
X78573333Y-76049142D02*
X78525714Y-76096761D01*
X78382857Y-76144380D01*
X78287619Y-76144380D01*
X78144761Y-76096761D01*
X78049523Y-76001523D01*
X78001904Y-75906285D01*
X77954285Y-75715809D01*
X77954285Y-75572952D01*
X78001904Y-75382476D01*
X78049523Y-75287238D01*
X78144761Y-75192000D01*
X78287619Y-75144380D01*
X78382857Y-75144380D01*
X78525714Y-75192000D01*
X78573333Y-75239619D01*
X79525714Y-76144380D02*
X78954285Y-76144380D01*
X79240000Y-76144380D02*
X79240000Y-75144380D01*
X79144761Y-75287238D01*
X79049523Y-75382476D01*
X78954285Y-75430095D01*
X75287380Y-69667380D02*
X74715952Y-69667380D01*
X75001666Y-69667380D02*
X75001666Y-68667380D01*
X74906428Y-68810238D01*
X74811190Y-68905476D01*
X74715952Y-68953095D01*
X75906428Y-68667380D02*
X76001666Y-68667380D01*
X76096904Y-68715000D01*
X76144523Y-68762619D01*
X76192142Y-68857857D01*
X76239761Y-69048333D01*
X76239761Y-69286428D01*
X76192142Y-69476904D01*
X76144523Y-69572142D01*
X76096904Y-69619761D01*
X76001666Y-69667380D01*
X75906428Y-69667380D01*
X75811190Y-69619761D01*
X75763571Y-69572142D01*
X75715952Y-69476904D01*
X75668333Y-69286428D01*
X75668333Y-69048333D01*
X75715952Y-68857857D01*
X75763571Y-68762619D01*
X75811190Y-68715000D01*
X75906428Y-68667380D01*
X76858809Y-68667380D02*
X76954047Y-68667380D01*
X77049285Y-68715000D01*
X77096904Y-68762619D01*
X77144523Y-68857857D01*
X77192142Y-69048333D01*
X77192142Y-69286428D01*
X77144523Y-69476904D01*
X77096904Y-69572142D01*
X77049285Y-69619761D01*
X76954047Y-69667380D01*
X76858809Y-69667380D01*
X76763571Y-69619761D01*
X76715952Y-69572142D01*
X76668333Y-69476904D01*
X76620714Y-69286428D01*
X76620714Y-69048333D01*
X76668333Y-68857857D01*
X76715952Y-68762619D01*
X76763571Y-68715000D01*
X76858809Y-68667380D01*
X78049285Y-69000714D02*
X78049285Y-69667380D01*
X77620714Y-69000714D02*
X77620714Y-69524523D01*
X77668333Y-69619761D01*
X77763571Y-69667380D01*
X77906428Y-69667380D01*
X78001666Y-69619761D01*
X78049285Y-69572142D01*
X78858809Y-69143571D02*
X78525476Y-69143571D01*
X78525476Y-69667380D02*
X78525476Y-68667380D01*
X79001666Y-68667380D01*
%TO.C,C2*%
X72350333Y-75922142D02*
X72302714Y-75969761D01*
X72159857Y-76017380D01*
X72064619Y-76017380D01*
X71921761Y-75969761D01*
X71826523Y-75874523D01*
X71778904Y-75779285D01*
X71731285Y-75588809D01*
X71731285Y-75445952D01*
X71778904Y-75255476D01*
X71826523Y-75160238D01*
X71921761Y-75065000D01*
X72064619Y-75017380D01*
X72159857Y-75017380D01*
X72302714Y-75065000D01*
X72350333Y-75112619D01*
X72731285Y-75112619D02*
X72778904Y-75065000D01*
X72874142Y-75017380D01*
X73112238Y-75017380D01*
X73207476Y-75065000D01*
X73255095Y-75112619D01*
X73302714Y-75207857D01*
X73302714Y-75303095D01*
X73255095Y-75445952D01*
X72683666Y-76017380D01*
X73302714Y-76017380D01*
X69572380Y-69667380D02*
X69000952Y-69667380D01*
X69286666Y-69667380D02*
X69286666Y-68667380D01*
X69191428Y-68810238D01*
X69096190Y-68905476D01*
X69000952Y-68953095D01*
X70191428Y-68667380D02*
X70286666Y-68667380D01*
X70381904Y-68715000D01*
X70429523Y-68762619D01*
X70477142Y-68857857D01*
X70524761Y-69048333D01*
X70524761Y-69286428D01*
X70477142Y-69476904D01*
X70429523Y-69572142D01*
X70381904Y-69619761D01*
X70286666Y-69667380D01*
X70191428Y-69667380D01*
X70096190Y-69619761D01*
X70048571Y-69572142D01*
X70000952Y-69476904D01*
X69953333Y-69286428D01*
X69953333Y-69048333D01*
X70000952Y-68857857D01*
X70048571Y-68762619D01*
X70096190Y-68715000D01*
X70191428Y-68667380D01*
X71143809Y-68667380D02*
X71239047Y-68667380D01*
X71334285Y-68715000D01*
X71381904Y-68762619D01*
X71429523Y-68857857D01*
X71477142Y-69048333D01*
X71477142Y-69286428D01*
X71429523Y-69476904D01*
X71381904Y-69572142D01*
X71334285Y-69619761D01*
X71239047Y-69667380D01*
X71143809Y-69667380D01*
X71048571Y-69619761D01*
X71000952Y-69572142D01*
X70953333Y-69476904D01*
X70905714Y-69286428D01*
X70905714Y-69048333D01*
X70953333Y-68857857D01*
X71000952Y-68762619D01*
X71048571Y-68715000D01*
X71143809Y-68667380D01*
X72334285Y-69000714D02*
X72334285Y-69667380D01*
X71905714Y-69000714D02*
X71905714Y-69524523D01*
X71953333Y-69619761D01*
X72048571Y-69667380D01*
X72191428Y-69667380D01*
X72286666Y-69619761D01*
X72334285Y-69572142D01*
X73143809Y-69143571D02*
X72810476Y-69143571D01*
X72810476Y-69667380D02*
X72810476Y-68667380D01*
X73286666Y-68667380D01*
%TO.C,-12V*%
X79827428Y-62467904D02*
X79827428Y-61706000D01*
X80208380Y-60706000D02*
X80208380Y-61277428D01*
X80208380Y-60991714D02*
X79208380Y-60991714D01*
X79351238Y-61086952D01*
X79446476Y-61182190D01*
X79494095Y-61277428D01*
X79303619Y-60325047D02*
X79256000Y-60277428D01*
X79208380Y-60182190D01*
X79208380Y-59944095D01*
X79256000Y-59848857D01*
X79303619Y-59801238D01*
X79398857Y-59753619D01*
X79494095Y-59753619D01*
X79636952Y-59801238D01*
X80208380Y-60372666D01*
X80208380Y-59753619D01*
X79208380Y-59467904D02*
X80208380Y-59134571D01*
X79208380Y-58801238D01*
%TO.C,+12V*%
X79573428Y-57260904D02*
X79573428Y-56499000D01*
X79954380Y-56879952D02*
X79192476Y-56879952D01*
X79954380Y-55499000D02*
X79954380Y-56070428D01*
X79954380Y-55784714D02*
X78954380Y-55784714D01*
X79097238Y-55879952D01*
X79192476Y-55975190D01*
X79240095Y-56070428D01*
X79049619Y-55118047D02*
X79002000Y-55070428D01*
X78954380Y-54975190D01*
X78954380Y-54737095D01*
X79002000Y-54641857D01*
X79049619Y-54594238D01*
X79144857Y-54546619D01*
X79240095Y-54546619D01*
X79382952Y-54594238D01*
X79954380Y-55165666D01*
X79954380Y-54546619D01*
X78954380Y-54260904D02*
X79954380Y-53927571D01*
X78954380Y-53594238D01*
%TO.C,R1*%
X84034333Y-65984380D02*
X83701000Y-65508190D01*
X83462904Y-65984380D02*
X83462904Y-64984380D01*
X83843857Y-64984380D01*
X83939095Y-65032000D01*
X83986714Y-65079619D01*
X84034333Y-65174857D01*
X84034333Y-65317714D01*
X83986714Y-65412952D01*
X83939095Y-65460571D01*
X83843857Y-65508190D01*
X83462904Y-65508190D01*
X84986714Y-65984380D02*
X84415285Y-65984380D01*
X84701000Y-65984380D02*
X84701000Y-64984380D01*
X84605761Y-65127238D01*
X84510523Y-65222476D01*
X84415285Y-65270095D01*
X84653380Y-71905238D02*
X84653380Y-72476666D01*
X84653380Y-72190952D02*
X83653380Y-72190952D01*
X83796238Y-72286190D01*
X83891476Y-72381428D01*
X83939095Y-72476666D01*
X83653380Y-71286190D02*
X83653380Y-71190952D01*
X83701000Y-71095714D01*
X83748619Y-71048095D01*
X83843857Y-71000476D01*
X84034333Y-70952857D01*
X84272428Y-70952857D01*
X84462904Y-71000476D01*
X84558142Y-71048095D01*
X84605761Y-71095714D01*
X84653380Y-71190952D01*
X84653380Y-71286190D01*
X84605761Y-71381428D01*
X84558142Y-71429047D01*
X84462904Y-71476666D01*
X84272428Y-71524285D01*
X84034333Y-71524285D01*
X83843857Y-71476666D01*
X83748619Y-71429047D01*
X83701000Y-71381428D01*
X83653380Y-71286190D01*
X84653380Y-70524285D02*
X83653380Y-70524285D01*
X84272428Y-70429047D02*
X84653380Y-70143333D01*
X83986714Y-70143333D02*
X84367666Y-70524285D01*
%TO.C,R2*%
X80986333Y-65984380D02*
X80653000Y-65508190D01*
X80414904Y-65984380D02*
X80414904Y-64984380D01*
X80795857Y-64984380D01*
X80891095Y-65032000D01*
X80938714Y-65079619D01*
X80986333Y-65174857D01*
X80986333Y-65317714D01*
X80938714Y-65412952D01*
X80891095Y-65460571D01*
X80795857Y-65508190D01*
X80414904Y-65508190D01*
X81367285Y-65079619D02*
X81414904Y-65032000D01*
X81510142Y-64984380D01*
X81748238Y-64984380D01*
X81843476Y-65032000D01*
X81891095Y-65079619D01*
X81938714Y-65174857D01*
X81938714Y-65270095D01*
X81891095Y-65412952D01*
X81319666Y-65984380D01*
X81938714Y-65984380D01*
X81605380Y-71905238D02*
X81605380Y-72476666D01*
X81605380Y-72190952D02*
X80605380Y-72190952D01*
X80748238Y-72286190D01*
X80843476Y-72381428D01*
X80891095Y-72476666D01*
X80605380Y-71286190D02*
X80605380Y-71190952D01*
X80653000Y-71095714D01*
X80700619Y-71048095D01*
X80795857Y-71000476D01*
X80986333Y-70952857D01*
X81224428Y-70952857D01*
X81414904Y-71000476D01*
X81510142Y-71048095D01*
X81557761Y-71095714D01*
X81605380Y-71190952D01*
X81605380Y-71286190D01*
X81557761Y-71381428D01*
X81510142Y-71429047D01*
X81414904Y-71476666D01*
X81224428Y-71524285D01*
X80986333Y-71524285D01*
X80795857Y-71476666D01*
X80700619Y-71429047D01*
X80653000Y-71381428D01*
X80605380Y-71286190D01*
X81605380Y-70524285D02*
X80605380Y-70524285D01*
X81224428Y-70429047D02*
X81605380Y-70143333D01*
X80938714Y-70143333D02*
X81319666Y-70524285D01*
%TD*%
M02*
