M48
; DRILL file {KiCad 5.1.9+dfsg1-1~bpo10+1} date Sun Feb  6 15:46:00 2022
; FORMAT={2:4/ absolute / inch / suppress leading zeros}
; #@! TF.CreationDate,2022-02-06T15:46:00+08:00
; #@! TF.GenerationSoftware,Kicad,Pcbnew,5.1.9+dfsg1-1~bpo10+1
FMAT,2
INCH,TZ
T1C0.0157
T2C0.0315
T3C0.0354
T4C0.0374
T5C0.0394
%
G90
G05
T1
X26900Y-20150
X27150Y-34750
X27200Y-24500
X27300Y-21700
X27300Y-23550
X27700Y-21150
X27900Y-35450
X28000Y-34800
X28500Y-30600
X28750Y-27450
X28850Y-19300
X28900Y-19650
X28950Y-25900
X28950Y-26350
X28950Y-26900
X29050Y-30650
X29500Y-30250
X29600Y-18450
X30250Y-35000
X30600Y-34650
X31250Y-19550
X31450Y-17050
X31500Y-20400
X31600Y-27750
X31850Y-27450
X31900Y-17100
X31950Y-18200
X32000Y-28450
X32100Y-16750
X32200Y-19250
X32550Y-19950
X32600Y-18850
X32750Y-35150
X32850Y-34600
X32950Y-28200
X33050Y-18900
X33200Y-17000
X33200Y-27350
X33250Y-33800
X33300Y-30650
X34300Y-18850
X34550Y-18450
X34850Y-33800
X35400Y-34150
X35500Y-18900
X36850Y-18450
X36950Y-18850
X37750Y-18750
X37950Y-33700
X38300Y-34150
X38750Y-18450
X38850Y-19000
X38850Y-34000
T2
X27800Y-28116
X27800Y-29100
X30150Y-28150
X30150Y-29134
X31950Y-26500
X31950Y-29500
X33150Y-26500
X33150Y-29500
T3
X32500Y-21350
X32500Y-22350
X32500Y-23600
X32500Y-24600
T4
X27900Y-17050
X28884Y-17050
X29869Y-17050
T5
X28400Y-20800
X28400Y-21800
X28400Y-22800
X28400Y-23800
X28400Y-24800
X29400Y-20800
X29400Y-21800
X29400Y-22800
X29400Y-23800
X29400Y-24800
X34700Y-20000
X34750Y-16500
X34750Y-17500
X34750Y-32500
X34750Y-35000
X34750Y-36000
X35700Y-20000
X35750Y-16500
X35750Y-17500
X35750Y-32500
X35750Y-35000
X35750Y-36000
X36700Y-20000
X36750Y-16500
X36750Y-17500
X36750Y-32500
X36750Y-35000
X36750Y-36000
X37700Y-20000
X37750Y-16500
X37750Y-17500
X37750Y-32500
X37750Y-35000
X37750Y-36000
X38700Y-20000
X38750Y-16500
X38750Y-17500
X38750Y-32500
X38750Y-35000
X38750Y-36000
T2
G00X28150Y-31427
M15
G01X28150Y-31900
M16
G05
G00X28150Y-33317
M15
G01X28150Y-33789
M16
G05
G00X30000Y-31427
M15
G01X30000Y-31900
M16
G05
G00X30000Y-33317
M15
G01X30000Y-33789
M16
G05
G00X31850Y-31427
M15
G01X31850Y-31900
M16
G05
G00X31850Y-33317
M15
G01X31850Y-33789
M16
G05
T0
M30
