%TF.GenerationSoftware,KiCad,Pcbnew,5.1.9+dfsg1-1~bpo10+1*%
%TF.CreationDate,2022-02-06T15:46:01+08:00*%
%TF.ProjectId,euro2breadboard,6575726f-3262-4726-9561-64626f617264,rev?*%
%TF.SameCoordinates,Original*%
%TF.FileFunction,Copper,L1,Top*%
%TF.FilePolarity,Positive*%
%FSLAX46Y46*%
G04 Gerber Fmt 4.6, Leading zero omitted, Abs format (unit mm)*
G04 Created by KiCad (PCBNEW 5.1.9+dfsg1-1~bpo10+1) date 2022-02-06 15:46:01*
%MOMM*%
%LPD*%
G01*
G04 APERTURE LIST*
%TA.AperFunction,ComponentPad*%
%ADD10O,1.600000X3.000000*%
%TD*%
%TA.AperFunction,ComponentPad*%
%ADD11C,1.600000*%
%TD*%
%TA.AperFunction,ComponentPad*%
%ADD12R,1.600000X1.600000*%
%TD*%
%TA.AperFunction,ComponentPad*%
%ADD13C,1.700000*%
%TD*%
%TA.AperFunction,ComponentPad*%
%ADD14R,1.700000X1.700000*%
%TD*%
%TA.AperFunction,ComponentPad*%
%ADD15O,1.700000X1.700000*%
%TD*%
%TA.AperFunction,ComponentPad*%
%ADD16O,1.700000X1.950000*%
%TD*%
%TA.AperFunction,ComponentPad*%
%ADD17C,1.800000*%
%TD*%
%TA.AperFunction,ComponentPad*%
%ADD18R,1.800000X1.800000*%
%TD*%
%TA.AperFunction,ComponentPad*%
%ADD19O,1.600000X1.600000*%
%TD*%
%TA.AperFunction,ViaPad*%
%ADD20C,0.800000*%
%TD*%
%TA.AperFunction,Conductor*%
%ADD21C,0.650000*%
%TD*%
%TA.AperFunction,Conductor*%
%ADD22C,0.254000*%
%TD*%
%TA.AperFunction,Conductor*%
%ADD23C,0.100000*%
%TD*%
G04 APERTURE END LIST*
D10*
%TO.P,SW1,2*%
%TO.N,Net-(BB_POWER_PINS1-Pad1)*%
X76200000Y-80425000D03*
%TO.P,SW1,1*%
%TO.N,N/C*%
X80900000Y-80425000D03*
%TO.P,SW1,3*%
%TO.N,+12V*%
X71500000Y-80425000D03*
%TO.P,SW1,5*%
%TO.N,Net-(NEG_12V_LED1-Pad1)*%
X76200000Y-85225000D03*
%TO.P,SW1,4*%
%TO.N,N/C*%
X80900000Y-85225000D03*
%TO.P,SW1,6*%
%TO.N,-12V*%
X71500000Y-85225000D03*
%TD*%
D11*
%TO.P,C1,2*%
%TO.N,GND*%
X76581000Y-74001000D03*
D12*
%TO.P,C1,1*%
%TO.N,+12V*%
X76581000Y-71501000D03*
%TD*%
%TO.P,C2,1*%
%TO.N,GND*%
X70612000Y-73914000D03*
D11*
%TO.P,C2,2*%
%TO.N,-12V*%
X70612000Y-71414000D03*
%TD*%
%TO.P,J2,1*%
%TO.N,-12V*%
%TA.AperFunction,ComponentPad*%
G36*
G01*
X75526000Y-62392000D02*
X75526000Y-63592000D01*
G75*
G02*
X75276000Y-63842000I-250000J0D01*
G01*
X74076000Y-63842000D01*
G75*
G02*
X73826000Y-63592000I0J250000D01*
G01*
X73826000Y-62392000D01*
G75*
G02*
X74076000Y-62142000I250000J0D01*
G01*
X75276000Y-62142000D01*
G75*
G02*
X75526000Y-62392000I0J-250000D01*
G01*
G37*
%TD.AperFunction*%
D13*
%TO.P,J2,3*%
%TO.N,GND*%
X74676000Y-60452000D03*
%TO.P,J2,5*%
X74676000Y-57912000D03*
%TO.P,J2,7*%
X74676000Y-55372000D03*
%TO.P,J2,9*%
%TO.N,+12V*%
X74676000Y-52832000D03*
%TO.P,J2,2*%
%TO.N,-12V*%
X72136000Y-62992000D03*
%TO.P,J2,4*%
%TO.N,GND*%
X72136000Y-60452000D03*
%TO.P,J2,6*%
X72136000Y-57912000D03*
%TO.P,J2,8*%
X72136000Y-55372000D03*
%TO.P,J2,10*%
%TO.N,+12V*%
X72136000Y-52832000D03*
%TD*%
D14*
%TO.P,BB_POWER_PINS1,1*%
%TO.N,Net-(BB_POWER_PINS1-Pad1)*%
X98425000Y-91440000D03*
D15*
%TO.P,BB_POWER_PINS1,2*%
%TO.N,GND*%
X98425000Y-88900000D03*
%TO.P,BB_POWER_PINS1,3*%
%TO.N,Net-(BB_POWER_PINS1-Pad1)*%
X95885000Y-91440000D03*
%TO.P,BB_POWER_PINS1,4*%
%TO.N,GND*%
X95885000Y-88900000D03*
%TO.P,BB_POWER_PINS1,5*%
%TO.N,Net-(BB_POWER_PINS1-Pad1)*%
X93345000Y-91440000D03*
%TO.P,BB_POWER_PINS1,6*%
%TO.N,GND*%
X93345000Y-88900000D03*
%TO.P,BB_POWER_PINS1,7*%
%TO.N,Net-(BB_POWER_PINS1-Pad1)*%
X90805000Y-91440000D03*
%TO.P,BB_POWER_PINS1,8*%
%TO.N,GND*%
X90805000Y-88900000D03*
%TO.P,BB_POWER_PINS1,9*%
%TO.N,Net-(BB_POWER_PINS1-Pad1)*%
X88265000Y-91440000D03*
%TO.P,BB_POWER_PINS1,10*%
%TO.N,GND*%
X88265000Y-88900000D03*
%TD*%
%TO.P,BB_POWER_PINS2,10*%
%TO.N,GND*%
X88265000Y-41910000D03*
%TO.P,BB_POWER_PINS2,9*%
%TO.N,Net-(BB_POWER_PINS1-Pad1)*%
X88265000Y-44450000D03*
%TO.P,BB_POWER_PINS2,8*%
%TO.N,GND*%
X90805000Y-41910000D03*
%TO.P,BB_POWER_PINS2,7*%
%TO.N,Net-(BB_POWER_PINS1-Pad1)*%
X90805000Y-44450000D03*
%TO.P,BB_POWER_PINS2,6*%
%TO.N,GND*%
X93345000Y-41910000D03*
%TO.P,BB_POWER_PINS2,5*%
%TO.N,Net-(BB_POWER_PINS1-Pad1)*%
X93345000Y-44450000D03*
%TO.P,BB_POWER_PINS2,4*%
%TO.N,GND*%
X95885000Y-41910000D03*
%TO.P,BB_POWER_PINS2,3*%
%TO.N,Net-(BB_POWER_PINS1-Pad1)*%
X95885000Y-44450000D03*
%TO.P,BB_POWER_PINS2,2*%
%TO.N,GND*%
X98425000Y-41910000D03*
D14*
%TO.P,BB_POWER_PINS2,1*%
%TO.N,Net-(BB_POWER_PINS1-Pad1)*%
X98425000Y-44450000D03*
%TD*%
%TO.P,J1,1*%
%TO.N,+12V*%
%TA.AperFunction,ComponentPad*%
G36*
G01*
X70016000Y-44032000D02*
X70016000Y-42582000D01*
G75*
G02*
X70266000Y-42332000I250000J0D01*
G01*
X71466000Y-42332000D01*
G75*
G02*
X71716000Y-42582000I0J-250000D01*
G01*
X71716000Y-44032000D01*
G75*
G02*
X71466000Y-44282000I-250000J0D01*
G01*
X70266000Y-44282000D01*
G75*
G02*
X70016000Y-44032000I0J250000D01*
G01*
G37*
%TD.AperFunction*%
D16*
%TO.P,J1,2*%
%TO.N,GND*%
X73366000Y-43307000D03*
%TO.P,J1,3*%
%TO.N,-12V*%
X75866000Y-43307000D03*
%TD*%
D14*
%TO.P,NEG_12V_PINS1,1*%
%TO.N,Net-(NEG_12V_LED1-Pad1)*%
X98298000Y-50800000D03*
D15*
%TO.P,NEG_12V_PINS1,2*%
X95758000Y-50800000D03*
%TO.P,NEG_12V_PINS1,3*%
X93218000Y-50800000D03*
%TO.P,NEG_12V_PINS1,4*%
X90678000Y-50800000D03*
%TO.P,NEG_12V_PINS1,5*%
X88138000Y-50800000D03*
%TD*%
%TO.P,NEG_12V_PINS2,5*%
%TO.N,Net-(NEG_12V_LED1-Pad1)*%
X88265000Y-82550000D03*
%TO.P,NEG_12V_PINS2,4*%
X90805000Y-82550000D03*
%TO.P,NEG_12V_PINS2,3*%
X93345000Y-82550000D03*
%TO.P,NEG_12V_PINS2,2*%
X95885000Y-82550000D03*
D14*
%TO.P,NEG_12V_PINS2,1*%
X98425000Y-82550000D03*
%TD*%
D17*
%TO.P,-12V,2*%
%TO.N,Net-(NEG_12V_LED1-Pad2)*%
X82550000Y-59944000D03*
D18*
%TO.P,-12V,1*%
%TO.N,Net-(NEG_12V_LED1-Pad1)*%
X82550000Y-62484000D03*
%TD*%
%TO.P,+12V,1*%
%TO.N,GND*%
X82550000Y-54229000D03*
D17*
%TO.P,+12V,2*%
%TO.N,Net-(POS_12V_LED1-Pad2)*%
X82550000Y-56769000D03*
%TD*%
D19*
%TO.P,R1,2*%
%TO.N,Net-(BB_POWER_PINS1-Pad1)*%
X84201000Y-74930000D03*
D11*
%TO.P,R1,1*%
%TO.N,Net-(POS_12V_LED1-Pad2)*%
X84201000Y-67310000D03*
%TD*%
%TO.P,R2,1*%
%TO.N,Net-(NEG_12V_LED1-Pad2)*%
X81153000Y-67310000D03*
D19*
%TO.P,R2,2*%
%TO.N,GND*%
X81153000Y-74930000D03*
%TD*%
D20*
%TO.N,GND*%
X79883000Y-43307000D03*
X81534000Y-42545000D03*
X81026000Y-43434000D03*
X84328000Y-43180000D03*
X81153000Y-46228000D03*
X81788000Y-48895000D03*
X82804000Y-47879000D03*
X83947000Y-48006000D03*
X82677000Y-50673000D03*
X80010000Y-51816000D03*
X79375000Y-49657000D03*
X87757000Y-46863000D03*
X87122000Y-47879000D03*
X90170000Y-48006000D03*
X93599000Y-46863000D03*
X93853000Y-47879000D03*
X95885000Y-47625000D03*
X98425000Y-46863000D03*
X98679000Y-48260000D03*
X80899000Y-69723000D03*
X80264000Y-70485000D03*
X81280000Y-72263000D03*
X83693000Y-71628000D03*
X84328000Y-69469000D03*
X74930000Y-76835000D03*
X73787000Y-77851000D03*
X72390000Y-77724000D03*
X77724000Y-88011000D03*
X76835000Y-88900000D03*
X68961000Y-88265000D03*
X71120000Y-88392000D03*
X70866000Y-90043000D03*
X84455000Y-85852000D03*
X83439000Y-87884000D03*
X83185000Y-89281000D03*
X88519000Y-85852000D03*
X89916000Y-86741000D03*
X96393000Y-85598000D03*
X98679000Y-86360000D03*
X97282000Y-86741000D03*
X84582000Y-77851000D03*
X73533000Y-65786000D03*
X73533000Y-66929000D03*
X73533000Y-68326000D03*
X73025000Y-69723000D03*
X70358000Y-53721000D03*
X69342000Y-55118000D03*
X69342000Y-59817000D03*
X69088000Y-62230000D03*
X68326000Y-51181000D03*
X73279000Y-49022000D03*
X73406000Y-49911000D03*
X75184000Y-46863000D03*
%TD*%
D21*
%TO.N,+12V*%
X72136000Y-52832000D02*
X74676000Y-52832000D01*
X70866000Y-51562000D02*
X72136000Y-52832000D01*
X70866000Y-43307000D02*
X70866000Y-51562000D01*
%TO.N,-12V*%
X74676000Y-62992000D02*
X72136000Y-62992000D01*
X70612000Y-64516000D02*
X70612000Y-71414000D01*
X72136000Y-62992000D02*
X70612000Y-64516000D01*
X76581000Y-61087000D02*
X74676000Y-62992000D01*
X75866000Y-43307000D02*
X76581000Y-44022000D01*
X76581000Y-44022000D02*
X76581000Y-61087000D01*
X68961000Y-82686000D02*
X71500000Y-85225000D01*
X70612000Y-71414000D02*
X68961000Y-73065000D01*
X68961000Y-73065000D02*
X68961000Y-82686000D01*
%TO.N,Net-(BB_POWER_PINS1-Pad1)*%
X98425000Y-44450000D02*
X88265000Y-44450000D01*
X85526001Y-47188999D02*
X88265000Y-44450000D01*
X85526001Y-73604999D02*
X85526001Y-47188999D01*
X84201000Y-74930000D02*
X85526001Y-73604999D01*
X84201000Y-74930000D02*
X81534000Y-77597000D01*
X79028000Y-77597000D02*
X76200000Y-80425000D01*
X81534000Y-77597000D02*
X79028000Y-77597000D01*
X76200000Y-80425000D02*
X78649001Y-82874001D01*
X83974998Y-91440000D02*
X98425000Y-91440000D01*
X78649001Y-86114003D02*
X83974998Y-91440000D01*
X78649001Y-82874001D02*
X78649001Y-86114003D01*
%TO.N,Net-(POS_12V_LED1-Pad2)*%
X80645000Y-63754000D02*
X84201000Y-67310000D01*
X82550000Y-56769000D02*
X80645000Y-58674000D01*
X80645000Y-58674000D02*
X80645000Y-63754000D01*
%TD*%
D22*
%TO.N,GND*%
X87264731Y-40812412D02*
X87069822Y-41028645D01*
X86920843Y-41278748D01*
X86823519Y-41553109D01*
X86944186Y-41783000D01*
X88138000Y-41783000D01*
X88138000Y-41763000D01*
X88392000Y-41763000D01*
X88392000Y-41783000D01*
X90678000Y-41783000D01*
X90678000Y-41763000D01*
X90932000Y-41763000D01*
X90932000Y-41783000D01*
X93218000Y-41783000D01*
X93218000Y-41763000D01*
X93472000Y-41763000D01*
X93472000Y-41783000D01*
X95758000Y-41783000D01*
X95758000Y-41763000D01*
X96012000Y-41763000D01*
X96012000Y-41783000D01*
X98298000Y-41783000D01*
X98298000Y-41763000D01*
X98552000Y-41763000D01*
X98552000Y-41783000D01*
X98572000Y-41783000D01*
X98572000Y-42037000D01*
X98552000Y-42037000D01*
X98552000Y-42057000D01*
X98298000Y-42057000D01*
X98298000Y-42037000D01*
X96012000Y-42037000D01*
X96012000Y-42057000D01*
X95758000Y-42057000D01*
X95758000Y-42037000D01*
X93472000Y-42037000D01*
X93472000Y-42057000D01*
X93218000Y-42057000D01*
X93218000Y-42037000D01*
X90932000Y-42037000D01*
X90932000Y-42057000D01*
X90678000Y-42057000D01*
X90678000Y-42037000D01*
X88392000Y-42037000D01*
X88392000Y-42057000D01*
X88138000Y-42057000D01*
X88138000Y-42037000D01*
X86944186Y-42037000D01*
X86823519Y-42266891D01*
X86920843Y-42541252D01*
X87069822Y-42791355D01*
X87264731Y-43007588D01*
X87494406Y-43178900D01*
X87318368Y-43296525D01*
X87111525Y-43503368D01*
X86949010Y-43746589D01*
X86837068Y-44016842D01*
X86780000Y-44303740D01*
X86780000Y-44577355D01*
X84880527Y-46476829D01*
X84843895Y-46506892D01*
X84813831Y-46543525D01*
X84813830Y-46543526D01*
X84723928Y-46653071D01*
X84634785Y-46819846D01*
X84579892Y-47000807D01*
X84561357Y-47188999D01*
X84566002Y-47236161D01*
X84566001Y-65919491D01*
X84342335Y-65875000D01*
X84123645Y-65875000D01*
X82270716Y-64022072D01*
X83450000Y-64022072D01*
X83574482Y-64009812D01*
X83694180Y-63973502D01*
X83804494Y-63914537D01*
X83901185Y-63835185D01*
X83980537Y-63738494D01*
X84039502Y-63628180D01*
X84075812Y-63508482D01*
X84088072Y-63384000D01*
X84088072Y-61584000D01*
X84075812Y-61459518D01*
X84039502Y-61339820D01*
X83980537Y-61229506D01*
X83901185Y-61132815D01*
X83804494Y-61053463D01*
X83694180Y-60994498D01*
X83675873Y-60988944D01*
X83742312Y-60922505D01*
X83910299Y-60671095D01*
X84026011Y-60391743D01*
X84085000Y-60095184D01*
X84085000Y-59792816D01*
X84026011Y-59496257D01*
X83910299Y-59216905D01*
X83742312Y-58965495D01*
X83528505Y-58751688D01*
X83277095Y-58583701D01*
X82997743Y-58467989D01*
X82701184Y-58409000D01*
X82398816Y-58409000D01*
X82235074Y-58441570D01*
X82376987Y-58299658D01*
X82398816Y-58304000D01*
X82701184Y-58304000D01*
X82997743Y-58245011D01*
X83277095Y-58129299D01*
X83528505Y-57961312D01*
X83742312Y-57747505D01*
X83910299Y-57496095D01*
X84026011Y-57216743D01*
X84085000Y-56920184D01*
X84085000Y-56617816D01*
X84026011Y-56321257D01*
X83910299Y-56041905D01*
X83742312Y-55790495D01*
X83675873Y-55724056D01*
X83694180Y-55718502D01*
X83804494Y-55659537D01*
X83901185Y-55580185D01*
X83980537Y-55483494D01*
X84039502Y-55373180D01*
X84075812Y-55253482D01*
X84088072Y-55129000D01*
X84085000Y-54514750D01*
X83926250Y-54356000D01*
X82677000Y-54356000D01*
X82677000Y-54376000D01*
X82423000Y-54376000D01*
X82423000Y-54356000D01*
X81173750Y-54356000D01*
X81015000Y-54514750D01*
X81011928Y-55129000D01*
X81024188Y-55253482D01*
X81060498Y-55373180D01*
X81119463Y-55483494D01*
X81198815Y-55580185D01*
X81295506Y-55659537D01*
X81405820Y-55718502D01*
X81424127Y-55724056D01*
X81357688Y-55790495D01*
X81189701Y-56041905D01*
X81073989Y-56321257D01*
X81015000Y-56617816D01*
X81015000Y-56920184D01*
X81019342Y-56942013D01*
X79999531Y-57961825D01*
X79962893Y-57991893D01*
X79842927Y-58138072D01*
X79753784Y-58304847D01*
X79698890Y-58485808D01*
X79685000Y-58626839D01*
X79685000Y-58626848D01*
X79680356Y-58674000D01*
X79685000Y-58721152D01*
X79685001Y-63706838D01*
X79680356Y-63754000D01*
X79685001Y-63801162D01*
X79698891Y-63942193D01*
X79715543Y-63997086D01*
X79753784Y-64123153D01*
X79842927Y-64289928D01*
X79932829Y-64399473D01*
X79962894Y-64436107D01*
X79999526Y-64466170D01*
X81436668Y-65903312D01*
X81294335Y-65875000D01*
X81011665Y-65875000D01*
X80734426Y-65930147D01*
X80473273Y-66038320D01*
X80238241Y-66195363D01*
X80038363Y-66395241D01*
X79881320Y-66630273D01*
X79773147Y-66891426D01*
X79718000Y-67168665D01*
X79718000Y-67451335D01*
X79773147Y-67728574D01*
X79881320Y-67989727D01*
X80038363Y-68224759D01*
X80238241Y-68424637D01*
X80473273Y-68581680D01*
X80734426Y-68689853D01*
X81011665Y-68745000D01*
X81294335Y-68745000D01*
X81571574Y-68689853D01*
X81832727Y-68581680D01*
X82067759Y-68424637D01*
X82267637Y-68224759D01*
X82424680Y-67989727D01*
X82532853Y-67728574D01*
X82588000Y-67451335D01*
X82588000Y-67168665D01*
X82559688Y-67026333D01*
X82766000Y-67232645D01*
X82766000Y-67451335D01*
X82821147Y-67728574D01*
X82929320Y-67989727D01*
X83086363Y-68224759D01*
X83286241Y-68424637D01*
X83521273Y-68581680D01*
X83782426Y-68689853D01*
X84059665Y-68745000D01*
X84342335Y-68745000D01*
X84566001Y-68700509D01*
X84566001Y-73207354D01*
X84278355Y-73495000D01*
X84059665Y-73495000D01*
X83782426Y-73550147D01*
X83521273Y-73658320D01*
X83286241Y-73815363D01*
X83086363Y-74015241D01*
X82929320Y-74250273D01*
X82821147Y-74511426D01*
X82766000Y-74788665D01*
X82766000Y-75007355D01*
X82527036Y-75246319D01*
X82423624Y-75057000D01*
X81280000Y-75057000D01*
X81280000Y-76199915D01*
X81469390Y-76303966D01*
X81136356Y-76637000D01*
X79075160Y-76637000D01*
X79028000Y-76632355D01*
X78980840Y-76637000D01*
X78980838Y-76637000D01*
X78839807Y-76650890D01*
X78658846Y-76705784D01*
X78492071Y-76794927D01*
X78382526Y-76884829D01*
X78345893Y-76914893D01*
X78315829Y-76951526D01*
X76831788Y-78435568D01*
X76751808Y-78392818D01*
X76481309Y-78310764D01*
X76200000Y-78283057D01*
X75918692Y-78310764D01*
X75648193Y-78392818D01*
X75398900Y-78526068D01*
X75180393Y-78705392D01*
X75001069Y-78923899D01*
X74867819Y-79173192D01*
X74785764Y-79443691D01*
X74765000Y-79654508D01*
X74765000Y-81195491D01*
X74785764Y-81406308D01*
X74867818Y-81676807D01*
X75001068Y-81926100D01*
X75180392Y-82144607D01*
X75398899Y-82323932D01*
X75648192Y-82457182D01*
X75918691Y-82539236D01*
X76200000Y-82566943D01*
X76481308Y-82539236D01*
X76751807Y-82457182D01*
X76831787Y-82414432D01*
X77689001Y-83271646D01*
X77689002Y-86066841D01*
X77684357Y-86114003D01*
X77702892Y-86302195D01*
X77757785Y-86483156D01*
X77846928Y-86649931D01*
X77909439Y-86726100D01*
X77966895Y-86796110D01*
X78003528Y-86826174D01*
X83262827Y-92085474D01*
X83292891Y-92122107D01*
X83329523Y-92152170D01*
X83439069Y-92242073D01*
X83605844Y-92331216D01*
X83786805Y-92386110D01*
X83927836Y-92400000D01*
X83927845Y-92400000D01*
X83974997Y-92404644D01*
X84022149Y-92400000D01*
X87124893Y-92400000D01*
X87307893Y-92583000D01*
X68072000Y-92583000D01*
X68072000Y-83059299D01*
X68158927Y-83221928D01*
X68184765Y-83253411D01*
X68278894Y-83368107D01*
X68315526Y-83398170D01*
X70065000Y-85147645D01*
X70065000Y-85995491D01*
X70085764Y-86206308D01*
X70167818Y-86476807D01*
X70301068Y-86726100D01*
X70480392Y-86944607D01*
X70698899Y-87123932D01*
X70948192Y-87257182D01*
X71218691Y-87339236D01*
X71500000Y-87366943D01*
X71781308Y-87339236D01*
X72051807Y-87257182D01*
X72301100Y-87123932D01*
X72519607Y-86944608D01*
X72698932Y-86726101D01*
X72832182Y-86476808D01*
X72914236Y-86206309D01*
X72935000Y-85995492D01*
X72935000Y-84454508D01*
X74765000Y-84454508D01*
X74765000Y-85995491D01*
X74785764Y-86206308D01*
X74867818Y-86476807D01*
X75001068Y-86726100D01*
X75180392Y-86944607D01*
X75398899Y-87123932D01*
X75648192Y-87257182D01*
X75918691Y-87339236D01*
X76200000Y-87366943D01*
X76481308Y-87339236D01*
X76751807Y-87257182D01*
X77001100Y-87123932D01*
X77219607Y-86944608D01*
X77398932Y-86726101D01*
X77532182Y-86476808D01*
X77614236Y-86206309D01*
X77635000Y-85995492D01*
X77635000Y-84454508D01*
X77614236Y-84243691D01*
X77532182Y-83973192D01*
X77398932Y-83723899D01*
X77219608Y-83505392D01*
X77001101Y-83326068D01*
X76751808Y-83192818D01*
X76481309Y-83110764D01*
X76200000Y-83083057D01*
X75918692Y-83110764D01*
X75648193Y-83192818D01*
X75398900Y-83326068D01*
X75180393Y-83505392D01*
X75001069Y-83723899D01*
X74867819Y-83973192D01*
X74785764Y-84243691D01*
X74765000Y-84454508D01*
X72935000Y-84454508D01*
X72914236Y-84243691D01*
X72832182Y-83973192D01*
X72698932Y-83723899D01*
X72519608Y-83505392D01*
X72301101Y-83326068D01*
X72051808Y-83192818D01*
X71781309Y-83110764D01*
X71500000Y-83083057D01*
X71218692Y-83110764D01*
X70948193Y-83192818D01*
X70868213Y-83235568D01*
X69921000Y-82288356D01*
X69921000Y-79654508D01*
X70065000Y-79654508D01*
X70065000Y-81195491D01*
X70085764Y-81406308D01*
X70167818Y-81676807D01*
X70301068Y-81926100D01*
X70480392Y-82144607D01*
X70698899Y-82323932D01*
X70948192Y-82457182D01*
X71218691Y-82539236D01*
X71500000Y-82566943D01*
X71781308Y-82539236D01*
X72051807Y-82457182D01*
X72301100Y-82323932D01*
X72519607Y-82144608D01*
X72698932Y-81926101D01*
X72832182Y-81676808D01*
X72914236Y-81406309D01*
X72935000Y-81195492D01*
X72935000Y-79654508D01*
X72914236Y-79443691D01*
X72832182Y-79173192D01*
X72698932Y-78923899D01*
X72519608Y-78705392D01*
X72301101Y-78526068D01*
X72051808Y-78392818D01*
X71781309Y-78310764D01*
X71500000Y-78283057D01*
X71218692Y-78310764D01*
X70948193Y-78392818D01*
X70698900Y-78526068D01*
X70480393Y-78705392D01*
X70301069Y-78923899D01*
X70167819Y-79173192D01*
X70085764Y-79443691D01*
X70065000Y-79654508D01*
X69921000Y-79654508D01*
X69921000Y-75351421D01*
X70326250Y-75349000D01*
X70485000Y-75190250D01*
X70485000Y-74041000D01*
X70739000Y-74041000D01*
X70739000Y-75190250D01*
X70897750Y-75349000D01*
X71412000Y-75352072D01*
X71536482Y-75339812D01*
X71656180Y-75303502D01*
X71766494Y-75244537D01*
X71863185Y-75165185D01*
X71942537Y-75068494D01*
X71982514Y-74993702D01*
X75767903Y-74993702D01*
X75839486Y-75237671D01*
X76094996Y-75358571D01*
X76369184Y-75427300D01*
X76651512Y-75441217D01*
X76931130Y-75399787D01*
X77197292Y-75304603D01*
X77245117Y-75279040D01*
X79761091Y-75279040D01*
X79855930Y-75543881D01*
X80000615Y-75785131D01*
X80189586Y-75993519D01*
X80415580Y-76161037D01*
X80669913Y-76281246D01*
X80803961Y-76321904D01*
X81026000Y-76199915D01*
X81026000Y-75057000D01*
X79882376Y-75057000D01*
X79761091Y-75279040D01*
X77245117Y-75279040D01*
X77322514Y-75237671D01*
X77394097Y-74993702D01*
X76581000Y-74180605D01*
X75767903Y-74993702D01*
X71982514Y-74993702D01*
X72001502Y-74958180D01*
X72037812Y-74838482D01*
X72050072Y-74714000D01*
X72047000Y-74199750D01*
X71918762Y-74071512D01*
X75140783Y-74071512D01*
X75182213Y-74351130D01*
X75277397Y-74617292D01*
X75344329Y-74742514D01*
X75588298Y-74814097D01*
X76401395Y-74001000D01*
X76760605Y-74001000D01*
X77573702Y-74814097D01*
X77817671Y-74742514D01*
X77894113Y-74580960D01*
X79761091Y-74580960D01*
X79882376Y-74803000D01*
X81026000Y-74803000D01*
X81026000Y-73660085D01*
X81280000Y-73660085D01*
X81280000Y-74803000D01*
X82423624Y-74803000D01*
X82544909Y-74580960D01*
X82450070Y-74316119D01*
X82305385Y-74074869D01*
X82116414Y-73866481D01*
X81890420Y-73698963D01*
X81636087Y-73578754D01*
X81502039Y-73538096D01*
X81280000Y-73660085D01*
X81026000Y-73660085D01*
X80803961Y-73538096D01*
X80669913Y-73578754D01*
X80415580Y-73698963D01*
X80189586Y-73866481D01*
X80000615Y-74074869D01*
X79855930Y-74316119D01*
X79761091Y-74580960D01*
X77894113Y-74580960D01*
X77938571Y-74487004D01*
X78007300Y-74212816D01*
X78021217Y-73930488D01*
X77979787Y-73650870D01*
X77884603Y-73384708D01*
X77817671Y-73259486D01*
X77573702Y-73187903D01*
X76760605Y-74001000D01*
X76401395Y-74001000D01*
X75588298Y-73187903D01*
X75344329Y-73259486D01*
X75223429Y-73514996D01*
X75154700Y-73789184D01*
X75140783Y-74071512D01*
X71918762Y-74071512D01*
X71888250Y-74041000D01*
X70739000Y-74041000D01*
X70485000Y-74041000D01*
X70465000Y-74041000D01*
X70465000Y-73787000D01*
X70485000Y-73787000D01*
X70485000Y-73767000D01*
X70739000Y-73767000D01*
X70739000Y-73787000D01*
X71888250Y-73787000D01*
X72047000Y-73628250D01*
X72050072Y-73114000D01*
X72037812Y-72989518D01*
X72001502Y-72869820D01*
X71942537Y-72759506D01*
X71863185Y-72662815D01*
X71766494Y-72583463D01*
X71656180Y-72524498D01*
X71560057Y-72495339D01*
X71726637Y-72328759D01*
X71883680Y-72093727D01*
X71991853Y-71832574D01*
X72047000Y-71555335D01*
X72047000Y-71272665D01*
X71991853Y-70995426D01*
X71883680Y-70734273D01*
X71861448Y-70701000D01*
X75142928Y-70701000D01*
X75142928Y-72301000D01*
X75155188Y-72425482D01*
X75191498Y-72545180D01*
X75250463Y-72655494D01*
X75329815Y-72752185D01*
X75426506Y-72831537D01*
X75536820Y-72890502D01*
X75656518Y-72926812D01*
X75781000Y-72939072D01*
X75788215Y-72939072D01*
X75767903Y-73008298D01*
X76581000Y-73821395D01*
X77394097Y-73008298D01*
X77373785Y-72939072D01*
X77381000Y-72939072D01*
X77505482Y-72926812D01*
X77625180Y-72890502D01*
X77735494Y-72831537D01*
X77832185Y-72752185D01*
X77911537Y-72655494D01*
X77970502Y-72545180D01*
X78006812Y-72425482D01*
X78019072Y-72301000D01*
X78019072Y-70701000D01*
X78006812Y-70576518D01*
X77970502Y-70456820D01*
X77911537Y-70346506D01*
X77832185Y-70249815D01*
X77735494Y-70170463D01*
X77625180Y-70111498D01*
X77505482Y-70075188D01*
X77381000Y-70062928D01*
X75781000Y-70062928D01*
X75656518Y-70075188D01*
X75536820Y-70111498D01*
X75426506Y-70170463D01*
X75329815Y-70249815D01*
X75250463Y-70346506D01*
X75191498Y-70456820D01*
X75155188Y-70576518D01*
X75142928Y-70701000D01*
X71861448Y-70701000D01*
X71726637Y-70499241D01*
X71572000Y-70344604D01*
X71572000Y-64913644D01*
X72008644Y-64477000D01*
X72282260Y-64477000D01*
X72569158Y-64419932D01*
X72839411Y-64307990D01*
X73082632Y-64145475D01*
X73269715Y-63958392D01*
X73337595Y-64085386D01*
X73448038Y-64219962D01*
X73582614Y-64330405D01*
X73736150Y-64412472D01*
X73902746Y-64463008D01*
X74076000Y-64480072D01*
X75276000Y-64480072D01*
X75449254Y-64463008D01*
X75615850Y-64412472D01*
X75769386Y-64330405D01*
X75903962Y-64219962D01*
X76014405Y-64085386D01*
X76096472Y-63931850D01*
X76147008Y-63765254D01*
X76164072Y-63592000D01*
X76164072Y-62861572D01*
X77226474Y-61799171D01*
X77263107Y-61769107D01*
X77339510Y-61676010D01*
X77383073Y-61622929D01*
X77472216Y-61456154D01*
X77483180Y-61420011D01*
X77527110Y-61275193D01*
X77541000Y-61134162D01*
X77541000Y-61134160D01*
X77545645Y-61087000D01*
X77541000Y-61039840D01*
X77541000Y-53329000D01*
X81011928Y-53329000D01*
X81015000Y-53943250D01*
X81173750Y-54102000D01*
X82423000Y-54102000D01*
X82423000Y-52852750D01*
X82677000Y-52852750D01*
X82677000Y-54102000D01*
X83926250Y-54102000D01*
X84085000Y-53943250D01*
X84088072Y-53329000D01*
X84075812Y-53204518D01*
X84039502Y-53084820D01*
X83980537Y-52974506D01*
X83901185Y-52877815D01*
X83804494Y-52798463D01*
X83694180Y-52739498D01*
X83574482Y-52703188D01*
X83450000Y-52690928D01*
X82835750Y-52694000D01*
X82677000Y-52852750D01*
X82423000Y-52852750D01*
X82264250Y-52694000D01*
X81650000Y-52690928D01*
X81525518Y-52703188D01*
X81405820Y-52739498D01*
X81295506Y-52798463D01*
X81198815Y-52877815D01*
X81119463Y-52974506D01*
X81060498Y-53084820D01*
X81024188Y-53204518D01*
X81011928Y-53329000D01*
X77541000Y-53329000D01*
X77541000Y-44069160D01*
X77545645Y-44022000D01*
X77535015Y-43914072D01*
X77527110Y-43833807D01*
X77472216Y-43652846D01*
X77385173Y-43490000D01*
X77383073Y-43486071D01*
X77351000Y-43446990D01*
X77351000Y-43109050D01*
X77329513Y-42890889D01*
X77244599Y-42610966D01*
X77106706Y-42352986D01*
X76921134Y-42126866D01*
X76695013Y-41941294D01*
X76437033Y-41803401D01*
X76157110Y-41718487D01*
X75866000Y-41689815D01*
X75574889Y-41718487D01*
X75294966Y-41803401D01*
X75036986Y-41941294D01*
X74810866Y-42126866D01*
X74625294Y-42352987D01*
X74611538Y-42378722D01*
X74455049Y-42172571D01*
X74237193Y-41979504D01*
X73985858Y-41832648D01*
X73722890Y-41740524D01*
X73493000Y-41861845D01*
X73493000Y-43180000D01*
X73513000Y-43180000D01*
X73513000Y-43434000D01*
X73493000Y-43434000D01*
X73493000Y-44752155D01*
X73722890Y-44873476D01*
X73985858Y-44781352D01*
X74237193Y-44634496D01*
X74455049Y-44441429D01*
X74611538Y-44235278D01*
X74625294Y-44261014D01*
X74810866Y-44487134D01*
X75036987Y-44672706D01*
X75294967Y-44810599D01*
X75574890Y-44895513D01*
X75621000Y-44900054D01*
X75621000Y-51677435D01*
X75379411Y-51516010D01*
X75109158Y-51404068D01*
X74822260Y-51347000D01*
X74529740Y-51347000D01*
X74242842Y-51404068D01*
X73972589Y-51516010D01*
X73729368Y-51678525D01*
X73535893Y-51872000D01*
X73276107Y-51872000D01*
X73082632Y-51678525D01*
X72839411Y-51516010D01*
X72569158Y-51404068D01*
X72282260Y-51347000D01*
X72008644Y-51347000D01*
X71826000Y-51164356D01*
X71826000Y-44841702D01*
X71959386Y-44770405D01*
X72093962Y-44659962D01*
X72204405Y-44525386D01*
X72260714Y-44420039D01*
X72276951Y-44441429D01*
X72494807Y-44634496D01*
X72746142Y-44781352D01*
X73009110Y-44873476D01*
X73239000Y-44752155D01*
X73239000Y-43434000D01*
X73219000Y-43434000D01*
X73219000Y-43180000D01*
X73239000Y-43180000D01*
X73239000Y-41861845D01*
X73009110Y-41740524D01*
X72746142Y-41832648D01*
X72494807Y-41979504D01*
X72276951Y-42172571D01*
X72260714Y-42193961D01*
X72204405Y-42088614D01*
X72093962Y-41954038D01*
X71959386Y-41843595D01*
X71805850Y-41761528D01*
X71639254Y-41710992D01*
X71466000Y-41693928D01*
X70266000Y-41693928D01*
X70092746Y-41710992D01*
X69926150Y-41761528D01*
X69772614Y-41843595D01*
X69638038Y-41954038D01*
X69527595Y-42088614D01*
X69445528Y-42242150D01*
X69394992Y-42408746D01*
X69377928Y-42582000D01*
X69377928Y-44032000D01*
X69394992Y-44205254D01*
X69445528Y-44371850D01*
X69527595Y-44525386D01*
X69638038Y-44659962D01*
X69772614Y-44770405D01*
X69906000Y-44841702D01*
X69906001Y-51514838D01*
X69901356Y-51562000D01*
X69906001Y-51609162D01*
X69912833Y-51678525D01*
X69919891Y-51750192D01*
X69974784Y-51931153D01*
X70063927Y-52097928D01*
X70153829Y-52207473D01*
X70183894Y-52244107D01*
X70220526Y-52274170D01*
X70651000Y-52704644D01*
X70651000Y-52978260D01*
X70708068Y-53265158D01*
X70820010Y-53535411D01*
X70982525Y-53778632D01*
X71189368Y-53985475D01*
X71362729Y-54101311D01*
X71287208Y-54343603D01*
X72136000Y-55192395D01*
X72984792Y-54343603D01*
X72909271Y-54101311D01*
X73082632Y-53985475D01*
X73276107Y-53792000D01*
X73535893Y-53792000D01*
X73729368Y-53985475D01*
X73902729Y-54101311D01*
X73827208Y-54343603D01*
X74676000Y-55192395D01*
X74690143Y-55178253D01*
X74869748Y-55357858D01*
X74855605Y-55372000D01*
X74869748Y-55386143D01*
X74690143Y-55565748D01*
X74676000Y-55551605D01*
X73827208Y-56400397D01*
X73902514Y-56642000D01*
X73827208Y-56883603D01*
X74676000Y-57732395D01*
X74690143Y-57718253D01*
X74869748Y-57897858D01*
X74855605Y-57912000D01*
X74869748Y-57926143D01*
X74690143Y-58105748D01*
X74676000Y-58091605D01*
X73827208Y-58940397D01*
X73902514Y-59182000D01*
X73827208Y-59423603D01*
X74676000Y-60272395D01*
X74690143Y-60258253D01*
X74869748Y-60437858D01*
X74855605Y-60452000D01*
X74869748Y-60466143D01*
X74690143Y-60645748D01*
X74676000Y-60631605D01*
X73827208Y-61480397D01*
X73845293Y-61538420D01*
X73736150Y-61571528D01*
X73582614Y-61653595D01*
X73448038Y-61764038D01*
X73337595Y-61898614D01*
X73269715Y-62025608D01*
X73082632Y-61838525D01*
X72909271Y-61722689D01*
X72984792Y-61480397D01*
X72136000Y-60631605D01*
X71287208Y-61480397D01*
X71362729Y-61722689D01*
X71189368Y-61838525D01*
X70982525Y-62045368D01*
X70820010Y-62288589D01*
X70708068Y-62558842D01*
X70651000Y-62845740D01*
X70651000Y-63119356D01*
X69966531Y-63803825D01*
X69929893Y-63833893D01*
X69809927Y-63980072D01*
X69720784Y-64146847D01*
X69665890Y-64327808D01*
X69652000Y-64468839D01*
X69652000Y-64468848D01*
X69647356Y-64516000D01*
X69652000Y-64563152D01*
X69652001Y-70344603D01*
X69497363Y-70499241D01*
X69340320Y-70734273D01*
X69232147Y-70995426D01*
X69177000Y-71272665D01*
X69177000Y-71491355D01*
X68315531Y-72352825D01*
X68278893Y-72382893D01*
X68158927Y-72529072D01*
X68072000Y-72691701D01*
X68072000Y-60520531D01*
X70645389Y-60520531D01*
X70687401Y-60810019D01*
X70785081Y-61085747D01*
X70858528Y-61223157D01*
X71107603Y-61300792D01*
X71956395Y-60452000D01*
X72315605Y-60452000D01*
X73164397Y-61300792D01*
X73406000Y-61225486D01*
X73647603Y-61300792D01*
X74496395Y-60452000D01*
X73647603Y-59603208D01*
X73406000Y-59678514D01*
X73164397Y-59603208D01*
X72315605Y-60452000D01*
X71956395Y-60452000D01*
X71107603Y-59603208D01*
X70858528Y-59680843D01*
X70732629Y-59944883D01*
X70660661Y-60228411D01*
X70645389Y-60520531D01*
X68072000Y-60520531D01*
X68072000Y-58940397D01*
X71287208Y-58940397D01*
X71362514Y-59182000D01*
X71287208Y-59423603D01*
X72136000Y-60272395D01*
X72984792Y-59423603D01*
X72909486Y-59182000D01*
X72984792Y-58940397D01*
X72136000Y-58091605D01*
X71287208Y-58940397D01*
X68072000Y-58940397D01*
X68072000Y-57980531D01*
X70645389Y-57980531D01*
X70687401Y-58270019D01*
X70785081Y-58545747D01*
X70858528Y-58683157D01*
X71107603Y-58760792D01*
X71956395Y-57912000D01*
X72315605Y-57912000D01*
X73164397Y-58760792D01*
X73406000Y-58685486D01*
X73647603Y-58760792D01*
X74496395Y-57912000D01*
X73647603Y-57063208D01*
X73406000Y-57138514D01*
X73164397Y-57063208D01*
X72315605Y-57912000D01*
X71956395Y-57912000D01*
X71107603Y-57063208D01*
X70858528Y-57140843D01*
X70732629Y-57404883D01*
X70660661Y-57688411D01*
X70645389Y-57980531D01*
X68072000Y-57980531D01*
X68072000Y-56400397D01*
X71287208Y-56400397D01*
X71362514Y-56642000D01*
X71287208Y-56883603D01*
X72136000Y-57732395D01*
X72984792Y-56883603D01*
X72909486Y-56642000D01*
X72984792Y-56400397D01*
X72136000Y-55551605D01*
X71287208Y-56400397D01*
X68072000Y-56400397D01*
X68072000Y-55440531D01*
X70645389Y-55440531D01*
X70687401Y-55730019D01*
X70785081Y-56005747D01*
X70858528Y-56143157D01*
X71107603Y-56220792D01*
X71956395Y-55372000D01*
X72315605Y-55372000D01*
X73164397Y-56220792D01*
X73406000Y-56145486D01*
X73647603Y-56220792D01*
X74496395Y-55372000D01*
X73647603Y-54523208D01*
X73406000Y-54598514D01*
X73164397Y-54523208D01*
X72315605Y-55372000D01*
X71956395Y-55372000D01*
X71107603Y-54523208D01*
X70858528Y-54600843D01*
X70732629Y-54864883D01*
X70660661Y-55148411D01*
X70645389Y-55440531D01*
X68072000Y-55440531D01*
X68072000Y-40767000D01*
X87325614Y-40767000D01*
X87264731Y-40812412D01*
%TA.AperFunction,Conductor*%
D23*
G36*
X87264731Y-40812412D02*
G01*
X87069822Y-41028645D01*
X86920843Y-41278748D01*
X86823519Y-41553109D01*
X86944186Y-41783000D01*
X88138000Y-41783000D01*
X88138000Y-41763000D01*
X88392000Y-41763000D01*
X88392000Y-41783000D01*
X90678000Y-41783000D01*
X90678000Y-41763000D01*
X90932000Y-41763000D01*
X90932000Y-41783000D01*
X93218000Y-41783000D01*
X93218000Y-41763000D01*
X93472000Y-41763000D01*
X93472000Y-41783000D01*
X95758000Y-41783000D01*
X95758000Y-41763000D01*
X96012000Y-41763000D01*
X96012000Y-41783000D01*
X98298000Y-41783000D01*
X98298000Y-41763000D01*
X98552000Y-41763000D01*
X98552000Y-41783000D01*
X98572000Y-41783000D01*
X98572000Y-42037000D01*
X98552000Y-42037000D01*
X98552000Y-42057000D01*
X98298000Y-42057000D01*
X98298000Y-42037000D01*
X96012000Y-42037000D01*
X96012000Y-42057000D01*
X95758000Y-42057000D01*
X95758000Y-42037000D01*
X93472000Y-42037000D01*
X93472000Y-42057000D01*
X93218000Y-42057000D01*
X93218000Y-42037000D01*
X90932000Y-42037000D01*
X90932000Y-42057000D01*
X90678000Y-42057000D01*
X90678000Y-42037000D01*
X88392000Y-42037000D01*
X88392000Y-42057000D01*
X88138000Y-42057000D01*
X88138000Y-42037000D01*
X86944186Y-42037000D01*
X86823519Y-42266891D01*
X86920843Y-42541252D01*
X87069822Y-42791355D01*
X87264731Y-43007588D01*
X87494406Y-43178900D01*
X87318368Y-43296525D01*
X87111525Y-43503368D01*
X86949010Y-43746589D01*
X86837068Y-44016842D01*
X86780000Y-44303740D01*
X86780000Y-44577355D01*
X84880527Y-46476829D01*
X84843895Y-46506892D01*
X84813831Y-46543525D01*
X84813830Y-46543526D01*
X84723928Y-46653071D01*
X84634785Y-46819846D01*
X84579892Y-47000807D01*
X84561357Y-47188999D01*
X84566002Y-47236161D01*
X84566001Y-65919491D01*
X84342335Y-65875000D01*
X84123645Y-65875000D01*
X82270716Y-64022072D01*
X83450000Y-64022072D01*
X83574482Y-64009812D01*
X83694180Y-63973502D01*
X83804494Y-63914537D01*
X83901185Y-63835185D01*
X83980537Y-63738494D01*
X84039502Y-63628180D01*
X84075812Y-63508482D01*
X84088072Y-63384000D01*
X84088072Y-61584000D01*
X84075812Y-61459518D01*
X84039502Y-61339820D01*
X83980537Y-61229506D01*
X83901185Y-61132815D01*
X83804494Y-61053463D01*
X83694180Y-60994498D01*
X83675873Y-60988944D01*
X83742312Y-60922505D01*
X83910299Y-60671095D01*
X84026011Y-60391743D01*
X84085000Y-60095184D01*
X84085000Y-59792816D01*
X84026011Y-59496257D01*
X83910299Y-59216905D01*
X83742312Y-58965495D01*
X83528505Y-58751688D01*
X83277095Y-58583701D01*
X82997743Y-58467989D01*
X82701184Y-58409000D01*
X82398816Y-58409000D01*
X82235074Y-58441570D01*
X82376987Y-58299658D01*
X82398816Y-58304000D01*
X82701184Y-58304000D01*
X82997743Y-58245011D01*
X83277095Y-58129299D01*
X83528505Y-57961312D01*
X83742312Y-57747505D01*
X83910299Y-57496095D01*
X84026011Y-57216743D01*
X84085000Y-56920184D01*
X84085000Y-56617816D01*
X84026011Y-56321257D01*
X83910299Y-56041905D01*
X83742312Y-55790495D01*
X83675873Y-55724056D01*
X83694180Y-55718502D01*
X83804494Y-55659537D01*
X83901185Y-55580185D01*
X83980537Y-55483494D01*
X84039502Y-55373180D01*
X84075812Y-55253482D01*
X84088072Y-55129000D01*
X84085000Y-54514750D01*
X83926250Y-54356000D01*
X82677000Y-54356000D01*
X82677000Y-54376000D01*
X82423000Y-54376000D01*
X82423000Y-54356000D01*
X81173750Y-54356000D01*
X81015000Y-54514750D01*
X81011928Y-55129000D01*
X81024188Y-55253482D01*
X81060498Y-55373180D01*
X81119463Y-55483494D01*
X81198815Y-55580185D01*
X81295506Y-55659537D01*
X81405820Y-55718502D01*
X81424127Y-55724056D01*
X81357688Y-55790495D01*
X81189701Y-56041905D01*
X81073989Y-56321257D01*
X81015000Y-56617816D01*
X81015000Y-56920184D01*
X81019342Y-56942013D01*
X79999531Y-57961825D01*
X79962893Y-57991893D01*
X79842927Y-58138072D01*
X79753784Y-58304847D01*
X79698890Y-58485808D01*
X79685000Y-58626839D01*
X79685000Y-58626848D01*
X79680356Y-58674000D01*
X79685000Y-58721152D01*
X79685001Y-63706838D01*
X79680356Y-63754000D01*
X79685001Y-63801162D01*
X79698891Y-63942193D01*
X79715543Y-63997086D01*
X79753784Y-64123153D01*
X79842927Y-64289928D01*
X79932829Y-64399473D01*
X79962894Y-64436107D01*
X79999526Y-64466170D01*
X81436668Y-65903312D01*
X81294335Y-65875000D01*
X81011665Y-65875000D01*
X80734426Y-65930147D01*
X80473273Y-66038320D01*
X80238241Y-66195363D01*
X80038363Y-66395241D01*
X79881320Y-66630273D01*
X79773147Y-66891426D01*
X79718000Y-67168665D01*
X79718000Y-67451335D01*
X79773147Y-67728574D01*
X79881320Y-67989727D01*
X80038363Y-68224759D01*
X80238241Y-68424637D01*
X80473273Y-68581680D01*
X80734426Y-68689853D01*
X81011665Y-68745000D01*
X81294335Y-68745000D01*
X81571574Y-68689853D01*
X81832727Y-68581680D01*
X82067759Y-68424637D01*
X82267637Y-68224759D01*
X82424680Y-67989727D01*
X82532853Y-67728574D01*
X82588000Y-67451335D01*
X82588000Y-67168665D01*
X82559688Y-67026333D01*
X82766000Y-67232645D01*
X82766000Y-67451335D01*
X82821147Y-67728574D01*
X82929320Y-67989727D01*
X83086363Y-68224759D01*
X83286241Y-68424637D01*
X83521273Y-68581680D01*
X83782426Y-68689853D01*
X84059665Y-68745000D01*
X84342335Y-68745000D01*
X84566001Y-68700509D01*
X84566001Y-73207354D01*
X84278355Y-73495000D01*
X84059665Y-73495000D01*
X83782426Y-73550147D01*
X83521273Y-73658320D01*
X83286241Y-73815363D01*
X83086363Y-74015241D01*
X82929320Y-74250273D01*
X82821147Y-74511426D01*
X82766000Y-74788665D01*
X82766000Y-75007355D01*
X82527036Y-75246319D01*
X82423624Y-75057000D01*
X81280000Y-75057000D01*
X81280000Y-76199915D01*
X81469390Y-76303966D01*
X81136356Y-76637000D01*
X79075160Y-76637000D01*
X79028000Y-76632355D01*
X78980840Y-76637000D01*
X78980838Y-76637000D01*
X78839807Y-76650890D01*
X78658846Y-76705784D01*
X78492071Y-76794927D01*
X78382526Y-76884829D01*
X78345893Y-76914893D01*
X78315829Y-76951526D01*
X76831788Y-78435568D01*
X76751808Y-78392818D01*
X76481309Y-78310764D01*
X76200000Y-78283057D01*
X75918692Y-78310764D01*
X75648193Y-78392818D01*
X75398900Y-78526068D01*
X75180393Y-78705392D01*
X75001069Y-78923899D01*
X74867819Y-79173192D01*
X74785764Y-79443691D01*
X74765000Y-79654508D01*
X74765000Y-81195491D01*
X74785764Y-81406308D01*
X74867818Y-81676807D01*
X75001068Y-81926100D01*
X75180392Y-82144607D01*
X75398899Y-82323932D01*
X75648192Y-82457182D01*
X75918691Y-82539236D01*
X76200000Y-82566943D01*
X76481308Y-82539236D01*
X76751807Y-82457182D01*
X76831787Y-82414432D01*
X77689001Y-83271646D01*
X77689002Y-86066841D01*
X77684357Y-86114003D01*
X77702892Y-86302195D01*
X77757785Y-86483156D01*
X77846928Y-86649931D01*
X77909439Y-86726100D01*
X77966895Y-86796110D01*
X78003528Y-86826174D01*
X83262827Y-92085474D01*
X83292891Y-92122107D01*
X83329523Y-92152170D01*
X83439069Y-92242073D01*
X83605844Y-92331216D01*
X83786805Y-92386110D01*
X83927836Y-92400000D01*
X83927845Y-92400000D01*
X83974997Y-92404644D01*
X84022149Y-92400000D01*
X87124893Y-92400000D01*
X87307893Y-92583000D01*
X68072000Y-92583000D01*
X68072000Y-83059299D01*
X68158927Y-83221928D01*
X68184765Y-83253411D01*
X68278894Y-83368107D01*
X68315526Y-83398170D01*
X70065000Y-85147645D01*
X70065000Y-85995491D01*
X70085764Y-86206308D01*
X70167818Y-86476807D01*
X70301068Y-86726100D01*
X70480392Y-86944607D01*
X70698899Y-87123932D01*
X70948192Y-87257182D01*
X71218691Y-87339236D01*
X71500000Y-87366943D01*
X71781308Y-87339236D01*
X72051807Y-87257182D01*
X72301100Y-87123932D01*
X72519607Y-86944608D01*
X72698932Y-86726101D01*
X72832182Y-86476808D01*
X72914236Y-86206309D01*
X72935000Y-85995492D01*
X72935000Y-84454508D01*
X74765000Y-84454508D01*
X74765000Y-85995491D01*
X74785764Y-86206308D01*
X74867818Y-86476807D01*
X75001068Y-86726100D01*
X75180392Y-86944607D01*
X75398899Y-87123932D01*
X75648192Y-87257182D01*
X75918691Y-87339236D01*
X76200000Y-87366943D01*
X76481308Y-87339236D01*
X76751807Y-87257182D01*
X77001100Y-87123932D01*
X77219607Y-86944608D01*
X77398932Y-86726101D01*
X77532182Y-86476808D01*
X77614236Y-86206309D01*
X77635000Y-85995492D01*
X77635000Y-84454508D01*
X77614236Y-84243691D01*
X77532182Y-83973192D01*
X77398932Y-83723899D01*
X77219608Y-83505392D01*
X77001101Y-83326068D01*
X76751808Y-83192818D01*
X76481309Y-83110764D01*
X76200000Y-83083057D01*
X75918692Y-83110764D01*
X75648193Y-83192818D01*
X75398900Y-83326068D01*
X75180393Y-83505392D01*
X75001069Y-83723899D01*
X74867819Y-83973192D01*
X74785764Y-84243691D01*
X74765000Y-84454508D01*
X72935000Y-84454508D01*
X72914236Y-84243691D01*
X72832182Y-83973192D01*
X72698932Y-83723899D01*
X72519608Y-83505392D01*
X72301101Y-83326068D01*
X72051808Y-83192818D01*
X71781309Y-83110764D01*
X71500000Y-83083057D01*
X71218692Y-83110764D01*
X70948193Y-83192818D01*
X70868213Y-83235568D01*
X69921000Y-82288356D01*
X69921000Y-79654508D01*
X70065000Y-79654508D01*
X70065000Y-81195491D01*
X70085764Y-81406308D01*
X70167818Y-81676807D01*
X70301068Y-81926100D01*
X70480392Y-82144607D01*
X70698899Y-82323932D01*
X70948192Y-82457182D01*
X71218691Y-82539236D01*
X71500000Y-82566943D01*
X71781308Y-82539236D01*
X72051807Y-82457182D01*
X72301100Y-82323932D01*
X72519607Y-82144608D01*
X72698932Y-81926101D01*
X72832182Y-81676808D01*
X72914236Y-81406309D01*
X72935000Y-81195492D01*
X72935000Y-79654508D01*
X72914236Y-79443691D01*
X72832182Y-79173192D01*
X72698932Y-78923899D01*
X72519608Y-78705392D01*
X72301101Y-78526068D01*
X72051808Y-78392818D01*
X71781309Y-78310764D01*
X71500000Y-78283057D01*
X71218692Y-78310764D01*
X70948193Y-78392818D01*
X70698900Y-78526068D01*
X70480393Y-78705392D01*
X70301069Y-78923899D01*
X70167819Y-79173192D01*
X70085764Y-79443691D01*
X70065000Y-79654508D01*
X69921000Y-79654508D01*
X69921000Y-75351421D01*
X70326250Y-75349000D01*
X70485000Y-75190250D01*
X70485000Y-74041000D01*
X70739000Y-74041000D01*
X70739000Y-75190250D01*
X70897750Y-75349000D01*
X71412000Y-75352072D01*
X71536482Y-75339812D01*
X71656180Y-75303502D01*
X71766494Y-75244537D01*
X71863185Y-75165185D01*
X71942537Y-75068494D01*
X71982514Y-74993702D01*
X75767903Y-74993702D01*
X75839486Y-75237671D01*
X76094996Y-75358571D01*
X76369184Y-75427300D01*
X76651512Y-75441217D01*
X76931130Y-75399787D01*
X77197292Y-75304603D01*
X77245117Y-75279040D01*
X79761091Y-75279040D01*
X79855930Y-75543881D01*
X80000615Y-75785131D01*
X80189586Y-75993519D01*
X80415580Y-76161037D01*
X80669913Y-76281246D01*
X80803961Y-76321904D01*
X81026000Y-76199915D01*
X81026000Y-75057000D01*
X79882376Y-75057000D01*
X79761091Y-75279040D01*
X77245117Y-75279040D01*
X77322514Y-75237671D01*
X77394097Y-74993702D01*
X76581000Y-74180605D01*
X75767903Y-74993702D01*
X71982514Y-74993702D01*
X72001502Y-74958180D01*
X72037812Y-74838482D01*
X72050072Y-74714000D01*
X72047000Y-74199750D01*
X71918762Y-74071512D01*
X75140783Y-74071512D01*
X75182213Y-74351130D01*
X75277397Y-74617292D01*
X75344329Y-74742514D01*
X75588298Y-74814097D01*
X76401395Y-74001000D01*
X76760605Y-74001000D01*
X77573702Y-74814097D01*
X77817671Y-74742514D01*
X77894113Y-74580960D01*
X79761091Y-74580960D01*
X79882376Y-74803000D01*
X81026000Y-74803000D01*
X81026000Y-73660085D01*
X81280000Y-73660085D01*
X81280000Y-74803000D01*
X82423624Y-74803000D01*
X82544909Y-74580960D01*
X82450070Y-74316119D01*
X82305385Y-74074869D01*
X82116414Y-73866481D01*
X81890420Y-73698963D01*
X81636087Y-73578754D01*
X81502039Y-73538096D01*
X81280000Y-73660085D01*
X81026000Y-73660085D01*
X80803961Y-73538096D01*
X80669913Y-73578754D01*
X80415580Y-73698963D01*
X80189586Y-73866481D01*
X80000615Y-74074869D01*
X79855930Y-74316119D01*
X79761091Y-74580960D01*
X77894113Y-74580960D01*
X77938571Y-74487004D01*
X78007300Y-74212816D01*
X78021217Y-73930488D01*
X77979787Y-73650870D01*
X77884603Y-73384708D01*
X77817671Y-73259486D01*
X77573702Y-73187903D01*
X76760605Y-74001000D01*
X76401395Y-74001000D01*
X75588298Y-73187903D01*
X75344329Y-73259486D01*
X75223429Y-73514996D01*
X75154700Y-73789184D01*
X75140783Y-74071512D01*
X71918762Y-74071512D01*
X71888250Y-74041000D01*
X70739000Y-74041000D01*
X70485000Y-74041000D01*
X70465000Y-74041000D01*
X70465000Y-73787000D01*
X70485000Y-73787000D01*
X70485000Y-73767000D01*
X70739000Y-73767000D01*
X70739000Y-73787000D01*
X71888250Y-73787000D01*
X72047000Y-73628250D01*
X72050072Y-73114000D01*
X72037812Y-72989518D01*
X72001502Y-72869820D01*
X71942537Y-72759506D01*
X71863185Y-72662815D01*
X71766494Y-72583463D01*
X71656180Y-72524498D01*
X71560057Y-72495339D01*
X71726637Y-72328759D01*
X71883680Y-72093727D01*
X71991853Y-71832574D01*
X72047000Y-71555335D01*
X72047000Y-71272665D01*
X71991853Y-70995426D01*
X71883680Y-70734273D01*
X71861448Y-70701000D01*
X75142928Y-70701000D01*
X75142928Y-72301000D01*
X75155188Y-72425482D01*
X75191498Y-72545180D01*
X75250463Y-72655494D01*
X75329815Y-72752185D01*
X75426506Y-72831537D01*
X75536820Y-72890502D01*
X75656518Y-72926812D01*
X75781000Y-72939072D01*
X75788215Y-72939072D01*
X75767903Y-73008298D01*
X76581000Y-73821395D01*
X77394097Y-73008298D01*
X77373785Y-72939072D01*
X77381000Y-72939072D01*
X77505482Y-72926812D01*
X77625180Y-72890502D01*
X77735494Y-72831537D01*
X77832185Y-72752185D01*
X77911537Y-72655494D01*
X77970502Y-72545180D01*
X78006812Y-72425482D01*
X78019072Y-72301000D01*
X78019072Y-70701000D01*
X78006812Y-70576518D01*
X77970502Y-70456820D01*
X77911537Y-70346506D01*
X77832185Y-70249815D01*
X77735494Y-70170463D01*
X77625180Y-70111498D01*
X77505482Y-70075188D01*
X77381000Y-70062928D01*
X75781000Y-70062928D01*
X75656518Y-70075188D01*
X75536820Y-70111498D01*
X75426506Y-70170463D01*
X75329815Y-70249815D01*
X75250463Y-70346506D01*
X75191498Y-70456820D01*
X75155188Y-70576518D01*
X75142928Y-70701000D01*
X71861448Y-70701000D01*
X71726637Y-70499241D01*
X71572000Y-70344604D01*
X71572000Y-64913644D01*
X72008644Y-64477000D01*
X72282260Y-64477000D01*
X72569158Y-64419932D01*
X72839411Y-64307990D01*
X73082632Y-64145475D01*
X73269715Y-63958392D01*
X73337595Y-64085386D01*
X73448038Y-64219962D01*
X73582614Y-64330405D01*
X73736150Y-64412472D01*
X73902746Y-64463008D01*
X74076000Y-64480072D01*
X75276000Y-64480072D01*
X75449254Y-64463008D01*
X75615850Y-64412472D01*
X75769386Y-64330405D01*
X75903962Y-64219962D01*
X76014405Y-64085386D01*
X76096472Y-63931850D01*
X76147008Y-63765254D01*
X76164072Y-63592000D01*
X76164072Y-62861572D01*
X77226474Y-61799171D01*
X77263107Y-61769107D01*
X77339510Y-61676010D01*
X77383073Y-61622929D01*
X77472216Y-61456154D01*
X77483180Y-61420011D01*
X77527110Y-61275193D01*
X77541000Y-61134162D01*
X77541000Y-61134160D01*
X77545645Y-61087000D01*
X77541000Y-61039840D01*
X77541000Y-53329000D01*
X81011928Y-53329000D01*
X81015000Y-53943250D01*
X81173750Y-54102000D01*
X82423000Y-54102000D01*
X82423000Y-52852750D01*
X82677000Y-52852750D01*
X82677000Y-54102000D01*
X83926250Y-54102000D01*
X84085000Y-53943250D01*
X84088072Y-53329000D01*
X84075812Y-53204518D01*
X84039502Y-53084820D01*
X83980537Y-52974506D01*
X83901185Y-52877815D01*
X83804494Y-52798463D01*
X83694180Y-52739498D01*
X83574482Y-52703188D01*
X83450000Y-52690928D01*
X82835750Y-52694000D01*
X82677000Y-52852750D01*
X82423000Y-52852750D01*
X82264250Y-52694000D01*
X81650000Y-52690928D01*
X81525518Y-52703188D01*
X81405820Y-52739498D01*
X81295506Y-52798463D01*
X81198815Y-52877815D01*
X81119463Y-52974506D01*
X81060498Y-53084820D01*
X81024188Y-53204518D01*
X81011928Y-53329000D01*
X77541000Y-53329000D01*
X77541000Y-44069160D01*
X77545645Y-44022000D01*
X77535015Y-43914072D01*
X77527110Y-43833807D01*
X77472216Y-43652846D01*
X77385173Y-43490000D01*
X77383073Y-43486071D01*
X77351000Y-43446990D01*
X77351000Y-43109050D01*
X77329513Y-42890889D01*
X77244599Y-42610966D01*
X77106706Y-42352986D01*
X76921134Y-42126866D01*
X76695013Y-41941294D01*
X76437033Y-41803401D01*
X76157110Y-41718487D01*
X75866000Y-41689815D01*
X75574889Y-41718487D01*
X75294966Y-41803401D01*
X75036986Y-41941294D01*
X74810866Y-42126866D01*
X74625294Y-42352987D01*
X74611538Y-42378722D01*
X74455049Y-42172571D01*
X74237193Y-41979504D01*
X73985858Y-41832648D01*
X73722890Y-41740524D01*
X73493000Y-41861845D01*
X73493000Y-43180000D01*
X73513000Y-43180000D01*
X73513000Y-43434000D01*
X73493000Y-43434000D01*
X73493000Y-44752155D01*
X73722890Y-44873476D01*
X73985858Y-44781352D01*
X74237193Y-44634496D01*
X74455049Y-44441429D01*
X74611538Y-44235278D01*
X74625294Y-44261014D01*
X74810866Y-44487134D01*
X75036987Y-44672706D01*
X75294967Y-44810599D01*
X75574890Y-44895513D01*
X75621000Y-44900054D01*
X75621000Y-51677435D01*
X75379411Y-51516010D01*
X75109158Y-51404068D01*
X74822260Y-51347000D01*
X74529740Y-51347000D01*
X74242842Y-51404068D01*
X73972589Y-51516010D01*
X73729368Y-51678525D01*
X73535893Y-51872000D01*
X73276107Y-51872000D01*
X73082632Y-51678525D01*
X72839411Y-51516010D01*
X72569158Y-51404068D01*
X72282260Y-51347000D01*
X72008644Y-51347000D01*
X71826000Y-51164356D01*
X71826000Y-44841702D01*
X71959386Y-44770405D01*
X72093962Y-44659962D01*
X72204405Y-44525386D01*
X72260714Y-44420039D01*
X72276951Y-44441429D01*
X72494807Y-44634496D01*
X72746142Y-44781352D01*
X73009110Y-44873476D01*
X73239000Y-44752155D01*
X73239000Y-43434000D01*
X73219000Y-43434000D01*
X73219000Y-43180000D01*
X73239000Y-43180000D01*
X73239000Y-41861845D01*
X73009110Y-41740524D01*
X72746142Y-41832648D01*
X72494807Y-41979504D01*
X72276951Y-42172571D01*
X72260714Y-42193961D01*
X72204405Y-42088614D01*
X72093962Y-41954038D01*
X71959386Y-41843595D01*
X71805850Y-41761528D01*
X71639254Y-41710992D01*
X71466000Y-41693928D01*
X70266000Y-41693928D01*
X70092746Y-41710992D01*
X69926150Y-41761528D01*
X69772614Y-41843595D01*
X69638038Y-41954038D01*
X69527595Y-42088614D01*
X69445528Y-42242150D01*
X69394992Y-42408746D01*
X69377928Y-42582000D01*
X69377928Y-44032000D01*
X69394992Y-44205254D01*
X69445528Y-44371850D01*
X69527595Y-44525386D01*
X69638038Y-44659962D01*
X69772614Y-44770405D01*
X69906000Y-44841702D01*
X69906001Y-51514838D01*
X69901356Y-51562000D01*
X69906001Y-51609162D01*
X69912833Y-51678525D01*
X69919891Y-51750192D01*
X69974784Y-51931153D01*
X70063927Y-52097928D01*
X70153829Y-52207473D01*
X70183894Y-52244107D01*
X70220526Y-52274170D01*
X70651000Y-52704644D01*
X70651000Y-52978260D01*
X70708068Y-53265158D01*
X70820010Y-53535411D01*
X70982525Y-53778632D01*
X71189368Y-53985475D01*
X71362729Y-54101311D01*
X71287208Y-54343603D01*
X72136000Y-55192395D01*
X72984792Y-54343603D01*
X72909271Y-54101311D01*
X73082632Y-53985475D01*
X73276107Y-53792000D01*
X73535893Y-53792000D01*
X73729368Y-53985475D01*
X73902729Y-54101311D01*
X73827208Y-54343603D01*
X74676000Y-55192395D01*
X74690143Y-55178253D01*
X74869748Y-55357858D01*
X74855605Y-55372000D01*
X74869748Y-55386143D01*
X74690143Y-55565748D01*
X74676000Y-55551605D01*
X73827208Y-56400397D01*
X73902514Y-56642000D01*
X73827208Y-56883603D01*
X74676000Y-57732395D01*
X74690143Y-57718253D01*
X74869748Y-57897858D01*
X74855605Y-57912000D01*
X74869748Y-57926143D01*
X74690143Y-58105748D01*
X74676000Y-58091605D01*
X73827208Y-58940397D01*
X73902514Y-59182000D01*
X73827208Y-59423603D01*
X74676000Y-60272395D01*
X74690143Y-60258253D01*
X74869748Y-60437858D01*
X74855605Y-60452000D01*
X74869748Y-60466143D01*
X74690143Y-60645748D01*
X74676000Y-60631605D01*
X73827208Y-61480397D01*
X73845293Y-61538420D01*
X73736150Y-61571528D01*
X73582614Y-61653595D01*
X73448038Y-61764038D01*
X73337595Y-61898614D01*
X73269715Y-62025608D01*
X73082632Y-61838525D01*
X72909271Y-61722689D01*
X72984792Y-61480397D01*
X72136000Y-60631605D01*
X71287208Y-61480397D01*
X71362729Y-61722689D01*
X71189368Y-61838525D01*
X70982525Y-62045368D01*
X70820010Y-62288589D01*
X70708068Y-62558842D01*
X70651000Y-62845740D01*
X70651000Y-63119356D01*
X69966531Y-63803825D01*
X69929893Y-63833893D01*
X69809927Y-63980072D01*
X69720784Y-64146847D01*
X69665890Y-64327808D01*
X69652000Y-64468839D01*
X69652000Y-64468848D01*
X69647356Y-64516000D01*
X69652000Y-64563152D01*
X69652001Y-70344603D01*
X69497363Y-70499241D01*
X69340320Y-70734273D01*
X69232147Y-70995426D01*
X69177000Y-71272665D01*
X69177000Y-71491355D01*
X68315531Y-72352825D01*
X68278893Y-72382893D01*
X68158927Y-72529072D01*
X68072000Y-72691701D01*
X68072000Y-60520531D01*
X70645389Y-60520531D01*
X70687401Y-60810019D01*
X70785081Y-61085747D01*
X70858528Y-61223157D01*
X71107603Y-61300792D01*
X71956395Y-60452000D01*
X72315605Y-60452000D01*
X73164397Y-61300792D01*
X73406000Y-61225486D01*
X73647603Y-61300792D01*
X74496395Y-60452000D01*
X73647603Y-59603208D01*
X73406000Y-59678514D01*
X73164397Y-59603208D01*
X72315605Y-60452000D01*
X71956395Y-60452000D01*
X71107603Y-59603208D01*
X70858528Y-59680843D01*
X70732629Y-59944883D01*
X70660661Y-60228411D01*
X70645389Y-60520531D01*
X68072000Y-60520531D01*
X68072000Y-58940397D01*
X71287208Y-58940397D01*
X71362514Y-59182000D01*
X71287208Y-59423603D01*
X72136000Y-60272395D01*
X72984792Y-59423603D01*
X72909486Y-59182000D01*
X72984792Y-58940397D01*
X72136000Y-58091605D01*
X71287208Y-58940397D01*
X68072000Y-58940397D01*
X68072000Y-57980531D01*
X70645389Y-57980531D01*
X70687401Y-58270019D01*
X70785081Y-58545747D01*
X70858528Y-58683157D01*
X71107603Y-58760792D01*
X71956395Y-57912000D01*
X72315605Y-57912000D01*
X73164397Y-58760792D01*
X73406000Y-58685486D01*
X73647603Y-58760792D01*
X74496395Y-57912000D01*
X73647603Y-57063208D01*
X73406000Y-57138514D01*
X73164397Y-57063208D01*
X72315605Y-57912000D01*
X71956395Y-57912000D01*
X71107603Y-57063208D01*
X70858528Y-57140843D01*
X70732629Y-57404883D01*
X70660661Y-57688411D01*
X70645389Y-57980531D01*
X68072000Y-57980531D01*
X68072000Y-56400397D01*
X71287208Y-56400397D01*
X71362514Y-56642000D01*
X71287208Y-56883603D01*
X72136000Y-57732395D01*
X72984792Y-56883603D01*
X72909486Y-56642000D01*
X72984792Y-56400397D01*
X72136000Y-55551605D01*
X71287208Y-56400397D01*
X68072000Y-56400397D01*
X68072000Y-55440531D01*
X70645389Y-55440531D01*
X70687401Y-55730019D01*
X70785081Y-56005747D01*
X70858528Y-56143157D01*
X71107603Y-56220792D01*
X71956395Y-55372000D01*
X72315605Y-55372000D01*
X73164397Y-56220792D01*
X73406000Y-56145486D01*
X73647603Y-56220792D01*
X74496395Y-55372000D01*
X73647603Y-54523208D01*
X73406000Y-54598514D01*
X73164397Y-54523208D01*
X72315605Y-55372000D01*
X71956395Y-55372000D01*
X71107603Y-54523208D01*
X70858528Y-54600843D01*
X70732629Y-54864883D01*
X70660661Y-55148411D01*
X70645389Y-55440531D01*
X68072000Y-55440531D01*
X68072000Y-40767000D01*
X87325614Y-40767000D01*
X87264731Y-40812412D01*
G37*
%TD.AperFunction*%
D22*
X85598000Y-81280000D02*
X85600440Y-81304776D01*
X85607667Y-81328601D01*
X85619403Y-81350557D01*
X85635197Y-81369803D01*
X85654443Y-81385597D01*
X85676399Y-81397333D01*
X85700224Y-81404560D01*
X85725000Y-81407000D01*
X87307893Y-81407000D01*
X87111525Y-81603368D01*
X86949010Y-81846589D01*
X86837068Y-82116842D01*
X86780000Y-82403740D01*
X86780000Y-82696260D01*
X86837068Y-82983158D01*
X86949010Y-83253411D01*
X87111525Y-83496632D01*
X87318368Y-83703475D01*
X87561589Y-83865990D01*
X87831842Y-83977932D01*
X88118740Y-84035000D01*
X88411260Y-84035000D01*
X88698158Y-83977932D01*
X88968411Y-83865990D01*
X89211632Y-83703475D01*
X89418475Y-83496632D01*
X89535000Y-83322240D01*
X89651525Y-83496632D01*
X89858368Y-83703475D01*
X90101589Y-83865990D01*
X90371842Y-83977932D01*
X90658740Y-84035000D01*
X90951260Y-84035000D01*
X91238158Y-83977932D01*
X91508411Y-83865990D01*
X91751632Y-83703475D01*
X91958475Y-83496632D01*
X92075000Y-83322240D01*
X92191525Y-83496632D01*
X92398368Y-83703475D01*
X92641589Y-83865990D01*
X92911842Y-83977932D01*
X93198740Y-84035000D01*
X93491260Y-84035000D01*
X93778158Y-83977932D01*
X94048411Y-83865990D01*
X94291632Y-83703475D01*
X94498475Y-83496632D01*
X94615000Y-83322240D01*
X94731525Y-83496632D01*
X94938368Y-83703475D01*
X95181589Y-83865990D01*
X95451842Y-83977932D01*
X95738740Y-84035000D01*
X96031260Y-84035000D01*
X96318158Y-83977932D01*
X96588411Y-83865990D01*
X96831632Y-83703475D01*
X96963487Y-83571620D01*
X96985498Y-83644180D01*
X97044463Y-83754494D01*
X97123815Y-83851185D01*
X97220506Y-83930537D01*
X97330820Y-83989502D01*
X97450518Y-84025812D01*
X97575000Y-84038072D01*
X99275000Y-84038072D01*
X99399482Y-84025812D01*
X99519180Y-83989502D01*
X99568000Y-83963407D01*
X99568000Y-87960758D01*
X99425269Y-87802412D01*
X99191920Y-87628359D01*
X98929099Y-87503175D01*
X98781890Y-87458524D01*
X98552000Y-87579845D01*
X98552000Y-88773000D01*
X98572000Y-88773000D01*
X98572000Y-89027000D01*
X98552000Y-89027000D01*
X98552000Y-89047000D01*
X98298000Y-89047000D01*
X98298000Y-89027000D01*
X96012000Y-89027000D01*
X96012000Y-89047000D01*
X95758000Y-89047000D01*
X95758000Y-89027000D01*
X93472000Y-89027000D01*
X93472000Y-89047000D01*
X93218000Y-89047000D01*
X93218000Y-89027000D01*
X90932000Y-89027000D01*
X90932000Y-89047000D01*
X90678000Y-89047000D01*
X90678000Y-89027000D01*
X88392000Y-89027000D01*
X88392000Y-89047000D01*
X88138000Y-89047000D01*
X88138000Y-89027000D01*
X86944186Y-89027000D01*
X86823519Y-89256891D01*
X86920843Y-89531252D01*
X87069822Y-89781355D01*
X87264731Y-89997588D01*
X87494406Y-90168900D01*
X87318368Y-90286525D01*
X87124893Y-90480000D01*
X84372643Y-90480000D01*
X82435752Y-88543109D01*
X86823519Y-88543109D01*
X86944186Y-88773000D01*
X88138000Y-88773000D01*
X88138000Y-87579845D01*
X88392000Y-87579845D01*
X88392000Y-88773000D01*
X90678000Y-88773000D01*
X90678000Y-87579845D01*
X90932000Y-87579845D01*
X90932000Y-88773000D01*
X93218000Y-88773000D01*
X93218000Y-87579845D01*
X93472000Y-87579845D01*
X93472000Y-88773000D01*
X95758000Y-88773000D01*
X95758000Y-87579845D01*
X96012000Y-87579845D01*
X96012000Y-88773000D01*
X98298000Y-88773000D01*
X98298000Y-87579845D01*
X98068110Y-87458524D01*
X97920901Y-87503175D01*
X97658080Y-87628359D01*
X97424731Y-87802412D01*
X97229822Y-88018645D01*
X97155000Y-88144255D01*
X97080178Y-88018645D01*
X96885269Y-87802412D01*
X96651920Y-87628359D01*
X96389099Y-87503175D01*
X96241890Y-87458524D01*
X96012000Y-87579845D01*
X95758000Y-87579845D01*
X95528110Y-87458524D01*
X95380901Y-87503175D01*
X95118080Y-87628359D01*
X94884731Y-87802412D01*
X94689822Y-88018645D01*
X94615000Y-88144255D01*
X94540178Y-88018645D01*
X94345269Y-87802412D01*
X94111920Y-87628359D01*
X93849099Y-87503175D01*
X93701890Y-87458524D01*
X93472000Y-87579845D01*
X93218000Y-87579845D01*
X92988110Y-87458524D01*
X92840901Y-87503175D01*
X92578080Y-87628359D01*
X92344731Y-87802412D01*
X92149822Y-88018645D01*
X92075000Y-88144255D01*
X92000178Y-88018645D01*
X91805269Y-87802412D01*
X91571920Y-87628359D01*
X91309099Y-87503175D01*
X91161890Y-87458524D01*
X90932000Y-87579845D01*
X90678000Y-87579845D01*
X90448110Y-87458524D01*
X90300901Y-87503175D01*
X90038080Y-87628359D01*
X89804731Y-87802412D01*
X89609822Y-88018645D01*
X89535000Y-88144255D01*
X89460178Y-88018645D01*
X89265269Y-87802412D01*
X89031920Y-87628359D01*
X88769099Y-87503175D01*
X88621890Y-87458524D01*
X88392000Y-87579845D01*
X88138000Y-87579845D01*
X87908110Y-87458524D01*
X87760901Y-87503175D01*
X87498080Y-87628359D01*
X87264731Y-87802412D01*
X87069822Y-88018645D01*
X86920843Y-88268748D01*
X86823519Y-88543109D01*
X82435752Y-88543109D01*
X81220108Y-87327466D01*
X81451807Y-87257182D01*
X81701100Y-87123932D01*
X81919607Y-86944608D01*
X82098932Y-86726101D01*
X82232182Y-86476808D01*
X82314236Y-86206309D01*
X82335000Y-85995492D01*
X82335000Y-84454508D01*
X82314236Y-84243691D01*
X82232182Y-83973192D01*
X82098932Y-83723899D01*
X81919608Y-83505392D01*
X81701101Y-83326068D01*
X81451808Y-83192818D01*
X81181309Y-83110764D01*
X80900000Y-83083057D01*
X80618692Y-83110764D01*
X80348193Y-83192818D01*
X80098900Y-83326068D01*
X79880393Y-83505392D01*
X79701069Y-83723899D01*
X79609001Y-83896146D01*
X79609001Y-82921152D01*
X79613645Y-82874000D01*
X79609001Y-82826848D01*
X79609001Y-82826839D01*
X79595111Y-82685808D01*
X79540217Y-82504847D01*
X79482125Y-82396164D01*
X79451074Y-82338072D01*
X79361171Y-82228526D01*
X79331108Y-82191894D01*
X79294475Y-82161830D01*
X77635000Y-80502356D01*
X77635000Y-80347644D01*
X79425645Y-78557000D01*
X80061209Y-78557000D01*
X79880393Y-78705392D01*
X79701069Y-78923899D01*
X79567819Y-79173192D01*
X79485764Y-79443691D01*
X79465000Y-79654508D01*
X79465000Y-81195491D01*
X79485764Y-81406308D01*
X79567818Y-81676807D01*
X79701068Y-81926100D01*
X79880392Y-82144607D01*
X80098899Y-82323932D01*
X80348192Y-82457182D01*
X80618691Y-82539236D01*
X80900000Y-82566943D01*
X81181308Y-82539236D01*
X81451807Y-82457182D01*
X81701100Y-82323932D01*
X81919607Y-82144608D01*
X82098932Y-81926101D01*
X82232182Y-81676808D01*
X82314236Y-81406309D01*
X82335000Y-81195492D01*
X82335000Y-79654508D01*
X82314236Y-79443691D01*
X82232182Y-79173192D01*
X82098932Y-78923899D01*
X81919608Y-78705392D01*
X81721902Y-78543139D01*
X81722193Y-78543110D01*
X81903154Y-78488216D01*
X82069928Y-78399073D01*
X82216107Y-78279107D01*
X82246175Y-78242469D01*
X84123645Y-76365000D01*
X84342335Y-76365000D01*
X84619574Y-76309853D01*
X84880727Y-76201680D01*
X85115759Y-76044637D01*
X85315637Y-75844759D01*
X85472680Y-75609727D01*
X85580853Y-75348574D01*
X85598000Y-75262371D01*
X85598000Y-81280000D01*
%TA.AperFunction,Conductor*%
D23*
G36*
X85598000Y-81280000D02*
G01*
X85600440Y-81304776D01*
X85607667Y-81328601D01*
X85619403Y-81350557D01*
X85635197Y-81369803D01*
X85654443Y-81385597D01*
X85676399Y-81397333D01*
X85700224Y-81404560D01*
X85725000Y-81407000D01*
X87307893Y-81407000D01*
X87111525Y-81603368D01*
X86949010Y-81846589D01*
X86837068Y-82116842D01*
X86780000Y-82403740D01*
X86780000Y-82696260D01*
X86837068Y-82983158D01*
X86949010Y-83253411D01*
X87111525Y-83496632D01*
X87318368Y-83703475D01*
X87561589Y-83865990D01*
X87831842Y-83977932D01*
X88118740Y-84035000D01*
X88411260Y-84035000D01*
X88698158Y-83977932D01*
X88968411Y-83865990D01*
X89211632Y-83703475D01*
X89418475Y-83496632D01*
X89535000Y-83322240D01*
X89651525Y-83496632D01*
X89858368Y-83703475D01*
X90101589Y-83865990D01*
X90371842Y-83977932D01*
X90658740Y-84035000D01*
X90951260Y-84035000D01*
X91238158Y-83977932D01*
X91508411Y-83865990D01*
X91751632Y-83703475D01*
X91958475Y-83496632D01*
X92075000Y-83322240D01*
X92191525Y-83496632D01*
X92398368Y-83703475D01*
X92641589Y-83865990D01*
X92911842Y-83977932D01*
X93198740Y-84035000D01*
X93491260Y-84035000D01*
X93778158Y-83977932D01*
X94048411Y-83865990D01*
X94291632Y-83703475D01*
X94498475Y-83496632D01*
X94615000Y-83322240D01*
X94731525Y-83496632D01*
X94938368Y-83703475D01*
X95181589Y-83865990D01*
X95451842Y-83977932D01*
X95738740Y-84035000D01*
X96031260Y-84035000D01*
X96318158Y-83977932D01*
X96588411Y-83865990D01*
X96831632Y-83703475D01*
X96963487Y-83571620D01*
X96985498Y-83644180D01*
X97044463Y-83754494D01*
X97123815Y-83851185D01*
X97220506Y-83930537D01*
X97330820Y-83989502D01*
X97450518Y-84025812D01*
X97575000Y-84038072D01*
X99275000Y-84038072D01*
X99399482Y-84025812D01*
X99519180Y-83989502D01*
X99568000Y-83963407D01*
X99568000Y-87960758D01*
X99425269Y-87802412D01*
X99191920Y-87628359D01*
X98929099Y-87503175D01*
X98781890Y-87458524D01*
X98552000Y-87579845D01*
X98552000Y-88773000D01*
X98572000Y-88773000D01*
X98572000Y-89027000D01*
X98552000Y-89027000D01*
X98552000Y-89047000D01*
X98298000Y-89047000D01*
X98298000Y-89027000D01*
X96012000Y-89027000D01*
X96012000Y-89047000D01*
X95758000Y-89047000D01*
X95758000Y-89027000D01*
X93472000Y-89027000D01*
X93472000Y-89047000D01*
X93218000Y-89047000D01*
X93218000Y-89027000D01*
X90932000Y-89027000D01*
X90932000Y-89047000D01*
X90678000Y-89047000D01*
X90678000Y-89027000D01*
X88392000Y-89027000D01*
X88392000Y-89047000D01*
X88138000Y-89047000D01*
X88138000Y-89027000D01*
X86944186Y-89027000D01*
X86823519Y-89256891D01*
X86920843Y-89531252D01*
X87069822Y-89781355D01*
X87264731Y-89997588D01*
X87494406Y-90168900D01*
X87318368Y-90286525D01*
X87124893Y-90480000D01*
X84372643Y-90480000D01*
X82435752Y-88543109D01*
X86823519Y-88543109D01*
X86944186Y-88773000D01*
X88138000Y-88773000D01*
X88138000Y-87579845D01*
X88392000Y-87579845D01*
X88392000Y-88773000D01*
X90678000Y-88773000D01*
X90678000Y-87579845D01*
X90932000Y-87579845D01*
X90932000Y-88773000D01*
X93218000Y-88773000D01*
X93218000Y-87579845D01*
X93472000Y-87579845D01*
X93472000Y-88773000D01*
X95758000Y-88773000D01*
X95758000Y-87579845D01*
X96012000Y-87579845D01*
X96012000Y-88773000D01*
X98298000Y-88773000D01*
X98298000Y-87579845D01*
X98068110Y-87458524D01*
X97920901Y-87503175D01*
X97658080Y-87628359D01*
X97424731Y-87802412D01*
X97229822Y-88018645D01*
X97155000Y-88144255D01*
X97080178Y-88018645D01*
X96885269Y-87802412D01*
X96651920Y-87628359D01*
X96389099Y-87503175D01*
X96241890Y-87458524D01*
X96012000Y-87579845D01*
X95758000Y-87579845D01*
X95528110Y-87458524D01*
X95380901Y-87503175D01*
X95118080Y-87628359D01*
X94884731Y-87802412D01*
X94689822Y-88018645D01*
X94615000Y-88144255D01*
X94540178Y-88018645D01*
X94345269Y-87802412D01*
X94111920Y-87628359D01*
X93849099Y-87503175D01*
X93701890Y-87458524D01*
X93472000Y-87579845D01*
X93218000Y-87579845D01*
X92988110Y-87458524D01*
X92840901Y-87503175D01*
X92578080Y-87628359D01*
X92344731Y-87802412D01*
X92149822Y-88018645D01*
X92075000Y-88144255D01*
X92000178Y-88018645D01*
X91805269Y-87802412D01*
X91571920Y-87628359D01*
X91309099Y-87503175D01*
X91161890Y-87458524D01*
X90932000Y-87579845D01*
X90678000Y-87579845D01*
X90448110Y-87458524D01*
X90300901Y-87503175D01*
X90038080Y-87628359D01*
X89804731Y-87802412D01*
X89609822Y-88018645D01*
X89535000Y-88144255D01*
X89460178Y-88018645D01*
X89265269Y-87802412D01*
X89031920Y-87628359D01*
X88769099Y-87503175D01*
X88621890Y-87458524D01*
X88392000Y-87579845D01*
X88138000Y-87579845D01*
X87908110Y-87458524D01*
X87760901Y-87503175D01*
X87498080Y-87628359D01*
X87264731Y-87802412D01*
X87069822Y-88018645D01*
X86920843Y-88268748D01*
X86823519Y-88543109D01*
X82435752Y-88543109D01*
X81220108Y-87327466D01*
X81451807Y-87257182D01*
X81701100Y-87123932D01*
X81919607Y-86944608D01*
X82098932Y-86726101D01*
X82232182Y-86476808D01*
X82314236Y-86206309D01*
X82335000Y-85995492D01*
X82335000Y-84454508D01*
X82314236Y-84243691D01*
X82232182Y-83973192D01*
X82098932Y-83723899D01*
X81919608Y-83505392D01*
X81701101Y-83326068D01*
X81451808Y-83192818D01*
X81181309Y-83110764D01*
X80900000Y-83083057D01*
X80618692Y-83110764D01*
X80348193Y-83192818D01*
X80098900Y-83326068D01*
X79880393Y-83505392D01*
X79701069Y-83723899D01*
X79609001Y-83896146D01*
X79609001Y-82921152D01*
X79613645Y-82874000D01*
X79609001Y-82826848D01*
X79609001Y-82826839D01*
X79595111Y-82685808D01*
X79540217Y-82504847D01*
X79482125Y-82396164D01*
X79451074Y-82338072D01*
X79361171Y-82228526D01*
X79331108Y-82191894D01*
X79294475Y-82161830D01*
X77635000Y-80502356D01*
X77635000Y-80347644D01*
X79425645Y-78557000D01*
X80061209Y-78557000D01*
X79880393Y-78705392D01*
X79701069Y-78923899D01*
X79567819Y-79173192D01*
X79485764Y-79443691D01*
X79465000Y-79654508D01*
X79465000Y-81195491D01*
X79485764Y-81406308D01*
X79567818Y-81676807D01*
X79701068Y-81926100D01*
X79880392Y-82144607D01*
X80098899Y-82323932D01*
X80348192Y-82457182D01*
X80618691Y-82539236D01*
X80900000Y-82566943D01*
X81181308Y-82539236D01*
X81451807Y-82457182D01*
X81701100Y-82323932D01*
X81919607Y-82144608D01*
X82098932Y-81926101D01*
X82232182Y-81676808D01*
X82314236Y-81406309D01*
X82335000Y-81195492D01*
X82335000Y-79654508D01*
X82314236Y-79443691D01*
X82232182Y-79173192D01*
X82098932Y-78923899D01*
X81919608Y-78705392D01*
X81721902Y-78543139D01*
X81722193Y-78543110D01*
X81903154Y-78488216D01*
X82069928Y-78399073D01*
X82216107Y-78279107D01*
X82246175Y-78242469D01*
X84123645Y-76365000D01*
X84342335Y-76365000D01*
X84619574Y-76309853D01*
X84880727Y-76201680D01*
X85115759Y-76044637D01*
X85315637Y-75844759D01*
X85472680Y-75609727D01*
X85580853Y-75348574D01*
X85598000Y-75262371D01*
X85598000Y-81280000D01*
G37*
%TD.AperFunction*%
D22*
X89858368Y-45603475D02*
X90101589Y-45765990D01*
X90371842Y-45877932D01*
X90658740Y-45935000D01*
X90951260Y-45935000D01*
X91238158Y-45877932D01*
X91508411Y-45765990D01*
X91751632Y-45603475D01*
X91945107Y-45410000D01*
X92204893Y-45410000D01*
X92398368Y-45603475D01*
X92641589Y-45765990D01*
X92911842Y-45877932D01*
X93198740Y-45935000D01*
X93491260Y-45935000D01*
X93778158Y-45877932D01*
X94048411Y-45765990D01*
X94291632Y-45603475D01*
X94485107Y-45410000D01*
X94744893Y-45410000D01*
X94938368Y-45603475D01*
X95181589Y-45765990D01*
X95451842Y-45877932D01*
X95738740Y-45935000D01*
X96031260Y-45935000D01*
X96318158Y-45877932D01*
X96588411Y-45765990D01*
X96831632Y-45603475D01*
X96963487Y-45471620D01*
X96985498Y-45544180D01*
X97044463Y-45654494D01*
X97123815Y-45751185D01*
X97220506Y-45830537D01*
X97330820Y-45889502D01*
X97450518Y-45925812D01*
X97575000Y-45938072D01*
X99275000Y-45938072D01*
X99399482Y-45925812D01*
X99519180Y-45889502D01*
X99568000Y-45863407D01*
X99568000Y-49473222D01*
X99502494Y-49419463D01*
X99392180Y-49360498D01*
X99272482Y-49324188D01*
X99148000Y-49311928D01*
X97448000Y-49311928D01*
X97323518Y-49324188D01*
X97203820Y-49360498D01*
X97093506Y-49419463D01*
X96996815Y-49498815D01*
X96917463Y-49595506D01*
X96858498Y-49705820D01*
X96836487Y-49778380D01*
X96704632Y-49646525D01*
X96461411Y-49484010D01*
X96191158Y-49372068D01*
X95904260Y-49315000D01*
X95611740Y-49315000D01*
X95324842Y-49372068D01*
X95054589Y-49484010D01*
X94811368Y-49646525D01*
X94604525Y-49853368D01*
X94488000Y-50027760D01*
X94371475Y-49853368D01*
X94164632Y-49646525D01*
X93921411Y-49484010D01*
X93651158Y-49372068D01*
X93364260Y-49315000D01*
X93071740Y-49315000D01*
X92784842Y-49372068D01*
X92514589Y-49484010D01*
X92271368Y-49646525D01*
X92064525Y-49853368D01*
X91948000Y-50027760D01*
X91831475Y-49853368D01*
X91624632Y-49646525D01*
X91381411Y-49484010D01*
X91111158Y-49372068D01*
X90824260Y-49315000D01*
X90531740Y-49315000D01*
X90244842Y-49372068D01*
X89974589Y-49484010D01*
X89731368Y-49646525D01*
X89524525Y-49853368D01*
X89408000Y-50027760D01*
X89291475Y-49853368D01*
X89084632Y-49646525D01*
X88841411Y-49484010D01*
X88571158Y-49372068D01*
X88284260Y-49315000D01*
X87991740Y-49315000D01*
X87704842Y-49372068D01*
X87434589Y-49484010D01*
X87191368Y-49646525D01*
X86984525Y-49853368D01*
X86822010Y-50096589D01*
X86710068Y-50366842D01*
X86653000Y-50653740D01*
X86653000Y-50946260D01*
X86710068Y-51233158D01*
X86822010Y-51503411D01*
X86984525Y-51746632D01*
X87180893Y-51943000D01*
X86486001Y-51943000D01*
X86486001Y-47586643D01*
X88137645Y-45935000D01*
X88411260Y-45935000D01*
X88698158Y-45877932D01*
X88968411Y-45765990D01*
X89211632Y-45603475D01*
X89405107Y-45410000D01*
X89664893Y-45410000D01*
X89858368Y-45603475D01*
%TA.AperFunction,Conductor*%
D23*
G36*
X89858368Y-45603475D02*
G01*
X90101589Y-45765990D01*
X90371842Y-45877932D01*
X90658740Y-45935000D01*
X90951260Y-45935000D01*
X91238158Y-45877932D01*
X91508411Y-45765990D01*
X91751632Y-45603475D01*
X91945107Y-45410000D01*
X92204893Y-45410000D01*
X92398368Y-45603475D01*
X92641589Y-45765990D01*
X92911842Y-45877932D01*
X93198740Y-45935000D01*
X93491260Y-45935000D01*
X93778158Y-45877932D01*
X94048411Y-45765990D01*
X94291632Y-45603475D01*
X94485107Y-45410000D01*
X94744893Y-45410000D01*
X94938368Y-45603475D01*
X95181589Y-45765990D01*
X95451842Y-45877932D01*
X95738740Y-45935000D01*
X96031260Y-45935000D01*
X96318158Y-45877932D01*
X96588411Y-45765990D01*
X96831632Y-45603475D01*
X96963487Y-45471620D01*
X96985498Y-45544180D01*
X97044463Y-45654494D01*
X97123815Y-45751185D01*
X97220506Y-45830537D01*
X97330820Y-45889502D01*
X97450518Y-45925812D01*
X97575000Y-45938072D01*
X99275000Y-45938072D01*
X99399482Y-45925812D01*
X99519180Y-45889502D01*
X99568000Y-45863407D01*
X99568000Y-49473222D01*
X99502494Y-49419463D01*
X99392180Y-49360498D01*
X99272482Y-49324188D01*
X99148000Y-49311928D01*
X97448000Y-49311928D01*
X97323518Y-49324188D01*
X97203820Y-49360498D01*
X97093506Y-49419463D01*
X96996815Y-49498815D01*
X96917463Y-49595506D01*
X96858498Y-49705820D01*
X96836487Y-49778380D01*
X96704632Y-49646525D01*
X96461411Y-49484010D01*
X96191158Y-49372068D01*
X95904260Y-49315000D01*
X95611740Y-49315000D01*
X95324842Y-49372068D01*
X95054589Y-49484010D01*
X94811368Y-49646525D01*
X94604525Y-49853368D01*
X94488000Y-50027760D01*
X94371475Y-49853368D01*
X94164632Y-49646525D01*
X93921411Y-49484010D01*
X93651158Y-49372068D01*
X93364260Y-49315000D01*
X93071740Y-49315000D01*
X92784842Y-49372068D01*
X92514589Y-49484010D01*
X92271368Y-49646525D01*
X92064525Y-49853368D01*
X91948000Y-50027760D01*
X91831475Y-49853368D01*
X91624632Y-49646525D01*
X91381411Y-49484010D01*
X91111158Y-49372068D01*
X90824260Y-49315000D01*
X90531740Y-49315000D01*
X90244842Y-49372068D01*
X89974589Y-49484010D01*
X89731368Y-49646525D01*
X89524525Y-49853368D01*
X89408000Y-50027760D01*
X89291475Y-49853368D01*
X89084632Y-49646525D01*
X88841411Y-49484010D01*
X88571158Y-49372068D01*
X88284260Y-49315000D01*
X87991740Y-49315000D01*
X87704842Y-49372068D01*
X87434589Y-49484010D01*
X87191368Y-49646525D01*
X86984525Y-49853368D01*
X86822010Y-50096589D01*
X86710068Y-50366842D01*
X86653000Y-50653740D01*
X86653000Y-50946260D01*
X86710068Y-51233158D01*
X86822010Y-51503411D01*
X86984525Y-51746632D01*
X87180893Y-51943000D01*
X86486001Y-51943000D01*
X86486001Y-47586643D01*
X88137645Y-45935000D01*
X88411260Y-45935000D01*
X88698158Y-45877932D01*
X88968411Y-45765990D01*
X89211632Y-45603475D01*
X89405107Y-45410000D01*
X89664893Y-45410000D01*
X89858368Y-45603475D01*
G37*
%TD.AperFunction*%
%TD*%
M02*
