%TF.GenerationSoftware,KiCad,Pcbnew,5.1.9+dfsg1-1~bpo10+1*%
%TF.CreationDate,2022-02-06T15:46:01+08:00*%
%TF.ProjectId,euro2breadboard,6575726f-3262-4726-9561-64626f617264,rev?*%
%TF.SameCoordinates,Original*%
%TF.FileFunction,Soldermask,Bot*%
%TF.FilePolarity,Negative*%
%FSLAX46Y46*%
G04 Gerber Fmt 4.6, Leading zero omitted, Abs format (unit mm)*
G04 Created by KiCad (PCBNEW 5.1.9+dfsg1-1~bpo10+1) date 2022-02-06 15:46:01*
%MOMM*%
%LPD*%
G01*
G04 APERTURE LIST*
%ADD10O,1.600000X3.000000*%
%ADD11C,1.600000*%
%ADD12R,1.600000X1.600000*%
%ADD13C,1.700000*%
%ADD14R,1.700000X1.700000*%
%ADD15O,1.700000X1.700000*%
%ADD16O,1.700000X1.950000*%
%ADD17C,1.800000*%
%ADD18R,1.800000X1.800000*%
%ADD19O,1.600000X1.600000*%
G04 APERTURE END LIST*
D10*
%TO.C,SW1*%
X76200000Y-80425000D03*
X80900000Y-80425000D03*
X71500000Y-80425000D03*
X76200000Y-85225000D03*
X80900000Y-85225000D03*
X71500000Y-85225000D03*
%TD*%
D11*
%TO.C,C1*%
X76581000Y-74001000D03*
D12*
X76581000Y-71501000D03*
%TD*%
%TO.C,C2*%
X70612000Y-73914000D03*
D11*
X70612000Y-71414000D03*
%TD*%
%TO.C,J2*%
G36*
G01*
X75526000Y-62392000D02*
X75526000Y-63592000D01*
G75*
G02*
X75276000Y-63842000I-250000J0D01*
G01*
X74076000Y-63842000D01*
G75*
G02*
X73826000Y-63592000I0J250000D01*
G01*
X73826000Y-62392000D01*
G75*
G02*
X74076000Y-62142000I250000J0D01*
G01*
X75276000Y-62142000D01*
G75*
G02*
X75526000Y-62392000I0J-250000D01*
G01*
G37*
D13*
X74676000Y-60452000D03*
X74676000Y-57912000D03*
X74676000Y-55372000D03*
X74676000Y-52832000D03*
X72136000Y-62992000D03*
X72136000Y-60452000D03*
X72136000Y-57912000D03*
X72136000Y-55372000D03*
X72136000Y-52832000D03*
%TD*%
D14*
%TO.C,BB_POWER_PINS1*%
X98425000Y-91440000D03*
D15*
X98425000Y-88900000D03*
X95885000Y-91440000D03*
X95885000Y-88900000D03*
X93345000Y-91440000D03*
X93345000Y-88900000D03*
X90805000Y-91440000D03*
X90805000Y-88900000D03*
X88265000Y-91440000D03*
X88265000Y-88900000D03*
%TD*%
%TO.C,BB_POWER_PINS2*%
X88265000Y-41910000D03*
X88265000Y-44450000D03*
X90805000Y-41910000D03*
X90805000Y-44450000D03*
X93345000Y-41910000D03*
X93345000Y-44450000D03*
X95885000Y-41910000D03*
X95885000Y-44450000D03*
X98425000Y-41910000D03*
D14*
X98425000Y-44450000D03*
%TD*%
%TO.C,J1*%
G36*
G01*
X70016000Y-44032000D02*
X70016000Y-42582000D01*
G75*
G02*
X70266000Y-42332000I250000J0D01*
G01*
X71466000Y-42332000D01*
G75*
G02*
X71716000Y-42582000I0J-250000D01*
G01*
X71716000Y-44032000D01*
G75*
G02*
X71466000Y-44282000I-250000J0D01*
G01*
X70266000Y-44282000D01*
G75*
G02*
X70016000Y-44032000I0J250000D01*
G01*
G37*
D16*
X73366000Y-43307000D03*
X75866000Y-43307000D03*
%TD*%
D14*
%TO.C,NEG_12V_PINS1*%
X98298000Y-50800000D03*
D15*
X95758000Y-50800000D03*
X93218000Y-50800000D03*
X90678000Y-50800000D03*
X88138000Y-50800000D03*
%TD*%
%TO.C,NEG_12V_PINS2*%
X88265000Y-82550000D03*
X90805000Y-82550000D03*
X93345000Y-82550000D03*
X95885000Y-82550000D03*
D14*
X98425000Y-82550000D03*
%TD*%
D17*
%TO.C,-12V*%
X82550000Y-59944000D03*
D18*
X82550000Y-62484000D03*
%TD*%
%TO.C,+12V*%
X82550000Y-54229000D03*
D17*
X82550000Y-56769000D03*
%TD*%
D19*
%TO.C,R1*%
X84201000Y-74930000D03*
D11*
X84201000Y-67310000D03*
%TD*%
%TO.C,R2*%
X81153000Y-67310000D03*
D19*
X81153000Y-74930000D03*
%TD*%
M02*
