%FSLAX45Y45*%
G04 Gerber Fmt 4.5, Leading zero omitted, Abs format (unit mm)*
G04 Created by KiCad (PCBNEW 5.1.9+dfsg1-1~bpo10+1) date 2022-02-06 15:46:00*
%MOMM*%
%LPD*%
G01*
G04 APERTURE LIST*
%TA.AperFunction,Profile*%
%ADD10C,0.100000*%
%TD*%
%ADD11C,0.200000*%
%ADD12C,0.300000*%
G04 APERTURE END LIST*
D10*
X10033000Y-4000500D02*
X10033000Y-5270500D01*
X6731000Y-4000500D02*
X10033000Y-4000500D01*
X6731000Y-9334500D02*
X6731000Y-4000500D01*
X10033000Y-9334500D02*
X6731000Y-9334500D01*
X10033000Y-8064500D02*
X10033000Y-9334500D01*
X8636000Y-8064500D02*
X10033000Y-8064500D01*
X8636000Y-5270500D02*
X8636000Y-8064500D01*
X10033000Y-5270500D02*
X8636000Y-5270500D01*
D11*
X6812600Y-5098100D02*
X6852600Y-5138100D01*
X6852600Y-5098100D02*
X6812600Y-5138100D01*
X6876100Y-8806500D02*
X6916100Y-8846500D01*
X6916100Y-8806500D02*
X6876100Y-8846500D01*
X6888800Y-6203000D02*
X6928800Y-6243000D01*
X6928800Y-6203000D02*
X6888800Y-6243000D01*
X6914200Y-5491800D02*
X6954200Y-5531800D01*
X6954200Y-5491800D02*
X6914200Y-5531800D01*
X6914200Y-5961700D02*
X6954200Y-6001700D01*
X6954200Y-5961700D02*
X6914200Y-6001700D01*
X7015800Y-5352100D02*
X7055800Y-5392100D01*
X7055800Y-5352100D02*
X7015800Y-5392100D01*
X7066600Y-8984300D02*
X7106600Y-9024300D01*
X7106600Y-8984300D02*
X7066600Y-9024300D01*
X7092000Y-8819200D02*
X7132000Y-8859200D01*
X7132000Y-8819200D02*
X7092000Y-8859200D01*
X7219000Y-7752400D02*
X7259000Y-7792400D01*
X7259000Y-7752400D02*
X7219000Y-7792400D01*
X7282500Y-6952300D02*
X7322500Y-6992300D01*
X7322500Y-6952300D02*
X7282500Y-6992300D01*
X7307900Y-4882200D02*
X7347900Y-4922200D01*
X7347900Y-4882200D02*
X7307900Y-4922200D01*
X7320600Y-4971100D02*
X7360600Y-5011100D01*
X7360600Y-4971100D02*
X7320600Y-5011100D01*
X7333300Y-6558600D02*
X7373300Y-6598600D01*
X7373300Y-6558600D02*
X7333300Y-6598600D01*
X7333300Y-6672900D02*
X7373300Y-6712900D01*
X7373300Y-6672900D02*
X7333300Y-6712900D01*
X7333300Y-6812600D02*
X7373300Y-6852600D01*
X7373300Y-6812600D02*
X7333300Y-6852600D01*
X7358700Y-7765100D02*
X7398700Y-7805100D01*
X7398700Y-7765100D02*
X7358700Y-7805100D01*
X7473000Y-7663500D02*
X7513000Y-7703500D01*
X7513000Y-7663500D02*
X7473000Y-7703500D01*
X7498400Y-4666300D02*
X7538400Y-4706300D01*
X7538400Y-4666300D02*
X7498400Y-4706300D01*
X7663500Y-8870000D02*
X7703500Y-8910000D01*
X7703500Y-8870000D02*
X7663500Y-8910000D01*
X7752400Y-8781100D02*
X7792400Y-8821100D01*
X7792400Y-8781100D02*
X7752400Y-8821100D01*
X7917500Y-4945700D02*
X7957500Y-4985700D01*
X7957500Y-4945700D02*
X7917500Y-4985700D01*
X7968300Y-4310700D02*
X8008300Y-4350700D01*
X8008300Y-4310700D02*
X7968300Y-4350700D01*
X7981000Y-5161600D02*
X8021000Y-5201600D01*
X8021000Y-5161600D02*
X7981000Y-5201600D01*
X8006400Y-7028500D02*
X8046400Y-7068500D01*
X8046400Y-7028500D02*
X8006400Y-7068500D01*
X8069900Y-6952300D02*
X8109900Y-6992300D01*
X8109900Y-6952300D02*
X8069900Y-6992300D01*
X8082600Y-4323400D02*
X8122600Y-4363400D01*
X8122600Y-4323400D02*
X8082600Y-4363400D01*
X8095300Y-4602800D02*
X8135300Y-4642800D01*
X8135300Y-4602800D02*
X8095300Y-4642800D01*
X8108000Y-7206300D02*
X8148000Y-7246300D01*
X8148000Y-7206300D02*
X8108000Y-7246300D01*
X8133400Y-4234500D02*
X8173400Y-4274500D01*
X8173400Y-4234500D02*
X8133400Y-4274500D01*
X8158800Y-4869500D02*
X8198800Y-4909500D01*
X8198800Y-4869500D02*
X8158800Y-4909500D01*
X8247700Y-5047300D02*
X8287700Y-5087300D01*
X8287700Y-5047300D02*
X8247700Y-5087300D01*
X8260400Y-4767900D02*
X8300400Y-4807900D01*
X8300400Y-4767900D02*
X8260400Y-4807900D01*
X8298500Y-8908100D02*
X8338500Y-8948100D01*
X8338500Y-8908100D02*
X8298500Y-8948100D01*
X8323900Y-8768400D02*
X8363900Y-8808400D01*
X8363900Y-8768400D02*
X8323900Y-8808400D01*
X8349300Y-7142800D02*
X8389300Y-7182800D01*
X8389300Y-7142800D02*
X8349300Y-7182800D01*
X8374700Y-4780600D02*
X8414700Y-4820600D01*
X8414700Y-4780600D02*
X8374700Y-4820600D01*
X8412800Y-4298000D02*
X8452800Y-4338000D01*
X8452800Y-4298000D02*
X8412800Y-4338000D01*
X8412800Y-6926900D02*
X8452800Y-6966900D01*
X8452800Y-6926900D02*
X8412800Y-6966900D01*
X8425500Y-8565200D02*
X8465500Y-8605200D01*
X8465500Y-8565200D02*
X8425500Y-8605200D01*
X8438200Y-7765100D02*
X8478200Y-7805100D01*
X8478200Y-7765100D02*
X8438200Y-7805100D01*
X8692200Y-4767900D02*
X8732200Y-4807900D01*
X8732200Y-4767900D02*
X8692200Y-4807900D01*
X8755700Y-4666300D02*
X8795700Y-4706300D01*
X8795700Y-4666300D02*
X8755700Y-4706300D01*
X8831900Y-8565200D02*
X8871900Y-8605200D01*
X8871900Y-8565200D02*
X8831900Y-8605200D01*
X8971600Y-8654100D02*
X9011600Y-8694100D01*
X9011600Y-8654100D02*
X8971600Y-8694100D01*
X8997000Y-4780600D02*
X9037000Y-4820600D01*
X9037000Y-4780600D02*
X8997000Y-4820600D01*
X9339900Y-4666300D02*
X9379900Y-4706300D01*
X9379900Y-4666300D02*
X9339900Y-4706300D01*
X9365300Y-4767900D02*
X9405300Y-4807900D01*
X9405300Y-4767900D02*
X9365300Y-4807900D01*
X9568500Y-4742500D02*
X9608500Y-4782500D01*
X9608500Y-4742500D02*
X9568500Y-4782500D01*
X9619300Y-8539800D02*
X9659300Y-8579800D01*
X9659300Y-8539800D02*
X9619300Y-8579800D01*
X9708200Y-8654100D02*
X9748200Y-8694100D01*
X9748200Y-8654100D02*
X9708200Y-8694100D01*
X9822500Y-4666300D02*
X9862500Y-4706300D01*
X9862500Y-4666300D02*
X9822500Y-4706300D01*
X9847900Y-4806000D02*
X9887900Y-4846000D01*
X9887900Y-4806000D02*
X9847900Y-4846000D01*
X9847900Y-8616000D02*
X9887900Y-8656000D01*
X9887900Y-8616000D02*
X9847900Y-8656000D01*
X7101200Y-7141400D02*
G75*
G03*
X7101200Y-7141400I-40000J0D01*
G01*
X7101200Y-7391400D02*
G75*
G03*
X7101200Y-7391400I-40000J0D01*
G01*
X7190000Y-8042500D02*
G75*
G03*
X7190000Y-8042500I-40000J0D01*
G01*
X7120000Y-7982500D02*
X7120000Y-8102500D01*
X7180000Y-7982500D02*
X7180000Y-8102500D01*
X7120000Y-8102500D02*
G75*
G03*
X7180000Y-8102500I30000J0D01*
G01*
X7180000Y-7982500D02*
G75*
G03*
X7120000Y-7982500I-30000J0D01*
G01*
X7190000Y-8522500D02*
G75*
G03*
X7190000Y-8522500I-40000J0D01*
G01*
X7120000Y-8462500D02*
X7120000Y-8582500D01*
X7180000Y-8462500D02*
X7180000Y-8582500D01*
X7120000Y-8582500D02*
G75*
G03*
X7180000Y-8582500I30000J0D01*
G01*
X7180000Y-8462500D02*
G75*
G03*
X7120000Y-8462500I-30000J0D01*
G01*
X7660000Y-8042500D02*
G75*
G03*
X7660000Y-8042500I-40000J0D01*
G01*
X7590000Y-7982500D02*
X7590000Y-8102500D01*
X7650000Y-7982500D02*
X7650000Y-8102500D01*
X7590000Y-8102500D02*
G75*
G03*
X7650000Y-8102500I30000J0D01*
G01*
X7650000Y-7982500D02*
G75*
G03*
X7590000Y-7982500I-30000J0D01*
G01*
X7660000Y-8522500D02*
G75*
G03*
X7660000Y-8522500I-40000J0D01*
G01*
X7590000Y-8462500D02*
X7590000Y-8582500D01*
X7650000Y-8462500D02*
X7650000Y-8582500D01*
X7590000Y-8582500D02*
G75*
G03*
X7650000Y-8582500I30000J0D01*
G01*
X7650000Y-8462500D02*
G75*
G03*
X7590000Y-8462500I-30000J0D01*
G01*
X7698100Y-7150100D02*
G75*
G03*
X7698100Y-7150100I-40000J0D01*
G01*
X7698100Y-7400100D02*
G75*
G03*
X7698100Y-7400100I-40000J0D01*
G01*
X8130000Y-8042500D02*
G75*
G03*
X8130000Y-8042500I-40000J0D01*
G01*
X8060000Y-7982500D02*
X8060000Y-8102500D01*
X8120000Y-7982500D02*
X8120000Y-8102500D01*
X8060000Y-8102500D02*
G75*
G03*
X8120000Y-8102500I30000J0D01*
G01*
X8120000Y-7982500D02*
G75*
G03*
X8060000Y-7982500I-30000J0D01*
G01*
X8130000Y-8522500D02*
G75*
G03*
X8130000Y-8522500I-40000J0D01*
G01*
X8060000Y-8462500D02*
X8060000Y-8582500D01*
X8120000Y-8462500D02*
X8120000Y-8582500D01*
X8060000Y-8582500D02*
G75*
G03*
X8120000Y-8582500I30000J0D01*
G01*
X8120000Y-8462500D02*
G75*
G03*
X8060000Y-8462500I-30000J0D01*
G01*
X8155300Y-6731000D02*
G75*
G03*
X8155300Y-6731000I-40000J0D01*
G01*
X8155300Y-7493000D02*
G75*
G03*
X8155300Y-7493000I-40000J0D01*
G01*
X8460100Y-6731000D02*
G75*
G03*
X8460100Y-6731000I-40000J0D01*
G01*
X8460100Y-7493000D02*
G75*
G03*
X8460100Y-7493000I-40000J0D01*
G01*
X8255000Y-5377900D02*
X8255000Y-5467900D01*
X8210000Y-5422900D02*
X8300000Y-5422900D01*
X8255000Y-5631900D02*
X8255000Y-5721900D01*
X8210000Y-5676900D02*
X8300000Y-5676900D01*
X8255000Y-5949400D02*
X8255000Y-6039400D01*
X8210000Y-5994400D02*
X8300000Y-5994400D01*
X8255000Y-6203400D02*
X8255000Y-6293400D01*
X8210000Y-6248400D02*
X8300000Y-6248400D01*
X7120188Y-4364288D02*
X7120188Y-4297112D01*
X7053012Y-4297112D01*
X7053012Y-4364288D01*
X7120188Y-4364288D01*
X7370188Y-4364288D02*
X7370188Y-4297112D01*
X7303012Y-4297112D01*
X7303012Y-4364288D01*
X7370188Y-4364288D01*
X7620188Y-4364288D02*
X7620188Y-4297112D01*
X7553012Y-4297112D01*
X7553012Y-4364288D01*
X7620188Y-4364288D01*
X7213600Y-5333200D02*
X7263600Y-5283200D01*
X7213600Y-5233200D01*
X7163600Y-5283200D01*
X7213600Y-5333200D01*
X7213600Y-5587200D02*
X7263600Y-5537200D01*
X7213600Y-5487200D01*
X7163600Y-5537200D01*
X7213600Y-5587200D01*
X7213600Y-5841200D02*
X7263600Y-5791200D01*
X7213600Y-5741200D01*
X7163600Y-5791200D01*
X7213600Y-5841200D01*
X7213600Y-6095200D02*
X7263600Y-6045200D01*
X7213600Y-5995200D01*
X7163600Y-6045200D01*
X7213600Y-6095200D01*
X7213600Y-6349200D02*
X7263600Y-6299200D01*
X7213600Y-6249200D01*
X7163600Y-6299200D01*
X7213600Y-6349200D01*
X7467600Y-5333200D02*
X7517600Y-5283200D01*
X7467600Y-5233200D01*
X7417600Y-5283200D01*
X7467600Y-5333200D01*
X7467600Y-5587200D02*
X7517600Y-5537200D01*
X7467600Y-5487200D01*
X7417600Y-5537200D01*
X7467600Y-5587200D01*
X7467600Y-5841200D02*
X7517600Y-5791200D01*
X7467600Y-5741200D01*
X7417600Y-5791200D01*
X7467600Y-5841200D01*
X7467600Y-6095200D02*
X7517600Y-6045200D01*
X7467600Y-5995200D01*
X7417600Y-6045200D01*
X7467600Y-6095200D01*
X7467600Y-6349200D02*
X7517600Y-6299200D01*
X7467600Y-6249200D01*
X7417600Y-6299200D01*
X7467600Y-6349200D01*
X8813800Y-5130000D02*
X8863800Y-5080000D01*
X8813800Y-5030000D01*
X8763800Y-5080000D01*
X8813800Y-5130000D01*
X8826500Y-4241000D02*
X8876500Y-4191000D01*
X8826500Y-4141000D01*
X8776500Y-4191000D01*
X8826500Y-4241000D01*
X8826500Y-4495000D02*
X8876500Y-4445000D01*
X8826500Y-4395000D01*
X8776500Y-4445000D01*
X8826500Y-4495000D01*
X8826500Y-8305000D02*
X8876500Y-8255000D01*
X8826500Y-8205000D01*
X8776500Y-8255000D01*
X8826500Y-8305000D01*
X8826500Y-8940000D02*
X8876500Y-8890000D01*
X8826500Y-8840000D01*
X8776500Y-8890000D01*
X8826500Y-8940000D01*
X8826500Y-9194000D02*
X8876500Y-9144000D01*
X8826500Y-9094000D01*
X8776500Y-9144000D01*
X8826500Y-9194000D01*
X9067800Y-5130000D02*
X9117800Y-5080000D01*
X9067800Y-5030000D01*
X9017800Y-5080000D01*
X9067800Y-5130000D01*
X9080500Y-4241000D02*
X9130500Y-4191000D01*
X9080500Y-4141000D01*
X9030500Y-4191000D01*
X9080500Y-4241000D01*
X9080500Y-4495000D02*
X9130500Y-4445000D01*
X9080500Y-4395000D01*
X9030500Y-4445000D01*
X9080500Y-4495000D01*
X9080500Y-8305000D02*
X9130500Y-8255000D01*
X9080500Y-8205000D01*
X9030500Y-8255000D01*
X9080500Y-8305000D01*
X9080500Y-8940000D02*
X9130500Y-8890000D01*
X9080500Y-8840000D01*
X9030500Y-8890000D01*
X9080500Y-8940000D01*
X9080500Y-9194000D02*
X9130500Y-9144000D01*
X9080500Y-9094000D01*
X9030500Y-9144000D01*
X9080500Y-9194000D01*
X9321800Y-5130000D02*
X9371800Y-5080000D01*
X9321800Y-5030000D01*
X9271800Y-5080000D01*
X9321800Y-5130000D01*
X9334500Y-4241000D02*
X9384500Y-4191000D01*
X9334500Y-4141000D01*
X9284500Y-4191000D01*
X9334500Y-4241000D01*
X9334500Y-4495000D02*
X9384500Y-4445000D01*
X9334500Y-4395000D01*
X9284500Y-4445000D01*
X9334500Y-4495000D01*
X9334500Y-8305000D02*
X9384500Y-8255000D01*
X9334500Y-8205000D01*
X9284500Y-8255000D01*
X9334500Y-8305000D01*
X9334500Y-8940000D02*
X9384500Y-8890000D01*
X9334500Y-8840000D01*
X9284500Y-8890000D01*
X9334500Y-8940000D01*
X9334500Y-9194000D02*
X9384500Y-9144000D01*
X9334500Y-9094000D01*
X9284500Y-9144000D01*
X9334500Y-9194000D01*
X9575800Y-5130000D02*
X9625800Y-5080000D01*
X9575800Y-5030000D01*
X9525800Y-5080000D01*
X9575800Y-5130000D01*
X9588500Y-4241000D02*
X9638500Y-4191000D01*
X9588500Y-4141000D01*
X9538500Y-4191000D01*
X9588500Y-4241000D01*
X9588500Y-4495000D02*
X9638500Y-4445000D01*
X9588500Y-4395000D01*
X9538500Y-4445000D01*
X9588500Y-4495000D01*
X9588500Y-8305000D02*
X9638500Y-8255000D01*
X9588500Y-8205000D01*
X9538500Y-8255000D01*
X9588500Y-8305000D01*
X9588500Y-8940000D02*
X9638500Y-8890000D01*
X9588500Y-8840000D01*
X9538500Y-8890000D01*
X9588500Y-8940000D01*
X9588500Y-9194000D02*
X9638500Y-9144000D01*
X9588500Y-9094000D01*
X9538500Y-9144000D01*
X9588500Y-9194000D01*
X9829800Y-5130000D02*
X9879800Y-5080000D01*
X9829800Y-5030000D01*
X9779800Y-5080000D01*
X9829800Y-5130000D01*
X9842500Y-4241000D02*
X9892500Y-4191000D01*
X9842500Y-4141000D01*
X9792500Y-4191000D01*
X9842500Y-4241000D01*
X9842500Y-4495000D02*
X9892500Y-4445000D01*
X9842500Y-4395000D01*
X9792500Y-4445000D01*
X9842500Y-4495000D01*
X9842500Y-8305000D02*
X9892500Y-8255000D01*
X9842500Y-8205000D01*
X9792500Y-8255000D01*
X9842500Y-8305000D01*
X9842500Y-8940000D02*
X9892500Y-8890000D01*
X9842500Y-8840000D01*
X9792500Y-8890000D01*
X9842500Y-8940000D01*
X9842500Y-9194000D02*
X9892500Y-9144000D01*
X9842500Y-9094000D01*
X9792500Y-9144000D01*
X9842500Y-9194000D01*
D12*
X7012428Y-9805214D02*
X7012428Y-9505214D01*
X7083857Y-9505214D01*
X7126714Y-9519500D01*
X7155286Y-9548072D01*
X7169571Y-9576643D01*
X7183857Y-9633786D01*
X7183857Y-9676643D01*
X7169571Y-9733786D01*
X7155286Y-9762357D01*
X7126714Y-9790929D01*
X7083857Y-9805214D01*
X7012428Y-9805214D01*
X7312428Y-9805214D02*
X7312428Y-9605214D01*
X7312428Y-9662357D02*
X7326714Y-9633786D01*
X7341000Y-9619500D01*
X7369571Y-9605214D01*
X7398143Y-9605214D01*
X7498143Y-9805214D02*
X7498143Y-9605214D01*
X7498143Y-9505214D02*
X7483857Y-9519500D01*
X7498143Y-9533786D01*
X7512428Y-9519500D01*
X7498143Y-9505214D01*
X7498143Y-9533786D01*
X7683857Y-9805214D02*
X7655286Y-9790929D01*
X7641000Y-9762357D01*
X7641000Y-9505214D01*
X7841000Y-9805214D02*
X7812428Y-9790929D01*
X7798143Y-9762357D01*
X7798143Y-9505214D01*
X8183857Y-9805214D02*
X8183857Y-9505214D01*
X8283857Y-9719500D01*
X8383857Y-9505214D01*
X8383857Y-9805214D01*
X8655286Y-9805214D02*
X8655286Y-9648072D01*
X8641000Y-9619500D01*
X8612428Y-9605214D01*
X8555286Y-9605214D01*
X8526714Y-9619500D01*
X8655286Y-9790929D02*
X8626714Y-9805214D01*
X8555286Y-9805214D01*
X8526714Y-9790929D01*
X8512428Y-9762357D01*
X8512428Y-9733786D01*
X8526714Y-9705214D01*
X8555286Y-9690929D01*
X8626714Y-9690929D01*
X8655286Y-9676643D01*
X8798143Y-9605214D02*
X8798143Y-9905214D01*
X8798143Y-9619500D02*
X8826714Y-9605214D01*
X8883857Y-9605214D01*
X8912428Y-9619500D01*
X8926714Y-9633786D01*
X8941000Y-9662357D01*
X8941000Y-9748072D01*
X8926714Y-9776643D01*
X8912428Y-9790929D01*
X8883857Y-9805214D01*
X8826714Y-9805214D01*
X8798143Y-9790929D01*
X9069571Y-9776643D02*
X9083857Y-9790929D01*
X9069571Y-9805214D01*
X9055286Y-9790929D01*
X9069571Y-9776643D01*
X9069571Y-9805214D01*
X9069571Y-9619500D02*
X9083857Y-9633786D01*
X9069571Y-9648072D01*
X9055286Y-9633786D01*
X9069571Y-9619500D01*
X9069571Y-9648072D01*
X6686000Y-10279500D02*
X6726000Y-10319500D01*
X6726000Y-10279500D02*
X6686000Y-10319500D01*
X7069571Y-10135214D02*
X7098143Y-10135214D01*
X7126714Y-10149500D01*
X7141000Y-10163786D01*
X7155286Y-10192357D01*
X7169571Y-10249500D01*
X7169571Y-10320929D01*
X7155286Y-10378072D01*
X7141000Y-10406643D01*
X7126714Y-10420929D01*
X7098143Y-10435214D01*
X7069571Y-10435214D01*
X7041000Y-10420929D01*
X7026714Y-10406643D01*
X7012428Y-10378072D01*
X6998143Y-10320929D01*
X6998143Y-10249500D01*
X7012428Y-10192357D01*
X7026714Y-10163786D01*
X7041000Y-10149500D01*
X7069571Y-10135214D01*
X7298143Y-10406643D02*
X7312428Y-10420929D01*
X7298143Y-10435214D01*
X7283857Y-10420929D01*
X7298143Y-10406643D01*
X7298143Y-10435214D01*
X7569571Y-10235214D02*
X7569571Y-10435214D01*
X7498143Y-10120929D02*
X7426714Y-10335214D01*
X7612428Y-10335214D01*
X7783857Y-10135214D02*
X7812428Y-10135214D01*
X7841000Y-10149500D01*
X7855286Y-10163786D01*
X7869571Y-10192357D01*
X7883857Y-10249500D01*
X7883857Y-10320929D01*
X7869571Y-10378072D01*
X7855286Y-10406643D01*
X7841000Y-10420929D01*
X7812428Y-10435214D01*
X7783857Y-10435214D01*
X7755286Y-10420929D01*
X7741000Y-10406643D01*
X7726714Y-10378072D01*
X7712428Y-10320929D01*
X7712428Y-10249500D01*
X7726714Y-10192357D01*
X7741000Y-10163786D01*
X7755286Y-10149500D01*
X7783857Y-10135214D01*
X8012428Y-10435214D02*
X8012428Y-10235214D01*
X8012428Y-10263786D02*
X8026714Y-10249500D01*
X8055286Y-10235214D01*
X8098143Y-10235214D01*
X8126714Y-10249500D01*
X8141000Y-10278072D01*
X8141000Y-10435214D01*
X8141000Y-10278072D02*
X8155286Y-10249500D01*
X8183857Y-10235214D01*
X8226714Y-10235214D01*
X8255286Y-10249500D01*
X8269571Y-10278072D01*
X8269571Y-10435214D01*
X8412428Y-10435214D02*
X8412428Y-10235214D01*
X8412428Y-10263786D02*
X8426714Y-10249500D01*
X8455286Y-10235214D01*
X8498143Y-10235214D01*
X8526714Y-10249500D01*
X8541000Y-10278072D01*
X8541000Y-10435214D01*
X8541000Y-10278072D02*
X8555286Y-10249500D01*
X8583857Y-10235214D01*
X8626714Y-10235214D01*
X8655286Y-10249500D01*
X8669571Y-10278072D01*
X8669571Y-10435214D01*
X9255286Y-10120929D02*
X8998143Y-10506643D01*
X9641000Y-10135214D02*
X9669571Y-10135214D01*
X9698143Y-10149500D01*
X9712428Y-10163786D01*
X9726714Y-10192357D01*
X9741000Y-10249500D01*
X9741000Y-10320929D01*
X9726714Y-10378072D01*
X9712428Y-10406643D01*
X9698143Y-10420929D01*
X9669571Y-10435214D01*
X9641000Y-10435214D01*
X9612428Y-10420929D01*
X9598143Y-10406643D01*
X9583857Y-10378072D01*
X9569571Y-10320929D01*
X9569571Y-10249500D01*
X9583857Y-10192357D01*
X9598143Y-10163786D01*
X9612428Y-10149500D01*
X9641000Y-10135214D01*
X9869571Y-10406643D02*
X9883857Y-10420929D01*
X9869571Y-10435214D01*
X9855286Y-10420929D01*
X9869571Y-10406643D01*
X9869571Y-10435214D01*
X10069571Y-10135214D02*
X10098143Y-10135214D01*
X10126714Y-10149500D01*
X10141000Y-10163786D01*
X10155286Y-10192357D01*
X10169571Y-10249500D01*
X10169571Y-10320929D01*
X10155286Y-10378072D01*
X10141000Y-10406643D01*
X10126714Y-10420929D01*
X10098143Y-10435214D01*
X10069571Y-10435214D01*
X10041000Y-10420929D01*
X10026714Y-10406643D01*
X10012428Y-10378072D01*
X9998143Y-10320929D01*
X9998143Y-10249500D01*
X10012428Y-10192357D01*
X10026714Y-10163786D01*
X10041000Y-10149500D01*
X10069571Y-10135214D01*
X10455286Y-10435214D02*
X10283857Y-10435214D01*
X10369571Y-10435214D02*
X10369571Y-10135214D01*
X10341000Y-10178072D01*
X10312428Y-10206643D01*
X10283857Y-10220929D01*
X10712428Y-10135214D02*
X10655286Y-10135214D01*
X10626714Y-10149500D01*
X10612428Y-10163786D01*
X10583857Y-10206643D01*
X10569571Y-10263786D01*
X10569571Y-10378072D01*
X10583857Y-10406643D01*
X10598143Y-10420929D01*
X10626714Y-10435214D01*
X10683857Y-10435214D01*
X10712428Y-10420929D01*
X10726714Y-10406643D01*
X10741000Y-10378072D01*
X10741000Y-10306643D01*
X10726714Y-10278072D01*
X10712428Y-10263786D01*
X10683857Y-10249500D01*
X10626714Y-10249500D01*
X10598143Y-10263786D01*
X10583857Y-10278072D01*
X10569571Y-10306643D01*
X10855286Y-10135214D02*
X10855286Y-10192357D01*
X10969571Y-10135214D02*
X10969571Y-10192357D01*
X11412428Y-10549500D02*
X11398143Y-10535214D01*
X11369571Y-10492357D01*
X11355286Y-10463786D01*
X11341000Y-10420929D01*
X11326714Y-10349500D01*
X11326714Y-10292357D01*
X11341000Y-10220929D01*
X11355286Y-10178072D01*
X11369571Y-10149500D01*
X11398143Y-10106643D01*
X11412428Y-10092357D01*
X11669571Y-10135214D02*
X11526714Y-10135214D01*
X11512428Y-10278072D01*
X11526714Y-10263786D01*
X11555286Y-10249500D01*
X11626714Y-10249500D01*
X11655286Y-10263786D01*
X11669571Y-10278072D01*
X11683857Y-10306643D01*
X11683857Y-10378072D01*
X11669571Y-10406643D01*
X11655286Y-10420929D01*
X11626714Y-10435214D01*
X11555286Y-10435214D01*
X11526714Y-10420929D01*
X11512428Y-10406643D01*
X11783857Y-10135214D02*
X11969571Y-10135214D01*
X11869571Y-10249500D01*
X11912428Y-10249500D01*
X11941000Y-10263786D01*
X11955286Y-10278072D01*
X11969571Y-10306643D01*
X11969571Y-10378072D01*
X11955286Y-10406643D01*
X11941000Y-10420929D01*
X11912428Y-10435214D01*
X11826714Y-10435214D01*
X11798143Y-10420929D01*
X11783857Y-10406643D01*
X12326714Y-10435214D02*
X12326714Y-10135214D01*
X12455286Y-10435214D02*
X12455286Y-10278072D01*
X12441000Y-10249500D01*
X12412428Y-10235214D01*
X12369571Y-10235214D01*
X12341000Y-10249500D01*
X12326714Y-10263786D01*
X12641000Y-10435214D02*
X12612428Y-10420929D01*
X12598143Y-10406643D01*
X12583857Y-10378072D01*
X12583857Y-10292357D01*
X12598143Y-10263786D01*
X12612428Y-10249500D01*
X12641000Y-10235214D01*
X12683857Y-10235214D01*
X12712428Y-10249500D01*
X12726714Y-10263786D01*
X12741000Y-10292357D01*
X12741000Y-10378072D01*
X12726714Y-10406643D01*
X12712428Y-10420929D01*
X12683857Y-10435214D01*
X12641000Y-10435214D01*
X12912428Y-10435214D02*
X12883857Y-10420929D01*
X12869571Y-10392357D01*
X12869571Y-10135214D01*
X13141000Y-10420929D02*
X13112428Y-10435214D01*
X13055286Y-10435214D01*
X13026714Y-10420929D01*
X13012428Y-10392357D01*
X13012428Y-10278072D01*
X13026714Y-10249500D01*
X13055286Y-10235214D01*
X13112428Y-10235214D01*
X13141000Y-10249500D01*
X13155286Y-10278072D01*
X13155286Y-10306643D01*
X13012428Y-10335214D01*
X13269571Y-10420929D02*
X13298143Y-10435214D01*
X13355286Y-10435214D01*
X13383857Y-10420929D01*
X13398143Y-10392357D01*
X13398143Y-10378072D01*
X13383857Y-10349500D01*
X13355286Y-10335214D01*
X13312428Y-10335214D01*
X13283857Y-10320929D01*
X13269571Y-10292357D01*
X13269571Y-10278072D01*
X13283857Y-10249500D01*
X13312428Y-10235214D01*
X13355286Y-10235214D01*
X13383857Y-10249500D01*
X13498143Y-10549500D02*
X13512428Y-10535214D01*
X13541000Y-10492357D01*
X13555286Y-10463786D01*
X13569571Y-10420929D01*
X13583857Y-10349500D01*
X13583857Y-10292357D01*
X13569571Y-10220929D01*
X13555286Y-10178072D01*
X13541000Y-10149500D01*
X13512428Y-10106643D01*
X13498143Y-10092357D01*
X6726000Y-10695500D02*
G75*
G03*
X6726000Y-10695500I-40000J0D01*
G01*
X7069571Y-10531214D02*
X7098143Y-10531214D01*
X7126714Y-10545500D01*
X7141000Y-10559786D01*
X7155286Y-10588357D01*
X7169571Y-10645500D01*
X7169571Y-10716929D01*
X7155286Y-10774072D01*
X7141000Y-10802643D01*
X7126714Y-10816929D01*
X7098143Y-10831214D01*
X7069571Y-10831214D01*
X7041000Y-10816929D01*
X7026714Y-10802643D01*
X7012428Y-10774072D01*
X6998143Y-10716929D01*
X6998143Y-10645500D01*
X7012428Y-10588357D01*
X7026714Y-10559786D01*
X7041000Y-10545500D01*
X7069571Y-10531214D01*
X7298143Y-10802643D02*
X7312428Y-10816929D01*
X7298143Y-10831214D01*
X7283857Y-10816929D01*
X7298143Y-10802643D01*
X7298143Y-10831214D01*
X7483857Y-10659786D02*
X7455286Y-10645500D01*
X7441000Y-10631214D01*
X7426714Y-10602643D01*
X7426714Y-10588357D01*
X7441000Y-10559786D01*
X7455286Y-10545500D01*
X7483857Y-10531214D01*
X7541000Y-10531214D01*
X7569571Y-10545500D01*
X7583857Y-10559786D01*
X7598143Y-10588357D01*
X7598143Y-10602643D01*
X7583857Y-10631214D01*
X7569571Y-10645500D01*
X7541000Y-10659786D01*
X7483857Y-10659786D01*
X7455286Y-10674072D01*
X7441000Y-10688357D01*
X7426714Y-10716929D01*
X7426714Y-10774072D01*
X7441000Y-10802643D01*
X7455286Y-10816929D01*
X7483857Y-10831214D01*
X7541000Y-10831214D01*
X7569571Y-10816929D01*
X7583857Y-10802643D01*
X7598143Y-10774072D01*
X7598143Y-10716929D01*
X7583857Y-10688357D01*
X7569571Y-10674072D01*
X7541000Y-10659786D01*
X7783857Y-10531214D02*
X7812428Y-10531214D01*
X7841000Y-10545500D01*
X7855286Y-10559786D01*
X7869571Y-10588357D01*
X7883857Y-10645500D01*
X7883857Y-10716929D01*
X7869571Y-10774072D01*
X7855286Y-10802643D01*
X7841000Y-10816929D01*
X7812428Y-10831214D01*
X7783857Y-10831214D01*
X7755286Y-10816929D01*
X7741000Y-10802643D01*
X7726714Y-10774072D01*
X7712428Y-10716929D01*
X7712428Y-10645500D01*
X7726714Y-10588357D01*
X7741000Y-10559786D01*
X7755286Y-10545500D01*
X7783857Y-10531214D01*
X8012428Y-10831214D02*
X8012428Y-10631214D01*
X8012428Y-10659786D02*
X8026714Y-10645500D01*
X8055286Y-10631214D01*
X8098143Y-10631214D01*
X8126714Y-10645500D01*
X8141000Y-10674072D01*
X8141000Y-10831214D01*
X8141000Y-10674072D02*
X8155286Y-10645500D01*
X8183857Y-10631214D01*
X8226714Y-10631214D01*
X8255286Y-10645500D01*
X8269571Y-10674072D01*
X8269571Y-10831214D01*
X8412428Y-10831214D02*
X8412428Y-10631214D01*
X8412428Y-10659786D02*
X8426714Y-10645500D01*
X8455286Y-10631214D01*
X8498143Y-10631214D01*
X8526714Y-10645500D01*
X8541000Y-10674072D01*
X8541000Y-10831214D01*
X8541000Y-10674072D02*
X8555286Y-10645500D01*
X8583857Y-10631214D01*
X8626714Y-10631214D01*
X8655286Y-10645500D01*
X8669571Y-10674072D01*
X8669571Y-10831214D01*
X9255286Y-10516929D02*
X8998143Y-10902643D01*
X9641000Y-10531214D02*
X9669571Y-10531214D01*
X9698143Y-10545500D01*
X9712428Y-10559786D01*
X9726714Y-10588357D01*
X9741000Y-10645500D01*
X9741000Y-10716929D01*
X9726714Y-10774072D01*
X9712428Y-10802643D01*
X9698143Y-10816929D01*
X9669571Y-10831214D01*
X9641000Y-10831214D01*
X9612428Y-10816929D01*
X9598143Y-10802643D01*
X9583857Y-10774072D01*
X9569571Y-10716929D01*
X9569571Y-10645500D01*
X9583857Y-10588357D01*
X9598143Y-10559786D01*
X9612428Y-10545500D01*
X9641000Y-10531214D01*
X9869571Y-10802643D02*
X9883857Y-10816929D01*
X9869571Y-10831214D01*
X9855286Y-10816929D01*
X9869571Y-10802643D01*
X9869571Y-10831214D01*
X10069571Y-10531214D02*
X10098143Y-10531214D01*
X10126714Y-10545500D01*
X10141000Y-10559786D01*
X10155286Y-10588357D01*
X10169571Y-10645500D01*
X10169571Y-10716929D01*
X10155286Y-10774072D01*
X10141000Y-10802643D01*
X10126714Y-10816929D01*
X10098143Y-10831214D01*
X10069571Y-10831214D01*
X10041000Y-10816929D01*
X10026714Y-10802643D01*
X10012428Y-10774072D01*
X9998143Y-10716929D01*
X9998143Y-10645500D01*
X10012428Y-10588357D01*
X10026714Y-10559786D01*
X10041000Y-10545500D01*
X10069571Y-10531214D01*
X10269571Y-10531214D02*
X10455286Y-10531214D01*
X10355286Y-10645500D01*
X10398143Y-10645500D01*
X10426714Y-10659786D01*
X10441000Y-10674072D01*
X10455286Y-10702643D01*
X10455286Y-10774072D01*
X10441000Y-10802643D01*
X10426714Y-10816929D01*
X10398143Y-10831214D01*
X10312428Y-10831214D01*
X10283857Y-10816929D01*
X10269571Y-10802643D01*
X10741000Y-10831214D02*
X10569571Y-10831214D01*
X10655286Y-10831214D02*
X10655286Y-10531214D01*
X10626714Y-10574072D01*
X10598143Y-10602643D01*
X10569571Y-10616929D01*
X10855286Y-10531214D02*
X10855286Y-10588357D01*
X10969571Y-10531214D02*
X10969571Y-10588357D01*
X11412428Y-10945500D02*
X11398143Y-10931214D01*
X11369571Y-10888357D01*
X11355286Y-10859786D01*
X11341000Y-10816929D01*
X11326714Y-10745500D01*
X11326714Y-10688357D01*
X11341000Y-10616929D01*
X11355286Y-10574072D01*
X11369571Y-10545500D01*
X11398143Y-10502643D01*
X11412428Y-10488357D01*
X11569571Y-10659786D02*
X11541000Y-10645500D01*
X11526714Y-10631214D01*
X11512428Y-10602643D01*
X11512428Y-10588357D01*
X11526714Y-10559786D01*
X11541000Y-10545500D01*
X11569571Y-10531214D01*
X11626714Y-10531214D01*
X11655286Y-10545500D01*
X11669571Y-10559786D01*
X11683857Y-10588357D01*
X11683857Y-10602643D01*
X11669571Y-10631214D01*
X11655286Y-10645500D01*
X11626714Y-10659786D01*
X11569571Y-10659786D01*
X11541000Y-10674072D01*
X11526714Y-10688357D01*
X11512428Y-10716929D01*
X11512428Y-10774072D01*
X11526714Y-10802643D01*
X11541000Y-10816929D01*
X11569571Y-10831214D01*
X11626714Y-10831214D01*
X11655286Y-10816929D01*
X11669571Y-10802643D01*
X11683857Y-10774072D01*
X11683857Y-10716929D01*
X11669571Y-10688357D01*
X11655286Y-10674072D01*
X11626714Y-10659786D01*
X12041000Y-10831214D02*
X12041000Y-10531214D01*
X12169571Y-10831214D02*
X12169571Y-10674072D01*
X12155286Y-10645500D01*
X12126714Y-10631214D01*
X12083857Y-10631214D01*
X12055286Y-10645500D01*
X12041000Y-10659786D01*
X12355286Y-10831214D02*
X12326714Y-10816929D01*
X12312428Y-10802643D01*
X12298143Y-10774072D01*
X12298143Y-10688357D01*
X12312428Y-10659786D01*
X12326714Y-10645500D01*
X12355286Y-10631214D01*
X12398143Y-10631214D01*
X12426714Y-10645500D01*
X12441000Y-10659786D01*
X12455286Y-10688357D01*
X12455286Y-10774072D01*
X12441000Y-10802643D01*
X12426714Y-10816929D01*
X12398143Y-10831214D01*
X12355286Y-10831214D01*
X12626714Y-10831214D02*
X12598143Y-10816929D01*
X12583857Y-10788357D01*
X12583857Y-10531214D01*
X12855286Y-10816929D02*
X12826714Y-10831214D01*
X12769571Y-10831214D01*
X12741000Y-10816929D01*
X12726714Y-10788357D01*
X12726714Y-10674072D01*
X12741000Y-10645500D01*
X12769571Y-10631214D01*
X12826714Y-10631214D01*
X12855286Y-10645500D01*
X12869571Y-10674072D01*
X12869571Y-10702643D01*
X12726714Y-10731214D01*
X12983857Y-10816929D02*
X13012428Y-10831214D01*
X13069571Y-10831214D01*
X13098143Y-10816929D01*
X13112428Y-10788357D01*
X13112428Y-10774072D01*
X13098143Y-10745500D01*
X13069571Y-10731214D01*
X13026714Y-10731214D01*
X12998143Y-10716929D01*
X12983857Y-10688357D01*
X12983857Y-10674072D01*
X12998143Y-10645500D01*
X13026714Y-10631214D01*
X13069571Y-10631214D01*
X13098143Y-10645500D01*
X13469571Y-10716929D02*
X13698143Y-10716929D01*
X13583857Y-10831214D02*
X13583857Y-10602643D01*
X14198143Y-10531214D02*
X14141000Y-10531214D01*
X14112428Y-10545500D01*
X14098143Y-10559786D01*
X14069571Y-10602643D01*
X14055286Y-10659786D01*
X14055286Y-10774072D01*
X14069571Y-10802643D01*
X14083857Y-10816929D01*
X14112428Y-10831214D01*
X14169571Y-10831214D01*
X14198143Y-10816929D01*
X14212428Y-10802643D01*
X14226714Y-10774072D01*
X14226714Y-10702643D01*
X14212428Y-10674072D01*
X14198143Y-10659786D01*
X14169571Y-10645500D01*
X14112428Y-10645500D01*
X14083857Y-10659786D01*
X14069571Y-10674072D01*
X14055286Y-10702643D01*
X14569571Y-10816929D02*
X14598143Y-10831214D01*
X14655286Y-10831214D01*
X14683857Y-10816929D01*
X14698143Y-10788357D01*
X14698143Y-10774072D01*
X14683857Y-10745500D01*
X14655286Y-10731214D01*
X14612428Y-10731214D01*
X14583857Y-10716929D01*
X14569571Y-10688357D01*
X14569571Y-10674072D01*
X14583857Y-10645500D01*
X14612428Y-10631214D01*
X14655286Y-10631214D01*
X14683857Y-10645500D01*
X14869571Y-10831214D02*
X14841000Y-10816929D01*
X14826714Y-10788357D01*
X14826714Y-10531214D01*
X15026714Y-10831214D02*
X14998143Y-10816929D01*
X14983857Y-10802643D01*
X14969571Y-10774072D01*
X14969571Y-10688357D01*
X14983857Y-10659786D01*
X14998143Y-10645500D01*
X15026714Y-10631214D01*
X15069571Y-10631214D01*
X15098143Y-10645500D01*
X15112428Y-10659786D01*
X15126714Y-10688357D01*
X15126714Y-10774072D01*
X15112428Y-10802643D01*
X15098143Y-10816929D01*
X15069571Y-10831214D01*
X15026714Y-10831214D01*
X15212428Y-10631214D02*
X15326714Y-10631214D01*
X15255286Y-10531214D02*
X15255286Y-10788357D01*
X15269571Y-10816929D01*
X15298143Y-10831214D01*
X15326714Y-10831214D01*
X15412428Y-10816929D02*
X15441000Y-10831214D01*
X15498143Y-10831214D01*
X15526714Y-10816929D01*
X15541000Y-10788357D01*
X15541000Y-10774072D01*
X15526714Y-10745500D01*
X15498143Y-10731214D01*
X15455286Y-10731214D01*
X15426714Y-10716929D01*
X15412428Y-10688357D01*
X15412428Y-10674072D01*
X15426714Y-10645500D01*
X15455286Y-10631214D01*
X15498143Y-10631214D01*
X15526714Y-10645500D01*
X15641000Y-10945500D02*
X15655286Y-10931214D01*
X15683857Y-10888357D01*
X15698143Y-10859786D01*
X15712428Y-10816929D01*
X15726714Y-10745500D01*
X15726714Y-10688357D01*
X15712428Y-10616929D01*
X15698143Y-10574072D01*
X15683857Y-10545500D01*
X15655286Y-10502643D01*
X15641000Y-10488357D01*
X6681000Y-11046500D02*
X6681000Y-11136500D01*
X6636000Y-11091500D02*
X6726000Y-11091500D01*
X7069571Y-10927214D02*
X7098143Y-10927214D01*
X7126714Y-10941500D01*
X7141000Y-10955786D01*
X7155286Y-10984357D01*
X7169571Y-11041500D01*
X7169571Y-11112929D01*
X7155286Y-11170072D01*
X7141000Y-11198643D01*
X7126714Y-11212929D01*
X7098143Y-11227214D01*
X7069571Y-11227214D01*
X7041000Y-11212929D01*
X7026714Y-11198643D01*
X7012428Y-11170072D01*
X6998143Y-11112929D01*
X6998143Y-11041500D01*
X7012428Y-10984357D01*
X7026714Y-10955786D01*
X7041000Y-10941500D01*
X7069571Y-10927214D01*
X7298143Y-11198643D02*
X7312428Y-11212929D01*
X7298143Y-11227214D01*
X7283857Y-11212929D01*
X7298143Y-11198643D01*
X7298143Y-11227214D01*
X7455286Y-11227214D02*
X7512428Y-11227214D01*
X7541000Y-11212929D01*
X7555286Y-11198643D01*
X7583857Y-11155786D01*
X7598143Y-11098643D01*
X7598143Y-10984357D01*
X7583857Y-10955786D01*
X7569571Y-10941500D01*
X7541000Y-10927214D01*
X7483857Y-10927214D01*
X7455286Y-10941500D01*
X7441000Y-10955786D01*
X7426714Y-10984357D01*
X7426714Y-11055786D01*
X7441000Y-11084357D01*
X7455286Y-11098643D01*
X7483857Y-11112929D01*
X7541000Y-11112929D01*
X7569571Y-11098643D01*
X7583857Y-11084357D01*
X7598143Y-11055786D01*
X7783857Y-10927214D02*
X7812428Y-10927214D01*
X7841000Y-10941500D01*
X7855286Y-10955786D01*
X7869571Y-10984357D01*
X7883857Y-11041500D01*
X7883857Y-11112929D01*
X7869571Y-11170072D01*
X7855286Y-11198643D01*
X7841000Y-11212929D01*
X7812428Y-11227214D01*
X7783857Y-11227214D01*
X7755286Y-11212929D01*
X7741000Y-11198643D01*
X7726714Y-11170072D01*
X7712428Y-11112929D01*
X7712428Y-11041500D01*
X7726714Y-10984357D01*
X7741000Y-10955786D01*
X7755286Y-10941500D01*
X7783857Y-10927214D01*
X8012428Y-11227214D02*
X8012428Y-11027214D01*
X8012428Y-11055786D02*
X8026714Y-11041500D01*
X8055286Y-11027214D01*
X8098143Y-11027214D01*
X8126714Y-11041500D01*
X8141000Y-11070072D01*
X8141000Y-11227214D01*
X8141000Y-11070072D02*
X8155286Y-11041500D01*
X8183857Y-11027214D01*
X8226714Y-11027214D01*
X8255286Y-11041500D01*
X8269571Y-11070072D01*
X8269571Y-11227214D01*
X8412428Y-11227214D02*
X8412428Y-11027214D01*
X8412428Y-11055786D02*
X8426714Y-11041500D01*
X8455286Y-11027214D01*
X8498143Y-11027214D01*
X8526714Y-11041500D01*
X8541000Y-11070072D01*
X8541000Y-11227214D01*
X8541000Y-11070072D02*
X8555286Y-11041500D01*
X8583857Y-11027214D01*
X8626714Y-11027214D01*
X8655286Y-11041500D01*
X8669571Y-11070072D01*
X8669571Y-11227214D01*
X9255286Y-10912929D02*
X8998143Y-11298643D01*
X9641000Y-10927214D02*
X9669571Y-10927214D01*
X9698143Y-10941500D01*
X9712428Y-10955786D01*
X9726714Y-10984357D01*
X9741000Y-11041500D01*
X9741000Y-11112929D01*
X9726714Y-11170072D01*
X9712428Y-11198643D01*
X9698143Y-11212929D01*
X9669571Y-11227214D01*
X9641000Y-11227214D01*
X9612428Y-11212929D01*
X9598143Y-11198643D01*
X9583857Y-11170072D01*
X9569571Y-11112929D01*
X9569571Y-11041500D01*
X9583857Y-10984357D01*
X9598143Y-10955786D01*
X9612428Y-10941500D01*
X9641000Y-10927214D01*
X9869571Y-11198643D02*
X9883857Y-11212929D01*
X9869571Y-11227214D01*
X9855286Y-11212929D01*
X9869571Y-11198643D01*
X9869571Y-11227214D01*
X10069571Y-10927214D02*
X10098143Y-10927214D01*
X10126714Y-10941500D01*
X10141000Y-10955786D01*
X10155286Y-10984357D01*
X10169571Y-11041500D01*
X10169571Y-11112929D01*
X10155286Y-11170072D01*
X10141000Y-11198643D01*
X10126714Y-11212929D01*
X10098143Y-11227214D01*
X10069571Y-11227214D01*
X10041000Y-11212929D01*
X10026714Y-11198643D01*
X10012428Y-11170072D01*
X9998143Y-11112929D01*
X9998143Y-11041500D01*
X10012428Y-10984357D01*
X10026714Y-10955786D01*
X10041000Y-10941500D01*
X10069571Y-10927214D01*
X10269571Y-10927214D02*
X10455286Y-10927214D01*
X10355286Y-11041500D01*
X10398143Y-11041500D01*
X10426714Y-11055786D01*
X10441000Y-11070072D01*
X10455286Y-11098643D01*
X10455286Y-11170072D01*
X10441000Y-11198643D01*
X10426714Y-11212929D01*
X10398143Y-11227214D01*
X10312428Y-11227214D01*
X10283857Y-11212929D01*
X10269571Y-11198643D01*
X10726714Y-10927214D02*
X10583857Y-10927214D01*
X10569571Y-11070072D01*
X10583857Y-11055786D01*
X10612428Y-11041500D01*
X10683857Y-11041500D01*
X10712428Y-11055786D01*
X10726714Y-11070072D01*
X10741000Y-11098643D01*
X10741000Y-11170072D01*
X10726714Y-11198643D01*
X10712428Y-11212929D01*
X10683857Y-11227214D01*
X10612428Y-11227214D01*
X10583857Y-11212929D01*
X10569571Y-11198643D01*
X10855286Y-10927214D02*
X10855286Y-10984357D01*
X10969571Y-10927214D02*
X10969571Y-10984357D01*
X11412428Y-11341500D02*
X11398143Y-11327214D01*
X11369571Y-11284357D01*
X11355286Y-11255786D01*
X11341000Y-11212929D01*
X11326714Y-11141500D01*
X11326714Y-11084357D01*
X11341000Y-11012929D01*
X11355286Y-10970072D01*
X11369571Y-10941500D01*
X11398143Y-10898643D01*
X11412428Y-10884357D01*
X11655286Y-11027214D02*
X11655286Y-11227214D01*
X11583857Y-10912929D02*
X11512428Y-11127214D01*
X11698143Y-11127214D01*
X12041000Y-11227214D02*
X12041000Y-10927214D01*
X12169571Y-11227214D02*
X12169571Y-11070072D01*
X12155286Y-11041500D01*
X12126714Y-11027214D01*
X12083857Y-11027214D01*
X12055286Y-11041500D01*
X12041000Y-11055786D01*
X12355286Y-11227214D02*
X12326714Y-11212929D01*
X12312428Y-11198643D01*
X12298143Y-11170072D01*
X12298143Y-11084357D01*
X12312428Y-11055786D01*
X12326714Y-11041500D01*
X12355286Y-11027214D01*
X12398143Y-11027214D01*
X12426714Y-11041500D01*
X12441000Y-11055786D01*
X12455286Y-11084357D01*
X12455286Y-11170072D01*
X12441000Y-11198643D01*
X12426714Y-11212929D01*
X12398143Y-11227214D01*
X12355286Y-11227214D01*
X12626714Y-11227214D02*
X12598143Y-11212929D01*
X12583857Y-11184357D01*
X12583857Y-10927214D01*
X12855286Y-11212929D02*
X12826714Y-11227214D01*
X12769571Y-11227214D01*
X12741000Y-11212929D01*
X12726714Y-11184357D01*
X12726714Y-11070072D01*
X12741000Y-11041500D01*
X12769571Y-11027214D01*
X12826714Y-11027214D01*
X12855286Y-11041500D01*
X12869571Y-11070072D01*
X12869571Y-11098643D01*
X12726714Y-11127214D01*
X12983857Y-11212929D02*
X13012428Y-11227214D01*
X13069571Y-11227214D01*
X13098143Y-11212929D01*
X13112428Y-11184357D01*
X13112428Y-11170072D01*
X13098143Y-11141500D01*
X13069571Y-11127214D01*
X13026714Y-11127214D01*
X12998143Y-11112929D01*
X12983857Y-11084357D01*
X12983857Y-11070072D01*
X12998143Y-11041500D01*
X13026714Y-11027214D01*
X13069571Y-11027214D01*
X13098143Y-11041500D01*
X13212428Y-11341500D02*
X13226714Y-11327214D01*
X13255286Y-11284357D01*
X13269571Y-11255786D01*
X13283857Y-11212929D01*
X13298143Y-11141500D01*
X13298143Y-11084357D01*
X13283857Y-11012929D01*
X13269571Y-10970072D01*
X13255286Y-10941500D01*
X13226714Y-10898643D01*
X13212428Y-10884357D01*
X6712088Y-11521088D02*
X6712088Y-11453912D01*
X6644912Y-11453912D01*
X6644912Y-11521088D01*
X6712088Y-11521088D01*
X7069571Y-11323214D02*
X7098143Y-11323214D01*
X7126714Y-11337500D01*
X7141000Y-11351786D01*
X7155286Y-11380357D01*
X7169571Y-11437500D01*
X7169571Y-11508929D01*
X7155286Y-11566071D01*
X7141000Y-11594643D01*
X7126714Y-11608929D01*
X7098143Y-11623214D01*
X7069571Y-11623214D01*
X7041000Y-11608929D01*
X7026714Y-11594643D01*
X7012428Y-11566071D01*
X6998143Y-11508929D01*
X6998143Y-11437500D01*
X7012428Y-11380357D01*
X7026714Y-11351786D01*
X7041000Y-11337500D01*
X7069571Y-11323214D01*
X7298143Y-11594643D02*
X7312428Y-11608929D01*
X7298143Y-11623214D01*
X7283857Y-11608929D01*
X7298143Y-11594643D01*
X7298143Y-11623214D01*
X7455286Y-11623214D02*
X7512428Y-11623214D01*
X7541000Y-11608929D01*
X7555286Y-11594643D01*
X7583857Y-11551786D01*
X7598143Y-11494643D01*
X7598143Y-11380357D01*
X7583857Y-11351786D01*
X7569571Y-11337500D01*
X7541000Y-11323214D01*
X7483857Y-11323214D01*
X7455286Y-11337500D01*
X7441000Y-11351786D01*
X7426714Y-11380357D01*
X7426714Y-11451786D01*
X7441000Y-11480357D01*
X7455286Y-11494643D01*
X7483857Y-11508929D01*
X7541000Y-11508929D01*
X7569571Y-11494643D01*
X7583857Y-11480357D01*
X7598143Y-11451786D01*
X7869571Y-11323214D02*
X7726714Y-11323214D01*
X7712428Y-11466071D01*
X7726714Y-11451786D01*
X7755286Y-11437500D01*
X7826714Y-11437500D01*
X7855286Y-11451786D01*
X7869571Y-11466071D01*
X7883857Y-11494643D01*
X7883857Y-11566071D01*
X7869571Y-11594643D01*
X7855286Y-11608929D01*
X7826714Y-11623214D01*
X7755286Y-11623214D01*
X7726714Y-11608929D01*
X7712428Y-11594643D01*
X8012428Y-11623214D02*
X8012428Y-11423214D01*
X8012428Y-11451786D02*
X8026714Y-11437500D01*
X8055286Y-11423214D01*
X8098143Y-11423214D01*
X8126714Y-11437500D01*
X8141000Y-11466071D01*
X8141000Y-11623214D01*
X8141000Y-11466071D02*
X8155286Y-11437500D01*
X8183857Y-11423214D01*
X8226714Y-11423214D01*
X8255286Y-11437500D01*
X8269571Y-11466071D01*
X8269571Y-11623214D01*
X8412428Y-11623214D02*
X8412428Y-11423214D01*
X8412428Y-11451786D02*
X8426714Y-11437500D01*
X8455286Y-11423214D01*
X8498143Y-11423214D01*
X8526714Y-11437500D01*
X8541000Y-11466071D01*
X8541000Y-11623214D01*
X8541000Y-11466071D02*
X8555286Y-11437500D01*
X8583857Y-11423214D01*
X8626714Y-11423214D01*
X8655286Y-11437500D01*
X8669571Y-11466071D01*
X8669571Y-11623214D01*
X9255286Y-11308929D02*
X8998143Y-11694643D01*
X9641000Y-11323214D02*
X9669571Y-11323214D01*
X9698143Y-11337500D01*
X9712428Y-11351786D01*
X9726714Y-11380357D01*
X9741000Y-11437500D01*
X9741000Y-11508929D01*
X9726714Y-11566071D01*
X9712428Y-11594643D01*
X9698143Y-11608929D01*
X9669571Y-11623214D01*
X9641000Y-11623214D01*
X9612428Y-11608929D01*
X9598143Y-11594643D01*
X9583857Y-11566071D01*
X9569571Y-11508929D01*
X9569571Y-11437500D01*
X9583857Y-11380357D01*
X9598143Y-11351786D01*
X9612428Y-11337500D01*
X9641000Y-11323214D01*
X9869571Y-11594643D02*
X9883857Y-11608929D01*
X9869571Y-11623214D01*
X9855286Y-11608929D01*
X9869571Y-11594643D01*
X9869571Y-11623214D01*
X10069571Y-11323214D02*
X10098143Y-11323214D01*
X10126714Y-11337500D01*
X10141000Y-11351786D01*
X10155286Y-11380357D01*
X10169571Y-11437500D01*
X10169571Y-11508929D01*
X10155286Y-11566071D01*
X10141000Y-11594643D01*
X10126714Y-11608929D01*
X10098143Y-11623214D01*
X10069571Y-11623214D01*
X10041000Y-11608929D01*
X10026714Y-11594643D01*
X10012428Y-11566071D01*
X9998143Y-11508929D01*
X9998143Y-11437500D01*
X10012428Y-11380357D01*
X10026714Y-11351786D01*
X10041000Y-11337500D01*
X10069571Y-11323214D01*
X10269571Y-11323214D02*
X10455286Y-11323214D01*
X10355286Y-11437500D01*
X10398143Y-11437500D01*
X10426714Y-11451786D01*
X10441000Y-11466071D01*
X10455286Y-11494643D01*
X10455286Y-11566071D01*
X10441000Y-11594643D01*
X10426714Y-11608929D01*
X10398143Y-11623214D01*
X10312428Y-11623214D01*
X10283857Y-11608929D01*
X10269571Y-11594643D01*
X10555286Y-11323214D02*
X10755286Y-11323214D01*
X10626714Y-11623214D01*
X10855286Y-11323214D02*
X10855286Y-11380357D01*
X10969571Y-11323214D02*
X10969571Y-11380357D01*
X11412428Y-11737500D02*
X11398143Y-11723214D01*
X11369571Y-11680357D01*
X11355286Y-11651786D01*
X11341000Y-11608929D01*
X11326714Y-11537500D01*
X11326714Y-11480357D01*
X11341000Y-11408929D01*
X11355286Y-11366071D01*
X11369571Y-11337500D01*
X11398143Y-11294643D01*
X11412428Y-11280357D01*
X11498143Y-11323214D02*
X11683857Y-11323214D01*
X11583857Y-11437500D01*
X11626714Y-11437500D01*
X11655286Y-11451786D01*
X11669571Y-11466071D01*
X11683857Y-11494643D01*
X11683857Y-11566071D01*
X11669571Y-11594643D01*
X11655286Y-11608929D01*
X11626714Y-11623214D01*
X11541000Y-11623214D01*
X11512428Y-11608929D01*
X11498143Y-11594643D01*
X12041000Y-11623214D02*
X12041000Y-11323214D01*
X12169571Y-11623214D02*
X12169571Y-11466071D01*
X12155286Y-11437500D01*
X12126714Y-11423214D01*
X12083857Y-11423214D01*
X12055286Y-11437500D01*
X12041000Y-11451786D01*
X12355286Y-11623214D02*
X12326714Y-11608929D01*
X12312428Y-11594643D01*
X12298143Y-11566071D01*
X12298143Y-11480357D01*
X12312428Y-11451786D01*
X12326714Y-11437500D01*
X12355286Y-11423214D01*
X12398143Y-11423214D01*
X12426714Y-11437500D01*
X12441000Y-11451786D01*
X12455286Y-11480357D01*
X12455286Y-11566071D01*
X12441000Y-11594643D01*
X12426714Y-11608929D01*
X12398143Y-11623214D01*
X12355286Y-11623214D01*
X12626714Y-11623214D02*
X12598143Y-11608929D01*
X12583857Y-11580357D01*
X12583857Y-11323214D01*
X12855286Y-11608929D02*
X12826714Y-11623214D01*
X12769571Y-11623214D01*
X12741000Y-11608929D01*
X12726714Y-11580357D01*
X12726714Y-11466071D01*
X12741000Y-11437500D01*
X12769571Y-11423214D01*
X12826714Y-11423214D01*
X12855286Y-11437500D01*
X12869571Y-11466071D01*
X12869571Y-11494643D01*
X12726714Y-11523214D01*
X12983857Y-11608929D02*
X13012428Y-11623214D01*
X13069571Y-11623214D01*
X13098143Y-11608929D01*
X13112428Y-11580357D01*
X13112428Y-11566071D01*
X13098143Y-11537500D01*
X13069571Y-11523214D01*
X13026714Y-11523214D01*
X12998143Y-11508929D01*
X12983857Y-11480357D01*
X12983857Y-11466071D01*
X12998143Y-11437500D01*
X13026714Y-11423214D01*
X13069571Y-11423214D01*
X13098143Y-11437500D01*
X13212428Y-11737500D02*
X13226714Y-11723214D01*
X13255286Y-11680357D01*
X13269571Y-11651786D01*
X13283857Y-11608929D01*
X13298143Y-11537500D01*
X13298143Y-11480357D01*
X13283857Y-11408929D01*
X13269571Y-11366071D01*
X13255286Y-11337500D01*
X13226714Y-11294643D01*
X13212428Y-11280357D01*
X6676000Y-11933500D02*
X6726000Y-11883500D01*
X6676000Y-11833500D01*
X6626000Y-11883500D01*
X6676000Y-11933500D01*
X7169571Y-12019214D02*
X6998143Y-12019214D01*
X7083857Y-12019214D02*
X7083857Y-11719214D01*
X7055286Y-11762071D01*
X7026714Y-11790643D01*
X6998143Y-11804929D01*
X7298143Y-11990643D02*
X7312428Y-12004929D01*
X7298143Y-12019214D01*
X7283857Y-12004929D01*
X7298143Y-11990643D01*
X7298143Y-12019214D01*
X7498143Y-11719214D02*
X7526714Y-11719214D01*
X7555286Y-11733500D01*
X7569571Y-11747786D01*
X7583857Y-11776357D01*
X7598143Y-11833500D01*
X7598143Y-11904929D01*
X7583857Y-11962071D01*
X7569571Y-11990643D01*
X7555286Y-12004929D01*
X7526714Y-12019214D01*
X7498143Y-12019214D01*
X7469571Y-12004929D01*
X7455286Y-11990643D01*
X7441000Y-11962071D01*
X7426714Y-11904929D01*
X7426714Y-11833500D01*
X7441000Y-11776357D01*
X7455286Y-11747786D01*
X7469571Y-11733500D01*
X7498143Y-11719214D01*
X7783857Y-11719214D02*
X7812428Y-11719214D01*
X7841000Y-11733500D01*
X7855286Y-11747786D01*
X7869571Y-11776357D01*
X7883857Y-11833500D01*
X7883857Y-11904929D01*
X7869571Y-11962071D01*
X7855286Y-11990643D01*
X7841000Y-12004929D01*
X7812428Y-12019214D01*
X7783857Y-12019214D01*
X7755286Y-12004929D01*
X7741000Y-11990643D01*
X7726714Y-11962071D01*
X7712428Y-11904929D01*
X7712428Y-11833500D01*
X7726714Y-11776357D01*
X7741000Y-11747786D01*
X7755286Y-11733500D01*
X7783857Y-11719214D01*
X8012428Y-12019214D02*
X8012428Y-11819214D01*
X8012428Y-11847786D02*
X8026714Y-11833500D01*
X8055286Y-11819214D01*
X8098143Y-11819214D01*
X8126714Y-11833500D01*
X8141000Y-11862071D01*
X8141000Y-12019214D01*
X8141000Y-11862071D02*
X8155286Y-11833500D01*
X8183857Y-11819214D01*
X8226714Y-11819214D01*
X8255286Y-11833500D01*
X8269571Y-11862071D01*
X8269571Y-12019214D01*
X8412428Y-12019214D02*
X8412428Y-11819214D01*
X8412428Y-11847786D02*
X8426714Y-11833500D01*
X8455286Y-11819214D01*
X8498143Y-11819214D01*
X8526714Y-11833500D01*
X8541000Y-11862071D01*
X8541000Y-12019214D01*
X8541000Y-11862071D02*
X8555286Y-11833500D01*
X8583857Y-11819214D01*
X8626714Y-11819214D01*
X8655286Y-11833500D01*
X8669571Y-11862071D01*
X8669571Y-12019214D01*
X9255286Y-11704929D02*
X8998143Y-12090643D01*
X9641000Y-11719214D02*
X9669571Y-11719214D01*
X9698143Y-11733500D01*
X9712428Y-11747786D01*
X9726714Y-11776357D01*
X9741000Y-11833500D01*
X9741000Y-11904929D01*
X9726714Y-11962071D01*
X9712428Y-11990643D01*
X9698143Y-12004929D01*
X9669571Y-12019214D01*
X9641000Y-12019214D01*
X9612428Y-12004929D01*
X9598143Y-11990643D01*
X9583857Y-11962071D01*
X9569571Y-11904929D01*
X9569571Y-11833500D01*
X9583857Y-11776357D01*
X9598143Y-11747786D01*
X9612428Y-11733500D01*
X9641000Y-11719214D01*
X9869571Y-11990643D02*
X9883857Y-12004929D01*
X9869571Y-12019214D01*
X9855286Y-12004929D01*
X9869571Y-11990643D01*
X9869571Y-12019214D01*
X10069571Y-11719214D02*
X10098143Y-11719214D01*
X10126714Y-11733500D01*
X10141000Y-11747786D01*
X10155286Y-11776357D01*
X10169571Y-11833500D01*
X10169571Y-11904929D01*
X10155286Y-11962071D01*
X10141000Y-11990643D01*
X10126714Y-12004929D01*
X10098143Y-12019214D01*
X10069571Y-12019214D01*
X10041000Y-12004929D01*
X10026714Y-11990643D01*
X10012428Y-11962071D01*
X9998143Y-11904929D01*
X9998143Y-11833500D01*
X10012428Y-11776357D01*
X10026714Y-11747786D01*
X10041000Y-11733500D01*
X10069571Y-11719214D01*
X10269571Y-11719214D02*
X10455286Y-11719214D01*
X10355286Y-11833500D01*
X10398143Y-11833500D01*
X10426714Y-11847786D01*
X10441000Y-11862071D01*
X10455286Y-11890643D01*
X10455286Y-11962071D01*
X10441000Y-11990643D01*
X10426714Y-12004929D01*
X10398143Y-12019214D01*
X10312428Y-12019214D01*
X10283857Y-12004929D01*
X10269571Y-11990643D01*
X10598143Y-12019214D02*
X10655286Y-12019214D01*
X10683857Y-12004929D01*
X10698143Y-11990643D01*
X10726714Y-11947786D01*
X10741000Y-11890643D01*
X10741000Y-11776357D01*
X10726714Y-11747786D01*
X10712428Y-11733500D01*
X10683857Y-11719214D01*
X10626714Y-11719214D01*
X10598143Y-11733500D01*
X10583857Y-11747786D01*
X10569571Y-11776357D01*
X10569571Y-11847786D01*
X10583857Y-11876357D01*
X10598143Y-11890643D01*
X10626714Y-11904929D01*
X10683857Y-11904929D01*
X10712428Y-11890643D01*
X10726714Y-11876357D01*
X10741000Y-11847786D01*
X10855286Y-11719214D02*
X10855286Y-11776357D01*
X10969571Y-11719214D02*
X10969571Y-11776357D01*
X11412428Y-12133500D02*
X11398143Y-12119214D01*
X11369571Y-12076357D01*
X11355286Y-12047786D01*
X11341000Y-12004929D01*
X11326714Y-11933500D01*
X11326714Y-11876357D01*
X11341000Y-11804929D01*
X11355286Y-11762071D01*
X11369571Y-11733500D01*
X11398143Y-11690643D01*
X11412428Y-11676357D01*
X11655286Y-11819214D02*
X11655286Y-12019214D01*
X11583857Y-11704929D02*
X11512428Y-11919214D01*
X11698143Y-11919214D01*
X11869571Y-11719214D02*
X11898143Y-11719214D01*
X11926714Y-11733500D01*
X11941000Y-11747786D01*
X11955286Y-11776357D01*
X11969571Y-11833500D01*
X11969571Y-11904929D01*
X11955286Y-11962071D01*
X11941000Y-11990643D01*
X11926714Y-12004929D01*
X11898143Y-12019214D01*
X11869571Y-12019214D01*
X11841000Y-12004929D01*
X11826714Y-11990643D01*
X11812428Y-11962071D01*
X11798143Y-11904929D01*
X11798143Y-11833500D01*
X11812428Y-11776357D01*
X11826714Y-11747786D01*
X11841000Y-11733500D01*
X11869571Y-11719214D01*
X12326714Y-12019214D02*
X12326714Y-11719214D01*
X12455286Y-12019214D02*
X12455286Y-11862071D01*
X12441000Y-11833500D01*
X12412428Y-11819214D01*
X12369571Y-11819214D01*
X12341000Y-11833500D01*
X12326714Y-11847786D01*
X12641000Y-12019214D02*
X12612428Y-12004929D01*
X12598143Y-11990643D01*
X12583857Y-11962071D01*
X12583857Y-11876357D01*
X12598143Y-11847786D01*
X12612428Y-11833500D01*
X12641000Y-11819214D01*
X12683857Y-11819214D01*
X12712428Y-11833500D01*
X12726714Y-11847786D01*
X12741000Y-11876357D01*
X12741000Y-11962071D01*
X12726714Y-11990643D01*
X12712428Y-12004929D01*
X12683857Y-12019214D01*
X12641000Y-12019214D01*
X12912428Y-12019214D02*
X12883857Y-12004929D01*
X12869571Y-11976357D01*
X12869571Y-11719214D01*
X13141000Y-12004929D02*
X13112428Y-12019214D01*
X13055286Y-12019214D01*
X13026714Y-12004929D01*
X13012428Y-11976357D01*
X13012428Y-11862071D01*
X13026714Y-11833500D01*
X13055286Y-11819214D01*
X13112428Y-11819214D01*
X13141000Y-11833500D01*
X13155286Y-11862071D01*
X13155286Y-11890643D01*
X13012428Y-11919214D01*
X13269571Y-12004929D02*
X13298143Y-12019214D01*
X13355286Y-12019214D01*
X13383857Y-12004929D01*
X13398143Y-11976357D01*
X13398143Y-11962071D01*
X13383857Y-11933500D01*
X13355286Y-11919214D01*
X13312428Y-11919214D01*
X13283857Y-11904929D01*
X13269571Y-11876357D01*
X13269571Y-11862071D01*
X13283857Y-11833500D01*
X13312428Y-11819214D01*
X13355286Y-11819214D01*
X13383857Y-11833500D01*
X13498143Y-12133500D02*
X13512428Y-12119214D01*
X13541000Y-12076357D01*
X13555286Y-12047786D01*
X13569571Y-12004929D01*
X13583857Y-11933500D01*
X13583857Y-11876357D01*
X13569571Y-11804929D01*
X13555286Y-11762071D01*
X13541000Y-11733500D01*
X13512428Y-11690643D01*
X13498143Y-11676357D01*
M02*
