%TF.GenerationSoftware,KiCad,Pcbnew,5.1.9+dfsg1-1~bpo10+1*%
%TF.CreationDate,2022-02-06T17:07:51+08:00*%
%TF.ProjectId,euro2breadboard,6575726f-3262-4726-9561-64626f617264,rev?*%
%TF.SameCoordinates,Original*%
%TF.FileFunction,Copper,L2,Bot*%
%TF.FilePolarity,Positive*%
%FSLAX46Y46*%
G04 Gerber Fmt 4.6, Leading zero omitted, Abs format (unit mm)*
G04 Created by KiCad (PCBNEW 5.1.9+dfsg1-1~bpo10+1) date 2022-02-06 17:07:51*
%MOMM*%
%LPD*%
G01*
G04 APERTURE LIST*
%TA.AperFunction,ComponentPad*%
%ADD10O,1.600000X3.000000*%
%TD*%
%TA.AperFunction,ComponentPad*%
%ADD11C,1.600000*%
%TD*%
%TA.AperFunction,ComponentPad*%
%ADD12R,1.600000X1.600000*%
%TD*%
%TA.AperFunction,ComponentPad*%
%ADD13C,1.700000*%
%TD*%
%TA.AperFunction,ComponentPad*%
%ADD14R,1.700000X1.700000*%
%TD*%
%TA.AperFunction,ComponentPad*%
%ADD15O,1.700000X1.700000*%
%TD*%
%TA.AperFunction,ComponentPad*%
%ADD16O,1.700000X1.950000*%
%TD*%
%TA.AperFunction,ComponentPad*%
%ADD17C,1.800000*%
%TD*%
%TA.AperFunction,ComponentPad*%
%ADD18R,1.800000X1.800000*%
%TD*%
%TA.AperFunction,ComponentPad*%
%ADD19O,1.600000X1.600000*%
%TD*%
%TA.AperFunction,ViaPad*%
%ADD20C,0.800000*%
%TD*%
%TA.AperFunction,Conductor*%
%ADD21C,0.650000*%
%TD*%
%TA.AperFunction,Conductor*%
%ADD22C,0.254000*%
%TD*%
%TA.AperFunction,Conductor*%
%ADD23C,0.100000*%
%TD*%
G04 APERTURE END LIST*
D10*
%TO.P,SW1,6*%
%TO.N,-12V*%
X70738000Y-85077000D03*
%TO.P,SW1,4*%
%TO.N,N/C*%
X80138000Y-85077000D03*
%TO.P,SW1,5*%
%TO.N,Net-(NEG_12V_LED1-Pad1)*%
X75438000Y-85077000D03*
%TO.P,SW1,3*%
%TO.N,+12V*%
X70738000Y-80277000D03*
%TO.P,SW1,1*%
%TO.N,N/C*%
X80138000Y-80277000D03*
%TO.P,SW1,2*%
%TO.N,Net-(BB_POWER_PINS1-Pad1)*%
X75438000Y-80277000D03*
%TD*%
D11*
%TO.P,C1,2*%
%TO.N,GND*%
X82931000Y-52173500D03*
D12*
%TO.P,C1,1*%
%TO.N,+12V*%
X82931000Y-54673500D03*
%TD*%
%TO.P,C2,1*%
%TO.N,GND*%
X82931000Y-59817000D03*
D11*
%TO.P,C2,2*%
%TO.N,-12V*%
X82931000Y-62317000D03*
%TD*%
%TO.P,J2,1*%
%TO.N,-12V*%
%TA.AperFunction,ComponentPad*%
G36*
G01*
X76415000Y-62392000D02*
X76415000Y-63592000D01*
G75*
G02*
X76165000Y-63842000I-250000J0D01*
G01*
X74965000Y-63842000D01*
G75*
G02*
X74715000Y-63592000I0J250000D01*
G01*
X74715000Y-62392000D01*
G75*
G02*
X74965000Y-62142000I250000J0D01*
G01*
X76165000Y-62142000D01*
G75*
G02*
X76415000Y-62392000I0J-250000D01*
G01*
G37*
%TD.AperFunction*%
D13*
%TO.P,J2,3*%
%TO.N,GND*%
X75565000Y-60452000D03*
%TO.P,J2,5*%
X75565000Y-57912000D03*
%TO.P,J2,7*%
X75565000Y-55372000D03*
%TO.P,J2,9*%
%TO.N,+12V*%
X75565000Y-52832000D03*
%TO.P,J2,2*%
%TO.N,-12V*%
X73025000Y-62992000D03*
%TO.P,J2,4*%
%TO.N,GND*%
X73025000Y-60452000D03*
%TO.P,J2,6*%
X73025000Y-57912000D03*
%TO.P,J2,8*%
X73025000Y-55372000D03*
%TO.P,J2,10*%
%TO.N,+12V*%
X73025000Y-52832000D03*
%TD*%
D14*
%TO.P,BB_POWER_PINS1,1*%
%TO.N,Net-(BB_POWER_PINS1-Pad1)*%
X98425000Y-87630000D03*
D15*
%TO.P,BB_POWER_PINS1,2*%
%TO.N,GND*%
X98425000Y-85090000D03*
%TO.P,BB_POWER_PINS1,3*%
%TO.N,Net-(BB_POWER_PINS1-Pad1)*%
X95885000Y-87630000D03*
%TO.P,BB_POWER_PINS1,4*%
%TO.N,GND*%
X95885000Y-85090000D03*
%TO.P,BB_POWER_PINS1,5*%
%TO.N,Net-(BB_POWER_PINS1-Pad1)*%
X93345000Y-87630000D03*
%TO.P,BB_POWER_PINS1,6*%
%TO.N,GND*%
X93345000Y-85090000D03*
%TO.P,BB_POWER_PINS1,7*%
%TO.N,Net-(BB_POWER_PINS1-Pad1)*%
X90805000Y-87630000D03*
%TO.P,BB_POWER_PINS1,8*%
%TO.N,GND*%
X90805000Y-85090000D03*
%TO.P,BB_POWER_PINS1,9*%
%TO.N,Net-(BB_POWER_PINS1-Pad1)*%
X88265000Y-87630000D03*
%TO.P,BB_POWER_PINS1,10*%
%TO.N,GND*%
X88265000Y-85090000D03*
%TD*%
%TO.P,BB_POWER_PINS2,10*%
%TO.N,GND*%
X88265000Y-41910000D03*
%TO.P,BB_POWER_PINS2,9*%
%TO.N,Net-(BB_POWER_PINS1-Pad1)*%
X88265000Y-44450000D03*
%TO.P,BB_POWER_PINS2,8*%
%TO.N,GND*%
X90805000Y-41910000D03*
%TO.P,BB_POWER_PINS2,7*%
%TO.N,Net-(BB_POWER_PINS1-Pad1)*%
X90805000Y-44450000D03*
%TO.P,BB_POWER_PINS2,6*%
%TO.N,GND*%
X93345000Y-41910000D03*
%TO.P,BB_POWER_PINS2,5*%
%TO.N,Net-(BB_POWER_PINS1-Pad1)*%
X93345000Y-44450000D03*
%TO.P,BB_POWER_PINS2,4*%
%TO.N,GND*%
X95885000Y-41910000D03*
%TO.P,BB_POWER_PINS2,3*%
%TO.N,Net-(BB_POWER_PINS1-Pad1)*%
X95885000Y-44450000D03*
%TO.P,BB_POWER_PINS2,2*%
%TO.N,GND*%
X98425000Y-41910000D03*
D14*
%TO.P,BB_POWER_PINS2,1*%
%TO.N,Net-(BB_POWER_PINS1-Pad1)*%
X98425000Y-44450000D03*
%TD*%
%TO.P,J1,1*%
%TO.N,+12V*%
%TA.AperFunction,ComponentPad*%
G36*
G01*
X71286000Y-44032000D02*
X71286000Y-42582000D01*
G75*
G02*
X71536000Y-42332000I250000J0D01*
G01*
X72736000Y-42332000D01*
G75*
G02*
X72986000Y-42582000I0J-250000D01*
G01*
X72986000Y-44032000D01*
G75*
G02*
X72736000Y-44282000I-250000J0D01*
G01*
X71536000Y-44282000D01*
G75*
G02*
X71286000Y-44032000I0J250000D01*
G01*
G37*
%TD.AperFunction*%
D16*
%TO.P,J1,2*%
%TO.N,GND*%
X74636000Y-43307000D03*
%TO.P,J1,3*%
%TO.N,-12V*%
X77136000Y-43307000D03*
%TD*%
D14*
%TO.P,NEG_12V_PINS1,1*%
%TO.N,Net-(NEG_12V_LED1-Pad1)*%
X98298000Y-50800000D03*
D15*
%TO.P,NEG_12V_PINS1,2*%
X95758000Y-50800000D03*
%TO.P,NEG_12V_PINS1,3*%
X93218000Y-50800000D03*
%TO.P,NEG_12V_PINS1,4*%
X90678000Y-50800000D03*
%TO.P,NEG_12V_PINS1,5*%
X88138000Y-50800000D03*
%TD*%
%TO.P,NEG_12V_PINS2,5*%
%TO.N,Net-(NEG_12V_LED1-Pad1)*%
X88265000Y-78740000D03*
%TO.P,NEG_12V_PINS2,4*%
X90805000Y-78740000D03*
%TO.P,NEG_12V_PINS2,3*%
X93345000Y-78740000D03*
%TO.P,NEG_12V_PINS2,2*%
X95885000Y-78740000D03*
D14*
%TO.P,NEG_12V_PINS2,1*%
X98425000Y-78740000D03*
%TD*%
D17*
%TO.P,-12V,2*%
%TO.N,Net-(NEG_12V_LED1-Pad2)*%
X73660000Y-72898000D03*
D18*
%TO.P,-12V,1*%
%TO.N,Net-(NEG_12V_LED1-Pad1)*%
X71120000Y-72898000D03*
%TD*%
%TO.P,+12V,1*%
%TO.N,GND*%
X76073000Y-72898000D03*
D17*
%TO.P,+12V,2*%
%TO.N,Net-(POS_12V_LED1-Pad2)*%
X78613000Y-72898000D03*
%TD*%
D19*
%TO.P,R1,2*%
%TO.N,Net-(BB_POWER_PINS1-Pad1)*%
X84582000Y-75057000D03*
D11*
%TO.P,R1,1*%
%TO.N,Net-(POS_12V_LED1-Pad2)*%
X84582000Y-67437000D03*
%TD*%
%TO.P,R2,1*%
%TO.N,Net-(NEG_12V_LED1-Pad2)*%
X81407000Y-67437000D03*
D19*
%TO.P,R2,2*%
%TO.N,GND*%
X81407000Y-75057000D03*
%TD*%
D20*
%TO.N,GND*%
X75184000Y-46863000D03*
X90170000Y-81026000D03*
X88646000Y-82296000D03*
X93599000Y-82296000D03*
X94615000Y-81915000D03*
X97155000Y-81407000D03*
X98806000Y-82423000D03*
X78613000Y-80899000D03*
X73279000Y-65151000D03*
X73279000Y-66040000D03*
X75946000Y-65151000D03*
X74676000Y-66675000D03*
X70866000Y-68961000D03*
X70612000Y-70104000D03*
X71120000Y-56642000D03*
X70485000Y-58166000D03*
X71247000Y-61595000D03*
X70866000Y-62738000D03*
X78613000Y-54864000D03*
X79248000Y-56642000D03*
X78613000Y-61468000D03*
X74168000Y-48387000D03*
X75057000Y-50165000D03*
X70231000Y-44958000D03*
X70104000Y-46101000D03*
X70104000Y-49530000D03*
X70866000Y-51562000D03*
X69469000Y-53086000D03*
X79883000Y-41910000D03*
X79756000Y-43053000D03*
X79883000Y-46228000D03*
X82677000Y-46355000D03*
X84201000Y-42926000D03*
X84074000Y-44323000D03*
X79883000Y-49657000D03*
X78232000Y-48260000D03*
X83566000Y-48641000D03*
X88392000Y-46482000D03*
X88138000Y-48006000D03*
X91694000Y-47117000D03*
X93218000Y-48133000D03*
X97028000Y-47244000D03*
X98425000Y-48514000D03*
X84582000Y-77724000D03*
X83820000Y-78486000D03*
X83439000Y-80264000D03*
X83185000Y-81153000D03*
X81788000Y-81280000D03*
X85344000Y-84328000D03*
X85979000Y-82804000D03*
X85471000Y-69977000D03*
X84074000Y-70485000D03*
X85217000Y-72771000D03*
X81534000Y-73152000D03*
X77343000Y-75565000D03*
X76835000Y-76327000D03*
X74168000Y-76200000D03*
X74803000Y-77724000D03*
X72644000Y-86360000D03*
X72390000Y-87376000D03*
X75692000Y-88011000D03*
X70231000Y-88265000D03*
X79121000Y-87884000D03*
X78486000Y-87122000D03*
X82042000Y-86487000D03*
X81153000Y-87630000D03*
X84328000Y-87503000D03*
%TD*%
D21*
%TO.N,-12V*%
X75565000Y-62992000D02*
X73025000Y-62992000D01*
X77136000Y-61421000D02*
X75565000Y-62992000D01*
X77136000Y-43307000D02*
X77136000Y-61421000D01*
X69342000Y-83681000D02*
X70738000Y-85077000D01*
X73025000Y-62992000D02*
X69342000Y-66675000D01*
X69342000Y-66675000D02*
X69342000Y-83681000D01*
%TO.N,Net-(NEG_12V_LED1-Pad1)*%
X88265000Y-78740000D02*
X98425000Y-78740000D01*
X98044000Y-50546000D02*
X98298000Y-50800000D01*
X80391000Y-51943000D02*
X81788000Y-50546000D01*
X81788000Y-50546000D02*
X98044000Y-50546000D01*
X80391000Y-62738000D02*
X80391000Y-51943000D01*
X71120000Y-72898000D02*
X71120000Y-72009000D01*
X71120000Y-72009000D02*
X80391000Y-62738000D01*
X71120000Y-75438000D02*
X72771000Y-77089000D01*
X71120000Y-72898000D02*
X71120000Y-75438000D01*
X72771000Y-77089000D02*
X72771000Y-82558000D01*
X84201000Y-82804000D02*
X88265000Y-78740000D01*
X78875000Y-82804000D02*
X84201000Y-82804000D01*
X72771000Y-82558000D02*
X75290000Y-85077000D01*
X75290000Y-85077000D02*
X76602000Y-85077000D01*
X76602000Y-85077000D02*
X78875000Y-82804000D01*
%TO.N,Net-(POS_12V_LED1-Pad2)*%
X79502000Y-72898000D02*
X78613000Y-72898000D01*
X84582000Y-67818000D02*
X79502000Y-72898000D01*
%TD*%
D22*
%TO.N,GND*%
X89858368Y-79893475D02*
X90101589Y-80055990D01*
X90371842Y-80167932D01*
X90658740Y-80225000D01*
X90951260Y-80225000D01*
X91238158Y-80167932D01*
X91508411Y-80055990D01*
X91751632Y-79893475D01*
X91945107Y-79700000D01*
X92204893Y-79700000D01*
X92398368Y-79893475D01*
X92641589Y-80055990D01*
X92911842Y-80167932D01*
X93198740Y-80225000D01*
X93491260Y-80225000D01*
X93778158Y-80167932D01*
X94048411Y-80055990D01*
X94291632Y-79893475D01*
X94485107Y-79700000D01*
X94744893Y-79700000D01*
X94938368Y-79893475D01*
X95181589Y-80055990D01*
X95451842Y-80167932D01*
X95738740Y-80225000D01*
X96031260Y-80225000D01*
X96318158Y-80167932D01*
X96588411Y-80055990D01*
X96831632Y-79893475D01*
X96963487Y-79761620D01*
X96985498Y-79834180D01*
X97044463Y-79944494D01*
X97123815Y-80041185D01*
X97220506Y-80120537D01*
X97330820Y-80179502D01*
X97450518Y-80215812D01*
X97575000Y-80228072D01*
X99275000Y-80228072D01*
X99399482Y-80215812D01*
X99519180Y-80179502D01*
X99568000Y-80153407D01*
X99568000Y-84150758D01*
X99425269Y-83992412D01*
X99191920Y-83818359D01*
X98929099Y-83693175D01*
X98781890Y-83648524D01*
X98552000Y-83769845D01*
X98552000Y-84963000D01*
X98572000Y-84963000D01*
X98572000Y-85217000D01*
X98552000Y-85217000D01*
X98552000Y-85237000D01*
X98298000Y-85237000D01*
X98298000Y-85217000D01*
X96012000Y-85217000D01*
X96012000Y-85237000D01*
X95758000Y-85237000D01*
X95758000Y-85217000D01*
X93472000Y-85217000D01*
X93472000Y-85237000D01*
X93218000Y-85237000D01*
X93218000Y-85217000D01*
X90932000Y-85217000D01*
X90932000Y-85237000D01*
X90678000Y-85237000D01*
X90678000Y-85217000D01*
X88392000Y-85217000D01*
X88392000Y-85237000D01*
X88138000Y-85237000D01*
X88138000Y-85217000D01*
X86944186Y-85217000D01*
X86823519Y-85446891D01*
X86920843Y-85721252D01*
X87069822Y-85971355D01*
X87264731Y-86187588D01*
X87494406Y-86358900D01*
X87318368Y-86476525D01*
X87111525Y-86683368D01*
X86949010Y-86926589D01*
X86837068Y-87196842D01*
X86780000Y-87483740D01*
X86780000Y-87776260D01*
X86837068Y-88063158D01*
X86949010Y-88333411D01*
X87111525Y-88576632D01*
X87307893Y-88773000D01*
X69342000Y-88773000D01*
X69342000Y-86118425D01*
X69405818Y-86328807D01*
X69539068Y-86578100D01*
X69718392Y-86796607D01*
X69936899Y-86975932D01*
X70186192Y-87109182D01*
X70456691Y-87191236D01*
X70738000Y-87218943D01*
X71019308Y-87191236D01*
X71289807Y-87109182D01*
X71539100Y-86975932D01*
X71757607Y-86796608D01*
X71936932Y-86578101D01*
X72070182Y-86328808D01*
X72152236Y-86058309D01*
X72173000Y-85847492D01*
X72173000Y-84306508D01*
X72152236Y-84095691D01*
X72070182Y-83825192D01*
X71936932Y-83575899D01*
X71757608Y-83357392D01*
X71539101Y-83178068D01*
X71289808Y-83044818D01*
X71019309Y-82962764D01*
X70738000Y-82935057D01*
X70456692Y-82962764D01*
X70302000Y-83009689D01*
X70302000Y-82344312D01*
X70456691Y-82391236D01*
X70738000Y-82418943D01*
X71019308Y-82391236D01*
X71289807Y-82309182D01*
X71539100Y-82175932D01*
X71757607Y-81996608D01*
X71811001Y-81931548D01*
X71811001Y-82510838D01*
X71806356Y-82558000D01*
X71824891Y-82746192D01*
X71879784Y-82927153D01*
X71968927Y-83093928D01*
X72058829Y-83203473D01*
X72088894Y-83240107D01*
X72125526Y-83270170D01*
X74003000Y-85147645D01*
X74003000Y-85847491D01*
X74023764Y-86058308D01*
X74105818Y-86328807D01*
X74239068Y-86578100D01*
X74418392Y-86796607D01*
X74636899Y-86975932D01*
X74886192Y-87109182D01*
X75156691Y-87191236D01*
X75438000Y-87218943D01*
X75719308Y-87191236D01*
X75989807Y-87109182D01*
X76239100Y-86975932D01*
X76457607Y-86796608D01*
X76636932Y-86578101D01*
X76770182Y-86328808D01*
X76852236Y-86058309D01*
X76857720Y-86002626D01*
X76971154Y-85968216D01*
X77137928Y-85879073D01*
X77284107Y-85759107D01*
X77314175Y-85722469D01*
X78703000Y-84333645D01*
X78703000Y-85847491D01*
X78723764Y-86058308D01*
X78805818Y-86328807D01*
X78939068Y-86578100D01*
X79118392Y-86796607D01*
X79336899Y-86975932D01*
X79586192Y-87109182D01*
X79856691Y-87191236D01*
X80138000Y-87218943D01*
X80419308Y-87191236D01*
X80689807Y-87109182D01*
X80939100Y-86975932D01*
X81157607Y-86796608D01*
X81336932Y-86578101D01*
X81470182Y-86328808D01*
X81552236Y-86058309D01*
X81573000Y-85847492D01*
X81573000Y-84733109D01*
X86823519Y-84733109D01*
X86944186Y-84963000D01*
X88138000Y-84963000D01*
X88138000Y-83769845D01*
X88392000Y-83769845D01*
X88392000Y-84963000D01*
X90678000Y-84963000D01*
X90678000Y-83769845D01*
X90932000Y-83769845D01*
X90932000Y-84963000D01*
X93218000Y-84963000D01*
X93218000Y-83769845D01*
X93472000Y-83769845D01*
X93472000Y-84963000D01*
X95758000Y-84963000D01*
X95758000Y-83769845D01*
X96012000Y-83769845D01*
X96012000Y-84963000D01*
X98298000Y-84963000D01*
X98298000Y-83769845D01*
X98068110Y-83648524D01*
X97920901Y-83693175D01*
X97658080Y-83818359D01*
X97424731Y-83992412D01*
X97229822Y-84208645D01*
X97155000Y-84334255D01*
X97080178Y-84208645D01*
X96885269Y-83992412D01*
X96651920Y-83818359D01*
X96389099Y-83693175D01*
X96241890Y-83648524D01*
X96012000Y-83769845D01*
X95758000Y-83769845D01*
X95528110Y-83648524D01*
X95380901Y-83693175D01*
X95118080Y-83818359D01*
X94884731Y-83992412D01*
X94689822Y-84208645D01*
X94615000Y-84334255D01*
X94540178Y-84208645D01*
X94345269Y-83992412D01*
X94111920Y-83818359D01*
X93849099Y-83693175D01*
X93701890Y-83648524D01*
X93472000Y-83769845D01*
X93218000Y-83769845D01*
X92988110Y-83648524D01*
X92840901Y-83693175D01*
X92578080Y-83818359D01*
X92344731Y-83992412D01*
X92149822Y-84208645D01*
X92075000Y-84334255D01*
X92000178Y-84208645D01*
X91805269Y-83992412D01*
X91571920Y-83818359D01*
X91309099Y-83693175D01*
X91161890Y-83648524D01*
X90932000Y-83769845D01*
X90678000Y-83769845D01*
X90448110Y-83648524D01*
X90300901Y-83693175D01*
X90038080Y-83818359D01*
X89804731Y-83992412D01*
X89609822Y-84208645D01*
X89535000Y-84334255D01*
X89460178Y-84208645D01*
X89265269Y-83992412D01*
X89031920Y-83818359D01*
X88769099Y-83693175D01*
X88621890Y-83648524D01*
X88392000Y-83769845D01*
X88138000Y-83769845D01*
X87908110Y-83648524D01*
X87760901Y-83693175D01*
X87498080Y-83818359D01*
X87264731Y-83992412D01*
X87069822Y-84208645D01*
X86920843Y-84458748D01*
X86823519Y-84733109D01*
X81573000Y-84733109D01*
X81573000Y-84306508D01*
X81552236Y-84095691D01*
X81470182Y-83825192D01*
X81437474Y-83764000D01*
X84153848Y-83764000D01*
X84201000Y-83768644D01*
X84248152Y-83764000D01*
X84248162Y-83764000D01*
X84389193Y-83750110D01*
X84570154Y-83695216D01*
X84736928Y-83606073D01*
X84883107Y-83486107D01*
X84913175Y-83449469D01*
X88137645Y-80225000D01*
X88411260Y-80225000D01*
X88698158Y-80167932D01*
X88968411Y-80055990D01*
X89211632Y-79893475D01*
X89405107Y-79700000D01*
X89664893Y-79700000D01*
X89858368Y-79893475D01*
%TA.AperFunction,Conductor*%
D23*
G36*
X89858368Y-79893475D02*
G01*
X90101589Y-80055990D01*
X90371842Y-80167932D01*
X90658740Y-80225000D01*
X90951260Y-80225000D01*
X91238158Y-80167932D01*
X91508411Y-80055990D01*
X91751632Y-79893475D01*
X91945107Y-79700000D01*
X92204893Y-79700000D01*
X92398368Y-79893475D01*
X92641589Y-80055990D01*
X92911842Y-80167932D01*
X93198740Y-80225000D01*
X93491260Y-80225000D01*
X93778158Y-80167932D01*
X94048411Y-80055990D01*
X94291632Y-79893475D01*
X94485107Y-79700000D01*
X94744893Y-79700000D01*
X94938368Y-79893475D01*
X95181589Y-80055990D01*
X95451842Y-80167932D01*
X95738740Y-80225000D01*
X96031260Y-80225000D01*
X96318158Y-80167932D01*
X96588411Y-80055990D01*
X96831632Y-79893475D01*
X96963487Y-79761620D01*
X96985498Y-79834180D01*
X97044463Y-79944494D01*
X97123815Y-80041185D01*
X97220506Y-80120537D01*
X97330820Y-80179502D01*
X97450518Y-80215812D01*
X97575000Y-80228072D01*
X99275000Y-80228072D01*
X99399482Y-80215812D01*
X99519180Y-80179502D01*
X99568000Y-80153407D01*
X99568000Y-84150758D01*
X99425269Y-83992412D01*
X99191920Y-83818359D01*
X98929099Y-83693175D01*
X98781890Y-83648524D01*
X98552000Y-83769845D01*
X98552000Y-84963000D01*
X98572000Y-84963000D01*
X98572000Y-85217000D01*
X98552000Y-85217000D01*
X98552000Y-85237000D01*
X98298000Y-85237000D01*
X98298000Y-85217000D01*
X96012000Y-85217000D01*
X96012000Y-85237000D01*
X95758000Y-85237000D01*
X95758000Y-85217000D01*
X93472000Y-85217000D01*
X93472000Y-85237000D01*
X93218000Y-85237000D01*
X93218000Y-85217000D01*
X90932000Y-85217000D01*
X90932000Y-85237000D01*
X90678000Y-85237000D01*
X90678000Y-85217000D01*
X88392000Y-85217000D01*
X88392000Y-85237000D01*
X88138000Y-85237000D01*
X88138000Y-85217000D01*
X86944186Y-85217000D01*
X86823519Y-85446891D01*
X86920843Y-85721252D01*
X87069822Y-85971355D01*
X87264731Y-86187588D01*
X87494406Y-86358900D01*
X87318368Y-86476525D01*
X87111525Y-86683368D01*
X86949010Y-86926589D01*
X86837068Y-87196842D01*
X86780000Y-87483740D01*
X86780000Y-87776260D01*
X86837068Y-88063158D01*
X86949010Y-88333411D01*
X87111525Y-88576632D01*
X87307893Y-88773000D01*
X69342000Y-88773000D01*
X69342000Y-86118425D01*
X69405818Y-86328807D01*
X69539068Y-86578100D01*
X69718392Y-86796607D01*
X69936899Y-86975932D01*
X70186192Y-87109182D01*
X70456691Y-87191236D01*
X70738000Y-87218943D01*
X71019308Y-87191236D01*
X71289807Y-87109182D01*
X71539100Y-86975932D01*
X71757607Y-86796608D01*
X71936932Y-86578101D01*
X72070182Y-86328808D01*
X72152236Y-86058309D01*
X72173000Y-85847492D01*
X72173000Y-84306508D01*
X72152236Y-84095691D01*
X72070182Y-83825192D01*
X71936932Y-83575899D01*
X71757608Y-83357392D01*
X71539101Y-83178068D01*
X71289808Y-83044818D01*
X71019309Y-82962764D01*
X70738000Y-82935057D01*
X70456692Y-82962764D01*
X70302000Y-83009689D01*
X70302000Y-82344312D01*
X70456691Y-82391236D01*
X70738000Y-82418943D01*
X71019308Y-82391236D01*
X71289807Y-82309182D01*
X71539100Y-82175932D01*
X71757607Y-81996608D01*
X71811001Y-81931548D01*
X71811001Y-82510838D01*
X71806356Y-82558000D01*
X71824891Y-82746192D01*
X71879784Y-82927153D01*
X71968927Y-83093928D01*
X72058829Y-83203473D01*
X72088894Y-83240107D01*
X72125526Y-83270170D01*
X74003000Y-85147645D01*
X74003000Y-85847491D01*
X74023764Y-86058308D01*
X74105818Y-86328807D01*
X74239068Y-86578100D01*
X74418392Y-86796607D01*
X74636899Y-86975932D01*
X74886192Y-87109182D01*
X75156691Y-87191236D01*
X75438000Y-87218943D01*
X75719308Y-87191236D01*
X75989807Y-87109182D01*
X76239100Y-86975932D01*
X76457607Y-86796608D01*
X76636932Y-86578101D01*
X76770182Y-86328808D01*
X76852236Y-86058309D01*
X76857720Y-86002626D01*
X76971154Y-85968216D01*
X77137928Y-85879073D01*
X77284107Y-85759107D01*
X77314175Y-85722469D01*
X78703000Y-84333645D01*
X78703000Y-85847491D01*
X78723764Y-86058308D01*
X78805818Y-86328807D01*
X78939068Y-86578100D01*
X79118392Y-86796607D01*
X79336899Y-86975932D01*
X79586192Y-87109182D01*
X79856691Y-87191236D01*
X80138000Y-87218943D01*
X80419308Y-87191236D01*
X80689807Y-87109182D01*
X80939100Y-86975932D01*
X81157607Y-86796608D01*
X81336932Y-86578101D01*
X81470182Y-86328808D01*
X81552236Y-86058309D01*
X81573000Y-85847492D01*
X81573000Y-84733109D01*
X86823519Y-84733109D01*
X86944186Y-84963000D01*
X88138000Y-84963000D01*
X88138000Y-83769845D01*
X88392000Y-83769845D01*
X88392000Y-84963000D01*
X90678000Y-84963000D01*
X90678000Y-83769845D01*
X90932000Y-83769845D01*
X90932000Y-84963000D01*
X93218000Y-84963000D01*
X93218000Y-83769845D01*
X93472000Y-83769845D01*
X93472000Y-84963000D01*
X95758000Y-84963000D01*
X95758000Y-83769845D01*
X96012000Y-83769845D01*
X96012000Y-84963000D01*
X98298000Y-84963000D01*
X98298000Y-83769845D01*
X98068110Y-83648524D01*
X97920901Y-83693175D01*
X97658080Y-83818359D01*
X97424731Y-83992412D01*
X97229822Y-84208645D01*
X97155000Y-84334255D01*
X97080178Y-84208645D01*
X96885269Y-83992412D01*
X96651920Y-83818359D01*
X96389099Y-83693175D01*
X96241890Y-83648524D01*
X96012000Y-83769845D01*
X95758000Y-83769845D01*
X95528110Y-83648524D01*
X95380901Y-83693175D01*
X95118080Y-83818359D01*
X94884731Y-83992412D01*
X94689822Y-84208645D01*
X94615000Y-84334255D01*
X94540178Y-84208645D01*
X94345269Y-83992412D01*
X94111920Y-83818359D01*
X93849099Y-83693175D01*
X93701890Y-83648524D01*
X93472000Y-83769845D01*
X93218000Y-83769845D01*
X92988110Y-83648524D01*
X92840901Y-83693175D01*
X92578080Y-83818359D01*
X92344731Y-83992412D01*
X92149822Y-84208645D01*
X92075000Y-84334255D01*
X92000178Y-84208645D01*
X91805269Y-83992412D01*
X91571920Y-83818359D01*
X91309099Y-83693175D01*
X91161890Y-83648524D01*
X90932000Y-83769845D01*
X90678000Y-83769845D01*
X90448110Y-83648524D01*
X90300901Y-83693175D01*
X90038080Y-83818359D01*
X89804731Y-83992412D01*
X89609822Y-84208645D01*
X89535000Y-84334255D01*
X89460178Y-84208645D01*
X89265269Y-83992412D01*
X89031920Y-83818359D01*
X88769099Y-83693175D01*
X88621890Y-83648524D01*
X88392000Y-83769845D01*
X88138000Y-83769845D01*
X87908110Y-83648524D01*
X87760901Y-83693175D01*
X87498080Y-83818359D01*
X87264731Y-83992412D01*
X87069822Y-84208645D01*
X86920843Y-84458748D01*
X86823519Y-84733109D01*
X81573000Y-84733109D01*
X81573000Y-84306508D01*
X81552236Y-84095691D01*
X81470182Y-83825192D01*
X81437474Y-83764000D01*
X84153848Y-83764000D01*
X84201000Y-83768644D01*
X84248152Y-83764000D01*
X84248162Y-83764000D01*
X84389193Y-83750110D01*
X84570154Y-83695216D01*
X84736928Y-83606073D01*
X84883107Y-83486107D01*
X84913175Y-83449469D01*
X88137645Y-80225000D01*
X88411260Y-80225000D01*
X88698158Y-80167932D01*
X88968411Y-80055990D01*
X89211632Y-79893475D01*
X89405107Y-79700000D01*
X89664893Y-79700000D01*
X89858368Y-79893475D01*
G37*
%TD.AperFunction*%
D22*
X86984525Y-51746632D02*
X87180893Y-51943000D01*
X85725000Y-51943000D01*
X85700224Y-51945440D01*
X85676399Y-51952667D01*
X85654443Y-51964403D01*
X85635197Y-51980197D01*
X85619403Y-51999443D01*
X85607667Y-52021399D01*
X85600440Y-52045224D01*
X85598000Y-52070000D01*
X85598000Y-66423604D01*
X85496759Y-66322363D01*
X85261727Y-66165320D01*
X85000574Y-66057147D01*
X84723335Y-66002000D01*
X84440665Y-66002000D01*
X84163426Y-66057147D01*
X83902273Y-66165320D01*
X83667241Y-66322363D01*
X83467363Y-66522241D01*
X83310320Y-66757273D01*
X83202147Y-67018426D01*
X83147000Y-67295665D01*
X83147000Y-67578335D01*
X83199598Y-67842758D01*
X79438741Y-71603614D01*
X79340095Y-71537701D01*
X79060743Y-71421989D01*
X78764184Y-71363000D01*
X78461816Y-71363000D01*
X78165257Y-71421989D01*
X77885905Y-71537701D01*
X77634495Y-71705688D01*
X77568056Y-71772127D01*
X77562502Y-71753820D01*
X77503537Y-71643506D01*
X77424185Y-71546815D01*
X77327494Y-71467463D01*
X77217180Y-71408498D01*
X77097482Y-71372188D01*
X76973000Y-71359928D01*
X76358750Y-71363000D01*
X76200000Y-71521750D01*
X76200000Y-72771000D01*
X76220000Y-72771000D01*
X76220000Y-73025000D01*
X76200000Y-73025000D01*
X76200000Y-74274250D01*
X76358750Y-74433000D01*
X76973000Y-74436072D01*
X77097482Y-74423812D01*
X77217180Y-74387502D01*
X77327494Y-74328537D01*
X77424185Y-74249185D01*
X77503537Y-74152494D01*
X77562502Y-74042180D01*
X77568056Y-74023873D01*
X77634495Y-74090312D01*
X77885905Y-74258299D01*
X78165257Y-74374011D01*
X78461816Y-74433000D01*
X78764184Y-74433000D01*
X79060743Y-74374011D01*
X79340095Y-74258299D01*
X79591505Y-74090312D01*
X79805312Y-73876505D01*
X79861726Y-73792076D01*
X79871154Y-73789216D01*
X80037928Y-73700073D01*
X80184107Y-73580107D01*
X80214175Y-73543469D01*
X84925948Y-68831697D01*
X85000574Y-68816853D01*
X85261727Y-68708680D01*
X85496759Y-68551637D01*
X85598000Y-68450396D01*
X85598000Y-74043604D01*
X85496759Y-73942363D01*
X85261727Y-73785320D01*
X85000574Y-73677147D01*
X84723335Y-73622000D01*
X84440665Y-73622000D01*
X84163426Y-73677147D01*
X83902273Y-73785320D01*
X83667241Y-73942363D01*
X83467363Y-74142241D01*
X83310320Y-74377273D01*
X83202147Y-74638426D01*
X83147000Y-74915665D01*
X83147000Y-75198335D01*
X83202147Y-75475574D01*
X83310320Y-75736727D01*
X83467363Y-75971759D01*
X83667241Y-76171637D01*
X83902273Y-76328680D01*
X84163426Y-76436853D01*
X84440665Y-76492000D01*
X84723335Y-76492000D01*
X85000574Y-76436853D01*
X85261727Y-76328680D01*
X85496759Y-76171637D01*
X85598000Y-76070396D01*
X85598000Y-77470000D01*
X85600440Y-77494776D01*
X85607667Y-77518601D01*
X85619403Y-77540557D01*
X85635197Y-77559803D01*
X85654443Y-77575597D01*
X85676399Y-77587333D01*
X85700224Y-77594560D01*
X85725000Y-77597000D01*
X87307893Y-77597000D01*
X87111525Y-77793368D01*
X86949010Y-78036589D01*
X86837068Y-78306842D01*
X86780000Y-78593740D01*
X86780000Y-78867355D01*
X83803356Y-81844000D01*
X81282850Y-81844000D01*
X81336932Y-81778101D01*
X81470182Y-81528808D01*
X81552236Y-81258309D01*
X81573000Y-81047492D01*
X81573000Y-79506508D01*
X81552236Y-79295691D01*
X81470182Y-79025192D01*
X81336932Y-78775899D01*
X81157608Y-78557392D01*
X80939101Y-78378068D01*
X80689808Y-78244818D01*
X80419309Y-78162764D01*
X80138000Y-78135057D01*
X79856692Y-78162764D01*
X79586193Y-78244818D01*
X79336900Y-78378068D01*
X79118393Y-78557392D01*
X78939069Y-78775899D01*
X78805819Y-79025192D01*
X78723764Y-79295691D01*
X78703000Y-79506508D01*
X78703000Y-81047491D01*
X78723764Y-81258308D01*
X78805818Y-81528807D01*
X78939068Y-81778100D01*
X78993151Y-81844000D01*
X78922151Y-81844000D01*
X78874999Y-81839356D01*
X78827847Y-81844000D01*
X78827838Y-81844000D01*
X78686807Y-81857890D01*
X78505846Y-81912784D01*
X78397163Y-81970876D01*
X78339071Y-82001927D01*
X78241869Y-82081699D01*
X78192893Y-82121893D01*
X78162829Y-82158526D01*
X76674734Y-83646622D01*
X76636932Y-83575899D01*
X76457608Y-83357392D01*
X76239101Y-83178068D01*
X75989808Y-83044818D01*
X75719309Y-82962764D01*
X75438000Y-82935057D01*
X75156692Y-82962764D01*
X74886193Y-83044818D01*
X74709765Y-83139121D01*
X73731000Y-82160356D01*
X73731000Y-79506508D01*
X74003000Y-79506508D01*
X74003000Y-81047491D01*
X74023764Y-81258308D01*
X74105818Y-81528807D01*
X74239068Y-81778100D01*
X74418392Y-81996607D01*
X74636899Y-82175932D01*
X74886192Y-82309182D01*
X75156691Y-82391236D01*
X75438000Y-82418943D01*
X75719308Y-82391236D01*
X75989807Y-82309182D01*
X76239100Y-82175932D01*
X76457607Y-81996608D01*
X76636932Y-81778101D01*
X76770182Y-81528808D01*
X76852236Y-81258309D01*
X76873000Y-81047492D01*
X76873000Y-79506508D01*
X76852236Y-79295691D01*
X76770182Y-79025192D01*
X76636932Y-78775899D01*
X76457608Y-78557392D01*
X76239101Y-78378068D01*
X75989808Y-78244818D01*
X75719309Y-78162764D01*
X75438000Y-78135057D01*
X75156692Y-78162764D01*
X74886193Y-78244818D01*
X74636900Y-78378068D01*
X74418393Y-78557392D01*
X74239069Y-78775899D01*
X74105819Y-79025192D01*
X74023764Y-79295691D01*
X74003000Y-79506508D01*
X73731000Y-79506508D01*
X73731000Y-77136160D01*
X73735645Y-77089000D01*
X73723854Y-76969283D01*
X73717110Y-76900807D01*
X73662216Y-76719846D01*
X73573073Y-76553072D01*
X73453107Y-76406893D01*
X73416474Y-76376829D01*
X72445685Y-75406040D01*
X80015091Y-75406040D01*
X80109930Y-75670881D01*
X80254615Y-75912131D01*
X80443586Y-76120519D01*
X80669580Y-76288037D01*
X80923913Y-76408246D01*
X81057961Y-76448904D01*
X81280000Y-76326915D01*
X81280000Y-75184000D01*
X81534000Y-75184000D01*
X81534000Y-76326915D01*
X81756039Y-76448904D01*
X81890087Y-76408246D01*
X82144420Y-76288037D01*
X82370414Y-76120519D01*
X82559385Y-75912131D01*
X82704070Y-75670881D01*
X82798909Y-75406040D01*
X82677624Y-75184000D01*
X81534000Y-75184000D01*
X81280000Y-75184000D01*
X80136376Y-75184000D01*
X80015091Y-75406040D01*
X72445685Y-75406040D01*
X72080000Y-75040356D01*
X72080000Y-74707960D01*
X80015091Y-74707960D01*
X80136376Y-74930000D01*
X81280000Y-74930000D01*
X81280000Y-73787085D01*
X81534000Y-73787085D01*
X81534000Y-74930000D01*
X82677624Y-74930000D01*
X82798909Y-74707960D01*
X82704070Y-74443119D01*
X82559385Y-74201869D01*
X82370414Y-73993481D01*
X82144420Y-73825963D01*
X81890087Y-73705754D01*
X81756039Y-73665096D01*
X81534000Y-73787085D01*
X81280000Y-73787085D01*
X81057961Y-73665096D01*
X80923913Y-73705754D01*
X80669580Y-73825963D01*
X80443586Y-73993481D01*
X80254615Y-74201869D01*
X80109930Y-74443119D01*
X80015091Y-74707960D01*
X72080000Y-74707960D01*
X72080000Y-74430163D01*
X72144482Y-74423812D01*
X72264180Y-74387502D01*
X72374494Y-74328537D01*
X72471185Y-74249185D01*
X72550537Y-74152494D01*
X72609502Y-74042180D01*
X72615056Y-74023873D01*
X72681495Y-74090312D01*
X72932905Y-74258299D01*
X73212257Y-74374011D01*
X73508816Y-74433000D01*
X73811184Y-74433000D01*
X74107743Y-74374011D01*
X74387095Y-74258299D01*
X74616931Y-74104727D01*
X74642463Y-74152494D01*
X74721815Y-74249185D01*
X74818506Y-74328537D01*
X74928820Y-74387502D01*
X75048518Y-74423812D01*
X75173000Y-74436072D01*
X75787250Y-74433000D01*
X75946000Y-74274250D01*
X75946000Y-73025000D01*
X75926000Y-73025000D01*
X75926000Y-72771000D01*
X75946000Y-72771000D01*
X75946000Y-71521750D01*
X75787250Y-71363000D01*
X75173000Y-71359928D01*
X75048518Y-71372188D01*
X74928820Y-71408498D01*
X74818506Y-71467463D01*
X74721815Y-71546815D01*
X74642463Y-71643506D01*
X74616931Y-71691273D01*
X74387095Y-71537701D01*
X74107743Y-71421989D01*
X73811184Y-71363000D01*
X73508816Y-71363000D01*
X73212257Y-71421989D01*
X72960284Y-71526360D01*
X77190979Y-67295665D01*
X79972000Y-67295665D01*
X79972000Y-67578335D01*
X80027147Y-67855574D01*
X80135320Y-68116727D01*
X80292363Y-68351759D01*
X80492241Y-68551637D01*
X80727273Y-68708680D01*
X80988426Y-68816853D01*
X81265665Y-68872000D01*
X81548335Y-68872000D01*
X81825574Y-68816853D01*
X82086727Y-68708680D01*
X82321759Y-68551637D01*
X82521637Y-68351759D01*
X82678680Y-68116727D01*
X82786853Y-67855574D01*
X82842000Y-67578335D01*
X82842000Y-67295665D01*
X82786853Y-67018426D01*
X82678680Y-66757273D01*
X82521637Y-66522241D01*
X82321759Y-66322363D01*
X82086727Y-66165320D01*
X81825574Y-66057147D01*
X81548335Y-66002000D01*
X81265665Y-66002000D01*
X80988426Y-66057147D01*
X80727273Y-66165320D01*
X80492241Y-66322363D01*
X80292363Y-66522241D01*
X80135320Y-66757273D01*
X80027147Y-67018426D01*
X79972000Y-67295665D01*
X77190979Y-67295665D01*
X81036474Y-63450171D01*
X81073107Y-63420107D01*
X81103171Y-63383474D01*
X81193073Y-63273929D01*
X81282216Y-63107154D01*
X81282216Y-63107153D01*
X81337110Y-62926193D01*
X81351000Y-62785162D01*
X81351000Y-62785160D01*
X81355645Y-62738000D01*
X81351000Y-62690840D01*
X81351000Y-60617000D01*
X81492928Y-60617000D01*
X81505188Y-60741482D01*
X81541498Y-60861180D01*
X81600463Y-60971494D01*
X81679815Y-61068185D01*
X81776506Y-61147537D01*
X81886820Y-61206502D01*
X81982943Y-61235661D01*
X81816363Y-61402241D01*
X81659320Y-61637273D01*
X81551147Y-61898426D01*
X81496000Y-62175665D01*
X81496000Y-62458335D01*
X81551147Y-62735574D01*
X81659320Y-62996727D01*
X81816363Y-63231759D01*
X82016241Y-63431637D01*
X82251273Y-63588680D01*
X82512426Y-63696853D01*
X82789665Y-63752000D01*
X83072335Y-63752000D01*
X83349574Y-63696853D01*
X83610727Y-63588680D01*
X83845759Y-63431637D01*
X84045637Y-63231759D01*
X84202680Y-62996727D01*
X84310853Y-62735574D01*
X84366000Y-62458335D01*
X84366000Y-62175665D01*
X84310853Y-61898426D01*
X84202680Y-61637273D01*
X84045637Y-61402241D01*
X83879057Y-61235661D01*
X83975180Y-61206502D01*
X84085494Y-61147537D01*
X84182185Y-61068185D01*
X84261537Y-60971494D01*
X84320502Y-60861180D01*
X84356812Y-60741482D01*
X84369072Y-60617000D01*
X84366000Y-60102750D01*
X84207250Y-59944000D01*
X83058000Y-59944000D01*
X83058000Y-59964000D01*
X82804000Y-59964000D01*
X82804000Y-59944000D01*
X81654750Y-59944000D01*
X81496000Y-60102750D01*
X81492928Y-60617000D01*
X81351000Y-60617000D01*
X81351000Y-59017000D01*
X81492928Y-59017000D01*
X81496000Y-59531250D01*
X81654750Y-59690000D01*
X82804000Y-59690000D01*
X82804000Y-58540750D01*
X83058000Y-58540750D01*
X83058000Y-59690000D01*
X84207250Y-59690000D01*
X84366000Y-59531250D01*
X84369072Y-59017000D01*
X84356812Y-58892518D01*
X84320502Y-58772820D01*
X84261537Y-58662506D01*
X84182185Y-58565815D01*
X84085494Y-58486463D01*
X83975180Y-58427498D01*
X83855482Y-58391188D01*
X83731000Y-58378928D01*
X83216750Y-58382000D01*
X83058000Y-58540750D01*
X82804000Y-58540750D01*
X82645250Y-58382000D01*
X82131000Y-58378928D01*
X82006518Y-58391188D01*
X81886820Y-58427498D01*
X81776506Y-58486463D01*
X81679815Y-58565815D01*
X81600463Y-58662506D01*
X81541498Y-58772820D01*
X81505188Y-58892518D01*
X81492928Y-59017000D01*
X81351000Y-59017000D01*
X81351000Y-53873500D01*
X81492928Y-53873500D01*
X81492928Y-55473500D01*
X81505188Y-55597982D01*
X81541498Y-55717680D01*
X81600463Y-55827994D01*
X81679815Y-55924685D01*
X81776506Y-56004037D01*
X81886820Y-56063002D01*
X82006518Y-56099312D01*
X82131000Y-56111572D01*
X83731000Y-56111572D01*
X83855482Y-56099312D01*
X83975180Y-56063002D01*
X84085494Y-56004037D01*
X84182185Y-55924685D01*
X84261537Y-55827994D01*
X84320502Y-55717680D01*
X84356812Y-55597982D01*
X84369072Y-55473500D01*
X84369072Y-53873500D01*
X84356812Y-53749018D01*
X84320502Y-53629320D01*
X84261537Y-53519006D01*
X84182185Y-53422315D01*
X84085494Y-53342963D01*
X83975180Y-53283998D01*
X83855482Y-53247688D01*
X83731000Y-53235428D01*
X83723785Y-53235428D01*
X83744097Y-53166202D01*
X82931000Y-52353105D01*
X82117903Y-53166202D01*
X82138215Y-53235428D01*
X82131000Y-53235428D01*
X82006518Y-53247688D01*
X81886820Y-53283998D01*
X81776506Y-53342963D01*
X81679815Y-53422315D01*
X81600463Y-53519006D01*
X81541498Y-53629320D01*
X81505188Y-53749018D01*
X81492928Y-53873500D01*
X81351000Y-53873500D01*
X81351000Y-52340644D01*
X81493020Y-52198624D01*
X81490783Y-52244012D01*
X81532213Y-52523630D01*
X81627397Y-52789792D01*
X81694329Y-52915014D01*
X81938298Y-52986597D01*
X82751395Y-52173500D01*
X82737253Y-52159358D01*
X82916858Y-51979753D01*
X82931000Y-51993895D01*
X82945143Y-51979753D01*
X83124748Y-52159358D01*
X83110605Y-52173500D01*
X83923702Y-52986597D01*
X84167671Y-52915014D01*
X84288571Y-52659504D01*
X84357300Y-52385316D01*
X84371217Y-52102988D01*
X84329787Y-51823370D01*
X84234603Y-51557208D01*
X84207232Y-51506000D01*
X86823740Y-51506000D01*
X86984525Y-51746632D01*
%TA.AperFunction,Conductor*%
D23*
G36*
X86984525Y-51746632D02*
G01*
X87180893Y-51943000D01*
X85725000Y-51943000D01*
X85700224Y-51945440D01*
X85676399Y-51952667D01*
X85654443Y-51964403D01*
X85635197Y-51980197D01*
X85619403Y-51999443D01*
X85607667Y-52021399D01*
X85600440Y-52045224D01*
X85598000Y-52070000D01*
X85598000Y-66423604D01*
X85496759Y-66322363D01*
X85261727Y-66165320D01*
X85000574Y-66057147D01*
X84723335Y-66002000D01*
X84440665Y-66002000D01*
X84163426Y-66057147D01*
X83902273Y-66165320D01*
X83667241Y-66322363D01*
X83467363Y-66522241D01*
X83310320Y-66757273D01*
X83202147Y-67018426D01*
X83147000Y-67295665D01*
X83147000Y-67578335D01*
X83199598Y-67842758D01*
X79438741Y-71603614D01*
X79340095Y-71537701D01*
X79060743Y-71421989D01*
X78764184Y-71363000D01*
X78461816Y-71363000D01*
X78165257Y-71421989D01*
X77885905Y-71537701D01*
X77634495Y-71705688D01*
X77568056Y-71772127D01*
X77562502Y-71753820D01*
X77503537Y-71643506D01*
X77424185Y-71546815D01*
X77327494Y-71467463D01*
X77217180Y-71408498D01*
X77097482Y-71372188D01*
X76973000Y-71359928D01*
X76358750Y-71363000D01*
X76200000Y-71521750D01*
X76200000Y-72771000D01*
X76220000Y-72771000D01*
X76220000Y-73025000D01*
X76200000Y-73025000D01*
X76200000Y-74274250D01*
X76358750Y-74433000D01*
X76973000Y-74436072D01*
X77097482Y-74423812D01*
X77217180Y-74387502D01*
X77327494Y-74328537D01*
X77424185Y-74249185D01*
X77503537Y-74152494D01*
X77562502Y-74042180D01*
X77568056Y-74023873D01*
X77634495Y-74090312D01*
X77885905Y-74258299D01*
X78165257Y-74374011D01*
X78461816Y-74433000D01*
X78764184Y-74433000D01*
X79060743Y-74374011D01*
X79340095Y-74258299D01*
X79591505Y-74090312D01*
X79805312Y-73876505D01*
X79861726Y-73792076D01*
X79871154Y-73789216D01*
X80037928Y-73700073D01*
X80184107Y-73580107D01*
X80214175Y-73543469D01*
X84925948Y-68831697D01*
X85000574Y-68816853D01*
X85261727Y-68708680D01*
X85496759Y-68551637D01*
X85598000Y-68450396D01*
X85598000Y-74043604D01*
X85496759Y-73942363D01*
X85261727Y-73785320D01*
X85000574Y-73677147D01*
X84723335Y-73622000D01*
X84440665Y-73622000D01*
X84163426Y-73677147D01*
X83902273Y-73785320D01*
X83667241Y-73942363D01*
X83467363Y-74142241D01*
X83310320Y-74377273D01*
X83202147Y-74638426D01*
X83147000Y-74915665D01*
X83147000Y-75198335D01*
X83202147Y-75475574D01*
X83310320Y-75736727D01*
X83467363Y-75971759D01*
X83667241Y-76171637D01*
X83902273Y-76328680D01*
X84163426Y-76436853D01*
X84440665Y-76492000D01*
X84723335Y-76492000D01*
X85000574Y-76436853D01*
X85261727Y-76328680D01*
X85496759Y-76171637D01*
X85598000Y-76070396D01*
X85598000Y-77470000D01*
X85600440Y-77494776D01*
X85607667Y-77518601D01*
X85619403Y-77540557D01*
X85635197Y-77559803D01*
X85654443Y-77575597D01*
X85676399Y-77587333D01*
X85700224Y-77594560D01*
X85725000Y-77597000D01*
X87307893Y-77597000D01*
X87111525Y-77793368D01*
X86949010Y-78036589D01*
X86837068Y-78306842D01*
X86780000Y-78593740D01*
X86780000Y-78867355D01*
X83803356Y-81844000D01*
X81282850Y-81844000D01*
X81336932Y-81778101D01*
X81470182Y-81528808D01*
X81552236Y-81258309D01*
X81573000Y-81047492D01*
X81573000Y-79506508D01*
X81552236Y-79295691D01*
X81470182Y-79025192D01*
X81336932Y-78775899D01*
X81157608Y-78557392D01*
X80939101Y-78378068D01*
X80689808Y-78244818D01*
X80419309Y-78162764D01*
X80138000Y-78135057D01*
X79856692Y-78162764D01*
X79586193Y-78244818D01*
X79336900Y-78378068D01*
X79118393Y-78557392D01*
X78939069Y-78775899D01*
X78805819Y-79025192D01*
X78723764Y-79295691D01*
X78703000Y-79506508D01*
X78703000Y-81047491D01*
X78723764Y-81258308D01*
X78805818Y-81528807D01*
X78939068Y-81778100D01*
X78993151Y-81844000D01*
X78922151Y-81844000D01*
X78874999Y-81839356D01*
X78827847Y-81844000D01*
X78827838Y-81844000D01*
X78686807Y-81857890D01*
X78505846Y-81912784D01*
X78397163Y-81970876D01*
X78339071Y-82001927D01*
X78241869Y-82081699D01*
X78192893Y-82121893D01*
X78162829Y-82158526D01*
X76674734Y-83646622D01*
X76636932Y-83575899D01*
X76457608Y-83357392D01*
X76239101Y-83178068D01*
X75989808Y-83044818D01*
X75719309Y-82962764D01*
X75438000Y-82935057D01*
X75156692Y-82962764D01*
X74886193Y-83044818D01*
X74709765Y-83139121D01*
X73731000Y-82160356D01*
X73731000Y-79506508D01*
X74003000Y-79506508D01*
X74003000Y-81047491D01*
X74023764Y-81258308D01*
X74105818Y-81528807D01*
X74239068Y-81778100D01*
X74418392Y-81996607D01*
X74636899Y-82175932D01*
X74886192Y-82309182D01*
X75156691Y-82391236D01*
X75438000Y-82418943D01*
X75719308Y-82391236D01*
X75989807Y-82309182D01*
X76239100Y-82175932D01*
X76457607Y-81996608D01*
X76636932Y-81778101D01*
X76770182Y-81528808D01*
X76852236Y-81258309D01*
X76873000Y-81047492D01*
X76873000Y-79506508D01*
X76852236Y-79295691D01*
X76770182Y-79025192D01*
X76636932Y-78775899D01*
X76457608Y-78557392D01*
X76239101Y-78378068D01*
X75989808Y-78244818D01*
X75719309Y-78162764D01*
X75438000Y-78135057D01*
X75156692Y-78162764D01*
X74886193Y-78244818D01*
X74636900Y-78378068D01*
X74418393Y-78557392D01*
X74239069Y-78775899D01*
X74105819Y-79025192D01*
X74023764Y-79295691D01*
X74003000Y-79506508D01*
X73731000Y-79506508D01*
X73731000Y-77136160D01*
X73735645Y-77089000D01*
X73723854Y-76969283D01*
X73717110Y-76900807D01*
X73662216Y-76719846D01*
X73573073Y-76553072D01*
X73453107Y-76406893D01*
X73416474Y-76376829D01*
X72445685Y-75406040D01*
X80015091Y-75406040D01*
X80109930Y-75670881D01*
X80254615Y-75912131D01*
X80443586Y-76120519D01*
X80669580Y-76288037D01*
X80923913Y-76408246D01*
X81057961Y-76448904D01*
X81280000Y-76326915D01*
X81280000Y-75184000D01*
X81534000Y-75184000D01*
X81534000Y-76326915D01*
X81756039Y-76448904D01*
X81890087Y-76408246D01*
X82144420Y-76288037D01*
X82370414Y-76120519D01*
X82559385Y-75912131D01*
X82704070Y-75670881D01*
X82798909Y-75406040D01*
X82677624Y-75184000D01*
X81534000Y-75184000D01*
X81280000Y-75184000D01*
X80136376Y-75184000D01*
X80015091Y-75406040D01*
X72445685Y-75406040D01*
X72080000Y-75040356D01*
X72080000Y-74707960D01*
X80015091Y-74707960D01*
X80136376Y-74930000D01*
X81280000Y-74930000D01*
X81280000Y-73787085D01*
X81534000Y-73787085D01*
X81534000Y-74930000D01*
X82677624Y-74930000D01*
X82798909Y-74707960D01*
X82704070Y-74443119D01*
X82559385Y-74201869D01*
X82370414Y-73993481D01*
X82144420Y-73825963D01*
X81890087Y-73705754D01*
X81756039Y-73665096D01*
X81534000Y-73787085D01*
X81280000Y-73787085D01*
X81057961Y-73665096D01*
X80923913Y-73705754D01*
X80669580Y-73825963D01*
X80443586Y-73993481D01*
X80254615Y-74201869D01*
X80109930Y-74443119D01*
X80015091Y-74707960D01*
X72080000Y-74707960D01*
X72080000Y-74430163D01*
X72144482Y-74423812D01*
X72264180Y-74387502D01*
X72374494Y-74328537D01*
X72471185Y-74249185D01*
X72550537Y-74152494D01*
X72609502Y-74042180D01*
X72615056Y-74023873D01*
X72681495Y-74090312D01*
X72932905Y-74258299D01*
X73212257Y-74374011D01*
X73508816Y-74433000D01*
X73811184Y-74433000D01*
X74107743Y-74374011D01*
X74387095Y-74258299D01*
X74616931Y-74104727D01*
X74642463Y-74152494D01*
X74721815Y-74249185D01*
X74818506Y-74328537D01*
X74928820Y-74387502D01*
X75048518Y-74423812D01*
X75173000Y-74436072D01*
X75787250Y-74433000D01*
X75946000Y-74274250D01*
X75946000Y-73025000D01*
X75926000Y-73025000D01*
X75926000Y-72771000D01*
X75946000Y-72771000D01*
X75946000Y-71521750D01*
X75787250Y-71363000D01*
X75173000Y-71359928D01*
X75048518Y-71372188D01*
X74928820Y-71408498D01*
X74818506Y-71467463D01*
X74721815Y-71546815D01*
X74642463Y-71643506D01*
X74616931Y-71691273D01*
X74387095Y-71537701D01*
X74107743Y-71421989D01*
X73811184Y-71363000D01*
X73508816Y-71363000D01*
X73212257Y-71421989D01*
X72960284Y-71526360D01*
X77190979Y-67295665D01*
X79972000Y-67295665D01*
X79972000Y-67578335D01*
X80027147Y-67855574D01*
X80135320Y-68116727D01*
X80292363Y-68351759D01*
X80492241Y-68551637D01*
X80727273Y-68708680D01*
X80988426Y-68816853D01*
X81265665Y-68872000D01*
X81548335Y-68872000D01*
X81825574Y-68816853D01*
X82086727Y-68708680D01*
X82321759Y-68551637D01*
X82521637Y-68351759D01*
X82678680Y-68116727D01*
X82786853Y-67855574D01*
X82842000Y-67578335D01*
X82842000Y-67295665D01*
X82786853Y-67018426D01*
X82678680Y-66757273D01*
X82521637Y-66522241D01*
X82321759Y-66322363D01*
X82086727Y-66165320D01*
X81825574Y-66057147D01*
X81548335Y-66002000D01*
X81265665Y-66002000D01*
X80988426Y-66057147D01*
X80727273Y-66165320D01*
X80492241Y-66322363D01*
X80292363Y-66522241D01*
X80135320Y-66757273D01*
X80027147Y-67018426D01*
X79972000Y-67295665D01*
X77190979Y-67295665D01*
X81036474Y-63450171D01*
X81073107Y-63420107D01*
X81103171Y-63383474D01*
X81193073Y-63273929D01*
X81282216Y-63107154D01*
X81282216Y-63107153D01*
X81337110Y-62926193D01*
X81351000Y-62785162D01*
X81351000Y-62785160D01*
X81355645Y-62738000D01*
X81351000Y-62690840D01*
X81351000Y-60617000D01*
X81492928Y-60617000D01*
X81505188Y-60741482D01*
X81541498Y-60861180D01*
X81600463Y-60971494D01*
X81679815Y-61068185D01*
X81776506Y-61147537D01*
X81886820Y-61206502D01*
X81982943Y-61235661D01*
X81816363Y-61402241D01*
X81659320Y-61637273D01*
X81551147Y-61898426D01*
X81496000Y-62175665D01*
X81496000Y-62458335D01*
X81551147Y-62735574D01*
X81659320Y-62996727D01*
X81816363Y-63231759D01*
X82016241Y-63431637D01*
X82251273Y-63588680D01*
X82512426Y-63696853D01*
X82789665Y-63752000D01*
X83072335Y-63752000D01*
X83349574Y-63696853D01*
X83610727Y-63588680D01*
X83845759Y-63431637D01*
X84045637Y-63231759D01*
X84202680Y-62996727D01*
X84310853Y-62735574D01*
X84366000Y-62458335D01*
X84366000Y-62175665D01*
X84310853Y-61898426D01*
X84202680Y-61637273D01*
X84045637Y-61402241D01*
X83879057Y-61235661D01*
X83975180Y-61206502D01*
X84085494Y-61147537D01*
X84182185Y-61068185D01*
X84261537Y-60971494D01*
X84320502Y-60861180D01*
X84356812Y-60741482D01*
X84369072Y-60617000D01*
X84366000Y-60102750D01*
X84207250Y-59944000D01*
X83058000Y-59944000D01*
X83058000Y-59964000D01*
X82804000Y-59964000D01*
X82804000Y-59944000D01*
X81654750Y-59944000D01*
X81496000Y-60102750D01*
X81492928Y-60617000D01*
X81351000Y-60617000D01*
X81351000Y-59017000D01*
X81492928Y-59017000D01*
X81496000Y-59531250D01*
X81654750Y-59690000D01*
X82804000Y-59690000D01*
X82804000Y-58540750D01*
X83058000Y-58540750D01*
X83058000Y-59690000D01*
X84207250Y-59690000D01*
X84366000Y-59531250D01*
X84369072Y-59017000D01*
X84356812Y-58892518D01*
X84320502Y-58772820D01*
X84261537Y-58662506D01*
X84182185Y-58565815D01*
X84085494Y-58486463D01*
X83975180Y-58427498D01*
X83855482Y-58391188D01*
X83731000Y-58378928D01*
X83216750Y-58382000D01*
X83058000Y-58540750D01*
X82804000Y-58540750D01*
X82645250Y-58382000D01*
X82131000Y-58378928D01*
X82006518Y-58391188D01*
X81886820Y-58427498D01*
X81776506Y-58486463D01*
X81679815Y-58565815D01*
X81600463Y-58662506D01*
X81541498Y-58772820D01*
X81505188Y-58892518D01*
X81492928Y-59017000D01*
X81351000Y-59017000D01*
X81351000Y-53873500D01*
X81492928Y-53873500D01*
X81492928Y-55473500D01*
X81505188Y-55597982D01*
X81541498Y-55717680D01*
X81600463Y-55827994D01*
X81679815Y-55924685D01*
X81776506Y-56004037D01*
X81886820Y-56063002D01*
X82006518Y-56099312D01*
X82131000Y-56111572D01*
X83731000Y-56111572D01*
X83855482Y-56099312D01*
X83975180Y-56063002D01*
X84085494Y-56004037D01*
X84182185Y-55924685D01*
X84261537Y-55827994D01*
X84320502Y-55717680D01*
X84356812Y-55597982D01*
X84369072Y-55473500D01*
X84369072Y-53873500D01*
X84356812Y-53749018D01*
X84320502Y-53629320D01*
X84261537Y-53519006D01*
X84182185Y-53422315D01*
X84085494Y-53342963D01*
X83975180Y-53283998D01*
X83855482Y-53247688D01*
X83731000Y-53235428D01*
X83723785Y-53235428D01*
X83744097Y-53166202D01*
X82931000Y-52353105D01*
X82117903Y-53166202D01*
X82138215Y-53235428D01*
X82131000Y-53235428D01*
X82006518Y-53247688D01*
X81886820Y-53283998D01*
X81776506Y-53342963D01*
X81679815Y-53422315D01*
X81600463Y-53519006D01*
X81541498Y-53629320D01*
X81505188Y-53749018D01*
X81492928Y-53873500D01*
X81351000Y-53873500D01*
X81351000Y-52340644D01*
X81493020Y-52198624D01*
X81490783Y-52244012D01*
X81532213Y-52523630D01*
X81627397Y-52789792D01*
X81694329Y-52915014D01*
X81938298Y-52986597D01*
X82751395Y-52173500D01*
X82737253Y-52159358D01*
X82916858Y-51979753D01*
X82931000Y-51993895D01*
X82945143Y-51979753D01*
X83124748Y-52159358D01*
X83110605Y-52173500D01*
X83923702Y-52986597D01*
X84167671Y-52915014D01*
X84288571Y-52659504D01*
X84357300Y-52385316D01*
X84371217Y-52102988D01*
X84329787Y-51823370D01*
X84234603Y-51557208D01*
X84207232Y-51506000D01*
X86823740Y-51506000D01*
X86984525Y-51746632D01*
G37*
%TD.AperFunction*%
D22*
X87264731Y-40812412D02*
X87069822Y-41028645D01*
X86920843Y-41278748D01*
X86823519Y-41553109D01*
X86944186Y-41783000D01*
X88138000Y-41783000D01*
X88138000Y-41763000D01*
X88392000Y-41763000D01*
X88392000Y-41783000D01*
X90678000Y-41783000D01*
X90678000Y-41763000D01*
X90932000Y-41763000D01*
X90932000Y-41783000D01*
X93218000Y-41783000D01*
X93218000Y-41763000D01*
X93472000Y-41763000D01*
X93472000Y-41783000D01*
X95758000Y-41783000D01*
X95758000Y-41763000D01*
X96012000Y-41763000D01*
X96012000Y-41783000D01*
X98298000Y-41783000D01*
X98298000Y-41763000D01*
X98552000Y-41763000D01*
X98552000Y-41783000D01*
X98572000Y-41783000D01*
X98572000Y-42037000D01*
X98552000Y-42037000D01*
X98552000Y-42057000D01*
X98298000Y-42057000D01*
X98298000Y-42037000D01*
X96012000Y-42037000D01*
X96012000Y-42057000D01*
X95758000Y-42057000D01*
X95758000Y-42037000D01*
X93472000Y-42037000D01*
X93472000Y-42057000D01*
X93218000Y-42057000D01*
X93218000Y-42037000D01*
X90932000Y-42037000D01*
X90932000Y-42057000D01*
X90678000Y-42057000D01*
X90678000Y-42037000D01*
X88392000Y-42037000D01*
X88392000Y-42057000D01*
X88138000Y-42057000D01*
X88138000Y-42037000D01*
X86944186Y-42037000D01*
X86823519Y-42266891D01*
X86920843Y-42541252D01*
X87069822Y-42791355D01*
X87264731Y-43007588D01*
X87494406Y-43178900D01*
X87318368Y-43296525D01*
X87111525Y-43503368D01*
X86949010Y-43746589D01*
X86837068Y-44016842D01*
X86780000Y-44303740D01*
X86780000Y-44596260D01*
X86837068Y-44883158D01*
X86949010Y-45153411D01*
X87111525Y-45396632D01*
X87318368Y-45603475D01*
X87561589Y-45765990D01*
X87831842Y-45877932D01*
X88118740Y-45935000D01*
X88411260Y-45935000D01*
X88698158Y-45877932D01*
X88968411Y-45765990D01*
X89211632Y-45603475D01*
X89418475Y-45396632D01*
X89535000Y-45222240D01*
X89651525Y-45396632D01*
X89858368Y-45603475D01*
X90101589Y-45765990D01*
X90371842Y-45877932D01*
X90658740Y-45935000D01*
X90951260Y-45935000D01*
X91238158Y-45877932D01*
X91508411Y-45765990D01*
X91751632Y-45603475D01*
X91958475Y-45396632D01*
X92075000Y-45222240D01*
X92191525Y-45396632D01*
X92398368Y-45603475D01*
X92641589Y-45765990D01*
X92911842Y-45877932D01*
X93198740Y-45935000D01*
X93491260Y-45935000D01*
X93778158Y-45877932D01*
X94048411Y-45765990D01*
X94291632Y-45603475D01*
X94498475Y-45396632D01*
X94615000Y-45222240D01*
X94731525Y-45396632D01*
X94938368Y-45603475D01*
X95181589Y-45765990D01*
X95451842Y-45877932D01*
X95738740Y-45935000D01*
X96031260Y-45935000D01*
X96318158Y-45877932D01*
X96588411Y-45765990D01*
X96831632Y-45603475D01*
X96963487Y-45471620D01*
X96985498Y-45544180D01*
X97044463Y-45654494D01*
X97123815Y-45751185D01*
X97220506Y-45830537D01*
X97330820Y-45889502D01*
X97450518Y-45925812D01*
X97575000Y-45938072D01*
X99275000Y-45938072D01*
X99399482Y-45925812D01*
X99519180Y-45889502D01*
X99568000Y-45863407D01*
X99568000Y-49473222D01*
X99502494Y-49419463D01*
X99392180Y-49360498D01*
X99272482Y-49324188D01*
X99148000Y-49311928D01*
X97448000Y-49311928D01*
X97323518Y-49324188D01*
X97203820Y-49360498D01*
X97093506Y-49419463D01*
X96996815Y-49498815D01*
X96925264Y-49586000D01*
X96614050Y-49586000D01*
X96461411Y-49484010D01*
X96191158Y-49372068D01*
X95904260Y-49315000D01*
X95611740Y-49315000D01*
X95324842Y-49372068D01*
X95054589Y-49484010D01*
X94901950Y-49586000D01*
X94074050Y-49586000D01*
X93921411Y-49484010D01*
X93651158Y-49372068D01*
X93364260Y-49315000D01*
X93071740Y-49315000D01*
X92784842Y-49372068D01*
X92514589Y-49484010D01*
X92361950Y-49586000D01*
X91534050Y-49586000D01*
X91381411Y-49484010D01*
X91111158Y-49372068D01*
X90824260Y-49315000D01*
X90531740Y-49315000D01*
X90244842Y-49372068D01*
X89974589Y-49484010D01*
X89821950Y-49586000D01*
X88994050Y-49586000D01*
X88841411Y-49484010D01*
X88571158Y-49372068D01*
X88284260Y-49315000D01*
X87991740Y-49315000D01*
X87704842Y-49372068D01*
X87434589Y-49484010D01*
X87281950Y-49586000D01*
X81835151Y-49586000D01*
X81787999Y-49581356D01*
X81740847Y-49586000D01*
X81740838Y-49586000D01*
X81599807Y-49599890D01*
X81418846Y-49654784D01*
X81323365Y-49705820D01*
X81252071Y-49743927D01*
X81154869Y-49823699D01*
X81105893Y-49863893D01*
X81075829Y-49900526D01*
X79745526Y-51230830D01*
X79708894Y-51260893D01*
X79678830Y-51297526D01*
X79678829Y-51297527D01*
X79588927Y-51407072D01*
X79499784Y-51573847D01*
X79444891Y-51754808D01*
X79426356Y-51943000D01*
X79431001Y-51990162D01*
X79431000Y-62340355D01*
X70474527Y-71296829D01*
X70437894Y-71326893D01*
X70410783Y-71359928D01*
X70302000Y-71359928D01*
X70302000Y-67072644D01*
X72897645Y-64477000D01*
X73171260Y-64477000D01*
X73458158Y-64419932D01*
X73728411Y-64307990D01*
X73971632Y-64145475D01*
X74158715Y-63958392D01*
X74226595Y-64085386D01*
X74337038Y-64219962D01*
X74471614Y-64330405D01*
X74625150Y-64412472D01*
X74791746Y-64463008D01*
X74965000Y-64480072D01*
X76165000Y-64480072D01*
X76338254Y-64463008D01*
X76504850Y-64412472D01*
X76658386Y-64330405D01*
X76792962Y-64219962D01*
X76903405Y-64085386D01*
X76985472Y-63931850D01*
X77036008Y-63765254D01*
X77053072Y-63592000D01*
X77053072Y-62861573D01*
X77781474Y-62133171D01*
X77818107Y-62103107D01*
X77938073Y-61956928D01*
X78027216Y-61790154D01*
X78082110Y-61609193D01*
X78096000Y-61468162D01*
X78096000Y-61468160D01*
X78100645Y-61421000D01*
X78096000Y-61373840D01*
X78096000Y-44565209D01*
X78191134Y-44487134D01*
X78376706Y-44261014D01*
X78514599Y-44003033D01*
X78599513Y-43723110D01*
X78621000Y-43504949D01*
X78621000Y-43109050D01*
X78599513Y-42890889D01*
X78514599Y-42610966D01*
X78376706Y-42352986D01*
X78191134Y-42126866D01*
X77965013Y-41941294D01*
X77707033Y-41803401D01*
X77427110Y-41718487D01*
X77136000Y-41689815D01*
X76844889Y-41718487D01*
X76564966Y-41803401D01*
X76306986Y-41941294D01*
X76080866Y-42126866D01*
X75895294Y-42352987D01*
X75881538Y-42378722D01*
X75725049Y-42172571D01*
X75507193Y-41979504D01*
X75255858Y-41832648D01*
X74992890Y-41740524D01*
X74763000Y-41861845D01*
X74763000Y-43180000D01*
X74783000Y-43180000D01*
X74783000Y-43434000D01*
X74763000Y-43434000D01*
X74763000Y-44752155D01*
X74992890Y-44873476D01*
X75255858Y-44781352D01*
X75507193Y-44634496D01*
X75725049Y-44441429D01*
X75881538Y-44235278D01*
X75895294Y-44261014D01*
X76080866Y-44487134D01*
X76176000Y-44565208D01*
X76176000Y-51477732D01*
X75998158Y-51404068D01*
X75711260Y-51347000D01*
X75418740Y-51347000D01*
X75131842Y-51404068D01*
X74861589Y-51516010D01*
X74618368Y-51678525D01*
X74411525Y-51885368D01*
X74295000Y-52059760D01*
X74178475Y-51885368D01*
X73971632Y-51678525D01*
X73728411Y-51516010D01*
X73458158Y-51404068D01*
X73171260Y-51347000D01*
X72878740Y-51347000D01*
X72591842Y-51404068D01*
X72321589Y-51516010D01*
X72078368Y-51678525D01*
X71871525Y-51885368D01*
X71709010Y-52128589D01*
X71597068Y-52398842D01*
X71540000Y-52685740D01*
X71540000Y-52978260D01*
X71597068Y-53265158D01*
X71709010Y-53535411D01*
X71871525Y-53778632D01*
X72078368Y-53985475D01*
X72251729Y-54101311D01*
X72176208Y-54343603D01*
X73025000Y-55192395D01*
X73873792Y-54343603D01*
X73798271Y-54101311D01*
X73971632Y-53985475D01*
X74178475Y-53778632D01*
X74295000Y-53604240D01*
X74411525Y-53778632D01*
X74618368Y-53985475D01*
X74791729Y-54101311D01*
X74716208Y-54343603D01*
X75565000Y-55192395D01*
X75579143Y-55178253D01*
X75758748Y-55357858D01*
X75744605Y-55372000D01*
X75758748Y-55386143D01*
X75579143Y-55565748D01*
X75565000Y-55551605D01*
X74716208Y-56400397D01*
X74791514Y-56642000D01*
X74716208Y-56883603D01*
X75565000Y-57732395D01*
X75579143Y-57718253D01*
X75758748Y-57897858D01*
X75744605Y-57912000D01*
X75758748Y-57926143D01*
X75579143Y-58105748D01*
X75565000Y-58091605D01*
X74716208Y-58940397D01*
X74791514Y-59182000D01*
X74716208Y-59423603D01*
X75565000Y-60272395D01*
X75579143Y-60258253D01*
X75758748Y-60437858D01*
X75744605Y-60452000D01*
X75758748Y-60466143D01*
X75579143Y-60645748D01*
X75565000Y-60631605D01*
X74716208Y-61480397D01*
X74734293Y-61538420D01*
X74625150Y-61571528D01*
X74471614Y-61653595D01*
X74337038Y-61764038D01*
X74226595Y-61898614D01*
X74158715Y-62025608D01*
X73971632Y-61838525D01*
X73798271Y-61722689D01*
X73873792Y-61480397D01*
X73025000Y-60631605D01*
X72176208Y-61480397D01*
X72251729Y-61722689D01*
X72078368Y-61838525D01*
X71871525Y-62045368D01*
X71709010Y-62288589D01*
X71597068Y-62558842D01*
X71540000Y-62845740D01*
X71540000Y-63119355D01*
X69342000Y-65317356D01*
X69342000Y-60520531D01*
X71534389Y-60520531D01*
X71576401Y-60810019D01*
X71674081Y-61085747D01*
X71747528Y-61223157D01*
X71996603Y-61300792D01*
X72845395Y-60452000D01*
X73204605Y-60452000D01*
X74053397Y-61300792D01*
X74295000Y-61225486D01*
X74536603Y-61300792D01*
X75385395Y-60452000D01*
X74536603Y-59603208D01*
X74295000Y-59678514D01*
X74053397Y-59603208D01*
X73204605Y-60452000D01*
X72845395Y-60452000D01*
X71996603Y-59603208D01*
X71747528Y-59680843D01*
X71621629Y-59944883D01*
X71549661Y-60228411D01*
X71534389Y-60520531D01*
X69342000Y-60520531D01*
X69342000Y-58940397D01*
X72176208Y-58940397D01*
X72251514Y-59182000D01*
X72176208Y-59423603D01*
X73025000Y-60272395D01*
X73873792Y-59423603D01*
X73798486Y-59182000D01*
X73873792Y-58940397D01*
X73025000Y-58091605D01*
X72176208Y-58940397D01*
X69342000Y-58940397D01*
X69342000Y-57980531D01*
X71534389Y-57980531D01*
X71576401Y-58270019D01*
X71674081Y-58545747D01*
X71747528Y-58683157D01*
X71996603Y-58760792D01*
X72845395Y-57912000D01*
X73204605Y-57912000D01*
X74053397Y-58760792D01*
X74295000Y-58685486D01*
X74536603Y-58760792D01*
X75385395Y-57912000D01*
X74536603Y-57063208D01*
X74295000Y-57138514D01*
X74053397Y-57063208D01*
X73204605Y-57912000D01*
X72845395Y-57912000D01*
X71996603Y-57063208D01*
X71747528Y-57140843D01*
X71621629Y-57404883D01*
X71549661Y-57688411D01*
X71534389Y-57980531D01*
X69342000Y-57980531D01*
X69342000Y-56400397D01*
X72176208Y-56400397D01*
X72251514Y-56642000D01*
X72176208Y-56883603D01*
X73025000Y-57732395D01*
X73873792Y-56883603D01*
X73798486Y-56642000D01*
X73873792Y-56400397D01*
X73025000Y-55551605D01*
X72176208Y-56400397D01*
X69342000Y-56400397D01*
X69342000Y-55440531D01*
X71534389Y-55440531D01*
X71576401Y-55730019D01*
X71674081Y-56005747D01*
X71747528Y-56143157D01*
X71996603Y-56220792D01*
X72845395Y-55372000D01*
X73204605Y-55372000D01*
X74053397Y-56220792D01*
X74295000Y-56145486D01*
X74536603Y-56220792D01*
X75385395Y-55372000D01*
X74536603Y-54523208D01*
X74295000Y-54598514D01*
X74053397Y-54523208D01*
X73204605Y-55372000D01*
X72845395Y-55372000D01*
X71996603Y-54523208D01*
X71747528Y-54600843D01*
X71621629Y-54864883D01*
X71549661Y-55148411D01*
X71534389Y-55440531D01*
X69342000Y-55440531D01*
X69342000Y-42582000D01*
X70647928Y-42582000D01*
X70647928Y-44032000D01*
X70664992Y-44205254D01*
X70715528Y-44371850D01*
X70797595Y-44525386D01*
X70908038Y-44659962D01*
X71042614Y-44770405D01*
X71196150Y-44852472D01*
X71362746Y-44903008D01*
X71536000Y-44920072D01*
X72736000Y-44920072D01*
X72909254Y-44903008D01*
X73075850Y-44852472D01*
X73229386Y-44770405D01*
X73363962Y-44659962D01*
X73474405Y-44525386D01*
X73530714Y-44420039D01*
X73546951Y-44441429D01*
X73764807Y-44634496D01*
X74016142Y-44781352D01*
X74279110Y-44873476D01*
X74509000Y-44752155D01*
X74509000Y-43434000D01*
X74489000Y-43434000D01*
X74489000Y-43180000D01*
X74509000Y-43180000D01*
X74509000Y-41861845D01*
X74279110Y-41740524D01*
X74016142Y-41832648D01*
X73764807Y-41979504D01*
X73546951Y-42172571D01*
X73530714Y-42193961D01*
X73474405Y-42088614D01*
X73363962Y-41954038D01*
X73229386Y-41843595D01*
X73075850Y-41761528D01*
X72909254Y-41710992D01*
X72736000Y-41693928D01*
X71536000Y-41693928D01*
X71362746Y-41710992D01*
X71196150Y-41761528D01*
X71042614Y-41843595D01*
X70908038Y-41954038D01*
X70797595Y-42088614D01*
X70715528Y-42242150D01*
X70664992Y-42408746D01*
X70647928Y-42582000D01*
X69342000Y-42582000D01*
X69342000Y-40767000D01*
X87325614Y-40767000D01*
X87264731Y-40812412D01*
%TA.AperFunction,Conductor*%
D23*
G36*
X87264731Y-40812412D02*
G01*
X87069822Y-41028645D01*
X86920843Y-41278748D01*
X86823519Y-41553109D01*
X86944186Y-41783000D01*
X88138000Y-41783000D01*
X88138000Y-41763000D01*
X88392000Y-41763000D01*
X88392000Y-41783000D01*
X90678000Y-41783000D01*
X90678000Y-41763000D01*
X90932000Y-41763000D01*
X90932000Y-41783000D01*
X93218000Y-41783000D01*
X93218000Y-41763000D01*
X93472000Y-41763000D01*
X93472000Y-41783000D01*
X95758000Y-41783000D01*
X95758000Y-41763000D01*
X96012000Y-41763000D01*
X96012000Y-41783000D01*
X98298000Y-41783000D01*
X98298000Y-41763000D01*
X98552000Y-41763000D01*
X98552000Y-41783000D01*
X98572000Y-41783000D01*
X98572000Y-42037000D01*
X98552000Y-42037000D01*
X98552000Y-42057000D01*
X98298000Y-42057000D01*
X98298000Y-42037000D01*
X96012000Y-42037000D01*
X96012000Y-42057000D01*
X95758000Y-42057000D01*
X95758000Y-42037000D01*
X93472000Y-42037000D01*
X93472000Y-42057000D01*
X93218000Y-42057000D01*
X93218000Y-42037000D01*
X90932000Y-42037000D01*
X90932000Y-42057000D01*
X90678000Y-42057000D01*
X90678000Y-42037000D01*
X88392000Y-42037000D01*
X88392000Y-42057000D01*
X88138000Y-42057000D01*
X88138000Y-42037000D01*
X86944186Y-42037000D01*
X86823519Y-42266891D01*
X86920843Y-42541252D01*
X87069822Y-42791355D01*
X87264731Y-43007588D01*
X87494406Y-43178900D01*
X87318368Y-43296525D01*
X87111525Y-43503368D01*
X86949010Y-43746589D01*
X86837068Y-44016842D01*
X86780000Y-44303740D01*
X86780000Y-44596260D01*
X86837068Y-44883158D01*
X86949010Y-45153411D01*
X87111525Y-45396632D01*
X87318368Y-45603475D01*
X87561589Y-45765990D01*
X87831842Y-45877932D01*
X88118740Y-45935000D01*
X88411260Y-45935000D01*
X88698158Y-45877932D01*
X88968411Y-45765990D01*
X89211632Y-45603475D01*
X89418475Y-45396632D01*
X89535000Y-45222240D01*
X89651525Y-45396632D01*
X89858368Y-45603475D01*
X90101589Y-45765990D01*
X90371842Y-45877932D01*
X90658740Y-45935000D01*
X90951260Y-45935000D01*
X91238158Y-45877932D01*
X91508411Y-45765990D01*
X91751632Y-45603475D01*
X91958475Y-45396632D01*
X92075000Y-45222240D01*
X92191525Y-45396632D01*
X92398368Y-45603475D01*
X92641589Y-45765990D01*
X92911842Y-45877932D01*
X93198740Y-45935000D01*
X93491260Y-45935000D01*
X93778158Y-45877932D01*
X94048411Y-45765990D01*
X94291632Y-45603475D01*
X94498475Y-45396632D01*
X94615000Y-45222240D01*
X94731525Y-45396632D01*
X94938368Y-45603475D01*
X95181589Y-45765990D01*
X95451842Y-45877932D01*
X95738740Y-45935000D01*
X96031260Y-45935000D01*
X96318158Y-45877932D01*
X96588411Y-45765990D01*
X96831632Y-45603475D01*
X96963487Y-45471620D01*
X96985498Y-45544180D01*
X97044463Y-45654494D01*
X97123815Y-45751185D01*
X97220506Y-45830537D01*
X97330820Y-45889502D01*
X97450518Y-45925812D01*
X97575000Y-45938072D01*
X99275000Y-45938072D01*
X99399482Y-45925812D01*
X99519180Y-45889502D01*
X99568000Y-45863407D01*
X99568000Y-49473222D01*
X99502494Y-49419463D01*
X99392180Y-49360498D01*
X99272482Y-49324188D01*
X99148000Y-49311928D01*
X97448000Y-49311928D01*
X97323518Y-49324188D01*
X97203820Y-49360498D01*
X97093506Y-49419463D01*
X96996815Y-49498815D01*
X96925264Y-49586000D01*
X96614050Y-49586000D01*
X96461411Y-49484010D01*
X96191158Y-49372068D01*
X95904260Y-49315000D01*
X95611740Y-49315000D01*
X95324842Y-49372068D01*
X95054589Y-49484010D01*
X94901950Y-49586000D01*
X94074050Y-49586000D01*
X93921411Y-49484010D01*
X93651158Y-49372068D01*
X93364260Y-49315000D01*
X93071740Y-49315000D01*
X92784842Y-49372068D01*
X92514589Y-49484010D01*
X92361950Y-49586000D01*
X91534050Y-49586000D01*
X91381411Y-49484010D01*
X91111158Y-49372068D01*
X90824260Y-49315000D01*
X90531740Y-49315000D01*
X90244842Y-49372068D01*
X89974589Y-49484010D01*
X89821950Y-49586000D01*
X88994050Y-49586000D01*
X88841411Y-49484010D01*
X88571158Y-49372068D01*
X88284260Y-49315000D01*
X87991740Y-49315000D01*
X87704842Y-49372068D01*
X87434589Y-49484010D01*
X87281950Y-49586000D01*
X81835151Y-49586000D01*
X81787999Y-49581356D01*
X81740847Y-49586000D01*
X81740838Y-49586000D01*
X81599807Y-49599890D01*
X81418846Y-49654784D01*
X81323365Y-49705820D01*
X81252071Y-49743927D01*
X81154869Y-49823699D01*
X81105893Y-49863893D01*
X81075829Y-49900526D01*
X79745526Y-51230830D01*
X79708894Y-51260893D01*
X79678830Y-51297526D01*
X79678829Y-51297527D01*
X79588927Y-51407072D01*
X79499784Y-51573847D01*
X79444891Y-51754808D01*
X79426356Y-51943000D01*
X79431001Y-51990162D01*
X79431000Y-62340355D01*
X70474527Y-71296829D01*
X70437894Y-71326893D01*
X70410783Y-71359928D01*
X70302000Y-71359928D01*
X70302000Y-67072644D01*
X72897645Y-64477000D01*
X73171260Y-64477000D01*
X73458158Y-64419932D01*
X73728411Y-64307990D01*
X73971632Y-64145475D01*
X74158715Y-63958392D01*
X74226595Y-64085386D01*
X74337038Y-64219962D01*
X74471614Y-64330405D01*
X74625150Y-64412472D01*
X74791746Y-64463008D01*
X74965000Y-64480072D01*
X76165000Y-64480072D01*
X76338254Y-64463008D01*
X76504850Y-64412472D01*
X76658386Y-64330405D01*
X76792962Y-64219962D01*
X76903405Y-64085386D01*
X76985472Y-63931850D01*
X77036008Y-63765254D01*
X77053072Y-63592000D01*
X77053072Y-62861573D01*
X77781474Y-62133171D01*
X77818107Y-62103107D01*
X77938073Y-61956928D01*
X78027216Y-61790154D01*
X78082110Y-61609193D01*
X78096000Y-61468162D01*
X78096000Y-61468160D01*
X78100645Y-61421000D01*
X78096000Y-61373840D01*
X78096000Y-44565209D01*
X78191134Y-44487134D01*
X78376706Y-44261014D01*
X78514599Y-44003033D01*
X78599513Y-43723110D01*
X78621000Y-43504949D01*
X78621000Y-43109050D01*
X78599513Y-42890889D01*
X78514599Y-42610966D01*
X78376706Y-42352986D01*
X78191134Y-42126866D01*
X77965013Y-41941294D01*
X77707033Y-41803401D01*
X77427110Y-41718487D01*
X77136000Y-41689815D01*
X76844889Y-41718487D01*
X76564966Y-41803401D01*
X76306986Y-41941294D01*
X76080866Y-42126866D01*
X75895294Y-42352987D01*
X75881538Y-42378722D01*
X75725049Y-42172571D01*
X75507193Y-41979504D01*
X75255858Y-41832648D01*
X74992890Y-41740524D01*
X74763000Y-41861845D01*
X74763000Y-43180000D01*
X74783000Y-43180000D01*
X74783000Y-43434000D01*
X74763000Y-43434000D01*
X74763000Y-44752155D01*
X74992890Y-44873476D01*
X75255858Y-44781352D01*
X75507193Y-44634496D01*
X75725049Y-44441429D01*
X75881538Y-44235278D01*
X75895294Y-44261014D01*
X76080866Y-44487134D01*
X76176000Y-44565208D01*
X76176000Y-51477732D01*
X75998158Y-51404068D01*
X75711260Y-51347000D01*
X75418740Y-51347000D01*
X75131842Y-51404068D01*
X74861589Y-51516010D01*
X74618368Y-51678525D01*
X74411525Y-51885368D01*
X74295000Y-52059760D01*
X74178475Y-51885368D01*
X73971632Y-51678525D01*
X73728411Y-51516010D01*
X73458158Y-51404068D01*
X73171260Y-51347000D01*
X72878740Y-51347000D01*
X72591842Y-51404068D01*
X72321589Y-51516010D01*
X72078368Y-51678525D01*
X71871525Y-51885368D01*
X71709010Y-52128589D01*
X71597068Y-52398842D01*
X71540000Y-52685740D01*
X71540000Y-52978260D01*
X71597068Y-53265158D01*
X71709010Y-53535411D01*
X71871525Y-53778632D01*
X72078368Y-53985475D01*
X72251729Y-54101311D01*
X72176208Y-54343603D01*
X73025000Y-55192395D01*
X73873792Y-54343603D01*
X73798271Y-54101311D01*
X73971632Y-53985475D01*
X74178475Y-53778632D01*
X74295000Y-53604240D01*
X74411525Y-53778632D01*
X74618368Y-53985475D01*
X74791729Y-54101311D01*
X74716208Y-54343603D01*
X75565000Y-55192395D01*
X75579143Y-55178253D01*
X75758748Y-55357858D01*
X75744605Y-55372000D01*
X75758748Y-55386143D01*
X75579143Y-55565748D01*
X75565000Y-55551605D01*
X74716208Y-56400397D01*
X74791514Y-56642000D01*
X74716208Y-56883603D01*
X75565000Y-57732395D01*
X75579143Y-57718253D01*
X75758748Y-57897858D01*
X75744605Y-57912000D01*
X75758748Y-57926143D01*
X75579143Y-58105748D01*
X75565000Y-58091605D01*
X74716208Y-58940397D01*
X74791514Y-59182000D01*
X74716208Y-59423603D01*
X75565000Y-60272395D01*
X75579143Y-60258253D01*
X75758748Y-60437858D01*
X75744605Y-60452000D01*
X75758748Y-60466143D01*
X75579143Y-60645748D01*
X75565000Y-60631605D01*
X74716208Y-61480397D01*
X74734293Y-61538420D01*
X74625150Y-61571528D01*
X74471614Y-61653595D01*
X74337038Y-61764038D01*
X74226595Y-61898614D01*
X74158715Y-62025608D01*
X73971632Y-61838525D01*
X73798271Y-61722689D01*
X73873792Y-61480397D01*
X73025000Y-60631605D01*
X72176208Y-61480397D01*
X72251729Y-61722689D01*
X72078368Y-61838525D01*
X71871525Y-62045368D01*
X71709010Y-62288589D01*
X71597068Y-62558842D01*
X71540000Y-62845740D01*
X71540000Y-63119355D01*
X69342000Y-65317356D01*
X69342000Y-60520531D01*
X71534389Y-60520531D01*
X71576401Y-60810019D01*
X71674081Y-61085747D01*
X71747528Y-61223157D01*
X71996603Y-61300792D01*
X72845395Y-60452000D01*
X73204605Y-60452000D01*
X74053397Y-61300792D01*
X74295000Y-61225486D01*
X74536603Y-61300792D01*
X75385395Y-60452000D01*
X74536603Y-59603208D01*
X74295000Y-59678514D01*
X74053397Y-59603208D01*
X73204605Y-60452000D01*
X72845395Y-60452000D01*
X71996603Y-59603208D01*
X71747528Y-59680843D01*
X71621629Y-59944883D01*
X71549661Y-60228411D01*
X71534389Y-60520531D01*
X69342000Y-60520531D01*
X69342000Y-58940397D01*
X72176208Y-58940397D01*
X72251514Y-59182000D01*
X72176208Y-59423603D01*
X73025000Y-60272395D01*
X73873792Y-59423603D01*
X73798486Y-59182000D01*
X73873792Y-58940397D01*
X73025000Y-58091605D01*
X72176208Y-58940397D01*
X69342000Y-58940397D01*
X69342000Y-57980531D01*
X71534389Y-57980531D01*
X71576401Y-58270019D01*
X71674081Y-58545747D01*
X71747528Y-58683157D01*
X71996603Y-58760792D01*
X72845395Y-57912000D01*
X73204605Y-57912000D01*
X74053397Y-58760792D01*
X74295000Y-58685486D01*
X74536603Y-58760792D01*
X75385395Y-57912000D01*
X74536603Y-57063208D01*
X74295000Y-57138514D01*
X74053397Y-57063208D01*
X73204605Y-57912000D01*
X72845395Y-57912000D01*
X71996603Y-57063208D01*
X71747528Y-57140843D01*
X71621629Y-57404883D01*
X71549661Y-57688411D01*
X71534389Y-57980531D01*
X69342000Y-57980531D01*
X69342000Y-56400397D01*
X72176208Y-56400397D01*
X72251514Y-56642000D01*
X72176208Y-56883603D01*
X73025000Y-57732395D01*
X73873792Y-56883603D01*
X73798486Y-56642000D01*
X73873792Y-56400397D01*
X73025000Y-55551605D01*
X72176208Y-56400397D01*
X69342000Y-56400397D01*
X69342000Y-55440531D01*
X71534389Y-55440531D01*
X71576401Y-55730019D01*
X71674081Y-56005747D01*
X71747528Y-56143157D01*
X71996603Y-56220792D01*
X72845395Y-55372000D01*
X73204605Y-55372000D01*
X74053397Y-56220792D01*
X74295000Y-56145486D01*
X74536603Y-56220792D01*
X75385395Y-55372000D01*
X74536603Y-54523208D01*
X74295000Y-54598514D01*
X74053397Y-54523208D01*
X73204605Y-55372000D01*
X72845395Y-55372000D01*
X71996603Y-54523208D01*
X71747528Y-54600843D01*
X71621629Y-54864883D01*
X71549661Y-55148411D01*
X71534389Y-55440531D01*
X69342000Y-55440531D01*
X69342000Y-42582000D01*
X70647928Y-42582000D01*
X70647928Y-44032000D01*
X70664992Y-44205254D01*
X70715528Y-44371850D01*
X70797595Y-44525386D01*
X70908038Y-44659962D01*
X71042614Y-44770405D01*
X71196150Y-44852472D01*
X71362746Y-44903008D01*
X71536000Y-44920072D01*
X72736000Y-44920072D01*
X72909254Y-44903008D01*
X73075850Y-44852472D01*
X73229386Y-44770405D01*
X73363962Y-44659962D01*
X73474405Y-44525386D01*
X73530714Y-44420039D01*
X73546951Y-44441429D01*
X73764807Y-44634496D01*
X74016142Y-44781352D01*
X74279110Y-44873476D01*
X74509000Y-44752155D01*
X74509000Y-43434000D01*
X74489000Y-43434000D01*
X74489000Y-43180000D01*
X74509000Y-43180000D01*
X74509000Y-41861845D01*
X74279110Y-41740524D01*
X74016142Y-41832648D01*
X73764807Y-41979504D01*
X73546951Y-42172571D01*
X73530714Y-42193961D01*
X73474405Y-42088614D01*
X73363962Y-41954038D01*
X73229386Y-41843595D01*
X73075850Y-41761528D01*
X72909254Y-41710992D01*
X72736000Y-41693928D01*
X71536000Y-41693928D01*
X71362746Y-41710992D01*
X71196150Y-41761528D01*
X71042614Y-41843595D01*
X70908038Y-41954038D01*
X70797595Y-42088614D01*
X70715528Y-42242150D01*
X70664992Y-42408746D01*
X70647928Y-42582000D01*
X69342000Y-42582000D01*
X69342000Y-40767000D01*
X87325614Y-40767000D01*
X87264731Y-40812412D01*
G37*
%TD.AperFunction*%
%TD*%
M02*
