M48
; DRILL file {KiCad 5.1.9+dfsg1-1~bpo10+1} date Sun Feb  6 17:07:50 2022
; FORMAT={2:4/ absolute / inch / suppress leading zeros}
; #@! TF.CreationDate,2022-02-06T17:07:50+08:00
; #@! TF.GenerationSoftware,Kicad,Pcbnew,5.1.9+dfsg1-1~bpo10+1
FMAT,2
INCH,TZ
T1C0.0157
T2C0.0315
T3C0.0354
T4C0.0374
T5C0.0394
%
G90
G05
T1
X27350Y-20900
X27600Y-18150
X27600Y-19500
X27650Y-17700
X27650Y-34750
X27750Y-22900
X27800Y-27600
X27900Y-20300
X27900Y-24700
X27900Y-27150
X28000Y-22300
X28050Y-24250
X28500Y-34400
X28600Y-34000
X28850Y-25650
X28850Y-26000
X29200Y-19050
X29200Y-30000
X29400Y-26250
X29450Y-30600
X29550Y-19750
X29600Y-18450
X29800Y-34650
X29900Y-25650
X30250Y-30050
X30450Y-29750
X30800Y-19000
X30900Y-34300
X30950Y-21600
X30950Y-24200
X30950Y-31850
X31150Y-34600
X31200Y-22300
X31400Y-16950
X31450Y-16500
X31450Y-18200
X31450Y-19550
X31950Y-34500
X32100Y-28800
X32200Y-32000
X32300Y-34050
X32550Y-18250
X32750Y-31950
X32850Y-31600
X32900Y-19150
X33000Y-30900
X33100Y-17450
X33100Y-27750
X33150Y-16900
X33200Y-34450
X33300Y-30600
X33550Y-28650
X33600Y-33200
X33650Y-27550
X33850Y-32600
X34700Y-18900
X34800Y-18300
X34900Y-32400
X35500Y-31900
X36100Y-18550
X36700Y-18950
X36850Y-32400
X37250Y-32250
X38200Y-18600
X38250Y-32050
X38750Y-19100
X38900Y-32450
T2
X32050Y-26550
X32050Y-29550
X32650Y-20541
X32650Y-21525
X32650Y-23550
X32650Y-24534
X33300Y-26550
X33300Y-29550
T3
X28000Y-28700
X29000Y-28700
X29950Y-28700
X30950Y-28700
T4
X28400Y-17050
X29384Y-17050
X30369Y-17050
T5
X28750Y-20800
X28750Y-21800
X28750Y-22800
X28750Y-23800
X28750Y-24800
X29750Y-20800
X29750Y-21800
X29750Y-22800
X29750Y-23800
X29750Y-24800
X34700Y-20000
X34750Y-16500
X34750Y-17500
X34750Y-31000
X34750Y-33500
X34750Y-34500
X35700Y-20000
X35750Y-16500
X35750Y-17500
X35750Y-31000
X35750Y-33500
X35750Y-34500
X36700Y-20000
X36750Y-16500
X36750Y-17500
X36750Y-31000
X36750Y-33500
X36750Y-34500
X37700Y-20000
X37750Y-16500
X37750Y-17500
X37750Y-31000
X37750Y-33500
X37750Y-34500
X38700Y-20000
X38750Y-16500
X38750Y-17500
X38750Y-31000
X38750Y-33500
X38750Y-34500
T2
G00X27850Y-31369
M15
G01X27850Y-31841
M16
G05
G00X27850Y-33259
M15
G01X27850Y-33731
M16
G05
G00X29700Y-31369
M15
G01X29700Y-31841
M16
G05
G00X29700Y-33259
M15
G01X29700Y-33731
M16
G05
G00X31550Y-31369
M15
G01X31550Y-31841
M16
G05
G00X31550Y-33259
M15
G01X31550Y-33731
M16
G05
T0
M30
