%TF.GenerationSoftware,KiCad,Pcbnew,5.1.9+dfsg1-1~bpo10+1*%
%TF.CreationDate,2022-02-06T17:07:51+08:00*%
%TF.ProjectId,euro2breadboard,6575726f-3262-4726-9561-64626f617264,rev?*%
%TF.SameCoordinates,Original*%
%TF.FileFunction,Legend,Bot*%
%TF.FilePolarity,Positive*%
%FSLAX46Y46*%
G04 Gerber Fmt 4.6, Leading zero omitted, Abs format (unit mm)*
G04 Created by KiCad (PCBNEW 5.1.9+dfsg1-1~bpo10+1) date 2022-02-06 17:07:51*
%MOMM*%
%LPD*%
G01*
G04 APERTURE LIST*
%ADD10C,0.120000*%
%ADD11C,0.150000*%
G04 APERTURE END LIST*
D10*
X69469000Y-83185000D02*
X76708000Y-83185000D01*
X69469000Y-86995000D02*
X69469000Y-83185000D01*
X76708000Y-86995000D02*
X69469000Y-86995000D01*
X76708000Y-83185000D02*
X76708000Y-86995000D01*
X76708000Y-78359000D02*
X69469000Y-78359000D01*
X69469000Y-82169000D02*
X69469000Y-78359000D01*
X76708000Y-82169000D02*
X69469000Y-82169000D01*
X76708000Y-78359000D02*
X76708000Y-82169000D01*
D11*
X80664095Y-51999476D02*
X81464095Y-51999476D01*
X81159333Y-51999476D02*
X81197428Y-51923285D01*
X81197428Y-51770904D01*
X81159333Y-51694714D01*
X81121238Y-51656619D01*
X81045047Y-51618523D01*
X80816476Y-51618523D01*
X80740285Y-51656619D01*
X80702190Y-51694714D01*
X80664095Y-51770904D01*
X80664095Y-51923285D01*
X80702190Y-51999476D01*
X81197428Y-51351857D02*
X80664095Y-51161380D01*
X81197428Y-50970904D02*
X80664095Y-51161380D01*
X80473619Y-51237571D01*
X80435523Y-51275666D01*
X80397428Y-51351857D01*
X80664095Y-50056619D02*
X81464095Y-50056619D01*
X81159333Y-50056619D02*
X81197428Y-49980428D01*
X81197428Y-49828047D01*
X81159333Y-49751857D01*
X81121238Y-49713761D01*
X81045047Y-49675666D01*
X80816476Y-49675666D01*
X80740285Y-49713761D01*
X80702190Y-49751857D01*
X80664095Y-49828047D01*
X80664095Y-49980428D01*
X80702190Y-50056619D01*
X80702190Y-49028047D02*
X80664095Y-49104238D01*
X80664095Y-49256619D01*
X80702190Y-49332809D01*
X80778380Y-49370904D01*
X81083142Y-49370904D01*
X81159333Y-49332809D01*
X81197428Y-49256619D01*
X81197428Y-49104238D01*
X81159333Y-49028047D01*
X81083142Y-48989952D01*
X81006952Y-48989952D01*
X80930761Y-49370904D01*
X81197428Y-48647095D02*
X80664095Y-48647095D01*
X81121238Y-48647095D02*
X81159333Y-48609000D01*
X81197428Y-48532809D01*
X81197428Y-48418523D01*
X81159333Y-48342333D01*
X81083142Y-48304238D01*
X80664095Y-48304238D01*
X81197428Y-47923285D02*
X80511714Y-47923285D01*
X80435523Y-47961380D01*
X80397428Y-48037571D01*
X80397428Y-48075666D01*
X81464095Y-47923285D02*
X81426000Y-47961380D01*
X81387904Y-47923285D01*
X81426000Y-47885190D01*
X81464095Y-47923285D01*
X81387904Y-47923285D01*
X80664095Y-47542333D02*
X81197428Y-47542333D01*
X81464095Y-47542333D02*
X81426000Y-47580428D01*
X81387904Y-47542333D01*
X81426000Y-47504238D01*
X81464095Y-47542333D01*
X81387904Y-47542333D01*
X80664095Y-46818523D02*
X81083142Y-46818523D01*
X81159333Y-46856619D01*
X81197428Y-46932809D01*
X81197428Y-47085190D01*
X81159333Y-47161380D01*
X80702190Y-46818523D02*
X80664095Y-46894714D01*
X80664095Y-47085190D01*
X80702190Y-47161380D01*
X80778380Y-47199476D01*
X80854571Y-47199476D01*
X80930761Y-47161380D01*
X80968857Y-47085190D01*
X80968857Y-46894714D01*
X81006952Y-46818523D01*
X80664095Y-46323285D02*
X80702190Y-46399476D01*
X80740285Y-46437571D01*
X80816476Y-46475666D01*
X81045047Y-46475666D01*
X81121238Y-46437571D01*
X81159333Y-46399476D01*
X81197428Y-46323285D01*
X81197428Y-46209000D01*
X81159333Y-46132809D01*
X81121238Y-46094714D01*
X81045047Y-46056619D01*
X80816476Y-46056619D01*
X80740285Y-46094714D01*
X80702190Y-46132809D01*
X80664095Y-46209000D01*
X80664095Y-46323285D01*
X80664095Y-45713761D02*
X81197428Y-45713761D01*
X81121238Y-45713761D02*
X81159333Y-45675666D01*
X81197428Y-45599476D01*
X81197428Y-45485190D01*
X81159333Y-45409000D01*
X81083142Y-45370904D01*
X80664095Y-45370904D01*
X81083142Y-45370904D02*
X81159333Y-45332809D01*
X81197428Y-45256619D01*
X81197428Y-45142333D01*
X81159333Y-45066142D01*
X81083142Y-45028047D01*
X80664095Y-45028047D01*
X80664095Y-44532809D02*
X80702190Y-44609000D01*
X80740285Y-44647095D01*
X80816476Y-44685190D01*
X81045047Y-44685190D01*
X81121238Y-44647095D01*
X81159333Y-44609000D01*
X81197428Y-44532809D01*
X81197428Y-44418523D01*
X81159333Y-44342333D01*
X81121238Y-44304238D01*
X81045047Y-44266142D01*
X80816476Y-44266142D01*
X80740285Y-44304238D01*
X80702190Y-44342333D01*
X80664095Y-44418523D01*
X80664095Y-44532809D01*
X80664095Y-43580428D02*
X81464095Y-43580428D01*
X80702190Y-43580428D02*
X80664095Y-43656619D01*
X80664095Y-43809000D01*
X80702190Y-43885190D01*
X80740285Y-43923285D01*
X80816476Y-43961380D01*
X81045047Y-43961380D01*
X81121238Y-43923285D01*
X81159333Y-43885190D01*
X81197428Y-43809000D01*
X81197428Y-43656619D01*
X81159333Y-43580428D01*
X81197428Y-42856619D02*
X80664095Y-42856619D01*
X81197428Y-43199476D02*
X80778380Y-43199476D01*
X80702190Y-43161380D01*
X80664095Y-43085190D01*
X80664095Y-42970904D01*
X80702190Y-42894714D01*
X80740285Y-42856619D01*
X80664095Y-42361380D02*
X80702190Y-42437571D01*
X80778380Y-42475666D01*
X81464095Y-42475666D01*
X80664095Y-41713761D02*
X81083142Y-41713761D01*
X81159333Y-41751857D01*
X81197428Y-41828047D01*
X81197428Y-41980428D01*
X81159333Y-42056619D01*
X80702190Y-41713761D02*
X80664095Y-41789952D01*
X80664095Y-41980428D01*
X80702190Y-42056619D01*
X80778380Y-42094714D01*
X80854571Y-42094714D01*
X80930761Y-42056619D01*
X80968857Y-41980428D01*
X80968857Y-41789952D01*
X81006952Y-41713761D01*
X80664095Y-41332809D02*
X81197428Y-41332809D01*
X81045047Y-41332809D02*
X81121238Y-41294714D01*
X81159333Y-41256619D01*
X81197428Y-41180428D01*
X81197428Y-41104238D01*
X82510285Y-43973571D02*
X81843619Y-43735476D01*
X82510285Y-43497380D01*
X81843619Y-42592619D02*
X81843619Y-43164047D01*
X81843619Y-42878333D02*
X82843619Y-42878333D01*
X82700761Y-42973571D01*
X82605523Y-43068809D01*
X82557904Y-43164047D01*
X81938857Y-42164047D02*
X81891238Y-42116428D01*
X81843619Y-42164047D01*
X81891238Y-42211666D01*
X81938857Y-42164047D01*
X81843619Y-42164047D01*
X82843619Y-41497380D02*
X82843619Y-41402142D01*
X82796000Y-41306904D01*
X82748380Y-41259285D01*
X82653142Y-41211666D01*
X82462666Y-41164047D01*
X82224571Y-41164047D01*
X82034095Y-41211666D01*
X81938857Y-41259285D01*
X81891238Y-41306904D01*
X81843619Y-41402142D01*
X81843619Y-41497380D01*
X81891238Y-41592619D01*
X81938857Y-41640238D01*
X82034095Y-41687857D01*
X82224571Y-41735476D01*
X82462666Y-41735476D01*
X82653142Y-41687857D01*
X82748380Y-41640238D01*
X82796000Y-41592619D01*
X82843619Y-41497380D01*
X83247761Y-54291714D02*
X83195380Y-54396476D01*
X83195380Y-54606000D01*
X83247761Y-54710761D01*
X83352523Y-54763142D01*
X83771571Y-54763142D01*
X83876333Y-54710761D01*
X83928714Y-54606000D01*
X83928714Y-54396476D01*
X83876333Y-54291714D01*
X83771571Y-54239333D01*
X83666809Y-54239333D01*
X83562047Y-54763142D01*
X83928714Y-53296476D02*
X83195380Y-53296476D01*
X83928714Y-53767904D02*
X83352523Y-53767904D01*
X83247761Y-53715523D01*
X83195380Y-53610761D01*
X83195380Y-53453619D01*
X83247761Y-53348857D01*
X83300142Y-53296476D01*
X83195380Y-52772666D02*
X83928714Y-52772666D01*
X83719190Y-52772666D02*
X83823952Y-52720285D01*
X83876333Y-52667904D01*
X83928714Y-52563142D01*
X83928714Y-52458380D01*
X83195380Y-51934571D02*
X83247761Y-52039333D01*
X83300142Y-52091714D01*
X83404904Y-52144095D01*
X83719190Y-52144095D01*
X83823952Y-52091714D01*
X83876333Y-52039333D01*
X83928714Y-51934571D01*
X83928714Y-51777428D01*
X83876333Y-51672666D01*
X83823952Y-51620285D01*
X83719190Y-51567904D01*
X83404904Y-51567904D01*
X83300142Y-51620285D01*
X83247761Y-51672666D01*
X83195380Y-51777428D01*
X83195380Y-51934571D01*
X84190619Y-51148857D02*
X84243000Y-51096476D01*
X84295380Y-50991714D01*
X84295380Y-50729809D01*
X84243000Y-50625047D01*
X84190619Y-50572666D01*
X84085857Y-50520285D01*
X83981095Y-50520285D01*
X83823952Y-50572666D01*
X83195380Y-51201238D01*
X83195380Y-50520285D01*
X83195380Y-50048857D02*
X84295380Y-50048857D01*
X83876333Y-50048857D02*
X83928714Y-49944095D01*
X83928714Y-49734571D01*
X83876333Y-49629809D01*
X83823952Y-49577428D01*
X83719190Y-49525047D01*
X83404904Y-49525047D01*
X83300142Y-49577428D01*
X83247761Y-49629809D01*
X83195380Y-49734571D01*
X83195380Y-49944095D01*
X83247761Y-50048857D01*
X83195380Y-49053619D02*
X83928714Y-49053619D01*
X83719190Y-49053619D02*
X83823952Y-49001238D01*
X83876333Y-48948857D01*
X83928714Y-48844095D01*
X83928714Y-48739333D01*
X83247761Y-47953619D02*
X83195380Y-48058380D01*
X83195380Y-48267904D01*
X83247761Y-48372666D01*
X83352523Y-48425047D01*
X83771571Y-48425047D01*
X83876333Y-48372666D01*
X83928714Y-48267904D01*
X83928714Y-48058380D01*
X83876333Y-47953619D01*
X83771571Y-47901238D01*
X83666809Y-47901238D01*
X83562047Y-48425047D01*
X83195380Y-46958380D02*
X83771571Y-46958380D01*
X83876333Y-47010761D01*
X83928714Y-47115523D01*
X83928714Y-47325047D01*
X83876333Y-47429809D01*
X83247761Y-46958380D02*
X83195380Y-47063142D01*
X83195380Y-47325047D01*
X83247761Y-47429809D01*
X83352523Y-47482190D01*
X83457285Y-47482190D01*
X83562047Y-47429809D01*
X83614428Y-47325047D01*
X83614428Y-47063142D01*
X83666809Y-46958380D01*
X83195380Y-45963142D02*
X84295380Y-45963142D01*
X83247761Y-45963142D02*
X83195380Y-46067904D01*
X83195380Y-46277428D01*
X83247761Y-46382190D01*
X83300142Y-46434571D01*
X83404904Y-46486952D01*
X83719190Y-46486952D01*
X83823952Y-46434571D01*
X83876333Y-46382190D01*
X83928714Y-46277428D01*
X83928714Y-46067904D01*
X83876333Y-45963142D01*
X83195380Y-45439333D02*
X84295380Y-45439333D01*
X83876333Y-45439333D02*
X83928714Y-45334571D01*
X83928714Y-45125047D01*
X83876333Y-45020285D01*
X83823952Y-44967904D01*
X83719190Y-44915523D01*
X83404904Y-44915523D01*
X83300142Y-44967904D01*
X83247761Y-45020285D01*
X83195380Y-45125047D01*
X83195380Y-45334571D01*
X83247761Y-45439333D01*
X83195380Y-44286952D02*
X83247761Y-44391714D01*
X83300142Y-44444095D01*
X83404904Y-44496476D01*
X83719190Y-44496476D01*
X83823952Y-44444095D01*
X83876333Y-44391714D01*
X83928714Y-44286952D01*
X83928714Y-44129809D01*
X83876333Y-44025047D01*
X83823952Y-43972666D01*
X83719190Y-43920285D01*
X83404904Y-43920285D01*
X83300142Y-43972666D01*
X83247761Y-44025047D01*
X83195380Y-44129809D01*
X83195380Y-44286952D01*
X83195380Y-42977428D02*
X83771571Y-42977428D01*
X83876333Y-43029809D01*
X83928714Y-43134571D01*
X83928714Y-43344095D01*
X83876333Y-43448857D01*
X83247761Y-42977428D02*
X83195380Y-43082190D01*
X83195380Y-43344095D01*
X83247761Y-43448857D01*
X83352523Y-43501238D01*
X83457285Y-43501238D01*
X83562047Y-43448857D01*
X83614428Y-43344095D01*
X83614428Y-43082190D01*
X83666809Y-42977428D01*
X83195380Y-42453619D02*
X83928714Y-42453619D01*
X83719190Y-42453619D02*
X83823952Y-42401238D01*
X83876333Y-42348857D01*
X83928714Y-42244095D01*
X83928714Y-42139333D01*
X83195380Y-41301238D02*
X84295380Y-41301238D01*
X83247761Y-41301238D02*
X83195380Y-41406000D01*
X83195380Y-41615523D01*
X83247761Y-41720285D01*
X83300142Y-41772666D01*
X83404904Y-41825047D01*
X83719190Y-41825047D01*
X83823952Y-41772666D01*
X83876333Y-41720285D01*
X83928714Y-41615523D01*
X83928714Y-41406000D01*
X83876333Y-41301238D01*
D10*
%TO.C,BB_POWER_PINS1*%
X86935000Y-88960000D02*
X86935000Y-83760000D01*
X97155000Y-88960000D02*
X86935000Y-88960000D01*
X99755000Y-83760000D02*
X86935000Y-83760000D01*
X97155000Y-88960000D02*
X97155000Y-86360000D01*
X97155000Y-86360000D02*
X99755000Y-86360000D01*
X99755000Y-86360000D02*
X99755000Y-83760000D01*
X98425000Y-88960000D02*
X99755000Y-88960000D01*
X99755000Y-88960000D02*
X99755000Y-87630000D01*
%TO.C,BB_POWER_PINS2*%
X99755000Y-45780000D02*
X99755000Y-44450000D01*
X98425000Y-45780000D02*
X99755000Y-45780000D01*
X99755000Y-43180000D02*
X99755000Y-40580000D01*
X97155000Y-43180000D02*
X99755000Y-43180000D01*
X97155000Y-45780000D02*
X97155000Y-43180000D01*
X99755000Y-40580000D02*
X86935000Y-40580000D01*
X97155000Y-45780000D02*
X86935000Y-45780000D01*
X86935000Y-45780000D02*
X86935000Y-40580000D01*
%TO.C,NEG_12V_PINS1*%
X86808000Y-52130000D02*
X86808000Y-49470000D01*
X97028000Y-52130000D02*
X86808000Y-52130000D01*
X97028000Y-49470000D02*
X86808000Y-49470000D01*
X97028000Y-52130000D02*
X97028000Y-49470000D01*
X98298000Y-52130000D02*
X99628000Y-52130000D01*
X99628000Y-52130000D02*
X99628000Y-50800000D01*
%TO.C,NEG_12V_PINS2*%
X99755000Y-80070000D02*
X99755000Y-78740000D01*
X98425000Y-80070000D02*
X99755000Y-80070000D01*
X97155000Y-80070000D02*
X97155000Y-77410000D01*
X97155000Y-77410000D02*
X86935000Y-77410000D01*
X97155000Y-80070000D02*
X86935000Y-80070000D01*
X86935000Y-80070000D02*
X86935000Y-77410000D01*
%TD*%
M02*
