%TF.GenerationSoftware,KiCad,Pcbnew,5.1.9+dfsg1-1~bpo10+1*%
%TF.CreationDate,2022-02-19T16:25:08+08:00*%
%TF.ProjectId,euro2breadboard,6575726f-3262-4726-9561-64626f617264,rev?*%
%TF.SameCoordinates,Original*%
%TF.FileFunction,Copper,L2,Bot*%
%TF.FilePolarity,Positive*%
%FSLAX46Y46*%
G04 Gerber Fmt 4.6, Leading zero omitted, Abs format (unit mm)*
G04 Created by KiCad (PCBNEW 5.1.9+dfsg1-1~bpo10+1) date 2022-02-19 16:25:08*
%MOMM*%
%LPD*%
G01*
G04 APERTURE LIST*
%TA.AperFunction,ComponentPad*%
%ADD10C,1.600000*%
%TD*%
%TA.AperFunction,ComponentPad*%
%ADD11R,1.600000X1.600000*%
%TD*%
%TA.AperFunction,ComponentPad*%
%ADD12C,1.700000*%
%TD*%
%TA.AperFunction,ComponentPad*%
%ADD13R,1.700000X1.700000*%
%TD*%
%TA.AperFunction,ComponentPad*%
%ADD14O,1.700000X1.700000*%
%TD*%
%TA.AperFunction,ComponentPad*%
%ADD15O,1.700000X1.950000*%
%TD*%
%TA.AperFunction,ComponentPad*%
%ADD16C,1.800000*%
%TD*%
%TA.AperFunction,ComponentPad*%
%ADD17R,1.800000X1.800000*%
%TD*%
%TA.AperFunction,ComponentPad*%
%ADD18O,1.600000X1.600000*%
%TD*%
%TA.AperFunction,ComponentPad*%
%ADD19O,1.800000X3.200000*%
%TD*%
%TA.AperFunction,ViaPad*%
%ADD20C,0.800000*%
%TD*%
%TA.AperFunction,Conductor*%
%ADD21C,0.650000*%
%TD*%
%TA.AperFunction,Conductor*%
%ADD22C,0.254000*%
%TD*%
%TA.AperFunction,Conductor*%
%ADD23C,0.100000*%
%TD*%
G04 APERTURE END LIST*
D10*
%TO.P,C1,2*%
%TO.N,GND*%
X82931000Y-46395000D03*
D11*
%TO.P,C1,1*%
%TO.N,+12V*%
X82931000Y-48895000D03*
%TD*%
%TO.P,C2,1*%
%TO.N,GND*%
X82931000Y-53340000D03*
D10*
%TO.P,C2,2*%
%TO.N,-12V*%
X82931000Y-55840000D03*
%TD*%
%TO.P,J2,1*%
%TO.N,-12V*%
%TA.AperFunction,ComponentPad*%
G36*
G01*
X76161000Y-62392000D02*
X76161000Y-63592000D01*
G75*
G02*
X75911000Y-63842000I-250000J0D01*
G01*
X74711000Y-63842000D01*
G75*
G02*
X74461000Y-63592000I0J250000D01*
G01*
X74461000Y-62392000D01*
G75*
G02*
X74711000Y-62142000I250000J0D01*
G01*
X75911000Y-62142000D01*
G75*
G02*
X76161000Y-62392000I0J-250000D01*
G01*
G37*
%TD.AperFunction*%
D12*
%TO.P,J2,3*%
%TO.N,GND*%
X75311000Y-60452000D03*
%TO.P,J2,5*%
X75311000Y-57912000D03*
%TO.P,J2,7*%
X75311000Y-55372000D03*
%TO.P,J2,9*%
%TO.N,+12V*%
X75311000Y-52832000D03*
%TO.P,J2,2*%
%TO.N,-12V*%
X72771000Y-62992000D03*
%TO.P,J2,4*%
%TO.N,GND*%
X72771000Y-60452000D03*
%TO.P,J2,6*%
X72771000Y-57912000D03*
%TO.P,J2,8*%
X72771000Y-55372000D03*
%TO.P,J2,10*%
%TO.N,+12V*%
X72771000Y-52832000D03*
%TD*%
D13*
%TO.P,BB_POWER_PINS1,1*%
%TO.N,Net-(BB_POWER_PINS1-Pad1)*%
X98425000Y-88265000D03*
D14*
%TO.P,BB_POWER_PINS1,2*%
%TO.N,GND*%
X98425000Y-85725000D03*
%TO.P,BB_POWER_PINS1,3*%
%TO.N,Net-(BB_POWER_PINS1-Pad1)*%
X95885000Y-88265000D03*
%TO.P,BB_POWER_PINS1,4*%
%TO.N,GND*%
X95885000Y-85725000D03*
%TO.P,BB_POWER_PINS1,5*%
%TO.N,Net-(BB_POWER_PINS1-Pad1)*%
X93345000Y-88265000D03*
%TO.P,BB_POWER_PINS1,6*%
%TO.N,GND*%
X93345000Y-85725000D03*
%TO.P,BB_POWER_PINS1,7*%
%TO.N,Net-(BB_POWER_PINS1-Pad1)*%
X90805000Y-88265000D03*
%TO.P,BB_POWER_PINS1,8*%
%TO.N,GND*%
X90805000Y-85725000D03*
%TO.P,BB_POWER_PINS1,9*%
%TO.N,Net-(BB_POWER_PINS1-Pad1)*%
X88265000Y-88265000D03*
%TO.P,BB_POWER_PINS1,10*%
%TO.N,GND*%
X88265000Y-85725000D03*
%TD*%
%TO.P,BB_POWER_PINS2,10*%
%TO.N,GND*%
X88265000Y-41275000D03*
%TO.P,BB_POWER_PINS2,9*%
%TO.N,Net-(BB_POWER_PINS1-Pad1)*%
X88265000Y-43815000D03*
%TO.P,BB_POWER_PINS2,8*%
%TO.N,GND*%
X90805000Y-41275000D03*
%TO.P,BB_POWER_PINS2,7*%
%TO.N,Net-(BB_POWER_PINS1-Pad1)*%
X90805000Y-43815000D03*
%TO.P,BB_POWER_PINS2,6*%
%TO.N,GND*%
X93345000Y-41275000D03*
%TO.P,BB_POWER_PINS2,5*%
%TO.N,Net-(BB_POWER_PINS1-Pad1)*%
X93345000Y-43815000D03*
%TO.P,BB_POWER_PINS2,4*%
%TO.N,GND*%
X95885000Y-41275000D03*
%TO.P,BB_POWER_PINS2,3*%
%TO.N,Net-(BB_POWER_PINS1-Pad1)*%
X95885000Y-43815000D03*
%TO.P,BB_POWER_PINS2,2*%
%TO.N,GND*%
X98425000Y-41275000D03*
D13*
%TO.P,BB_POWER_PINS2,1*%
%TO.N,Net-(BB_POWER_PINS1-Pad1)*%
X98425000Y-43815000D03*
%TD*%
%TO.P,J1,1*%
%TO.N,+12V*%
%TA.AperFunction,ComponentPad*%
G36*
G01*
X71286000Y-44032000D02*
X71286000Y-42582000D01*
G75*
G02*
X71536000Y-42332000I250000J0D01*
G01*
X72736000Y-42332000D01*
G75*
G02*
X72986000Y-42582000I0J-250000D01*
G01*
X72986000Y-44032000D01*
G75*
G02*
X72736000Y-44282000I-250000J0D01*
G01*
X71536000Y-44282000D01*
G75*
G02*
X71286000Y-44032000I0J250000D01*
G01*
G37*
%TD.AperFunction*%
D15*
%TO.P,J1,2*%
%TO.N,GND*%
X74636000Y-43307000D03*
%TO.P,J1,3*%
%TO.N,-12V*%
X77136000Y-43307000D03*
%TD*%
D13*
%TO.P,NEG_12V_PINS1,1*%
%TO.N,Net-(NEG_12V_LED1-Pad1)*%
X98298000Y-50800000D03*
D14*
%TO.P,NEG_12V_PINS1,2*%
X95758000Y-50800000D03*
%TO.P,NEG_12V_PINS1,3*%
X93218000Y-50800000D03*
%TO.P,NEG_12V_PINS1,4*%
X90678000Y-50800000D03*
%TO.P,NEG_12V_PINS1,5*%
X88138000Y-50800000D03*
%TD*%
%TO.P,NEG_12V_PINS2,5*%
%TO.N,Net-(NEG_12V_LED1-Pad1)*%
X88265000Y-78740000D03*
%TO.P,NEG_12V_PINS2,4*%
X90805000Y-78740000D03*
%TO.P,NEG_12V_PINS2,3*%
X93345000Y-78740000D03*
%TO.P,NEG_12V_PINS2,2*%
X95885000Y-78740000D03*
D13*
%TO.P,NEG_12V_PINS2,1*%
X98425000Y-78740000D03*
%TD*%
D16*
%TO.P,-12V,2*%
%TO.N,Net-(NEG_12V_LED1-Pad2)*%
X72009000Y-85344000D03*
D17*
%TO.P,-12V,1*%
%TO.N,Net-(NEG_12V_LED1-Pad1)*%
X74549000Y-85344000D03*
%TD*%
%TO.P,+12V,1*%
%TO.N,GND*%
X79883000Y-85344000D03*
D16*
%TO.P,+12V,2*%
%TO.N,Net-(POS_12V_LED1-Pad2)*%
X77343000Y-85344000D03*
%TD*%
D18*
%TO.P,R1,2*%
%TO.N,Net-(BB_POWER_PINS1-Pad1)*%
X84709000Y-59690000D03*
D10*
%TO.P,R1,1*%
%TO.N,Net-(POS_12V_LED1-Pad2)*%
X84709000Y-67310000D03*
%TD*%
%TO.P,R2,1*%
%TO.N,Net-(NEG_12V_LED1-Pad2)*%
X81661000Y-67310000D03*
D18*
%TO.P,R2,2*%
%TO.N,GND*%
X81661000Y-59690000D03*
%TD*%
D19*
%TO.P,SW1,2*%
%TO.N,Net-(BB_POWER_PINS1-Pad1)*%
X76200000Y-72657000D03*
%TO.P,SW1,1*%
%TO.N,N/C*%
X80900000Y-72657000D03*
%TO.P,SW1,3*%
%TO.N,+12V*%
X71500000Y-72657000D03*
%TO.P,SW1,5*%
%TO.N,Net-(NEG_12V_LED1-Pad1)*%
X76200000Y-77457000D03*
%TO.P,SW1,4*%
%TO.N,N/C*%
X80900000Y-77457000D03*
%TO.P,SW1,6*%
%TO.N,-12V*%
X71500000Y-77457000D03*
%TD*%
D20*
%TO.N,*%
X85153500Y-62611000D03*
X84201000Y-62547500D03*
%TO.N,GND*%
X90170000Y-81026000D03*
X88646000Y-82296000D03*
X93599000Y-82296000D03*
X94615000Y-81915000D03*
X97155000Y-81407000D03*
X98806000Y-82423000D03*
X78613000Y-54864000D03*
X88392000Y-46482000D03*
X88138000Y-48006000D03*
X91694000Y-47117000D03*
X93218000Y-48133000D03*
X97028000Y-47244000D03*
X98425000Y-48514000D03*
X83820000Y-86296500D03*
X75247500Y-65087500D03*
X75311000Y-66611500D03*
X77978000Y-62928500D03*
X78041500Y-63817500D03*
X80264000Y-61912500D03*
X81343500Y-65024000D03*
X79565500Y-67183000D03*
X78803500Y-75755500D03*
X78359000Y-77089000D03*
X69977000Y-80073500D03*
X85217000Y-81978500D03*
X82804000Y-82677000D03*
X84201000Y-83439000D03*
X82232500Y-84899500D03*
X81851500Y-87058500D03*
X75628500Y-45593000D03*
X74422000Y-46037500D03*
X75311000Y-48006000D03*
X74231500Y-49085500D03*
X76073000Y-50927000D03*
X73660000Y-50482500D03*
X69532500Y-45910500D03*
X70548500Y-46672500D03*
X70421500Y-50101500D03*
X69532500Y-51943000D03*
X81216500Y-41338500D03*
X81216500Y-42418000D03*
X84391500Y-41529000D03*
X83375500Y-43243500D03*
X85725000Y-43434000D03*
X78105000Y-56324500D03*
X78359000Y-57912000D03*
X79248000Y-48958500D03*
%TD*%
D21*
%TO.N,-12V*%
X73406000Y-75551000D02*
X71500000Y-77457000D01*
X72771000Y-62992000D02*
X73406000Y-63627000D01*
X73406000Y-63627000D02*
X73406000Y-75551000D01*
X72771000Y-62992000D02*
X75311000Y-62992000D01*
X75779000Y-62992000D02*
X75311000Y-62992000D01*
X82931000Y-55840000D02*
X75779000Y-62992000D01*
X82885998Y-55840000D02*
X82931000Y-55840000D01*
X77136000Y-50090002D02*
X82885998Y-55840000D01*
X77136000Y-43307000D02*
X77136000Y-50090002D01*
%TO.N,Net-(NEG_12V_LED1-Pad1)*%
X88265000Y-78740000D02*
X98425000Y-78740000D01*
X76200000Y-83693000D02*
X74549000Y-85344000D01*
X76200000Y-77457000D02*
X76200000Y-83693000D01*
X86614000Y-80391000D02*
X88265000Y-78740000D01*
X76200000Y-77457000D02*
X79134000Y-80391000D01*
X79134000Y-80391000D02*
X86614000Y-80391000D01*
X87062919Y-78740000D02*
X88265000Y-78740000D01*
X88138000Y-50800000D02*
X86935919Y-50800000D01*
X86935919Y-50800000D02*
X84963000Y-52772919D01*
X84963000Y-52772919D02*
X84963000Y-56769000D01*
X83185000Y-74862081D02*
X87062919Y-78740000D01*
X84963000Y-56769000D02*
X83185000Y-58547000D01*
X83185000Y-58547000D02*
X83185000Y-74862081D01*
%TD*%
D22*
%TO.N,GND*%
X86823519Y-40918109D02*
X86944186Y-41148000D01*
X88138000Y-41148000D01*
X88138000Y-41128000D01*
X88392000Y-41128000D01*
X88392000Y-41148000D01*
X90678000Y-41148000D01*
X90678000Y-41128000D01*
X90932000Y-41128000D01*
X90932000Y-41148000D01*
X93218000Y-41148000D01*
X93218000Y-41128000D01*
X93472000Y-41128000D01*
X93472000Y-41148000D01*
X95758000Y-41148000D01*
X95758000Y-41128000D01*
X96012000Y-41128000D01*
X96012000Y-41148000D01*
X98298000Y-41148000D01*
X98298000Y-41128000D01*
X98552000Y-41128000D01*
X98552000Y-41148000D01*
X98572000Y-41148000D01*
X98572000Y-41402000D01*
X98552000Y-41402000D01*
X98552000Y-41422000D01*
X98298000Y-41422000D01*
X98298000Y-41402000D01*
X96012000Y-41402000D01*
X96012000Y-41422000D01*
X95758000Y-41422000D01*
X95758000Y-41402000D01*
X93472000Y-41402000D01*
X93472000Y-41422000D01*
X93218000Y-41422000D01*
X93218000Y-41402000D01*
X90932000Y-41402000D01*
X90932000Y-41422000D01*
X90678000Y-41422000D01*
X90678000Y-41402000D01*
X88392000Y-41402000D01*
X88392000Y-41422000D01*
X88138000Y-41422000D01*
X88138000Y-41402000D01*
X86944186Y-41402000D01*
X86823519Y-41631891D01*
X86920843Y-41906252D01*
X87069822Y-42156355D01*
X87264731Y-42372588D01*
X87494406Y-42543900D01*
X87318368Y-42661525D01*
X87111525Y-42868368D01*
X86949010Y-43111589D01*
X86837068Y-43381842D01*
X86780000Y-43668740D01*
X86780000Y-43961260D01*
X86837068Y-44248158D01*
X86949010Y-44518411D01*
X87111525Y-44761632D01*
X87318368Y-44968475D01*
X87561589Y-45130990D01*
X87831842Y-45242932D01*
X88118740Y-45300000D01*
X88411260Y-45300000D01*
X88698158Y-45242932D01*
X88968411Y-45130990D01*
X89211632Y-44968475D01*
X89418475Y-44761632D01*
X89535000Y-44587240D01*
X89651525Y-44761632D01*
X89858368Y-44968475D01*
X90101589Y-45130990D01*
X90371842Y-45242932D01*
X90658740Y-45300000D01*
X90951260Y-45300000D01*
X91238158Y-45242932D01*
X91508411Y-45130990D01*
X91751632Y-44968475D01*
X91958475Y-44761632D01*
X92075000Y-44587240D01*
X92191525Y-44761632D01*
X92398368Y-44968475D01*
X92641589Y-45130990D01*
X92911842Y-45242932D01*
X93198740Y-45300000D01*
X93491260Y-45300000D01*
X93778158Y-45242932D01*
X94048411Y-45130990D01*
X94291632Y-44968475D01*
X94498475Y-44761632D01*
X94615000Y-44587240D01*
X94731525Y-44761632D01*
X94938368Y-44968475D01*
X95181589Y-45130990D01*
X95451842Y-45242932D01*
X95738740Y-45300000D01*
X96031260Y-45300000D01*
X96318158Y-45242932D01*
X96588411Y-45130990D01*
X96831632Y-44968475D01*
X96963487Y-44836620D01*
X96985498Y-44909180D01*
X97044463Y-45019494D01*
X97123815Y-45116185D01*
X97220506Y-45195537D01*
X97330820Y-45254502D01*
X97450518Y-45290812D01*
X97575000Y-45303072D01*
X99275000Y-45303072D01*
X99399482Y-45290812D01*
X99519180Y-45254502D01*
X99568000Y-45228407D01*
X99568000Y-49473222D01*
X99502494Y-49419463D01*
X99392180Y-49360498D01*
X99272482Y-49324188D01*
X99148000Y-49311928D01*
X97448000Y-49311928D01*
X97323518Y-49324188D01*
X97203820Y-49360498D01*
X97093506Y-49419463D01*
X96996815Y-49498815D01*
X96917463Y-49595506D01*
X96858498Y-49705820D01*
X96836487Y-49778380D01*
X96704632Y-49646525D01*
X96461411Y-49484010D01*
X96191158Y-49372068D01*
X95904260Y-49315000D01*
X95611740Y-49315000D01*
X95324842Y-49372068D01*
X95054589Y-49484010D01*
X94811368Y-49646525D01*
X94604525Y-49853368D01*
X94488000Y-50027760D01*
X94371475Y-49853368D01*
X94164632Y-49646525D01*
X93921411Y-49484010D01*
X93651158Y-49372068D01*
X93364260Y-49315000D01*
X93071740Y-49315000D01*
X92784842Y-49372068D01*
X92514589Y-49484010D01*
X92271368Y-49646525D01*
X92064525Y-49853368D01*
X91948000Y-50027760D01*
X91831475Y-49853368D01*
X91624632Y-49646525D01*
X91381411Y-49484010D01*
X91111158Y-49372068D01*
X90824260Y-49315000D01*
X90531740Y-49315000D01*
X90244842Y-49372068D01*
X89974589Y-49484010D01*
X89731368Y-49646525D01*
X89524525Y-49853368D01*
X89408000Y-50027760D01*
X89291475Y-49853368D01*
X89084632Y-49646525D01*
X88841411Y-49484010D01*
X88571158Y-49372068D01*
X88284260Y-49315000D01*
X87991740Y-49315000D01*
X87704842Y-49372068D01*
X87434589Y-49484010D01*
X87191368Y-49646525D01*
X86997893Y-49840000D01*
X86983079Y-49840000D01*
X86935919Y-49835355D01*
X86888759Y-49840000D01*
X86888757Y-49840000D01*
X86747726Y-49853890D01*
X86566765Y-49908784D01*
X86399990Y-49997927D01*
X86337156Y-50049494D01*
X86253812Y-50117893D01*
X86223748Y-50154526D01*
X84317531Y-52060744D01*
X84280893Y-52090812D01*
X84232358Y-52149952D01*
X84182185Y-52088815D01*
X84085494Y-52009463D01*
X83975180Y-51950498D01*
X83855482Y-51914188D01*
X83731000Y-51901928D01*
X83216750Y-51905000D01*
X83058000Y-52063750D01*
X83058000Y-53213000D01*
X83078000Y-53213000D01*
X83078000Y-53467000D01*
X83058000Y-53467000D01*
X83058000Y-53487000D01*
X82804000Y-53487000D01*
X82804000Y-53467000D01*
X82784000Y-53467000D01*
X82784000Y-53213000D01*
X82804000Y-53213000D01*
X82804000Y-52063750D01*
X82645250Y-51905000D01*
X82131000Y-51901928D01*
X82006518Y-51914188D01*
X81886820Y-51950498D01*
X81776506Y-52009463D01*
X81679815Y-52088815D01*
X81600463Y-52185506D01*
X81541498Y-52295820D01*
X81505188Y-52415518D01*
X81492928Y-52540000D01*
X81496000Y-53054250D01*
X81654748Y-53212998D01*
X81616641Y-53212998D01*
X78096000Y-49692358D01*
X78096000Y-48095000D01*
X81492928Y-48095000D01*
X81492928Y-49695000D01*
X81505188Y-49819482D01*
X81541498Y-49939180D01*
X81600463Y-50049494D01*
X81679815Y-50146185D01*
X81776506Y-50225537D01*
X81886820Y-50284502D01*
X82006518Y-50320812D01*
X82131000Y-50333072D01*
X83731000Y-50333072D01*
X83855482Y-50320812D01*
X83975180Y-50284502D01*
X84085494Y-50225537D01*
X84182185Y-50146185D01*
X84261537Y-50049494D01*
X84320502Y-49939180D01*
X84356812Y-49819482D01*
X84369072Y-49695000D01*
X84369072Y-48095000D01*
X84356812Y-47970518D01*
X84320502Y-47850820D01*
X84261537Y-47740506D01*
X84182185Y-47643815D01*
X84085494Y-47564463D01*
X83975180Y-47505498D01*
X83855482Y-47469188D01*
X83731000Y-47456928D01*
X83723785Y-47456928D01*
X83744097Y-47387702D01*
X82931000Y-46574605D01*
X82117903Y-47387702D01*
X82138215Y-47456928D01*
X82131000Y-47456928D01*
X82006518Y-47469188D01*
X81886820Y-47505498D01*
X81776506Y-47564463D01*
X81679815Y-47643815D01*
X81600463Y-47740506D01*
X81541498Y-47850820D01*
X81505188Y-47970518D01*
X81492928Y-48095000D01*
X78096000Y-48095000D01*
X78096000Y-46465512D01*
X81490783Y-46465512D01*
X81532213Y-46745130D01*
X81627397Y-47011292D01*
X81694329Y-47136514D01*
X81938298Y-47208097D01*
X82751395Y-46395000D01*
X83110605Y-46395000D01*
X83923702Y-47208097D01*
X84167671Y-47136514D01*
X84288571Y-46881004D01*
X84357300Y-46606816D01*
X84371217Y-46324488D01*
X84329787Y-46044870D01*
X84234603Y-45778708D01*
X84167671Y-45653486D01*
X83923702Y-45581903D01*
X83110605Y-46395000D01*
X82751395Y-46395000D01*
X81938298Y-45581903D01*
X81694329Y-45653486D01*
X81573429Y-45908996D01*
X81504700Y-46183184D01*
X81490783Y-46465512D01*
X78096000Y-46465512D01*
X78096000Y-45402298D01*
X82117903Y-45402298D01*
X82931000Y-46215395D01*
X83744097Y-45402298D01*
X83672514Y-45158329D01*
X83417004Y-45037429D01*
X83142816Y-44968700D01*
X82860488Y-44954783D01*
X82580870Y-44996213D01*
X82314708Y-45091397D01*
X82189486Y-45158329D01*
X82117903Y-45402298D01*
X78096000Y-45402298D01*
X78096000Y-44565209D01*
X78191134Y-44487134D01*
X78376706Y-44261014D01*
X78514599Y-44003033D01*
X78599513Y-43723110D01*
X78621000Y-43504949D01*
X78621000Y-43109050D01*
X78599513Y-42890889D01*
X78514599Y-42610966D01*
X78376706Y-42352986D01*
X78191134Y-42126866D01*
X77965013Y-41941294D01*
X77707033Y-41803401D01*
X77427110Y-41718487D01*
X77136000Y-41689815D01*
X76844889Y-41718487D01*
X76564966Y-41803401D01*
X76306986Y-41941294D01*
X76080866Y-42126866D01*
X75895294Y-42352987D01*
X75881538Y-42378722D01*
X75725049Y-42172571D01*
X75507193Y-41979504D01*
X75255858Y-41832648D01*
X74992890Y-41740524D01*
X74763000Y-41861845D01*
X74763000Y-43180000D01*
X74783000Y-43180000D01*
X74783000Y-43434000D01*
X74763000Y-43434000D01*
X74763000Y-44752155D01*
X74992890Y-44873476D01*
X75255858Y-44781352D01*
X75507193Y-44634496D01*
X75725049Y-44441429D01*
X75881538Y-44235278D01*
X75895294Y-44261014D01*
X76080866Y-44487134D01*
X76176000Y-44565208D01*
X76176001Y-50042840D01*
X76171356Y-50090002D01*
X76189891Y-50278194D01*
X76244784Y-50459155D01*
X76333927Y-50625930D01*
X76423829Y-50735475D01*
X76453894Y-50772109D01*
X76490527Y-50802173D01*
X81496000Y-55807647D01*
X81496000Y-55917355D01*
X76789018Y-60624337D01*
X76801611Y-60383469D01*
X76759599Y-60093981D01*
X76661919Y-59818253D01*
X76588472Y-59680843D01*
X76339397Y-59603208D01*
X75490605Y-60452000D01*
X75504748Y-60466143D01*
X75325143Y-60645748D01*
X75311000Y-60631605D01*
X74462208Y-61480397D01*
X74480293Y-61538420D01*
X74371150Y-61571528D01*
X74217614Y-61653595D01*
X74083038Y-61764038D01*
X73972595Y-61898614D01*
X73904715Y-62025608D01*
X73717632Y-61838525D01*
X73544271Y-61722689D01*
X73619792Y-61480397D01*
X72771000Y-60631605D01*
X71922208Y-61480397D01*
X71997729Y-61722689D01*
X71824368Y-61838525D01*
X71617525Y-62045368D01*
X71455010Y-62288589D01*
X71343068Y-62558842D01*
X71286000Y-62845740D01*
X71286000Y-63138260D01*
X71343068Y-63425158D01*
X71455010Y-63695411D01*
X71617525Y-63938632D01*
X71824368Y-64145475D01*
X72067589Y-64307990D01*
X72337842Y-64419932D01*
X72446000Y-64441446D01*
X72446001Y-70747620D01*
X72356927Y-70674519D01*
X72090261Y-70531983D01*
X71800913Y-70444210D01*
X71500000Y-70414573D01*
X71199088Y-70444210D01*
X70909740Y-70531983D01*
X70643074Y-70674519D01*
X70409340Y-70866339D01*
X70217520Y-71100073D01*
X70074984Y-71366739D01*
X69987210Y-71656087D01*
X69965000Y-71881592D01*
X69965000Y-73432407D01*
X69987210Y-73657912D01*
X70074983Y-73947260D01*
X70217519Y-74213926D01*
X70409339Y-74447661D01*
X70643073Y-74639481D01*
X70909739Y-74782017D01*
X71199087Y-74869790D01*
X71500000Y-74899427D01*
X71800912Y-74869790D01*
X72090260Y-74782017D01*
X72356926Y-74639481D01*
X72446001Y-74566380D01*
X72446001Y-75153354D01*
X72205680Y-75393676D01*
X72090261Y-75331983D01*
X71800913Y-75244210D01*
X71500000Y-75214573D01*
X71199088Y-75244210D01*
X70909740Y-75331983D01*
X70643074Y-75474519D01*
X70409340Y-75666339D01*
X70217520Y-75900073D01*
X70074984Y-76166739D01*
X69987210Y-76456087D01*
X69965000Y-76681592D01*
X69965000Y-78232407D01*
X69987210Y-78457912D01*
X70074983Y-78747260D01*
X70217519Y-79013926D01*
X70409339Y-79247661D01*
X70643073Y-79439481D01*
X70909739Y-79582017D01*
X71199087Y-79669790D01*
X71500000Y-79699427D01*
X71800912Y-79669790D01*
X72090260Y-79582017D01*
X72356926Y-79439481D01*
X72590661Y-79247661D01*
X72782481Y-79013927D01*
X72925017Y-78747261D01*
X73012790Y-78457913D01*
X73035000Y-78232408D01*
X73035000Y-77279644D01*
X74051474Y-76263171D01*
X74088107Y-76233107D01*
X74148177Y-76159912D01*
X74208073Y-76086929D01*
X74297216Y-75920154D01*
X74352110Y-75739193D01*
X74366000Y-75598162D01*
X74366000Y-75598153D01*
X74370644Y-75551001D01*
X74366000Y-75503849D01*
X74366000Y-71881592D01*
X74665000Y-71881592D01*
X74665000Y-73432407D01*
X74687210Y-73657912D01*
X74774983Y-73947260D01*
X74917519Y-74213926D01*
X75109339Y-74447661D01*
X75343073Y-74639481D01*
X75609739Y-74782017D01*
X75899087Y-74869790D01*
X76200000Y-74899427D01*
X76500912Y-74869790D01*
X76790260Y-74782017D01*
X77056926Y-74639481D01*
X77290661Y-74447661D01*
X77482481Y-74213927D01*
X77625017Y-73947261D01*
X77712790Y-73657913D01*
X77735000Y-73432408D01*
X77735000Y-71881592D01*
X77712790Y-71656087D01*
X77625017Y-71366739D01*
X77482481Y-71100073D01*
X77290661Y-70866339D01*
X77056927Y-70674519D01*
X76790261Y-70531983D01*
X76500913Y-70444210D01*
X76200000Y-70414573D01*
X75899088Y-70444210D01*
X75609740Y-70531983D01*
X75343074Y-70674519D01*
X75109340Y-70866339D01*
X74917520Y-71100073D01*
X74774984Y-71366739D01*
X74687210Y-71656087D01*
X74665000Y-71881592D01*
X74366000Y-71881592D01*
X74366000Y-64409719D01*
X74371150Y-64412472D01*
X74537746Y-64463008D01*
X74711000Y-64480072D01*
X75911000Y-64480072D01*
X76084254Y-64463008D01*
X76250850Y-64412472D01*
X76404386Y-64330405D01*
X76538962Y-64219962D01*
X76649405Y-64085386D01*
X76731472Y-63931850D01*
X76782008Y-63765254D01*
X76799072Y-63592000D01*
X76799072Y-63329572D01*
X80311643Y-59817002D01*
X80390375Y-59817002D01*
X80269091Y-60039040D01*
X80363930Y-60303881D01*
X80508615Y-60545131D01*
X80697586Y-60753519D01*
X80923580Y-60921037D01*
X81177913Y-61041246D01*
X81311961Y-61081904D01*
X81534000Y-60959915D01*
X81534000Y-59817000D01*
X81514000Y-59817000D01*
X81514000Y-59563000D01*
X81534000Y-59563000D01*
X81534000Y-59543000D01*
X81788000Y-59543000D01*
X81788000Y-59563000D01*
X81808000Y-59563000D01*
X81808000Y-59817000D01*
X81788000Y-59817000D01*
X81788000Y-60959915D01*
X82010039Y-61081904D01*
X82144087Y-61041246D01*
X82225000Y-61003003D01*
X82225000Y-65990385D01*
X82079574Y-65930147D01*
X81802335Y-65875000D01*
X81519665Y-65875000D01*
X81242426Y-65930147D01*
X80981273Y-66038320D01*
X80746241Y-66195363D01*
X80546363Y-66395241D01*
X80389320Y-66630273D01*
X80281147Y-66891426D01*
X80226000Y-67168665D01*
X80226000Y-67451335D01*
X80281147Y-67728574D01*
X80389320Y-67989727D01*
X80546363Y-68224759D01*
X80746241Y-68424637D01*
X80981273Y-68581680D01*
X81242426Y-68689853D01*
X81519665Y-68745000D01*
X81802335Y-68745000D01*
X82079574Y-68689853D01*
X82225001Y-68629615D01*
X82225001Y-71179622D01*
X82182481Y-71100073D01*
X81990661Y-70866339D01*
X81756927Y-70674519D01*
X81490261Y-70531983D01*
X81200913Y-70444210D01*
X80900000Y-70414573D01*
X80599088Y-70444210D01*
X80309740Y-70531983D01*
X80043074Y-70674519D01*
X79809340Y-70866339D01*
X79617520Y-71100073D01*
X79474984Y-71366739D01*
X79387210Y-71656087D01*
X79365000Y-71881592D01*
X79365000Y-73432407D01*
X79387210Y-73657912D01*
X79474983Y-73947260D01*
X79617519Y-74213926D01*
X79809339Y-74447661D01*
X80043073Y-74639481D01*
X80309739Y-74782017D01*
X80599087Y-74869790D01*
X80900000Y-74899427D01*
X81200912Y-74869790D01*
X81490260Y-74782017D01*
X81756926Y-74639481D01*
X81990661Y-74447661D01*
X82182481Y-74213927D01*
X82225001Y-74134378D01*
X82225001Y-74814919D01*
X82220356Y-74862081D01*
X82238891Y-75050273D01*
X82293784Y-75231234D01*
X82382927Y-75398009D01*
X82445718Y-75474519D01*
X82502894Y-75544188D01*
X82539526Y-75574252D01*
X86306315Y-79341041D01*
X86216356Y-79431000D01*
X81767260Y-79431000D01*
X81990661Y-79247661D01*
X82182481Y-79013927D01*
X82325017Y-78747261D01*
X82412790Y-78457913D01*
X82435000Y-78232408D01*
X82435000Y-76681592D01*
X82412790Y-76456087D01*
X82325017Y-76166739D01*
X82182481Y-75900073D01*
X81990661Y-75666339D01*
X81756927Y-75474519D01*
X81490261Y-75331983D01*
X81200913Y-75244210D01*
X80900000Y-75214573D01*
X80599088Y-75244210D01*
X80309740Y-75331983D01*
X80043074Y-75474519D01*
X79809340Y-75666339D01*
X79617520Y-75900073D01*
X79474984Y-76166739D01*
X79387210Y-76456087D01*
X79365000Y-76681592D01*
X79365000Y-78232407D01*
X79387210Y-78457912D01*
X79474983Y-78747260D01*
X79617519Y-79013926D01*
X79809339Y-79247661D01*
X80032739Y-79431000D01*
X79531645Y-79431000D01*
X77735000Y-77634356D01*
X77735000Y-76681592D01*
X77712790Y-76456087D01*
X77625017Y-76166739D01*
X77482481Y-75900073D01*
X77290661Y-75666339D01*
X77056927Y-75474519D01*
X76790261Y-75331983D01*
X76500913Y-75244210D01*
X76200000Y-75214573D01*
X75899088Y-75244210D01*
X75609740Y-75331983D01*
X75343074Y-75474519D01*
X75109340Y-75666339D01*
X74917520Y-75900073D01*
X74774984Y-76166739D01*
X74687210Y-76456087D01*
X74665000Y-76681592D01*
X74665000Y-78232407D01*
X74687210Y-78457912D01*
X74774983Y-78747260D01*
X74917519Y-79013926D01*
X75109339Y-79247661D01*
X75240000Y-79354892D01*
X75240001Y-83295354D01*
X74729427Y-83805928D01*
X73649000Y-83805928D01*
X73524518Y-83818188D01*
X73404820Y-83854498D01*
X73294506Y-83913463D01*
X73197815Y-83992815D01*
X73118463Y-84089506D01*
X73059498Y-84199820D01*
X73053944Y-84218127D01*
X72987505Y-84151688D01*
X72736095Y-83983701D01*
X72456743Y-83867989D01*
X72160184Y-83809000D01*
X71857816Y-83809000D01*
X71561257Y-83867989D01*
X71281905Y-83983701D01*
X71030495Y-84151688D01*
X70816688Y-84365495D01*
X70648701Y-84616905D01*
X70532989Y-84896257D01*
X70474000Y-85192816D01*
X70474000Y-85495184D01*
X70532989Y-85791743D01*
X70648701Y-86071095D01*
X70816688Y-86322505D01*
X71030495Y-86536312D01*
X71281905Y-86704299D01*
X71561257Y-86820011D01*
X71857816Y-86879000D01*
X72160184Y-86879000D01*
X72456743Y-86820011D01*
X72736095Y-86704299D01*
X72987505Y-86536312D01*
X73053944Y-86469873D01*
X73059498Y-86488180D01*
X73118463Y-86598494D01*
X73197815Y-86695185D01*
X73294506Y-86774537D01*
X73404820Y-86833502D01*
X73524518Y-86869812D01*
X73649000Y-86882072D01*
X75449000Y-86882072D01*
X75573482Y-86869812D01*
X75693180Y-86833502D01*
X75803494Y-86774537D01*
X75900185Y-86695185D01*
X75979537Y-86598494D01*
X76038502Y-86488180D01*
X76074812Y-86368482D01*
X76087072Y-86244000D01*
X76087072Y-86227297D01*
X76150688Y-86322505D01*
X76364495Y-86536312D01*
X76615905Y-86704299D01*
X76895257Y-86820011D01*
X77191816Y-86879000D01*
X77494184Y-86879000D01*
X77790743Y-86820011D01*
X78070095Y-86704299D01*
X78321505Y-86536312D01*
X78387944Y-86469873D01*
X78393498Y-86488180D01*
X78452463Y-86598494D01*
X78531815Y-86695185D01*
X78628506Y-86774537D01*
X78738820Y-86833502D01*
X78858518Y-86869812D01*
X78983000Y-86882072D01*
X79597250Y-86879000D01*
X79756000Y-86720250D01*
X79756000Y-85471000D01*
X80010000Y-85471000D01*
X80010000Y-86720250D01*
X80168750Y-86879000D01*
X80783000Y-86882072D01*
X80907482Y-86869812D01*
X81027180Y-86833502D01*
X81137494Y-86774537D01*
X81234185Y-86695185D01*
X81313537Y-86598494D01*
X81372502Y-86488180D01*
X81408812Y-86368482D01*
X81421072Y-86244000D01*
X81418000Y-85629750D01*
X81259250Y-85471000D01*
X80010000Y-85471000D01*
X79756000Y-85471000D01*
X79736000Y-85471000D01*
X79736000Y-85368109D01*
X86823519Y-85368109D01*
X86944186Y-85598000D01*
X88138000Y-85598000D01*
X88138000Y-84404845D01*
X88392000Y-84404845D01*
X88392000Y-85598000D01*
X90678000Y-85598000D01*
X90678000Y-84404845D01*
X90932000Y-84404845D01*
X90932000Y-85598000D01*
X93218000Y-85598000D01*
X93218000Y-84404845D01*
X93472000Y-84404845D01*
X93472000Y-85598000D01*
X95758000Y-85598000D01*
X95758000Y-84404845D01*
X96012000Y-84404845D01*
X96012000Y-85598000D01*
X98298000Y-85598000D01*
X98298000Y-84404845D01*
X98068110Y-84283524D01*
X97920901Y-84328175D01*
X97658080Y-84453359D01*
X97424731Y-84627412D01*
X97229822Y-84843645D01*
X97155000Y-84969255D01*
X97080178Y-84843645D01*
X96885269Y-84627412D01*
X96651920Y-84453359D01*
X96389099Y-84328175D01*
X96241890Y-84283524D01*
X96012000Y-84404845D01*
X95758000Y-84404845D01*
X95528110Y-84283524D01*
X95380901Y-84328175D01*
X95118080Y-84453359D01*
X94884731Y-84627412D01*
X94689822Y-84843645D01*
X94615000Y-84969255D01*
X94540178Y-84843645D01*
X94345269Y-84627412D01*
X94111920Y-84453359D01*
X93849099Y-84328175D01*
X93701890Y-84283524D01*
X93472000Y-84404845D01*
X93218000Y-84404845D01*
X92988110Y-84283524D01*
X92840901Y-84328175D01*
X92578080Y-84453359D01*
X92344731Y-84627412D01*
X92149822Y-84843645D01*
X92075000Y-84969255D01*
X92000178Y-84843645D01*
X91805269Y-84627412D01*
X91571920Y-84453359D01*
X91309099Y-84328175D01*
X91161890Y-84283524D01*
X90932000Y-84404845D01*
X90678000Y-84404845D01*
X90448110Y-84283524D01*
X90300901Y-84328175D01*
X90038080Y-84453359D01*
X89804731Y-84627412D01*
X89609822Y-84843645D01*
X89535000Y-84969255D01*
X89460178Y-84843645D01*
X89265269Y-84627412D01*
X89031920Y-84453359D01*
X88769099Y-84328175D01*
X88621890Y-84283524D01*
X88392000Y-84404845D01*
X88138000Y-84404845D01*
X87908110Y-84283524D01*
X87760901Y-84328175D01*
X87498080Y-84453359D01*
X87264731Y-84627412D01*
X87069822Y-84843645D01*
X86920843Y-85093748D01*
X86823519Y-85368109D01*
X79736000Y-85368109D01*
X79736000Y-85217000D01*
X79756000Y-85217000D01*
X79756000Y-83967750D01*
X80010000Y-83967750D01*
X80010000Y-85217000D01*
X81259250Y-85217000D01*
X81418000Y-85058250D01*
X81421072Y-84444000D01*
X81408812Y-84319518D01*
X81372502Y-84199820D01*
X81313537Y-84089506D01*
X81234185Y-83992815D01*
X81137494Y-83913463D01*
X81027180Y-83854498D01*
X80907482Y-83818188D01*
X80783000Y-83805928D01*
X80168750Y-83809000D01*
X80010000Y-83967750D01*
X79756000Y-83967750D01*
X79597250Y-83809000D01*
X78983000Y-83805928D01*
X78858518Y-83818188D01*
X78738820Y-83854498D01*
X78628506Y-83913463D01*
X78531815Y-83992815D01*
X78452463Y-84089506D01*
X78393498Y-84199820D01*
X78387944Y-84218127D01*
X78321505Y-84151688D01*
X78070095Y-83983701D01*
X77790743Y-83867989D01*
X77494184Y-83809000D01*
X77191816Y-83809000D01*
X77152449Y-83816831D01*
X77160000Y-83740162D01*
X77160000Y-83740160D01*
X77164645Y-83693000D01*
X77160000Y-83645840D01*
X77160000Y-79774645D01*
X78421829Y-81036474D01*
X78451893Y-81073107D01*
X78598072Y-81193073D01*
X78764846Y-81282216D01*
X78945807Y-81337110D01*
X79086838Y-81351000D01*
X79086840Y-81351000D01*
X79134000Y-81355645D01*
X79181160Y-81351000D01*
X86566848Y-81351000D01*
X86614000Y-81355644D01*
X86661152Y-81351000D01*
X86661162Y-81351000D01*
X86802193Y-81337110D01*
X86983154Y-81282216D01*
X87149928Y-81193073D01*
X87296107Y-81073107D01*
X87326175Y-81036469D01*
X88137645Y-80225000D01*
X88411260Y-80225000D01*
X88698158Y-80167932D01*
X88968411Y-80055990D01*
X89211632Y-79893475D01*
X89405107Y-79700000D01*
X89664893Y-79700000D01*
X89858368Y-79893475D01*
X90101589Y-80055990D01*
X90371842Y-80167932D01*
X90658740Y-80225000D01*
X90951260Y-80225000D01*
X91238158Y-80167932D01*
X91508411Y-80055990D01*
X91751632Y-79893475D01*
X91945107Y-79700000D01*
X92204893Y-79700000D01*
X92398368Y-79893475D01*
X92641589Y-80055990D01*
X92911842Y-80167932D01*
X93198740Y-80225000D01*
X93491260Y-80225000D01*
X93778158Y-80167932D01*
X94048411Y-80055990D01*
X94291632Y-79893475D01*
X94485107Y-79700000D01*
X94744893Y-79700000D01*
X94938368Y-79893475D01*
X95181589Y-80055990D01*
X95451842Y-80167932D01*
X95738740Y-80225000D01*
X96031260Y-80225000D01*
X96318158Y-80167932D01*
X96588411Y-80055990D01*
X96831632Y-79893475D01*
X96963487Y-79761620D01*
X96985498Y-79834180D01*
X97044463Y-79944494D01*
X97123815Y-80041185D01*
X97220506Y-80120537D01*
X97330820Y-80179502D01*
X97450518Y-80215812D01*
X97575000Y-80228072D01*
X99275000Y-80228072D01*
X99399482Y-80215812D01*
X99519180Y-80179502D01*
X99568000Y-80153407D01*
X99568000Y-84785758D01*
X99425269Y-84627412D01*
X99191920Y-84453359D01*
X98929099Y-84328175D01*
X98781890Y-84283524D01*
X98552000Y-84404845D01*
X98552000Y-85598000D01*
X98572000Y-85598000D01*
X98572000Y-85852000D01*
X98552000Y-85852000D01*
X98552000Y-85872000D01*
X98298000Y-85872000D01*
X98298000Y-85852000D01*
X96012000Y-85852000D01*
X96012000Y-85872000D01*
X95758000Y-85872000D01*
X95758000Y-85852000D01*
X93472000Y-85852000D01*
X93472000Y-85872000D01*
X93218000Y-85872000D01*
X93218000Y-85852000D01*
X90932000Y-85852000D01*
X90932000Y-85872000D01*
X90678000Y-85872000D01*
X90678000Y-85852000D01*
X88392000Y-85852000D01*
X88392000Y-85872000D01*
X88138000Y-85872000D01*
X88138000Y-85852000D01*
X86944186Y-85852000D01*
X86823519Y-86081891D01*
X86920843Y-86356252D01*
X87069822Y-86606355D01*
X87264731Y-86822588D01*
X87494406Y-86993900D01*
X87318368Y-87111525D01*
X87111525Y-87318368D01*
X86949010Y-87561589D01*
X86837068Y-87831842D01*
X86780000Y-88118740D01*
X86780000Y-88411260D01*
X86837068Y-88698158D01*
X86868068Y-88773000D01*
X69342000Y-88773000D01*
X69342000Y-60520531D01*
X71280389Y-60520531D01*
X71322401Y-60810019D01*
X71420081Y-61085747D01*
X71493528Y-61223157D01*
X71742603Y-61300792D01*
X72591395Y-60452000D01*
X72950605Y-60452000D01*
X73799397Y-61300792D01*
X74041000Y-61225486D01*
X74282603Y-61300792D01*
X75131395Y-60452000D01*
X74282603Y-59603208D01*
X74041000Y-59678514D01*
X73799397Y-59603208D01*
X72950605Y-60452000D01*
X72591395Y-60452000D01*
X71742603Y-59603208D01*
X71493528Y-59680843D01*
X71367629Y-59944883D01*
X71295661Y-60228411D01*
X71280389Y-60520531D01*
X69342000Y-60520531D01*
X69342000Y-58940397D01*
X71922208Y-58940397D01*
X71997514Y-59182000D01*
X71922208Y-59423603D01*
X72771000Y-60272395D01*
X73619792Y-59423603D01*
X73544486Y-59182000D01*
X73619792Y-58940397D01*
X74462208Y-58940397D01*
X74537514Y-59182000D01*
X74462208Y-59423603D01*
X75311000Y-60272395D01*
X76159792Y-59423603D01*
X76084486Y-59182000D01*
X76159792Y-58940397D01*
X75311000Y-58091605D01*
X74462208Y-58940397D01*
X73619792Y-58940397D01*
X72771000Y-58091605D01*
X71922208Y-58940397D01*
X69342000Y-58940397D01*
X69342000Y-57980531D01*
X71280389Y-57980531D01*
X71322401Y-58270019D01*
X71420081Y-58545747D01*
X71493528Y-58683157D01*
X71742603Y-58760792D01*
X72591395Y-57912000D01*
X72950605Y-57912000D01*
X73799397Y-58760792D01*
X74041000Y-58685486D01*
X74282603Y-58760792D01*
X75131395Y-57912000D01*
X75490605Y-57912000D01*
X76339397Y-58760792D01*
X76588472Y-58683157D01*
X76714371Y-58419117D01*
X76786339Y-58135589D01*
X76801611Y-57843469D01*
X76759599Y-57553981D01*
X76661919Y-57278253D01*
X76588472Y-57140843D01*
X76339397Y-57063208D01*
X75490605Y-57912000D01*
X75131395Y-57912000D01*
X74282603Y-57063208D01*
X74041000Y-57138514D01*
X73799397Y-57063208D01*
X72950605Y-57912000D01*
X72591395Y-57912000D01*
X71742603Y-57063208D01*
X71493528Y-57140843D01*
X71367629Y-57404883D01*
X71295661Y-57688411D01*
X71280389Y-57980531D01*
X69342000Y-57980531D01*
X69342000Y-56400397D01*
X71922208Y-56400397D01*
X71997514Y-56642000D01*
X71922208Y-56883603D01*
X72771000Y-57732395D01*
X73619792Y-56883603D01*
X73544486Y-56642000D01*
X73619792Y-56400397D01*
X74462208Y-56400397D01*
X74537514Y-56642000D01*
X74462208Y-56883603D01*
X75311000Y-57732395D01*
X76159792Y-56883603D01*
X76084486Y-56642000D01*
X76159792Y-56400397D01*
X75311000Y-55551605D01*
X74462208Y-56400397D01*
X73619792Y-56400397D01*
X72771000Y-55551605D01*
X71922208Y-56400397D01*
X69342000Y-56400397D01*
X69342000Y-55440531D01*
X71280389Y-55440531D01*
X71322401Y-55730019D01*
X71420081Y-56005747D01*
X71493528Y-56143157D01*
X71742603Y-56220792D01*
X72591395Y-55372000D01*
X72950605Y-55372000D01*
X73799397Y-56220792D01*
X74041000Y-56145486D01*
X74282603Y-56220792D01*
X75131395Y-55372000D01*
X75490605Y-55372000D01*
X76339397Y-56220792D01*
X76588472Y-56143157D01*
X76714371Y-55879117D01*
X76786339Y-55595589D01*
X76801611Y-55303469D01*
X76759599Y-55013981D01*
X76661919Y-54738253D01*
X76588472Y-54600843D01*
X76339397Y-54523208D01*
X75490605Y-55372000D01*
X75131395Y-55372000D01*
X74282603Y-54523208D01*
X74041000Y-54598514D01*
X73799397Y-54523208D01*
X72950605Y-55372000D01*
X72591395Y-55372000D01*
X71742603Y-54523208D01*
X71493528Y-54600843D01*
X71367629Y-54864883D01*
X71295661Y-55148411D01*
X71280389Y-55440531D01*
X69342000Y-55440531D01*
X69342000Y-52685740D01*
X71286000Y-52685740D01*
X71286000Y-52978260D01*
X71343068Y-53265158D01*
X71455010Y-53535411D01*
X71617525Y-53778632D01*
X71824368Y-53985475D01*
X71997729Y-54101311D01*
X71922208Y-54343603D01*
X72771000Y-55192395D01*
X73619792Y-54343603D01*
X73544271Y-54101311D01*
X73717632Y-53985475D01*
X73924475Y-53778632D01*
X74041000Y-53604240D01*
X74157525Y-53778632D01*
X74364368Y-53985475D01*
X74537729Y-54101311D01*
X74462208Y-54343603D01*
X75311000Y-55192395D01*
X76159792Y-54343603D01*
X76084271Y-54101311D01*
X76257632Y-53985475D01*
X76464475Y-53778632D01*
X76626990Y-53535411D01*
X76738932Y-53265158D01*
X76796000Y-52978260D01*
X76796000Y-52685740D01*
X76738932Y-52398842D01*
X76626990Y-52128589D01*
X76464475Y-51885368D01*
X76257632Y-51678525D01*
X76014411Y-51516010D01*
X75744158Y-51404068D01*
X75457260Y-51347000D01*
X75164740Y-51347000D01*
X74877842Y-51404068D01*
X74607589Y-51516010D01*
X74364368Y-51678525D01*
X74157525Y-51885368D01*
X74041000Y-52059760D01*
X73924475Y-51885368D01*
X73717632Y-51678525D01*
X73474411Y-51516010D01*
X73204158Y-51404068D01*
X72917260Y-51347000D01*
X72624740Y-51347000D01*
X72337842Y-51404068D01*
X72067589Y-51516010D01*
X71824368Y-51678525D01*
X71617525Y-51885368D01*
X71455010Y-52128589D01*
X71343068Y-52398842D01*
X71286000Y-52685740D01*
X69342000Y-52685740D01*
X69342000Y-42582000D01*
X70647928Y-42582000D01*
X70647928Y-44032000D01*
X70664992Y-44205254D01*
X70715528Y-44371850D01*
X70797595Y-44525386D01*
X70908038Y-44659962D01*
X71042614Y-44770405D01*
X71196150Y-44852472D01*
X71362746Y-44903008D01*
X71536000Y-44920072D01*
X72736000Y-44920072D01*
X72909254Y-44903008D01*
X73075850Y-44852472D01*
X73229386Y-44770405D01*
X73363962Y-44659962D01*
X73474405Y-44525386D01*
X73530714Y-44420039D01*
X73546951Y-44441429D01*
X73764807Y-44634496D01*
X74016142Y-44781352D01*
X74279110Y-44873476D01*
X74509000Y-44752155D01*
X74509000Y-43434000D01*
X74489000Y-43434000D01*
X74489000Y-43180000D01*
X74509000Y-43180000D01*
X74509000Y-41861845D01*
X74279110Y-41740524D01*
X74016142Y-41832648D01*
X73764807Y-41979504D01*
X73546951Y-42172571D01*
X73530714Y-42193961D01*
X73474405Y-42088614D01*
X73363962Y-41954038D01*
X73229386Y-41843595D01*
X73075850Y-41761528D01*
X72909254Y-41710992D01*
X72736000Y-41693928D01*
X71536000Y-41693928D01*
X71362746Y-41710992D01*
X71196150Y-41761528D01*
X71042614Y-41843595D01*
X70908038Y-41954038D01*
X70797595Y-42088614D01*
X70715528Y-42242150D01*
X70664992Y-42408746D01*
X70647928Y-42582000D01*
X69342000Y-42582000D01*
X69342000Y-40767000D01*
X86877122Y-40767000D01*
X86823519Y-40918109D01*
%TA.AperFunction,Conductor*%
D23*
G36*
X86823519Y-40918109D02*
G01*
X86944186Y-41148000D01*
X88138000Y-41148000D01*
X88138000Y-41128000D01*
X88392000Y-41128000D01*
X88392000Y-41148000D01*
X90678000Y-41148000D01*
X90678000Y-41128000D01*
X90932000Y-41128000D01*
X90932000Y-41148000D01*
X93218000Y-41148000D01*
X93218000Y-41128000D01*
X93472000Y-41128000D01*
X93472000Y-41148000D01*
X95758000Y-41148000D01*
X95758000Y-41128000D01*
X96012000Y-41128000D01*
X96012000Y-41148000D01*
X98298000Y-41148000D01*
X98298000Y-41128000D01*
X98552000Y-41128000D01*
X98552000Y-41148000D01*
X98572000Y-41148000D01*
X98572000Y-41402000D01*
X98552000Y-41402000D01*
X98552000Y-41422000D01*
X98298000Y-41422000D01*
X98298000Y-41402000D01*
X96012000Y-41402000D01*
X96012000Y-41422000D01*
X95758000Y-41422000D01*
X95758000Y-41402000D01*
X93472000Y-41402000D01*
X93472000Y-41422000D01*
X93218000Y-41422000D01*
X93218000Y-41402000D01*
X90932000Y-41402000D01*
X90932000Y-41422000D01*
X90678000Y-41422000D01*
X90678000Y-41402000D01*
X88392000Y-41402000D01*
X88392000Y-41422000D01*
X88138000Y-41422000D01*
X88138000Y-41402000D01*
X86944186Y-41402000D01*
X86823519Y-41631891D01*
X86920843Y-41906252D01*
X87069822Y-42156355D01*
X87264731Y-42372588D01*
X87494406Y-42543900D01*
X87318368Y-42661525D01*
X87111525Y-42868368D01*
X86949010Y-43111589D01*
X86837068Y-43381842D01*
X86780000Y-43668740D01*
X86780000Y-43961260D01*
X86837068Y-44248158D01*
X86949010Y-44518411D01*
X87111525Y-44761632D01*
X87318368Y-44968475D01*
X87561589Y-45130990D01*
X87831842Y-45242932D01*
X88118740Y-45300000D01*
X88411260Y-45300000D01*
X88698158Y-45242932D01*
X88968411Y-45130990D01*
X89211632Y-44968475D01*
X89418475Y-44761632D01*
X89535000Y-44587240D01*
X89651525Y-44761632D01*
X89858368Y-44968475D01*
X90101589Y-45130990D01*
X90371842Y-45242932D01*
X90658740Y-45300000D01*
X90951260Y-45300000D01*
X91238158Y-45242932D01*
X91508411Y-45130990D01*
X91751632Y-44968475D01*
X91958475Y-44761632D01*
X92075000Y-44587240D01*
X92191525Y-44761632D01*
X92398368Y-44968475D01*
X92641589Y-45130990D01*
X92911842Y-45242932D01*
X93198740Y-45300000D01*
X93491260Y-45300000D01*
X93778158Y-45242932D01*
X94048411Y-45130990D01*
X94291632Y-44968475D01*
X94498475Y-44761632D01*
X94615000Y-44587240D01*
X94731525Y-44761632D01*
X94938368Y-44968475D01*
X95181589Y-45130990D01*
X95451842Y-45242932D01*
X95738740Y-45300000D01*
X96031260Y-45300000D01*
X96318158Y-45242932D01*
X96588411Y-45130990D01*
X96831632Y-44968475D01*
X96963487Y-44836620D01*
X96985498Y-44909180D01*
X97044463Y-45019494D01*
X97123815Y-45116185D01*
X97220506Y-45195537D01*
X97330820Y-45254502D01*
X97450518Y-45290812D01*
X97575000Y-45303072D01*
X99275000Y-45303072D01*
X99399482Y-45290812D01*
X99519180Y-45254502D01*
X99568000Y-45228407D01*
X99568000Y-49473222D01*
X99502494Y-49419463D01*
X99392180Y-49360498D01*
X99272482Y-49324188D01*
X99148000Y-49311928D01*
X97448000Y-49311928D01*
X97323518Y-49324188D01*
X97203820Y-49360498D01*
X97093506Y-49419463D01*
X96996815Y-49498815D01*
X96917463Y-49595506D01*
X96858498Y-49705820D01*
X96836487Y-49778380D01*
X96704632Y-49646525D01*
X96461411Y-49484010D01*
X96191158Y-49372068D01*
X95904260Y-49315000D01*
X95611740Y-49315000D01*
X95324842Y-49372068D01*
X95054589Y-49484010D01*
X94811368Y-49646525D01*
X94604525Y-49853368D01*
X94488000Y-50027760D01*
X94371475Y-49853368D01*
X94164632Y-49646525D01*
X93921411Y-49484010D01*
X93651158Y-49372068D01*
X93364260Y-49315000D01*
X93071740Y-49315000D01*
X92784842Y-49372068D01*
X92514589Y-49484010D01*
X92271368Y-49646525D01*
X92064525Y-49853368D01*
X91948000Y-50027760D01*
X91831475Y-49853368D01*
X91624632Y-49646525D01*
X91381411Y-49484010D01*
X91111158Y-49372068D01*
X90824260Y-49315000D01*
X90531740Y-49315000D01*
X90244842Y-49372068D01*
X89974589Y-49484010D01*
X89731368Y-49646525D01*
X89524525Y-49853368D01*
X89408000Y-50027760D01*
X89291475Y-49853368D01*
X89084632Y-49646525D01*
X88841411Y-49484010D01*
X88571158Y-49372068D01*
X88284260Y-49315000D01*
X87991740Y-49315000D01*
X87704842Y-49372068D01*
X87434589Y-49484010D01*
X87191368Y-49646525D01*
X86997893Y-49840000D01*
X86983079Y-49840000D01*
X86935919Y-49835355D01*
X86888759Y-49840000D01*
X86888757Y-49840000D01*
X86747726Y-49853890D01*
X86566765Y-49908784D01*
X86399990Y-49997927D01*
X86337156Y-50049494D01*
X86253812Y-50117893D01*
X86223748Y-50154526D01*
X84317531Y-52060744D01*
X84280893Y-52090812D01*
X84232358Y-52149952D01*
X84182185Y-52088815D01*
X84085494Y-52009463D01*
X83975180Y-51950498D01*
X83855482Y-51914188D01*
X83731000Y-51901928D01*
X83216750Y-51905000D01*
X83058000Y-52063750D01*
X83058000Y-53213000D01*
X83078000Y-53213000D01*
X83078000Y-53467000D01*
X83058000Y-53467000D01*
X83058000Y-53487000D01*
X82804000Y-53487000D01*
X82804000Y-53467000D01*
X82784000Y-53467000D01*
X82784000Y-53213000D01*
X82804000Y-53213000D01*
X82804000Y-52063750D01*
X82645250Y-51905000D01*
X82131000Y-51901928D01*
X82006518Y-51914188D01*
X81886820Y-51950498D01*
X81776506Y-52009463D01*
X81679815Y-52088815D01*
X81600463Y-52185506D01*
X81541498Y-52295820D01*
X81505188Y-52415518D01*
X81492928Y-52540000D01*
X81496000Y-53054250D01*
X81654748Y-53212998D01*
X81616641Y-53212998D01*
X78096000Y-49692358D01*
X78096000Y-48095000D01*
X81492928Y-48095000D01*
X81492928Y-49695000D01*
X81505188Y-49819482D01*
X81541498Y-49939180D01*
X81600463Y-50049494D01*
X81679815Y-50146185D01*
X81776506Y-50225537D01*
X81886820Y-50284502D01*
X82006518Y-50320812D01*
X82131000Y-50333072D01*
X83731000Y-50333072D01*
X83855482Y-50320812D01*
X83975180Y-50284502D01*
X84085494Y-50225537D01*
X84182185Y-50146185D01*
X84261537Y-50049494D01*
X84320502Y-49939180D01*
X84356812Y-49819482D01*
X84369072Y-49695000D01*
X84369072Y-48095000D01*
X84356812Y-47970518D01*
X84320502Y-47850820D01*
X84261537Y-47740506D01*
X84182185Y-47643815D01*
X84085494Y-47564463D01*
X83975180Y-47505498D01*
X83855482Y-47469188D01*
X83731000Y-47456928D01*
X83723785Y-47456928D01*
X83744097Y-47387702D01*
X82931000Y-46574605D01*
X82117903Y-47387702D01*
X82138215Y-47456928D01*
X82131000Y-47456928D01*
X82006518Y-47469188D01*
X81886820Y-47505498D01*
X81776506Y-47564463D01*
X81679815Y-47643815D01*
X81600463Y-47740506D01*
X81541498Y-47850820D01*
X81505188Y-47970518D01*
X81492928Y-48095000D01*
X78096000Y-48095000D01*
X78096000Y-46465512D01*
X81490783Y-46465512D01*
X81532213Y-46745130D01*
X81627397Y-47011292D01*
X81694329Y-47136514D01*
X81938298Y-47208097D01*
X82751395Y-46395000D01*
X83110605Y-46395000D01*
X83923702Y-47208097D01*
X84167671Y-47136514D01*
X84288571Y-46881004D01*
X84357300Y-46606816D01*
X84371217Y-46324488D01*
X84329787Y-46044870D01*
X84234603Y-45778708D01*
X84167671Y-45653486D01*
X83923702Y-45581903D01*
X83110605Y-46395000D01*
X82751395Y-46395000D01*
X81938298Y-45581903D01*
X81694329Y-45653486D01*
X81573429Y-45908996D01*
X81504700Y-46183184D01*
X81490783Y-46465512D01*
X78096000Y-46465512D01*
X78096000Y-45402298D01*
X82117903Y-45402298D01*
X82931000Y-46215395D01*
X83744097Y-45402298D01*
X83672514Y-45158329D01*
X83417004Y-45037429D01*
X83142816Y-44968700D01*
X82860488Y-44954783D01*
X82580870Y-44996213D01*
X82314708Y-45091397D01*
X82189486Y-45158329D01*
X82117903Y-45402298D01*
X78096000Y-45402298D01*
X78096000Y-44565209D01*
X78191134Y-44487134D01*
X78376706Y-44261014D01*
X78514599Y-44003033D01*
X78599513Y-43723110D01*
X78621000Y-43504949D01*
X78621000Y-43109050D01*
X78599513Y-42890889D01*
X78514599Y-42610966D01*
X78376706Y-42352986D01*
X78191134Y-42126866D01*
X77965013Y-41941294D01*
X77707033Y-41803401D01*
X77427110Y-41718487D01*
X77136000Y-41689815D01*
X76844889Y-41718487D01*
X76564966Y-41803401D01*
X76306986Y-41941294D01*
X76080866Y-42126866D01*
X75895294Y-42352987D01*
X75881538Y-42378722D01*
X75725049Y-42172571D01*
X75507193Y-41979504D01*
X75255858Y-41832648D01*
X74992890Y-41740524D01*
X74763000Y-41861845D01*
X74763000Y-43180000D01*
X74783000Y-43180000D01*
X74783000Y-43434000D01*
X74763000Y-43434000D01*
X74763000Y-44752155D01*
X74992890Y-44873476D01*
X75255858Y-44781352D01*
X75507193Y-44634496D01*
X75725049Y-44441429D01*
X75881538Y-44235278D01*
X75895294Y-44261014D01*
X76080866Y-44487134D01*
X76176000Y-44565208D01*
X76176001Y-50042840D01*
X76171356Y-50090002D01*
X76189891Y-50278194D01*
X76244784Y-50459155D01*
X76333927Y-50625930D01*
X76423829Y-50735475D01*
X76453894Y-50772109D01*
X76490527Y-50802173D01*
X81496000Y-55807647D01*
X81496000Y-55917355D01*
X76789018Y-60624337D01*
X76801611Y-60383469D01*
X76759599Y-60093981D01*
X76661919Y-59818253D01*
X76588472Y-59680843D01*
X76339397Y-59603208D01*
X75490605Y-60452000D01*
X75504748Y-60466143D01*
X75325143Y-60645748D01*
X75311000Y-60631605D01*
X74462208Y-61480397D01*
X74480293Y-61538420D01*
X74371150Y-61571528D01*
X74217614Y-61653595D01*
X74083038Y-61764038D01*
X73972595Y-61898614D01*
X73904715Y-62025608D01*
X73717632Y-61838525D01*
X73544271Y-61722689D01*
X73619792Y-61480397D01*
X72771000Y-60631605D01*
X71922208Y-61480397D01*
X71997729Y-61722689D01*
X71824368Y-61838525D01*
X71617525Y-62045368D01*
X71455010Y-62288589D01*
X71343068Y-62558842D01*
X71286000Y-62845740D01*
X71286000Y-63138260D01*
X71343068Y-63425158D01*
X71455010Y-63695411D01*
X71617525Y-63938632D01*
X71824368Y-64145475D01*
X72067589Y-64307990D01*
X72337842Y-64419932D01*
X72446000Y-64441446D01*
X72446001Y-70747620D01*
X72356927Y-70674519D01*
X72090261Y-70531983D01*
X71800913Y-70444210D01*
X71500000Y-70414573D01*
X71199088Y-70444210D01*
X70909740Y-70531983D01*
X70643074Y-70674519D01*
X70409340Y-70866339D01*
X70217520Y-71100073D01*
X70074984Y-71366739D01*
X69987210Y-71656087D01*
X69965000Y-71881592D01*
X69965000Y-73432407D01*
X69987210Y-73657912D01*
X70074983Y-73947260D01*
X70217519Y-74213926D01*
X70409339Y-74447661D01*
X70643073Y-74639481D01*
X70909739Y-74782017D01*
X71199087Y-74869790D01*
X71500000Y-74899427D01*
X71800912Y-74869790D01*
X72090260Y-74782017D01*
X72356926Y-74639481D01*
X72446001Y-74566380D01*
X72446001Y-75153354D01*
X72205680Y-75393676D01*
X72090261Y-75331983D01*
X71800913Y-75244210D01*
X71500000Y-75214573D01*
X71199088Y-75244210D01*
X70909740Y-75331983D01*
X70643074Y-75474519D01*
X70409340Y-75666339D01*
X70217520Y-75900073D01*
X70074984Y-76166739D01*
X69987210Y-76456087D01*
X69965000Y-76681592D01*
X69965000Y-78232407D01*
X69987210Y-78457912D01*
X70074983Y-78747260D01*
X70217519Y-79013926D01*
X70409339Y-79247661D01*
X70643073Y-79439481D01*
X70909739Y-79582017D01*
X71199087Y-79669790D01*
X71500000Y-79699427D01*
X71800912Y-79669790D01*
X72090260Y-79582017D01*
X72356926Y-79439481D01*
X72590661Y-79247661D01*
X72782481Y-79013927D01*
X72925017Y-78747261D01*
X73012790Y-78457913D01*
X73035000Y-78232408D01*
X73035000Y-77279644D01*
X74051474Y-76263171D01*
X74088107Y-76233107D01*
X74148177Y-76159912D01*
X74208073Y-76086929D01*
X74297216Y-75920154D01*
X74352110Y-75739193D01*
X74366000Y-75598162D01*
X74366000Y-75598153D01*
X74370644Y-75551001D01*
X74366000Y-75503849D01*
X74366000Y-71881592D01*
X74665000Y-71881592D01*
X74665000Y-73432407D01*
X74687210Y-73657912D01*
X74774983Y-73947260D01*
X74917519Y-74213926D01*
X75109339Y-74447661D01*
X75343073Y-74639481D01*
X75609739Y-74782017D01*
X75899087Y-74869790D01*
X76200000Y-74899427D01*
X76500912Y-74869790D01*
X76790260Y-74782017D01*
X77056926Y-74639481D01*
X77290661Y-74447661D01*
X77482481Y-74213927D01*
X77625017Y-73947261D01*
X77712790Y-73657913D01*
X77735000Y-73432408D01*
X77735000Y-71881592D01*
X77712790Y-71656087D01*
X77625017Y-71366739D01*
X77482481Y-71100073D01*
X77290661Y-70866339D01*
X77056927Y-70674519D01*
X76790261Y-70531983D01*
X76500913Y-70444210D01*
X76200000Y-70414573D01*
X75899088Y-70444210D01*
X75609740Y-70531983D01*
X75343074Y-70674519D01*
X75109340Y-70866339D01*
X74917520Y-71100073D01*
X74774984Y-71366739D01*
X74687210Y-71656087D01*
X74665000Y-71881592D01*
X74366000Y-71881592D01*
X74366000Y-64409719D01*
X74371150Y-64412472D01*
X74537746Y-64463008D01*
X74711000Y-64480072D01*
X75911000Y-64480072D01*
X76084254Y-64463008D01*
X76250850Y-64412472D01*
X76404386Y-64330405D01*
X76538962Y-64219962D01*
X76649405Y-64085386D01*
X76731472Y-63931850D01*
X76782008Y-63765254D01*
X76799072Y-63592000D01*
X76799072Y-63329572D01*
X80311643Y-59817002D01*
X80390375Y-59817002D01*
X80269091Y-60039040D01*
X80363930Y-60303881D01*
X80508615Y-60545131D01*
X80697586Y-60753519D01*
X80923580Y-60921037D01*
X81177913Y-61041246D01*
X81311961Y-61081904D01*
X81534000Y-60959915D01*
X81534000Y-59817000D01*
X81514000Y-59817000D01*
X81514000Y-59563000D01*
X81534000Y-59563000D01*
X81534000Y-59543000D01*
X81788000Y-59543000D01*
X81788000Y-59563000D01*
X81808000Y-59563000D01*
X81808000Y-59817000D01*
X81788000Y-59817000D01*
X81788000Y-60959915D01*
X82010039Y-61081904D01*
X82144087Y-61041246D01*
X82225000Y-61003003D01*
X82225000Y-65990385D01*
X82079574Y-65930147D01*
X81802335Y-65875000D01*
X81519665Y-65875000D01*
X81242426Y-65930147D01*
X80981273Y-66038320D01*
X80746241Y-66195363D01*
X80546363Y-66395241D01*
X80389320Y-66630273D01*
X80281147Y-66891426D01*
X80226000Y-67168665D01*
X80226000Y-67451335D01*
X80281147Y-67728574D01*
X80389320Y-67989727D01*
X80546363Y-68224759D01*
X80746241Y-68424637D01*
X80981273Y-68581680D01*
X81242426Y-68689853D01*
X81519665Y-68745000D01*
X81802335Y-68745000D01*
X82079574Y-68689853D01*
X82225001Y-68629615D01*
X82225001Y-71179622D01*
X82182481Y-71100073D01*
X81990661Y-70866339D01*
X81756927Y-70674519D01*
X81490261Y-70531983D01*
X81200913Y-70444210D01*
X80900000Y-70414573D01*
X80599088Y-70444210D01*
X80309740Y-70531983D01*
X80043074Y-70674519D01*
X79809340Y-70866339D01*
X79617520Y-71100073D01*
X79474984Y-71366739D01*
X79387210Y-71656087D01*
X79365000Y-71881592D01*
X79365000Y-73432407D01*
X79387210Y-73657912D01*
X79474983Y-73947260D01*
X79617519Y-74213926D01*
X79809339Y-74447661D01*
X80043073Y-74639481D01*
X80309739Y-74782017D01*
X80599087Y-74869790D01*
X80900000Y-74899427D01*
X81200912Y-74869790D01*
X81490260Y-74782017D01*
X81756926Y-74639481D01*
X81990661Y-74447661D01*
X82182481Y-74213927D01*
X82225001Y-74134378D01*
X82225001Y-74814919D01*
X82220356Y-74862081D01*
X82238891Y-75050273D01*
X82293784Y-75231234D01*
X82382927Y-75398009D01*
X82445718Y-75474519D01*
X82502894Y-75544188D01*
X82539526Y-75574252D01*
X86306315Y-79341041D01*
X86216356Y-79431000D01*
X81767260Y-79431000D01*
X81990661Y-79247661D01*
X82182481Y-79013927D01*
X82325017Y-78747261D01*
X82412790Y-78457913D01*
X82435000Y-78232408D01*
X82435000Y-76681592D01*
X82412790Y-76456087D01*
X82325017Y-76166739D01*
X82182481Y-75900073D01*
X81990661Y-75666339D01*
X81756927Y-75474519D01*
X81490261Y-75331983D01*
X81200913Y-75244210D01*
X80900000Y-75214573D01*
X80599088Y-75244210D01*
X80309740Y-75331983D01*
X80043074Y-75474519D01*
X79809340Y-75666339D01*
X79617520Y-75900073D01*
X79474984Y-76166739D01*
X79387210Y-76456087D01*
X79365000Y-76681592D01*
X79365000Y-78232407D01*
X79387210Y-78457912D01*
X79474983Y-78747260D01*
X79617519Y-79013926D01*
X79809339Y-79247661D01*
X80032739Y-79431000D01*
X79531645Y-79431000D01*
X77735000Y-77634356D01*
X77735000Y-76681592D01*
X77712790Y-76456087D01*
X77625017Y-76166739D01*
X77482481Y-75900073D01*
X77290661Y-75666339D01*
X77056927Y-75474519D01*
X76790261Y-75331983D01*
X76500913Y-75244210D01*
X76200000Y-75214573D01*
X75899088Y-75244210D01*
X75609740Y-75331983D01*
X75343074Y-75474519D01*
X75109340Y-75666339D01*
X74917520Y-75900073D01*
X74774984Y-76166739D01*
X74687210Y-76456087D01*
X74665000Y-76681592D01*
X74665000Y-78232407D01*
X74687210Y-78457912D01*
X74774983Y-78747260D01*
X74917519Y-79013926D01*
X75109339Y-79247661D01*
X75240000Y-79354892D01*
X75240001Y-83295354D01*
X74729427Y-83805928D01*
X73649000Y-83805928D01*
X73524518Y-83818188D01*
X73404820Y-83854498D01*
X73294506Y-83913463D01*
X73197815Y-83992815D01*
X73118463Y-84089506D01*
X73059498Y-84199820D01*
X73053944Y-84218127D01*
X72987505Y-84151688D01*
X72736095Y-83983701D01*
X72456743Y-83867989D01*
X72160184Y-83809000D01*
X71857816Y-83809000D01*
X71561257Y-83867989D01*
X71281905Y-83983701D01*
X71030495Y-84151688D01*
X70816688Y-84365495D01*
X70648701Y-84616905D01*
X70532989Y-84896257D01*
X70474000Y-85192816D01*
X70474000Y-85495184D01*
X70532989Y-85791743D01*
X70648701Y-86071095D01*
X70816688Y-86322505D01*
X71030495Y-86536312D01*
X71281905Y-86704299D01*
X71561257Y-86820011D01*
X71857816Y-86879000D01*
X72160184Y-86879000D01*
X72456743Y-86820011D01*
X72736095Y-86704299D01*
X72987505Y-86536312D01*
X73053944Y-86469873D01*
X73059498Y-86488180D01*
X73118463Y-86598494D01*
X73197815Y-86695185D01*
X73294506Y-86774537D01*
X73404820Y-86833502D01*
X73524518Y-86869812D01*
X73649000Y-86882072D01*
X75449000Y-86882072D01*
X75573482Y-86869812D01*
X75693180Y-86833502D01*
X75803494Y-86774537D01*
X75900185Y-86695185D01*
X75979537Y-86598494D01*
X76038502Y-86488180D01*
X76074812Y-86368482D01*
X76087072Y-86244000D01*
X76087072Y-86227297D01*
X76150688Y-86322505D01*
X76364495Y-86536312D01*
X76615905Y-86704299D01*
X76895257Y-86820011D01*
X77191816Y-86879000D01*
X77494184Y-86879000D01*
X77790743Y-86820011D01*
X78070095Y-86704299D01*
X78321505Y-86536312D01*
X78387944Y-86469873D01*
X78393498Y-86488180D01*
X78452463Y-86598494D01*
X78531815Y-86695185D01*
X78628506Y-86774537D01*
X78738820Y-86833502D01*
X78858518Y-86869812D01*
X78983000Y-86882072D01*
X79597250Y-86879000D01*
X79756000Y-86720250D01*
X79756000Y-85471000D01*
X80010000Y-85471000D01*
X80010000Y-86720250D01*
X80168750Y-86879000D01*
X80783000Y-86882072D01*
X80907482Y-86869812D01*
X81027180Y-86833502D01*
X81137494Y-86774537D01*
X81234185Y-86695185D01*
X81313537Y-86598494D01*
X81372502Y-86488180D01*
X81408812Y-86368482D01*
X81421072Y-86244000D01*
X81418000Y-85629750D01*
X81259250Y-85471000D01*
X80010000Y-85471000D01*
X79756000Y-85471000D01*
X79736000Y-85471000D01*
X79736000Y-85368109D01*
X86823519Y-85368109D01*
X86944186Y-85598000D01*
X88138000Y-85598000D01*
X88138000Y-84404845D01*
X88392000Y-84404845D01*
X88392000Y-85598000D01*
X90678000Y-85598000D01*
X90678000Y-84404845D01*
X90932000Y-84404845D01*
X90932000Y-85598000D01*
X93218000Y-85598000D01*
X93218000Y-84404845D01*
X93472000Y-84404845D01*
X93472000Y-85598000D01*
X95758000Y-85598000D01*
X95758000Y-84404845D01*
X96012000Y-84404845D01*
X96012000Y-85598000D01*
X98298000Y-85598000D01*
X98298000Y-84404845D01*
X98068110Y-84283524D01*
X97920901Y-84328175D01*
X97658080Y-84453359D01*
X97424731Y-84627412D01*
X97229822Y-84843645D01*
X97155000Y-84969255D01*
X97080178Y-84843645D01*
X96885269Y-84627412D01*
X96651920Y-84453359D01*
X96389099Y-84328175D01*
X96241890Y-84283524D01*
X96012000Y-84404845D01*
X95758000Y-84404845D01*
X95528110Y-84283524D01*
X95380901Y-84328175D01*
X95118080Y-84453359D01*
X94884731Y-84627412D01*
X94689822Y-84843645D01*
X94615000Y-84969255D01*
X94540178Y-84843645D01*
X94345269Y-84627412D01*
X94111920Y-84453359D01*
X93849099Y-84328175D01*
X93701890Y-84283524D01*
X93472000Y-84404845D01*
X93218000Y-84404845D01*
X92988110Y-84283524D01*
X92840901Y-84328175D01*
X92578080Y-84453359D01*
X92344731Y-84627412D01*
X92149822Y-84843645D01*
X92075000Y-84969255D01*
X92000178Y-84843645D01*
X91805269Y-84627412D01*
X91571920Y-84453359D01*
X91309099Y-84328175D01*
X91161890Y-84283524D01*
X90932000Y-84404845D01*
X90678000Y-84404845D01*
X90448110Y-84283524D01*
X90300901Y-84328175D01*
X90038080Y-84453359D01*
X89804731Y-84627412D01*
X89609822Y-84843645D01*
X89535000Y-84969255D01*
X89460178Y-84843645D01*
X89265269Y-84627412D01*
X89031920Y-84453359D01*
X88769099Y-84328175D01*
X88621890Y-84283524D01*
X88392000Y-84404845D01*
X88138000Y-84404845D01*
X87908110Y-84283524D01*
X87760901Y-84328175D01*
X87498080Y-84453359D01*
X87264731Y-84627412D01*
X87069822Y-84843645D01*
X86920843Y-85093748D01*
X86823519Y-85368109D01*
X79736000Y-85368109D01*
X79736000Y-85217000D01*
X79756000Y-85217000D01*
X79756000Y-83967750D01*
X80010000Y-83967750D01*
X80010000Y-85217000D01*
X81259250Y-85217000D01*
X81418000Y-85058250D01*
X81421072Y-84444000D01*
X81408812Y-84319518D01*
X81372502Y-84199820D01*
X81313537Y-84089506D01*
X81234185Y-83992815D01*
X81137494Y-83913463D01*
X81027180Y-83854498D01*
X80907482Y-83818188D01*
X80783000Y-83805928D01*
X80168750Y-83809000D01*
X80010000Y-83967750D01*
X79756000Y-83967750D01*
X79597250Y-83809000D01*
X78983000Y-83805928D01*
X78858518Y-83818188D01*
X78738820Y-83854498D01*
X78628506Y-83913463D01*
X78531815Y-83992815D01*
X78452463Y-84089506D01*
X78393498Y-84199820D01*
X78387944Y-84218127D01*
X78321505Y-84151688D01*
X78070095Y-83983701D01*
X77790743Y-83867989D01*
X77494184Y-83809000D01*
X77191816Y-83809000D01*
X77152449Y-83816831D01*
X77160000Y-83740162D01*
X77160000Y-83740160D01*
X77164645Y-83693000D01*
X77160000Y-83645840D01*
X77160000Y-79774645D01*
X78421829Y-81036474D01*
X78451893Y-81073107D01*
X78598072Y-81193073D01*
X78764846Y-81282216D01*
X78945807Y-81337110D01*
X79086838Y-81351000D01*
X79086840Y-81351000D01*
X79134000Y-81355645D01*
X79181160Y-81351000D01*
X86566848Y-81351000D01*
X86614000Y-81355644D01*
X86661152Y-81351000D01*
X86661162Y-81351000D01*
X86802193Y-81337110D01*
X86983154Y-81282216D01*
X87149928Y-81193073D01*
X87296107Y-81073107D01*
X87326175Y-81036469D01*
X88137645Y-80225000D01*
X88411260Y-80225000D01*
X88698158Y-80167932D01*
X88968411Y-80055990D01*
X89211632Y-79893475D01*
X89405107Y-79700000D01*
X89664893Y-79700000D01*
X89858368Y-79893475D01*
X90101589Y-80055990D01*
X90371842Y-80167932D01*
X90658740Y-80225000D01*
X90951260Y-80225000D01*
X91238158Y-80167932D01*
X91508411Y-80055990D01*
X91751632Y-79893475D01*
X91945107Y-79700000D01*
X92204893Y-79700000D01*
X92398368Y-79893475D01*
X92641589Y-80055990D01*
X92911842Y-80167932D01*
X93198740Y-80225000D01*
X93491260Y-80225000D01*
X93778158Y-80167932D01*
X94048411Y-80055990D01*
X94291632Y-79893475D01*
X94485107Y-79700000D01*
X94744893Y-79700000D01*
X94938368Y-79893475D01*
X95181589Y-80055990D01*
X95451842Y-80167932D01*
X95738740Y-80225000D01*
X96031260Y-80225000D01*
X96318158Y-80167932D01*
X96588411Y-80055990D01*
X96831632Y-79893475D01*
X96963487Y-79761620D01*
X96985498Y-79834180D01*
X97044463Y-79944494D01*
X97123815Y-80041185D01*
X97220506Y-80120537D01*
X97330820Y-80179502D01*
X97450518Y-80215812D01*
X97575000Y-80228072D01*
X99275000Y-80228072D01*
X99399482Y-80215812D01*
X99519180Y-80179502D01*
X99568000Y-80153407D01*
X99568000Y-84785758D01*
X99425269Y-84627412D01*
X99191920Y-84453359D01*
X98929099Y-84328175D01*
X98781890Y-84283524D01*
X98552000Y-84404845D01*
X98552000Y-85598000D01*
X98572000Y-85598000D01*
X98572000Y-85852000D01*
X98552000Y-85852000D01*
X98552000Y-85872000D01*
X98298000Y-85872000D01*
X98298000Y-85852000D01*
X96012000Y-85852000D01*
X96012000Y-85872000D01*
X95758000Y-85872000D01*
X95758000Y-85852000D01*
X93472000Y-85852000D01*
X93472000Y-85872000D01*
X93218000Y-85872000D01*
X93218000Y-85852000D01*
X90932000Y-85852000D01*
X90932000Y-85872000D01*
X90678000Y-85872000D01*
X90678000Y-85852000D01*
X88392000Y-85852000D01*
X88392000Y-85872000D01*
X88138000Y-85872000D01*
X88138000Y-85852000D01*
X86944186Y-85852000D01*
X86823519Y-86081891D01*
X86920843Y-86356252D01*
X87069822Y-86606355D01*
X87264731Y-86822588D01*
X87494406Y-86993900D01*
X87318368Y-87111525D01*
X87111525Y-87318368D01*
X86949010Y-87561589D01*
X86837068Y-87831842D01*
X86780000Y-88118740D01*
X86780000Y-88411260D01*
X86837068Y-88698158D01*
X86868068Y-88773000D01*
X69342000Y-88773000D01*
X69342000Y-60520531D01*
X71280389Y-60520531D01*
X71322401Y-60810019D01*
X71420081Y-61085747D01*
X71493528Y-61223157D01*
X71742603Y-61300792D01*
X72591395Y-60452000D01*
X72950605Y-60452000D01*
X73799397Y-61300792D01*
X74041000Y-61225486D01*
X74282603Y-61300792D01*
X75131395Y-60452000D01*
X74282603Y-59603208D01*
X74041000Y-59678514D01*
X73799397Y-59603208D01*
X72950605Y-60452000D01*
X72591395Y-60452000D01*
X71742603Y-59603208D01*
X71493528Y-59680843D01*
X71367629Y-59944883D01*
X71295661Y-60228411D01*
X71280389Y-60520531D01*
X69342000Y-60520531D01*
X69342000Y-58940397D01*
X71922208Y-58940397D01*
X71997514Y-59182000D01*
X71922208Y-59423603D01*
X72771000Y-60272395D01*
X73619792Y-59423603D01*
X73544486Y-59182000D01*
X73619792Y-58940397D01*
X74462208Y-58940397D01*
X74537514Y-59182000D01*
X74462208Y-59423603D01*
X75311000Y-60272395D01*
X76159792Y-59423603D01*
X76084486Y-59182000D01*
X76159792Y-58940397D01*
X75311000Y-58091605D01*
X74462208Y-58940397D01*
X73619792Y-58940397D01*
X72771000Y-58091605D01*
X71922208Y-58940397D01*
X69342000Y-58940397D01*
X69342000Y-57980531D01*
X71280389Y-57980531D01*
X71322401Y-58270019D01*
X71420081Y-58545747D01*
X71493528Y-58683157D01*
X71742603Y-58760792D01*
X72591395Y-57912000D01*
X72950605Y-57912000D01*
X73799397Y-58760792D01*
X74041000Y-58685486D01*
X74282603Y-58760792D01*
X75131395Y-57912000D01*
X75490605Y-57912000D01*
X76339397Y-58760792D01*
X76588472Y-58683157D01*
X76714371Y-58419117D01*
X76786339Y-58135589D01*
X76801611Y-57843469D01*
X76759599Y-57553981D01*
X76661919Y-57278253D01*
X76588472Y-57140843D01*
X76339397Y-57063208D01*
X75490605Y-57912000D01*
X75131395Y-57912000D01*
X74282603Y-57063208D01*
X74041000Y-57138514D01*
X73799397Y-57063208D01*
X72950605Y-57912000D01*
X72591395Y-57912000D01*
X71742603Y-57063208D01*
X71493528Y-57140843D01*
X71367629Y-57404883D01*
X71295661Y-57688411D01*
X71280389Y-57980531D01*
X69342000Y-57980531D01*
X69342000Y-56400397D01*
X71922208Y-56400397D01*
X71997514Y-56642000D01*
X71922208Y-56883603D01*
X72771000Y-57732395D01*
X73619792Y-56883603D01*
X73544486Y-56642000D01*
X73619792Y-56400397D01*
X74462208Y-56400397D01*
X74537514Y-56642000D01*
X74462208Y-56883603D01*
X75311000Y-57732395D01*
X76159792Y-56883603D01*
X76084486Y-56642000D01*
X76159792Y-56400397D01*
X75311000Y-55551605D01*
X74462208Y-56400397D01*
X73619792Y-56400397D01*
X72771000Y-55551605D01*
X71922208Y-56400397D01*
X69342000Y-56400397D01*
X69342000Y-55440531D01*
X71280389Y-55440531D01*
X71322401Y-55730019D01*
X71420081Y-56005747D01*
X71493528Y-56143157D01*
X71742603Y-56220792D01*
X72591395Y-55372000D01*
X72950605Y-55372000D01*
X73799397Y-56220792D01*
X74041000Y-56145486D01*
X74282603Y-56220792D01*
X75131395Y-55372000D01*
X75490605Y-55372000D01*
X76339397Y-56220792D01*
X76588472Y-56143157D01*
X76714371Y-55879117D01*
X76786339Y-55595589D01*
X76801611Y-55303469D01*
X76759599Y-55013981D01*
X76661919Y-54738253D01*
X76588472Y-54600843D01*
X76339397Y-54523208D01*
X75490605Y-55372000D01*
X75131395Y-55372000D01*
X74282603Y-54523208D01*
X74041000Y-54598514D01*
X73799397Y-54523208D01*
X72950605Y-55372000D01*
X72591395Y-55372000D01*
X71742603Y-54523208D01*
X71493528Y-54600843D01*
X71367629Y-54864883D01*
X71295661Y-55148411D01*
X71280389Y-55440531D01*
X69342000Y-55440531D01*
X69342000Y-52685740D01*
X71286000Y-52685740D01*
X71286000Y-52978260D01*
X71343068Y-53265158D01*
X71455010Y-53535411D01*
X71617525Y-53778632D01*
X71824368Y-53985475D01*
X71997729Y-54101311D01*
X71922208Y-54343603D01*
X72771000Y-55192395D01*
X73619792Y-54343603D01*
X73544271Y-54101311D01*
X73717632Y-53985475D01*
X73924475Y-53778632D01*
X74041000Y-53604240D01*
X74157525Y-53778632D01*
X74364368Y-53985475D01*
X74537729Y-54101311D01*
X74462208Y-54343603D01*
X75311000Y-55192395D01*
X76159792Y-54343603D01*
X76084271Y-54101311D01*
X76257632Y-53985475D01*
X76464475Y-53778632D01*
X76626990Y-53535411D01*
X76738932Y-53265158D01*
X76796000Y-52978260D01*
X76796000Y-52685740D01*
X76738932Y-52398842D01*
X76626990Y-52128589D01*
X76464475Y-51885368D01*
X76257632Y-51678525D01*
X76014411Y-51516010D01*
X75744158Y-51404068D01*
X75457260Y-51347000D01*
X75164740Y-51347000D01*
X74877842Y-51404068D01*
X74607589Y-51516010D01*
X74364368Y-51678525D01*
X74157525Y-51885368D01*
X74041000Y-52059760D01*
X73924475Y-51885368D01*
X73717632Y-51678525D01*
X73474411Y-51516010D01*
X73204158Y-51404068D01*
X72917260Y-51347000D01*
X72624740Y-51347000D01*
X72337842Y-51404068D01*
X72067589Y-51516010D01*
X71824368Y-51678525D01*
X71617525Y-51885368D01*
X71455010Y-52128589D01*
X71343068Y-52398842D01*
X71286000Y-52685740D01*
X69342000Y-52685740D01*
X69342000Y-42582000D01*
X70647928Y-42582000D01*
X70647928Y-44032000D01*
X70664992Y-44205254D01*
X70715528Y-44371850D01*
X70797595Y-44525386D01*
X70908038Y-44659962D01*
X71042614Y-44770405D01*
X71196150Y-44852472D01*
X71362746Y-44903008D01*
X71536000Y-44920072D01*
X72736000Y-44920072D01*
X72909254Y-44903008D01*
X73075850Y-44852472D01*
X73229386Y-44770405D01*
X73363962Y-44659962D01*
X73474405Y-44525386D01*
X73530714Y-44420039D01*
X73546951Y-44441429D01*
X73764807Y-44634496D01*
X74016142Y-44781352D01*
X74279110Y-44873476D01*
X74509000Y-44752155D01*
X74509000Y-43434000D01*
X74489000Y-43434000D01*
X74489000Y-43180000D01*
X74509000Y-43180000D01*
X74509000Y-41861845D01*
X74279110Y-41740524D01*
X74016142Y-41832648D01*
X73764807Y-41979504D01*
X73546951Y-42172571D01*
X73530714Y-42193961D01*
X73474405Y-42088614D01*
X73363962Y-41954038D01*
X73229386Y-41843595D01*
X73075850Y-41761528D01*
X72909254Y-41710992D01*
X72736000Y-41693928D01*
X71536000Y-41693928D01*
X71362746Y-41710992D01*
X71196150Y-41761528D01*
X71042614Y-41843595D01*
X70908038Y-41954038D01*
X70797595Y-42088614D01*
X70715528Y-42242150D01*
X70664992Y-42408746D01*
X70647928Y-42582000D01*
X69342000Y-42582000D01*
X69342000Y-40767000D01*
X86877122Y-40767000D01*
X86823519Y-40918109D01*
G37*
%TD.AperFunction*%
%TD*%
M02*
