%TF.GenerationSoftware,KiCad,Pcbnew,5.1.9+dfsg1-1~bpo10+1*%
%TF.CreationDate,2022-02-19T16:25:08+08:00*%
%TF.ProjectId,euro2breadboard,6575726f-3262-4726-9561-64626f617264,rev?*%
%TF.SameCoordinates,Original*%
%TF.FileFunction,Legend,Bot*%
%TF.FilePolarity,Positive*%
%FSLAX46Y46*%
G04 Gerber Fmt 4.6, Leading zero omitted, Abs format (unit mm)*
G04 Created by KiCad (PCBNEW 5.1.9+dfsg1-1~bpo10+1) date 2022-02-19 16:25:08*
%MOMM*%
%LPD*%
G01*
G04 APERTURE LIST*
%ADD10C,0.150000*%
%ADD11C,0.120000*%
G04 APERTURE END LIST*
D10*
X82696095Y-82542976D02*
X83496095Y-82542976D01*
X83191333Y-82542976D02*
X83229428Y-82466785D01*
X83229428Y-82314404D01*
X83191333Y-82238214D01*
X83153238Y-82200119D01*
X83077047Y-82162023D01*
X82848476Y-82162023D01*
X82772285Y-82200119D01*
X82734190Y-82238214D01*
X82696095Y-82314404D01*
X82696095Y-82466785D01*
X82734190Y-82542976D01*
X83229428Y-81895357D02*
X82696095Y-81704880D01*
X83229428Y-81514404D02*
X82696095Y-81704880D01*
X82505619Y-81781071D01*
X82467523Y-81819166D01*
X82429428Y-81895357D01*
X82696095Y-80600119D02*
X83496095Y-80600119D01*
X83191333Y-80600119D02*
X83229428Y-80523928D01*
X83229428Y-80371547D01*
X83191333Y-80295357D01*
X83153238Y-80257261D01*
X83077047Y-80219166D01*
X82848476Y-80219166D01*
X82772285Y-80257261D01*
X82734190Y-80295357D01*
X82696095Y-80371547D01*
X82696095Y-80523928D01*
X82734190Y-80600119D01*
X82734190Y-79571547D02*
X82696095Y-79647738D01*
X82696095Y-79800119D01*
X82734190Y-79876309D01*
X82810380Y-79914404D01*
X83115142Y-79914404D01*
X83191333Y-79876309D01*
X83229428Y-79800119D01*
X83229428Y-79647738D01*
X83191333Y-79571547D01*
X83115142Y-79533452D01*
X83038952Y-79533452D01*
X82962761Y-79914404D01*
X83229428Y-79190595D02*
X82696095Y-79190595D01*
X83153238Y-79190595D02*
X83191333Y-79152500D01*
X83229428Y-79076309D01*
X83229428Y-78962023D01*
X83191333Y-78885833D01*
X83115142Y-78847738D01*
X82696095Y-78847738D01*
X83229428Y-78466785D02*
X82543714Y-78466785D01*
X82467523Y-78504880D01*
X82429428Y-78581071D01*
X82429428Y-78619166D01*
X83496095Y-78466785D02*
X83458000Y-78504880D01*
X83419904Y-78466785D01*
X83458000Y-78428690D01*
X83496095Y-78466785D01*
X83419904Y-78466785D01*
X82696095Y-78085833D02*
X83229428Y-78085833D01*
X83496095Y-78085833D02*
X83458000Y-78123928D01*
X83419904Y-78085833D01*
X83458000Y-78047738D01*
X83496095Y-78085833D01*
X83419904Y-78085833D01*
X82696095Y-77362023D02*
X83115142Y-77362023D01*
X83191333Y-77400119D01*
X83229428Y-77476309D01*
X83229428Y-77628690D01*
X83191333Y-77704880D01*
X82734190Y-77362023D02*
X82696095Y-77438214D01*
X82696095Y-77628690D01*
X82734190Y-77704880D01*
X82810380Y-77742976D01*
X82886571Y-77742976D01*
X82962761Y-77704880D01*
X83000857Y-77628690D01*
X83000857Y-77438214D01*
X83038952Y-77362023D01*
X82696095Y-76866785D02*
X82734190Y-76942976D01*
X82772285Y-76981071D01*
X82848476Y-77019166D01*
X83077047Y-77019166D01*
X83153238Y-76981071D01*
X83191333Y-76942976D01*
X83229428Y-76866785D01*
X83229428Y-76752500D01*
X83191333Y-76676309D01*
X83153238Y-76638214D01*
X83077047Y-76600119D01*
X82848476Y-76600119D01*
X82772285Y-76638214D01*
X82734190Y-76676309D01*
X82696095Y-76752500D01*
X82696095Y-76866785D01*
X82696095Y-76257261D02*
X83229428Y-76257261D01*
X83153238Y-76257261D02*
X83191333Y-76219166D01*
X83229428Y-76142976D01*
X83229428Y-76028690D01*
X83191333Y-75952500D01*
X83115142Y-75914404D01*
X82696095Y-75914404D01*
X83115142Y-75914404D02*
X83191333Y-75876309D01*
X83229428Y-75800119D01*
X83229428Y-75685833D01*
X83191333Y-75609642D01*
X83115142Y-75571547D01*
X82696095Y-75571547D01*
X82696095Y-75076309D02*
X82734190Y-75152500D01*
X82772285Y-75190595D01*
X82848476Y-75228690D01*
X83077047Y-75228690D01*
X83153238Y-75190595D01*
X83191333Y-75152500D01*
X83229428Y-75076309D01*
X83229428Y-74962023D01*
X83191333Y-74885833D01*
X83153238Y-74847738D01*
X83077047Y-74809642D01*
X82848476Y-74809642D01*
X82772285Y-74847738D01*
X82734190Y-74885833D01*
X82696095Y-74962023D01*
X82696095Y-75076309D01*
X82696095Y-74123928D02*
X83496095Y-74123928D01*
X82734190Y-74123928D02*
X82696095Y-74200119D01*
X82696095Y-74352500D01*
X82734190Y-74428690D01*
X82772285Y-74466785D01*
X82848476Y-74504880D01*
X83077047Y-74504880D01*
X83153238Y-74466785D01*
X83191333Y-74428690D01*
X83229428Y-74352500D01*
X83229428Y-74200119D01*
X83191333Y-74123928D01*
X83229428Y-73400119D02*
X82696095Y-73400119D01*
X83229428Y-73742976D02*
X82810380Y-73742976D01*
X82734190Y-73704880D01*
X82696095Y-73628690D01*
X82696095Y-73514404D01*
X82734190Y-73438214D01*
X82772285Y-73400119D01*
X82696095Y-72904880D02*
X82734190Y-72981071D01*
X82810380Y-73019166D01*
X83496095Y-73019166D01*
X82696095Y-72257261D02*
X83115142Y-72257261D01*
X83191333Y-72295357D01*
X83229428Y-72371547D01*
X83229428Y-72523928D01*
X83191333Y-72600119D01*
X82734190Y-72257261D02*
X82696095Y-72333452D01*
X82696095Y-72523928D01*
X82734190Y-72600119D01*
X82810380Y-72638214D01*
X82886571Y-72638214D01*
X82962761Y-72600119D01*
X83000857Y-72523928D01*
X83000857Y-72333452D01*
X83038952Y-72257261D01*
X82696095Y-71876309D02*
X83229428Y-71876309D01*
X83077047Y-71876309D02*
X83153238Y-71838214D01*
X83191333Y-71800119D01*
X83229428Y-71723928D01*
X83229428Y-71647738D01*
X84478785Y-82645071D02*
X83812119Y-82406976D01*
X84478785Y-82168880D01*
X83812119Y-81264119D02*
X83812119Y-81835547D01*
X83812119Y-81549833D02*
X84812119Y-81549833D01*
X84669261Y-81645071D01*
X84574023Y-81740309D01*
X84526404Y-81835547D01*
X83907357Y-80835547D02*
X83859738Y-80787928D01*
X83812119Y-80835547D01*
X83859738Y-80883166D01*
X83907357Y-80835547D01*
X83812119Y-80835547D01*
X83812119Y-79835547D02*
X83812119Y-80406976D01*
X83812119Y-80121261D02*
X84812119Y-80121261D01*
X84669261Y-80216500D01*
X84574023Y-80311738D01*
X84526404Y-80406976D01*
X85089261Y-82231714D02*
X85036880Y-82336476D01*
X85036880Y-82546000D01*
X85089261Y-82650761D01*
X85194023Y-82703142D01*
X85613071Y-82703142D01*
X85717833Y-82650761D01*
X85770214Y-82546000D01*
X85770214Y-82336476D01*
X85717833Y-82231714D01*
X85613071Y-82179333D01*
X85508309Y-82179333D01*
X85403547Y-82703142D01*
X85770214Y-81236476D02*
X85036880Y-81236476D01*
X85770214Y-81707904D02*
X85194023Y-81707904D01*
X85089261Y-81655523D01*
X85036880Y-81550761D01*
X85036880Y-81393619D01*
X85089261Y-81288857D01*
X85141642Y-81236476D01*
X85036880Y-80712666D02*
X85770214Y-80712666D01*
X85560690Y-80712666D02*
X85665452Y-80660285D01*
X85717833Y-80607904D01*
X85770214Y-80503142D01*
X85770214Y-80398380D01*
X85036880Y-79874571D02*
X85089261Y-79979333D01*
X85141642Y-80031714D01*
X85246404Y-80084095D01*
X85560690Y-80084095D01*
X85665452Y-80031714D01*
X85717833Y-79979333D01*
X85770214Y-79874571D01*
X85770214Y-79717428D01*
X85717833Y-79612666D01*
X85665452Y-79560285D01*
X85560690Y-79507904D01*
X85246404Y-79507904D01*
X85141642Y-79560285D01*
X85089261Y-79612666D01*
X85036880Y-79717428D01*
X85036880Y-79874571D01*
X86032119Y-79088857D02*
X86084500Y-79036476D01*
X86136880Y-78931714D01*
X86136880Y-78669809D01*
X86084500Y-78565047D01*
X86032119Y-78512666D01*
X85927357Y-78460285D01*
X85822595Y-78460285D01*
X85665452Y-78512666D01*
X85036880Y-79141238D01*
X85036880Y-78460285D01*
X85036880Y-77988857D02*
X86136880Y-77988857D01*
X85717833Y-77988857D02*
X85770214Y-77884095D01*
X85770214Y-77674571D01*
X85717833Y-77569809D01*
X85665452Y-77517428D01*
X85560690Y-77465047D01*
X85246404Y-77465047D01*
X85141642Y-77517428D01*
X85089261Y-77569809D01*
X85036880Y-77674571D01*
X85036880Y-77884095D01*
X85089261Y-77988857D01*
X85036880Y-76993619D02*
X85770214Y-76993619D01*
X85560690Y-76993619D02*
X85665452Y-76941238D01*
X85717833Y-76888857D01*
X85770214Y-76784095D01*
X85770214Y-76679333D01*
X85089261Y-75893619D02*
X85036880Y-75998380D01*
X85036880Y-76207904D01*
X85089261Y-76312666D01*
X85194023Y-76365047D01*
X85613071Y-76365047D01*
X85717833Y-76312666D01*
X85770214Y-76207904D01*
X85770214Y-75998380D01*
X85717833Y-75893619D01*
X85613071Y-75841238D01*
X85508309Y-75841238D01*
X85403547Y-76365047D01*
X85036880Y-74898380D02*
X85613071Y-74898380D01*
X85717833Y-74950761D01*
X85770214Y-75055523D01*
X85770214Y-75265047D01*
X85717833Y-75369809D01*
X85089261Y-74898380D02*
X85036880Y-75003142D01*
X85036880Y-75265047D01*
X85089261Y-75369809D01*
X85194023Y-75422190D01*
X85298785Y-75422190D01*
X85403547Y-75369809D01*
X85455928Y-75265047D01*
X85455928Y-75003142D01*
X85508309Y-74898380D01*
X85036880Y-73903142D02*
X86136880Y-73903142D01*
X85089261Y-73903142D02*
X85036880Y-74007904D01*
X85036880Y-74217428D01*
X85089261Y-74322190D01*
X85141642Y-74374571D01*
X85246404Y-74426952D01*
X85560690Y-74426952D01*
X85665452Y-74374571D01*
X85717833Y-74322190D01*
X85770214Y-74217428D01*
X85770214Y-74007904D01*
X85717833Y-73903142D01*
X85036880Y-73379333D02*
X86136880Y-73379333D01*
X85717833Y-73379333D02*
X85770214Y-73274571D01*
X85770214Y-73065047D01*
X85717833Y-72960285D01*
X85665452Y-72907904D01*
X85560690Y-72855523D01*
X85246404Y-72855523D01*
X85141642Y-72907904D01*
X85089261Y-72960285D01*
X85036880Y-73065047D01*
X85036880Y-73274571D01*
X85089261Y-73379333D01*
X85036880Y-72226952D02*
X85089261Y-72331714D01*
X85141642Y-72384095D01*
X85246404Y-72436476D01*
X85560690Y-72436476D01*
X85665452Y-72384095D01*
X85717833Y-72331714D01*
X85770214Y-72226952D01*
X85770214Y-72069809D01*
X85717833Y-71965047D01*
X85665452Y-71912666D01*
X85560690Y-71860285D01*
X85246404Y-71860285D01*
X85141642Y-71912666D01*
X85089261Y-71965047D01*
X85036880Y-72069809D01*
X85036880Y-72226952D01*
X85036880Y-70917428D02*
X85613071Y-70917428D01*
X85717833Y-70969809D01*
X85770214Y-71074571D01*
X85770214Y-71284095D01*
X85717833Y-71388857D01*
X85089261Y-70917428D02*
X85036880Y-71022190D01*
X85036880Y-71284095D01*
X85089261Y-71388857D01*
X85194023Y-71441238D01*
X85298785Y-71441238D01*
X85403547Y-71388857D01*
X85455928Y-71284095D01*
X85455928Y-71022190D01*
X85508309Y-70917428D01*
X85036880Y-70393619D02*
X85770214Y-70393619D01*
X85560690Y-70393619D02*
X85665452Y-70341238D01*
X85717833Y-70288857D01*
X85770214Y-70184095D01*
X85770214Y-70079333D01*
X85036880Y-69241238D02*
X86136880Y-69241238D01*
X85089261Y-69241238D02*
X85036880Y-69346000D01*
X85036880Y-69555523D01*
X85089261Y-69660285D01*
X85141642Y-69712666D01*
X85246404Y-69765047D01*
X85560690Y-69765047D01*
X85665452Y-69712666D01*
X85717833Y-69660285D01*
X85770214Y-69555523D01*
X85770214Y-69346000D01*
X85717833Y-69241238D01*
D11*
%TO.C,BB_POWER_PINS1*%
X86935000Y-89595000D02*
X86935000Y-84395000D01*
X97155000Y-89595000D02*
X86935000Y-89595000D01*
X99755000Y-84395000D02*
X86935000Y-84395000D01*
X97155000Y-89595000D02*
X97155000Y-86995000D01*
X97155000Y-86995000D02*
X99755000Y-86995000D01*
X99755000Y-86995000D02*
X99755000Y-84395000D01*
X98425000Y-89595000D02*
X99755000Y-89595000D01*
X99755000Y-89595000D02*
X99755000Y-88265000D01*
%TO.C,BB_POWER_PINS2*%
X99755000Y-45145000D02*
X99755000Y-43815000D01*
X98425000Y-45145000D02*
X99755000Y-45145000D01*
X99755000Y-42545000D02*
X99755000Y-39945000D01*
X97155000Y-42545000D02*
X99755000Y-42545000D01*
X97155000Y-45145000D02*
X97155000Y-42545000D01*
X99755000Y-39945000D02*
X86935000Y-39945000D01*
X97155000Y-45145000D02*
X86935000Y-45145000D01*
X86935000Y-45145000D02*
X86935000Y-39945000D01*
%TO.C,NEG_12V_PINS1*%
X86808000Y-52130000D02*
X86808000Y-49470000D01*
X97028000Y-52130000D02*
X86808000Y-52130000D01*
X97028000Y-49470000D02*
X86808000Y-49470000D01*
X97028000Y-52130000D02*
X97028000Y-49470000D01*
X98298000Y-52130000D02*
X99628000Y-52130000D01*
X99628000Y-52130000D02*
X99628000Y-50800000D01*
%TO.C,NEG_12V_PINS2*%
X99755000Y-80070000D02*
X99755000Y-78740000D01*
X98425000Y-80070000D02*
X99755000Y-80070000D01*
X97155000Y-80070000D02*
X97155000Y-77410000D01*
X97155000Y-77410000D02*
X86935000Y-77410000D01*
X97155000Y-80070000D02*
X86935000Y-80070000D01*
X86935000Y-80070000D02*
X86935000Y-77410000D01*
%TD*%
M02*
