%FSLAX45Y45*%
G04 Gerber Fmt 4.5, Leading zero omitted, Abs format (unit mm)*
G04 Created by KiCad (PCBNEW 5.1.9+dfsg1-1~bpo10+1) date 2022-02-19 16:25:07*
%MOMM*%
%LPD*%
G01*
G04 APERTURE LIST*
%TA.AperFunction,Profile*%
%ADD10C,0.100000*%
%TD*%
%ADD11C,0.200000*%
%ADD12C,0.300000*%
G04 APERTURE END LIST*
D10*
X10033000Y-3962400D02*
X10033000Y-5270500D01*
X6858000Y-3962400D02*
X10033000Y-3962400D01*
X6858000Y-8991600D02*
X6858000Y-3962400D01*
X10033000Y-8991600D02*
X6858000Y-8991600D01*
X10033000Y-7683500D02*
X10033000Y-8991600D01*
X8636000Y-7683500D02*
X10033000Y-7683500D01*
X8636000Y-5270500D02*
X8636000Y-7683500D01*
X10033000Y-5270500D02*
X8636000Y-5270500D01*
D11*
X6933250Y-4571050D02*
X6973250Y-4611050D01*
X6973250Y-4571050D02*
X6933250Y-4611050D01*
X6933250Y-5174300D02*
X6973250Y-5214300D01*
X6973250Y-5174300D02*
X6933250Y-5214300D01*
X6977700Y-7987350D02*
X7017700Y-8027350D01*
X7017700Y-7987350D02*
X6977700Y-8027350D01*
X7022150Y-4990150D02*
X7062150Y-5030150D01*
X7062150Y-4990150D02*
X7022150Y-5030150D01*
X7034850Y-4647250D02*
X7074850Y-4687250D01*
X7074850Y-4647250D02*
X7034850Y-4687250D01*
X7346000Y-5028250D02*
X7386000Y-5068250D01*
X7386000Y-5028250D02*
X7346000Y-5068250D01*
X7403150Y-4888550D02*
X7443150Y-4928550D01*
X7443150Y-4888550D02*
X7403150Y-4928550D01*
X7422200Y-4583750D02*
X7462200Y-4623750D01*
X7462200Y-4583750D02*
X7422200Y-4623750D01*
X7504750Y-6488750D02*
X7544750Y-6528750D01*
X7544750Y-6488750D02*
X7504750Y-6528750D01*
X7511100Y-4780600D02*
X7551100Y-4820600D01*
X7551100Y-4780600D02*
X7511100Y-4820600D01*
X7511100Y-6641150D02*
X7551100Y-6681150D01*
X7551100Y-6641150D02*
X7511100Y-6681150D01*
X7542850Y-4539300D02*
X7582850Y-4579300D01*
X7582850Y-4539300D02*
X7542850Y-4579300D01*
X7587300Y-5072700D02*
X7627300Y-5112700D01*
X7627300Y-5072700D02*
X7587300Y-5112700D01*
X7777800Y-6272850D02*
X7817800Y-6312850D01*
X7817800Y-6272850D02*
X7777800Y-6312850D01*
X7784150Y-6361750D02*
X7824150Y-6401750D01*
X7824150Y-6361750D02*
X7784150Y-6401750D01*
X7790500Y-5612450D02*
X7830500Y-5652450D01*
X7830500Y-5612450D02*
X7790500Y-5652450D01*
X7815900Y-5771200D02*
X7855900Y-5811200D01*
X7855900Y-5771200D02*
X7815900Y-5811200D01*
X7815900Y-7688900D02*
X7855900Y-7728900D01*
X7855900Y-7688900D02*
X7815900Y-7728900D01*
X7841300Y-5466400D02*
X7881300Y-5506400D01*
X7881300Y-5466400D02*
X7841300Y-5506400D01*
X7860350Y-7555550D02*
X7900350Y-7595550D01*
X7900350Y-7555550D02*
X7860350Y-7595550D01*
X7904800Y-4875850D02*
X7944800Y-4915850D01*
X7944800Y-4875850D02*
X7904800Y-4915850D01*
X7936550Y-6698300D02*
X7976550Y-6738300D01*
X7976550Y-6698300D02*
X7936550Y-6738300D01*
X8006400Y-6171250D02*
X8046400Y-6211250D01*
X8046400Y-6171250D02*
X8006400Y-6211250D01*
X8101650Y-4113850D02*
X8141650Y-4153850D01*
X8141650Y-4113850D02*
X8101650Y-4153850D01*
X8101650Y-4221800D02*
X8141650Y-4261800D01*
X8141650Y-4221800D02*
X8101650Y-4261800D01*
X8114350Y-6482400D02*
X8154350Y-6522400D01*
X8154350Y-6482400D02*
X8114350Y-6522400D01*
X8165150Y-8685850D02*
X8205150Y-8725850D01*
X8205150Y-8685850D02*
X8165150Y-8725850D01*
X8203250Y-8469950D02*
X8243250Y-8509950D01*
X8243250Y-8469950D02*
X8203250Y-8509950D01*
X8260400Y-8247700D02*
X8300400Y-8287700D01*
X8300400Y-8247700D02*
X8260400Y-8287700D01*
X8317550Y-4304350D02*
X8357550Y-4344350D01*
X8357550Y-4304350D02*
X8317550Y-4344350D01*
X8362000Y-8609650D02*
X8402000Y-8649650D01*
X8402000Y-8609650D02*
X8362000Y-8649650D01*
X8400100Y-6234750D02*
X8440100Y-6274750D01*
X8440100Y-6234750D02*
X8400100Y-6274750D01*
X8400100Y-8323900D02*
X8440100Y-8363900D01*
X8440100Y-8323900D02*
X8400100Y-8363900D01*
X8419150Y-4132900D02*
X8459150Y-4172900D01*
X8459150Y-4132900D02*
X8419150Y-4172900D01*
X8495350Y-6241100D02*
X8535350Y-6281100D01*
X8535350Y-6241100D02*
X8495350Y-6281100D01*
X8501700Y-8177850D02*
X8541700Y-8217850D01*
X8541700Y-8177850D02*
X8501700Y-8217850D01*
X8552500Y-4323400D02*
X8592500Y-4363400D01*
X8592500Y-4323400D02*
X8552500Y-4363400D01*
X8793800Y-4780600D02*
X8833800Y-4820600D01*
X8833800Y-4780600D02*
X8793800Y-4820600D01*
X8819200Y-4628200D02*
X8859200Y-4668200D01*
X8859200Y-4628200D02*
X8819200Y-4668200D01*
X8844600Y-8209600D02*
X8884600Y-8249600D01*
X8884600Y-8209600D02*
X8844600Y-8249600D01*
X8997000Y-8082600D02*
X9037000Y-8122600D01*
X9037000Y-8082600D02*
X8997000Y-8122600D01*
X9149400Y-4691700D02*
X9189400Y-4731700D01*
X9189400Y-4691700D02*
X9149400Y-4731700D01*
X9301800Y-4793300D02*
X9341800Y-4833300D01*
X9341800Y-4793300D02*
X9301800Y-4833300D01*
X9339900Y-8209600D02*
X9379900Y-8249600D01*
X9379900Y-8209600D02*
X9339900Y-8249600D01*
X9441500Y-8171500D02*
X9481500Y-8211500D01*
X9481500Y-8171500D02*
X9441500Y-8211500D01*
X9682800Y-4704400D02*
X9722800Y-4744400D01*
X9722800Y-4704400D02*
X9682800Y-4744400D01*
X9695500Y-8120700D02*
X9735500Y-8160700D01*
X9735500Y-8120700D02*
X9695500Y-8160700D01*
X9822500Y-4831400D02*
X9862500Y-4871400D01*
X9862500Y-4831400D02*
X9822500Y-4871400D01*
X9860600Y-8222300D02*
X9900600Y-8262300D01*
X9900600Y-8222300D02*
X9860600Y-8262300D01*
X8206100Y-5969000D02*
G75*
G03*
X8206100Y-5969000I-40000J0D01*
G01*
X8206100Y-6731000D02*
G75*
G03*
X8206100Y-6731000I-40000J0D01*
G01*
X8333100Y-4639500D02*
G75*
G03*
X8333100Y-4639500I-40000J0D01*
G01*
X8333100Y-4889500D02*
G75*
G03*
X8333100Y-4889500I-40000J0D01*
G01*
X8333100Y-5334000D02*
G75*
G03*
X8333100Y-5334000I-40000J0D01*
G01*
X8333100Y-5584000D02*
G75*
G03*
X8333100Y-5584000I-40000J0D01*
G01*
X8510900Y-5969000D02*
G75*
G03*
X8510900Y-5969000I-40000J0D01*
G01*
X8510900Y-6731000D02*
G75*
G03*
X8510900Y-6731000I-40000J0D01*
G01*
X7150000Y-7220700D02*
X7150000Y-7310700D01*
X7105000Y-7265700D02*
X7195000Y-7265700D01*
X7115000Y-7200700D02*
X7115000Y-7330700D01*
X7185000Y-7200700D02*
X7185000Y-7330700D01*
X7115000Y-7330700D02*
G75*
G03*
X7185000Y-7330700I35000J0D01*
G01*
X7185000Y-7200700D02*
G75*
G03*
X7115000Y-7200700I-35000J0D01*
G01*
X7150000Y-7700700D02*
X7150000Y-7790700D01*
X7105000Y-7745700D02*
X7195000Y-7745700D01*
X7115000Y-7680700D02*
X7115000Y-7810700D01*
X7185000Y-7680700D02*
X7185000Y-7810700D01*
X7115000Y-7810700D02*
G75*
G03*
X7185000Y-7810700I35000J0D01*
G01*
X7185000Y-7680700D02*
G75*
G03*
X7115000Y-7680700I-35000J0D01*
G01*
X7200900Y-8489400D02*
X7200900Y-8579400D01*
X7155900Y-8534400D02*
X7245900Y-8534400D01*
X7454900Y-8489400D02*
X7454900Y-8579400D01*
X7409900Y-8534400D02*
X7499900Y-8534400D01*
X7620000Y-7220700D02*
X7620000Y-7310700D01*
X7575000Y-7265700D02*
X7665000Y-7265700D01*
X7585000Y-7200700D02*
X7585000Y-7330700D01*
X7655000Y-7200700D02*
X7655000Y-7330700D01*
X7585000Y-7330700D02*
G75*
G03*
X7655000Y-7330700I35000J0D01*
G01*
X7655000Y-7200700D02*
G75*
G03*
X7585000Y-7200700I-35000J0D01*
G01*
X7620000Y-7700700D02*
X7620000Y-7790700D01*
X7575000Y-7745700D02*
X7665000Y-7745700D01*
X7585000Y-7680700D02*
X7585000Y-7810700D01*
X7655000Y-7680700D02*
X7655000Y-7810700D01*
X7585000Y-7810700D02*
G75*
G03*
X7655000Y-7810700I35000J0D01*
G01*
X7655000Y-7680700D02*
G75*
G03*
X7585000Y-7680700I-35000J0D01*
G01*
X7734300Y-8489400D02*
X7734300Y-8579400D01*
X7689300Y-8534400D02*
X7779300Y-8534400D01*
X7988300Y-8489400D02*
X7988300Y-8579400D01*
X7943300Y-8534400D02*
X8033300Y-8534400D01*
X8090000Y-7220700D02*
X8090000Y-7310700D01*
X8045000Y-7265700D02*
X8135000Y-7265700D01*
X8055000Y-7200700D02*
X8055000Y-7330700D01*
X8125000Y-7200700D02*
X8125000Y-7330700D01*
X8055000Y-7330700D02*
G75*
G03*
X8125000Y-7330700I35000J0D01*
G01*
X8125000Y-7200700D02*
G75*
G03*
X8055000Y-7200700I-35000J0D01*
G01*
X8090000Y-7700700D02*
X8090000Y-7790700D01*
X8045000Y-7745700D02*
X8135000Y-7745700D01*
X8055000Y-7680700D02*
X8055000Y-7810700D01*
X8125000Y-7680700D02*
X8125000Y-7810700D01*
X8055000Y-7810700D02*
G75*
G03*
X8125000Y-7810700I35000J0D01*
G01*
X8125000Y-7680700D02*
G75*
G03*
X8055000Y-7680700I-35000J0D01*
G01*
X7247188Y-4364288D02*
X7247188Y-4297112D01*
X7180012Y-4297112D01*
X7180012Y-4364288D01*
X7247188Y-4364288D01*
X7497188Y-4364288D02*
X7497188Y-4297112D01*
X7430012Y-4297112D01*
X7430012Y-4364288D01*
X7497188Y-4364288D01*
X7747188Y-4364288D02*
X7747188Y-4297112D01*
X7680012Y-4297112D01*
X7680012Y-4364288D01*
X7747188Y-4364288D01*
X7277100Y-5333200D02*
X7327100Y-5283200D01*
X7277100Y-5233200D01*
X7227100Y-5283200D01*
X7277100Y-5333200D01*
X7277100Y-5587200D02*
X7327100Y-5537200D01*
X7277100Y-5487200D01*
X7227100Y-5537200D01*
X7277100Y-5587200D01*
X7277100Y-5841200D02*
X7327100Y-5791200D01*
X7277100Y-5741200D01*
X7227100Y-5791200D01*
X7277100Y-5841200D01*
X7277100Y-6095200D02*
X7327100Y-6045200D01*
X7277100Y-5995200D01*
X7227100Y-6045200D01*
X7277100Y-6095200D01*
X7277100Y-6349200D02*
X7327100Y-6299200D01*
X7277100Y-6249200D01*
X7227100Y-6299200D01*
X7277100Y-6349200D01*
X7531100Y-5333200D02*
X7581100Y-5283200D01*
X7531100Y-5233200D01*
X7481100Y-5283200D01*
X7531100Y-5333200D01*
X7531100Y-5587200D02*
X7581100Y-5537200D01*
X7531100Y-5487200D01*
X7481100Y-5537200D01*
X7531100Y-5587200D01*
X7531100Y-5841200D02*
X7581100Y-5791200D01*
X7531100Y-5741200D01*
X7481100Y-5791200D01*
X7531100Y-5841200D01*
X7531100Y-6095200D02*
X7581100Y-6045200D01*
X7531100Y-5995200D01*
X7481100Y-6045200D01*
X7531100Y-6095200D01*
X7531100Y-6349200D02*
X7581100Y-6299200D01*
X7531100Y-6249200D01*
X7481100Y-6299200D01*
X7531100Y-6349200D01*
X8813800Y-5130000D02*
X8863800Y-5080000D01*
X8813800Y-5030000D01*
X8763800Y-5080000D01*
X8813800Y-5130000D01*
X8826500Y-4177500D02*
X8876500Y-4127500D01*
X8826500Y-4077500D01*
X8776500Y-4127500D01*
X8826500Y-4177500D01*
X8826500Y-4431500D02*
X8876500Y-4381500D01*
X8826500Y-4331500D01*
X8776500Y-4381500D01*
X8826500Y-4431500D01*
X8826500Y-7924000D02*
X8876500Y-7874000D01*
X8826500Y-7824000D01*
X8776500Y-7874000D01*
X8826500Y-7924000D01*
X8826500Y-8622500D02*
X8876500Y-8572500D01*
X8826500Y-8522500D01*
X8776500Y-8572500D01*
X8826500Y-8622500D01*
X8826500Y-8876500D02*
X8876500Y-8826500D01*
X8826500Y-8776500D01*
X8776500Y-8826500D01*
X8826500Y-8876500D01*
X9067800Y-5130000D02*
X9117800Y-5080000D01*
X9067800Y-5030000D01*
X9017800Y-5080000D01*
X9067800Y-5130000D01*
X9080500Y-4177500D02*
X9130500Y-4127500D01*
X9080500Y-4077500D01*
X9030500Y-4127500D01*
X9080500Y-4177500D01*
X9080500Y-4431500D02*
X9130500Y-4381500D01*
X9080500Y-4331500D01*
X9030500Y-4381500D01*
X9080500Y-4431500D01*
X9080500Y-7924000D02*
X9130500Y-7874000D01*
X9080500Y-7824000D01*
X9030500Y-7874000D01*
X9080500Y-7924000D01*
X9080500Y-8622500D02*
X9130500Y-8572500D01*
X9080500Y-8522500D01*
X9030500Y-8572500D01*
X9080500Y-8622500D01*
X9080500Y-8876500D02*
X9130500Y-8826500D01*
X9080500Y-8776500D01*
X9030500Y-8826500D01*
X9080500Y-8876500D01*
X9321800Y-5130000D02*
X9371800Y-5080000D01*
X9321800Y-5030000D01*
X9271800Y-5080000D01*
X9321800Y-5130000D01*
X9334500Y-4177500D02*
X9384500Y-4127500D01*
X9334500Y-4077500D01*
X9284500Y-4127500D01*
X9334500Y-4177500D01*
X9334500Y-4431500D02*
X9384500Y-4381500D01*
X9334500Y-4331500D01*
X9284500Y-4381500D01*
X9334500Y-4431500D01*
X9334500Y-7924000D02*
X9384500Y-7874000D01*
X9334500Y-7824000D01*
X9284500Y-7874000D01*
X9334500Y-7924000D01*
X9334500Y-8622500D02*
X9384500Y-8572500D01*
X9334500Y-8522500D01*
X9284500Y-8572500D01*
X9334500Y-8622500D01*
X9334500Y-8876500D02*
X9384500Y-8826500D01*
X9334500Y-8776500D01*
X9284500Y-8826500D01*
X9334500Y-8876500D01*
X9575800Y-5130000D02*
X9625800Y-5080000D01*
X9575800Y-5030000D01*
X9525800Y-5080000D01*
X9575800Y-5130000D01*
X9588500Y-4177500D02*
X9638500Y-4127500D01*
X9588500Y-4077500D01*
X9538500Y-4127500D01*
X9588500Y-4177500D01*
X9588500Y-4431500D02*
X9638500Y-4381500D01*
X9588500Y-4331500D01*
X9538500Y-4381500D01*
X9588500Y-4431500D01*
X9588500Y-7924000D02*
X9638500Y-7874000D01*
X9588500Y-7824000D01*
X9538500Y-7874000D01*
X9588500Y-7924000D01*
X9588500Y-8622500D02*
X9638500Y-8572500D01*
X9588500Y-8522500D01*
X9538500Y-8572500D01*
X9588500Y-8622500D01*
X9588500Y-8876500D02*
X9638500Y-8826500D01*
X9588500Y-8776500D01*
X9538500Y-8826500D01*
X9588500Y-8876500D01*
X9829800Y-5130000D02*
X9879800Y-5080000D01*
X9829800Y-5030000D01*
X9779800Y-5080000D01*
X9829800Y-5130000D01*
X9842500Y-4177500D02*
X9892500Y-4127500D01*
X9842500Y-4077500D01*
X9792500Y-4127500D01*
X9842500Y-4177500D01*
X9842500Y-4431500D02*
X9892500Y-4381500D01*
X9842500Y-4331500D01*
X9792500Y-4381500D01*
X9842500Y-4431500D01*
X9842500Y-7924000D02*
X9892500Y-7874000D01*
X9842500Y-7824000D01*
X9792500Y-7874000D01*
X9842500Y-7924000D01*
X9842500Y-8622500D02*
X9892500Y-8572500D01*
X9842500Y-8522500D01*
X9792500Y-8572500D01*
X9842500Y-8622500D01*
X9842500Y-8876500D02*
X9892500Y-8826500D01*
X9842500Y-8776500D01*
X9792500Y-8826500D01*
X9842500Y-8876500D01*
D12*
X7139428Y-9462314D02*
X7139428Y-9162314D01*
X7210857Y-9162314D01*
X7253714Y-9176600D01*
X7282286Y-9205172D01*
X7296571Y-9233743D01*
X7310857Y-9290886D01*
X7310857Y-9333743D01*
X7296571Y-9390886D01*
X7282286Y-9419457D01*
X7253714Y-9448029D01*
X7210857Y-9462314D01*
X7139428Y-9462314D01*
X7439428Y-9462314D02*
X7439428Y-9262314D01*
X7439428Y-9319457D02*
X7453714Y-9290886D01*
X7468000Y-9276600D01*
X7496571Y-9262314D01*
X7525143Y-9262314D01*
X7625143Y-9462314D02*
X7625143Y-9262314D01*
X7625143Y-9162314D02*
X7610857Y-9176600D01*
X7625143Y-9190886D01*
X7639428Y-9176600D01*
X7625143Y-9162314D01*
X7625143Y-9190886D01*
X7810857Y-9462314D02*
X7782286Y-9448029D01*
X7768000Y-9419457D01*
X7768000Y-9162314D01*
X7968000Y-9462314D02*
X7939428Y-9448029D01*
X7925143Y-9419457D01*
X7925143Y-9162314D01*
X8310857Y-9462314D02*
X8310857Y-9162314D01*
X8410857Y-9376600D01*
X8510857Y-9162314D01*
X8510857Y-9462314D01*
X8782286Y-9462314D02*
X8782286Y-9305172D01*
X8768000Y-9276600D01*
X8739428Y-9262314D01*
X8682286Y-9262314D01*
X8653714Y-9276600D01*
X8782286Y-9448029D02*
X8753714Y-9462314D01*
X8682286Y-9462314D01*
X8653714Y-9448029D01*
X8639428Y-9419457D01*
X8639428Y-9390886D01*
X8653714Y-9362314D01*
X8682286Y-9348029D01*
X8753714Y-9348029D01*
X8782286Y-9333743D01*
X8925143Y-9262314D02*
X8925143Y-9562314D01*
X8925143Y-9276600D02*
X8953714Y-9262314D01*
X9010857Y-9262314D01*
X9039428Y-9276600D01*
X9053714Y-9290886D01*
X9068000Y-9319457D01*
X9068000Y-9405172D01*
X9053714Y-9433743D01*
X9039428Y-9448029D01*
X9010857Y-9462314D01*
X8953714Y-9462314D01*
X8925143Y-9448029D01*
X9196571Y-9433743D02*
X9210857Y-9448029D01*
X9196571Y-9462314D01*
X9182286Y-9448029D01*
X9196571Y-9433743D01*
X9196571Y-9462314D01*
X9196571Y-9276600D02*
X9210857Y-9290886D01*
X9196571Y-9305172D01*
X9182286Y-9290886D01*
X9196571Y-9276600D01*
X9196571Y-9305172D01*
X6813000Y-9936600D02*
X6853000Y-9976600D01*
X6853000Y-9936600D02*
X6813000Y-9976600D01*
X7196571Y-9792314D02*
X7225143Y-9792314D01*
X7253714Y-9806600D01*
X7268000Y-9820886D01*
X7282286Y-9849457D01*
X7296571Y-9906600D01*
X7296571Y-9978029D01*
X7282286Y-10035172D01*
X7268000Y-10063743D01*
X7253714Y-10078029D01*
X7225143Y-10092314D01*
X7196571Y-10092314D01*
X7168000Y-10078029D01*
X7153714Y-10063743D01*
X7139428Y-10035172D01*
X7125143Y-9978029D01*
X7125143Y-9906600D01*
X7139428Y-9849457D01*
X7153714Y-9820886D01*
X7168000Y-9806600D01*
X7196571Y-9792314D01*
X7425143Y-10063743D02*
X7439428Y-10078029D01*
X7425143Y-10092314D01*
X7410857Y-10078029D01*
X7425143Y-10063743D01*
X7425143Y-10092314D01*
X7696571Y-9892314D02*
X7696571Y-10092314D01*
X7625143Y-9778029D02*
X7553714Y-9992314D01*
X7739428Y-9992314D01*
X7910857Y-9792314D02*
X7939428Y-9792314D01*
X7968000Y-9806600D01*
X7982286Y-9820886D01*
X7996571Y-9849457D01*
X8010857Y-9906600D01*
X8010857Y-9978029D01*
X7996571Y-10035172D01*
X7982286Y-10063743D01*
X7968000Y-10078029D01*
X7939428Y-10092314D01*
X7910857Y-10092314D01*
X7882286Y-10078029D01*
X7868000Y-10063743D01*
X7853714Y-10035172D01*
X7839428Y-9978029D01*
X7839428Y-9906600D01*
X7853714Y-9849457D01*
X7868000Y-9820886D01*
X7882286Y-9806600D01*
X7910857Y-9792314D01*
X8139428Y-10092314D02*
X8139428Y-9892314D01*
X8139428Y-9920886D02*
X8153714Y-9906600D01*
X8182286Y-9892314D01*
X8225143Y-9892314D01*
X8253714Y-9906600D01*
X8268000Y-9935172D01*
X8268000Y-10092314D01*
X8268000Y-9935172D02*
X8282286Y-9906600D01*
X8310857Y-9892314D01*
X8353714Y-9892314D01*
X8382286Y-9906600D01*
X8396571Y-9935172D01*
X8396571Y-10092314D01*
X8539428Y-10092314D02*
X8539428Y-9892314D01*
X8539428Y-9920886D02*
X8553714Y-9906600D01*
X8582286Y-9892314D01*
X8625143Y-9892314D01*
X8653714Y-9906600D01*
X8668000Y-9935172D01*
X8668000Y-10092314D01*
X8668000Y-9935172D02*
X8682286Y-9906600D01*
X8710857Y-9892314D01*
X8753714Y-9892314D01*
X8782286Y-9906600D01*
X8796571Y-9935172D01*
X8796571Y-10092314D01*
X9382286Y-9778029D02*
X9125143Y-10163743D01*
X9768000Y-9792314D02*
X9796571Y-9792314D01*
X9825143Y-9806600D01*
X9839428Y-9820886D01*
X9853714Y-9849457D01*
X9868000Y-9906600D01*
X9868000Y-9978029D01*
X9853714Y-10035172D01*
X9839428Y-10063743D01*
X9825143Y-10078029D01*
X9796571Y-10092314D01*
X9768000Y-10092314D01*
X9739428Y-10078029D01*
X9725143Y-10063743D01*
X9710857Y-10035172D01*
X9696571Y-9978029D01*
X9696571Y-9906600D01*
X9710857Y-9849457D01*
X9725143Y-9820886D01*
X9739428Y-9806600D01*
X9768000Y-9792314D01*
X9996571Y-10063743D02*
X10010857Y-10078029D01*
X9996571Y-10092314D01*
X9982286Y-10078029D01*
X9996571Y-10063743D01*
X9996571Y-10092314D01*
X10196571Y-9792314D02*
X10225143Y-9792314D01*
X10253714Y-9806600D01*
X10268000Y-9820886D01*
X10282286Y-9849457D01*
X10296571Y-9906600D01*
X10296571Y-9978029D01*
X10282286Y-10035172D01*
X10268000Y-10063743D01*
X10253714Y-10078029D01*
X10225143Y-10092314D01*
X10196571Y-10092314D01*
X10168000Y-10078029D01*
X10153714Y-10063743D01*
X10139428Y-10035172D01*
X10125143Y-9978029D01*
X10125143Y-9906600D01*
X10139428Y-9849457D01*
X10153714Y-9820886D01*
X10168000Y-9806600D01*
X10196571Y-9792314D01*
X10582286Y-10092314D02*
X10410857Y-10092314D01*
X10496571Y-10092314D02*
X10496571Y-9792314D01*
X10468000Y-9835172D01*
X10439428Y-9863743D01*
X10410857Y-9878029D01*
X10839428Y-9792314D02*
X10782286Y-9792314D01*
X10753714Y-9806600D01*
X10739428Y-9820886D01*
X10710857Y-9863743D01*
X10696571Y-9920886D01*
X10696571Y-10035172D01*
X10710857Y-10063743D01*
X10725143Y-10078029D01*
X10753714Y-10092314D01*
X10810857Y-10092314D01*
X10839428Y-10078029D01*
X10853714Y-10063743D01*
X10868000Y-10035172D01*
X10868000Y-9963743D01*
X10853714Y-9935172D01*
X10839428Y-9920886D01*
X10810857Y-9906600D01*
X10753714Y-9906600D01*
X10725143Y-9920886D01*
X10710857Y-9935172D01*
X10696571Y-9963743D01*
X10982286Y-9792314D02*
X10982286Y-9849457D01*
X11096571Y-9792314D02*
X11096571Y-9849457D01*
X11539428Y-10206600D02*
X11525143Y-10192314D01*
X11496571Y-10149457D01*
X11482286Y-10120886D01*
X11468000Y-10078029D01*
X11453714Y-10006600D01*
X11453714Y-9949457D01*
X11468000Y-9878029D01*
X11482286Y-9835172D01*
X11496571Y-9806600D01*
X11525143Y-9763743D01*
X11539428Y-9749457D01*
X11782286Y-9892314D02*
X11782286Y-10092314D01*
X11710857Y-9778029D02*
X11639428Y-9992314D01*
X11825143Y-9992314D01*
X11953714Y-10092314D02*
X12010857Y-10092314D01*
X12039428Y-10078029D01*
X12053714Y-10063743D01*
X12082286Y-10020886D01*
X12096571Y-9963743D01*
X12096571Y-9849457D01*
X12082286Y-9820886D01*
X12068000Y-9806600D01*
X12039428Y-9792314D01*
X11982286Y-9792314D01*
X11953714Y-9806600D01*
X11939428Y-9820886D01*
X11925143Y-9849457D01*
X11925143Y-9920886D01*
X11939428Y-9949457D01*
X11953714Y-9963743D01*
X11982286Y-9978029D01*
X12039428Y-9978029D01*
X12068000Y-9963743D01*
X12082286Y-9949457D01*
X12096571Y-9920886D01*
X12453714Y-10092314D02*
X12453714Y-9792314D01*
X12582286Y-10092314D02*
X12582286Y-9935172D01*
X12568000Y-9906600D01*
X12539428Y-9892314D01*
X12496571Y-9892314D01*
X12468000Y-9906600D01*
X12453714Y-9920886D01*
X12768000Y-10092314D02*
X12739428Y-10078029D01*
X12725143Y-10063743D01*
X12710857Y-10035172D01*
X12710857Y-9949457D01*
X12725143Y-9920886D01*
X12739428Y-9906600D01*
X12768000Y-9892314D01*
X12810857Y-9892314D01*
X12839428Y-9906600D01*
X12853714Y-9920886D01*
X12868000Y-9949457D01*
X12868000Y-10035172D01*
X12853714Y-10063743D01*
X12839428Y-10078029D01*
X12810857Y-10092314D01*
X12768000Y-10092314D01*
X13039428Y-10092314D02*
X13010857Y-10078029D01*
X12996571Y-10049457D01*
X12996571Y-9792314D01*
X13268000Y-10078029D02*
X13239428Y-10092314D01*
X13182286Y-10092314D01*
X13153714Y-10078029D01*
X13139428Y-10049457D01*
X13139428Y-9935172D01*
X13153714Y-9906600D01*
X13182286Y-9892314D01*
X13239428Y-9892314D01*
X13268000Y-9906600D01*
X13282286Y-9935172D01*
X13282286Y-9963743D01*
X13139428Y-9992314D01*
X13396571Y-10078029D02*
X13425143Y-10092314D01*
X13482286Y-10092314D01*
X13510857Y-10078029D01*
X13525143Y-10049457D01*
X13525143Y-10035172D01*
X13510857Y-10006600D01*
X13482286Y-9992314D01*
X13439428Y-9992314D01*
X13410857Y-9978029D01*
X13396571Y-9949457D01*
X13396571Y-9935172D01*
X13410857Y-9906600D01*
X13439428Y-9892314D01*
X13482286Y-9892314D01*
X13510857Y-9906600D01*
X13625143Y-10206600D02*
X13639428Y-10192314D01*
X13668000Y-10149457D01*
X13682286Y-10120886D01*
X13696571Y-10078029D01*
X13710857Y-10006600D01*
X13710857Y-9949457D01*
X13696571Y-9878029D01*
X13682286Y-9835172D01*
X13668000Y-9806600D01*
X13639428Y-9763743D01*
X13625143Y-9749457D01*
X6853000Y-10352600D02*
G75*
G03*
X6853000Y-10352600I-40000J0D01*
G01*
X7196571Y-10188314D02*
X7225143Y-10188314D01*
X7253714Y-10202600D01*
X7268000Y-10216886D01*
X7282286Y-10245457D01*
X7296571Y-10302600D01*
X7296571Y-10374029D01*
X7282286Y-10431172D01*
X7268000Y-10459743D01*
X7253714Y-10474029D01*
X7225143Y-10488314D01*
X7196571Y-10488314D01*
X7168000Y-10474029D01*
X7153714Y-10459743D01*
X7139428Y-10431172D01*
X7125143Y-10374029D01*
X7125143Y-10302600D01*
X7139428Y-10245457D01*
X7153714Y-10216886D01*
X7168000Y-10202600D01*
X7196571Y-10188314D01*
X7425143Y-10459743D02*
X7439428Y-10474029D01*
X7425143Y-10488314D01*
X7410857Y-10474029D01*
X7425143Y-10459743D01*
X7425143Y-10488314D01*
X7610857Y-10316886D02*
X7582286Y-10302600D01*
X7568000Y-10288314D01*
X7553714Y-10259743D01*
X7553714Y-10245457D01*
X7568000Y-10216886D01*
X7582286Y-10202600D01*
X7610857Y-10188314D01*
X7668000Y-10188314D01*
X7696571Y-10202600D01*
X7710857Y-10216886D01*
X7725143Y-10245457D01*
X7725143Y-10259743D01*
X7710857Y-10288314D01*
X7696571Y-10302600D01*
X7668000Y-10316886D01*
X7610857Y-10316886D01*
X7582286Y-10331172D01*
X7568000Y-10345457D01*
X7553714Y-10374029D01*
X7553714Y-10431172D01*
X7568000Y-10459743D01*
X7582286Y-10474029D01*
X7610857Y-10488314D01*
X7668000Y-10488314D01*
X7696571Y-10474029D01*
X7710857Y-10459743D01*
X7725143Y-10431172D01*
X7725143Y-10374029D01*
X7710857Y-10345457D01*
X7696571Y-10331172D01*
X7668000Y-10316886D01*
X7910857Y-10188314D02*
X7939428Y-10188314D01*
X7968000Y-10202600D01*
X7982286Y-10216886D01*
X7996571Y-10245457D01*
X8010857Y-10302600D01*
X8010857Y-10374029D01*
X7996571Y-10431172D01*
X7982286Y-10459743D01*
X7968000Y-10474029D01*
X7939428Y-10488314D01*
X7910857Y-10488314D01*
X7882286Y-10474029D01*
X7868000Y-10459743D01*
X7853714Y-10431172D01*
X7839428Y-10374029D01*
X7839428Y-10302600D01*
X7853714Y-10245457D01*
X7868000Y-10216886D01*
X7882286Y-10202600D01*
X7910857Y-10188314D01*
X8139428Y-10488314D02*
X8139428Y-10288314D01*
X8139428Y-10316886D02*
X8153714Y-10302600D01*
X8182286Y-10288314D01*
X8225143Y-10288314D01*
X8253714Y-10302600D01*
X8268000Y-10331172D01*
X8268000Y-10488314D01*
X8268000Y-10331172D02*
X8282286Y-10302600D01*
X8310857Y-10288314D01*
X8353714Y-10288314D01*
X8382286Y-10302600D01*
X8396571Y-10331172D01*
X8396571Y-10488314D01*
X8539428Y-10488314D02*
X8539428Y-10288314D01*
X8539428Y-10316886D02*
X8553714Y-10302600D01*
X8582286Y-10288314D01*
X8625143Y-10288314D01*
X8653714Y-10302600D01*
X8668000Y-10331172D01*
X8668000Y-10488314D01*
X8668000Y-10331172D02*
X8682286Y-10302600D01*
X8710857Y-10288314D01*
X8753714Y-10288314D01*
X8782286Y-10302600D01*
X8796571Y-10331172D01*
X8796571Y-10488314D01*
X9382286Y-10174029D02*
X9125143Y-10559743D01*
X9768000Y-10188314D02*
X9796571Y-10188314D01*
X9825143Y-10202600D01*
X9839428Y-10216886D01*
X9853714Y-10245457D01*
X9868000Y-10302600D01*
X9868000Y-10374029D01*
X9853714Y-10431172D01*
X9839428Y-10459743D01*
X9825143Y-10474029D01*
X9796571Y-10488314D01*
X9768000Y-10488314D01*
X9739428Y-10474029D01*
X9725143Y-10459743D01*
X9710857Y-10431172D01*
X9696571Y-10374029D01*
X9696571Y-10302600D01*
X9710857Y-10245457D01*
X9725143Y-10216886D01*
X9739428Y-10202600D01*
X9768000Y-10188314D01*
X9996571Y-10459743D02*
X10010857Y-10474029D01*
X9996571Y-10488314D01*
X9982286Y-10474029D01*
X9996571Y-10459743D01*
X9996571Y-10488314D01*
X10196571Y-10188314D02*
X10225143Y-10188314D01*
X10253714Y-10202600D01*
X10268000Y-10216886D01*
X10282286Y-10245457D01*
X10296571Y-10302600D01*
X10296571Y-10374029D01*
X10282286Y-10431172D01*
X10268000Y-10459743D01*
X10253714Y-10474029D01*
X10225143Y-10488314D01*
X10196571Y-10488314D01*
X10168000Y-10474029D01*
X10153714Y-10459743D01*
X10139428Y-10431172D01*
X10125143Y-10374029D01*
X10125143Y-10302600D01*
X10139428Y-10245457D01*
X10153714Y-10216886D01*
X10168000Y-10202600D01*
X10196571Y-10188314D01*
X10396571Y-10188314D02*
X10582286Y-10188314D01*
X10482286Y-10302600D01*
X10525143Y-10302600D01*
X10553714Y-10316886D01*
X10568000Y-10331172D01*
X10582286Y-10359743D01*
X10582286Y-10431172D01*
X10568000Y-10459743D01*
X10553714Y-10474029D01*
X10525143Y-10488314D01*
X10439428Y-10488314D01*
X10410857Y-10474029D01*
X10396571Y-10459743D01*
X10868000Y-10488314D02*
X10696571Y-10488314D01*
X10782286Y-10488314D02*
X10782286Y-10188314D01*
X10753714Y-10231172D01*
X10725143Y-10259743D01*
X10696571Y-10274029D01*
X10982286Y-10188314D02*
X10982286Y-10245457D01*
X11096571Y-10188314D02*
X11096571Y-10245457D01*
X11539428Y-10602600D02*
X11525143Y-10588314D01*
X11496571Y-10545457D01*
X11482286Y-10516886D01*
X11468000Y-10474029D01*
X11453714Y-10402600D01*
X11453714Y-10345457D01*
X11468000Y-10274029D01*
X11482286Y-10231172D01*
X11496571Y-10202600D01*
X11525143Y-10159743D01*
X11539428Y-10145457D01*
X11696571Y-10316886D02*
X11668000Y-10302600D01*
X11653714Y-10288314D01*
X11639428Y-10259743D01*
X11639428Y-10245457D01*
X11653714Y-10216886D01*
X11668000Y-10202600D01*
X11696571Y-10188314D01*
X11753714Y-10188314D01*
X11782286Y-10202600D01*
X11796571Y-10216886D01*
X11810857Y-10245457D01*
X11810857Y-10259743D01*
X11796571Y-10288314D01*
X11782286Y-10302600D01*
X11753714Y-10316886D01*
X11696571Y-10316886D01*
X11668000Y-10331172D01*
X11653714Y-10345457D01*
X11639428Y-10374029D01*
X11639428Y-10431172D01*
X11653714Y-10459743D01*
X11668000Y-10474029D01*
X11696571Y-10488314D01*
X11753714Y-10488314D01*
X11782286Y-10474029D01*
X11796571Y-10459743D01*
X11810857Y-10431172D01*
X11810857Y-10374029D01*
X11796571Y-10345457D01*
X11782286Y-10331172D01*
X11753714Y-10316886D01*
X12168000Y-10488314D02*
X12168000Y-10188314D01*
X12296571Y-10488314D02*
X12296571Y-10331172D01*
X12282286Y-10302600D01*
X12253714Y-10288314D01*
X12210857Y-10288314D01*
X12182286Y-10302600D01*
X12168000Y-10316886D01*
X12482286Y-10488314D02*
X12453714Y-10474029D01*
X12439428Y-10459743D01*
X12425143Y-10431172D01*
X12425143Y-10345457D01*
X12439428Y-10316886D01*
X12453714Y-10302600D01*
X12482286Y-10288314D01*
X12525143Y-10288314D01*
X12553714Y-10302600D01*
X12568000Y-10316886D01*
X12582286Y-10345457D01*
X12582286Y-10431172D01*
X12568000Y-10459743D01*
X12553714Y-10474029D01*
X12525143Y-10488314D01*
X12482286Y-10488314D01*
X12753714Y-10488314D02*
X12725143Y-10474029D01*
X12710857Y-10445457D01*
X12710857Y-10188314D01*
X12982286Y-10474029D02*
X12953714Y-10488314D01*
X12896571Y-10488314D01*
X12868000Y-10474029D01*
X12853714Y-10445457D01*
X12853714Y-10331172D01*
X12868000Y-10302600D01*
X12896571Y-10288314D01*
X12953714Y-10288314D01*
X12982286Y-10302600D01*
X12996571Y-10331172D01*
X12996571Y-10359743D01*
X12853714Y-10388314D01*
X13110857Y-10474029D02*
X13139428Y-10488314D01*
X13196571Y-10488314D01*
X13225143Y-10474029D01*
X13239428Y-10445457D01*
X13239428Y-10431172D01*
X13225143Y-10402600D01*
X13196571Y-10388314D01*
X13153714Y-10388314D01*
X13125143Y-10374029D01*
X13110857Y-10345457D01*
X13110857Y-10331172D01*
X13125143Y-10302600D01*
X13153714Y-10288314D01*
X13196571Y-10288314D01*
X13225143Y-10302600D01*
X13339428Y-10602600D02*
X13353714Y-10588314D01*
X13382286Y-10545457D01*
X13396571Y-10516886D01*
X13410857Y-10474029D01*
X13425143Y-10402600D01*
X13425143Y-10345457D01*
X13410857Y-10274029D01*
X13396571Y-10231172D01*
X13382286Y-10202600D01*
X13353714Y-10159743D01*
X13339428Y-10145457D01*
X6808000Y-10703600D02*
X6808000Y-10793600D01*
X6763000Y-10748600D02*
X6853000Y-10748600D01*
X7196571Y-10584314D02*
X7225143Y-10584314D01*
X7253714Y-10598600D01*
X7268000Y-10612886D01*
X7282286Y-10641457D01*
X7296571Y-10698600D01*
X7296571Y-10770029D01*
X7282286Y-10827172D01*
X7268000Y-10855743D01*
X7253714Y-10870029D01*
X7225143Y-10884314D01*
X7196571Y-10884314D01*
X7168000Y-10870029D01*
X7153714Y-10855743D01*
X7139428Y-10827172D01*
X7125143Y-10770029D01*
X7125143Y-10698600D01*
X7139428Y-10641457D01*
X7153714Y-10612886D01*
X7168000Y-10598600D01*
X7196571Y-10584314D01*
X7425143Y-10855743D02*
X7439428Y-10870029D01*
X7425143Y-10884314D01*
X7410857Y-10870029D01*
X7425143Y-10855743D01*
X7425143Y-10884314D01*
X7582286Y-10884314D02*
X7639428Y-10884314D01*
X7668000Y-10870029D01*
X7682286Y-10855743D01*
X7710857Y-10812886D01*
X7725143Y-10755743D01*
X7725143Y-10641457D01*
X7710857Y-10612886D01*
X7696571Y-10598600D01*
X7668000Y-10584314D01*
X7610857Y-10584314D01*
X7582286Y-10598600D01*
X7568000Y-10612886D01*
X7553714Y-10641457D01*
X7553714Y-10712886D01*
X7568000Y-10741457D01*
X7582286Y-10755743D01*
X7610857Y-10770029D01*
X7668000Y-10770029D01*
X7696571Y-10755743D01*
X7710857Y-10741457D01*
X7725143Y-10712886D01*
X7910857Y-10584314D02*
X7939428Y-10584314D01*
X7968000Y-10598600D01*
X7982286Y-10612886D01*
X7996571Y-10641457D01*
X8010857Y-10698600D01*
X8010857Y-10770029D01*
X7996571Y-10827172D01*
X7982286Y-10855743D01*
X7968000Y-10870029D01*
X7939428Y-10884314D01*
X7910857Y-10884314D01*
X7882286Y-10870029D01*
X7868000Y-10855743D01*
X7853714Y-10827172D01*
X7839428Y-10770029D01*
X7839428Y-10698600D01*
X7853714Y-10641457D01*
X7868000Y-10612886D01*
X7882286Y-10598600D01*
X7910857Y-10584314D01*
X8139428Y-10884314D02*
X8139428Y-10684314D01*
X8139428Y-10712886D02*
X8153714Y-10698600D01*
X8182286Y-10684314D01*
X8225143Y-10684314D01*
X8253714Y-10698600D01*
X8268000Y-10727172D01*
X8268000Y-10884314D01*
X8268000Y-10727172D02*
X8282286Y-10698600D01*
X8310857Y-10684314D01*
X8353714Y-10684314D01*
X8382286Y-10698600D01*
X8396571Y-10727172D01*
X8396571Y-10884314D01*
X8539428Y-10884314D02*
X8539428Y-10684314D01*
X8539428Y-10712886D02*
X8553714Y-10698600D01*
X8582286Y-10684314D01*
X8625143Y-10684314D01*
X8653714Y-10698600D01*
X8668000Y-10727172D01*
X8668000Y-10884314D01*
X8668000Y-10727172D02*
X8682286Y-10698600D01*
X8710857Y-10684314D01*
X8753714Y-10684314D01*
X8782286Y-10698600D01*
X8796571Y-10727172D01*
X8796571Y-10884314D01*
X9382286Y-10570029D02*
X9125143Y-10955743D01*
X9768000Y-10584314D02*
X9796571Y-10584314D01*
X9825143Y-10598600D01*
X9839428Y-10612886D01*
X9853714Y-10641457D01*
X9868000Y-10698600D01*
X9868000Y-10770029D01*
X9853714Y-10827172D01*
X9839428Y-10855743D01*
X9825143Y-10870029D01*
X9796571Y-10884314D01*
X9768000Y-10884314D01*
X9739428Y-10870029D01*
X9725143Y-10855743D01*
X9710857Y-10827172D01*
X9696571Y-10770029D01*
X9696571Y-10698600D01*
X9710857Y-10641457D01*
X9725143Y-10612886D01*
X9739428Y-10598600D01*
X9768000Y-10584314D01*
X9996571Y-10855743D02*
X10010857Y-10870029D01*
X9996571Y-10884314D01*
X9982286Y-10870029D01*
X9996571Y-10855743D01*
X9996571Y-10884314D01*
X10196571Y-10584314D02*
X10225143Y-10584314D01*
X10253714Y-10598600D01*
X10268000Y-10612886D01*
X10282286Y-10641457D01*
X10296571Y-10698600D01*
X10296571Y-10770029D01*
X10282286Y-10827172D01*
X10268000Y-10855743D01*
X10253714Y-10870029D01*
X10225143Y-10884314D01*
X10196571Y-10884314D01*
X10168000Y-10870029D01*
X10153714Y-10855743D01*
X10139428Y-10827172D01*
X10125143Y-10770029D01*
X10125143Y-10698600D01*
X10139428Y-10641457D01*
X10153714Y-10612886D01*
X10168000Y-10598600D01*
X10196571Y-10584314D01*
X10396571Y-10584314D02*
X10582286Y-10584314D01*
X10482286Y-10698600D01*
X10525143Y-10698600D01*
X10553714Y-10712886D01*
X10568000Y-10727172D01*
X10582286Y-10755743D01*
X10582286Y-10827172D01*
X10568000Y-10855743D01*
X10553714Y-10870029D01*
X10525143Y-10884314D01*
X10439428Y-10884314D01*
X10410857Y-10870029D01*
X10396571Y-10855743D01*
X10853714Y-10584314D02*
X10710857Y-10584314D01*
X10696571Y-10727172D01*
X10710857Y-10712886D01*
X10739428Y-10698600D01*
X10810857Y-10698600D01*
X10839428Y-10712886D01*
X10853714Y-10727172D01*
X10868000Y-10755743D01*
X10868000Y-10827172D01*
X10853714Y-10855743D01*
X10839428Y-10870029D01*
X10810857Y-10884314D01*
X10739428Y-10884314D01*
X10710857Y-10870029D01*
X10696571Y-10855743D01*
X10982286Y-10584314D02*
X10982286Y-10641457D01*
X11096571Y-10584314D02*
X11096571Y-10641457D01*
X11539428Y-10998600D02*
X11525143Y-10984314D01*
X11496571Y-10941457D01*
X11482286Y-10912886D01*
X11468000Y-10870029D01*
X11453714Y-10798600D01*
X11453714Y-10741457D01*
X11468000Y-10670029D01*
X11482286Y-10627172D01*
X11496571Y-10598600D01*
X11525143Y-10555743D01*
X11539428Y-10541457D01*
X11782286Y-10684314D02*
X11782286Y-10884314D01*
X11710857Y-10570029D02*
X11639428Y-10784314D01*
X11825143Y-10784314D01*
X12168000Y-10884314D02*
X12168000Y-10584314D01*
X12296571Y-10884314D02*
X12296571Y-10727172D01*
X12282286Y-10698600D01*
X12253714Y-10684314D01*
X12210857Y-10684314D01*
X12182286Y-10698600D01*
X12168000Y-10712886D01*
X12482286Y-10884314D02*
X12453714Y-10870029D01*
X12439428Y-10855743D01*
X12425143Y-10827172D01*
X12425143Y-10741457D01*
X12439428Y-10712886D01*
X12453714Y-10698600D01*
X12482286Y-10684314D01*
X12525143Y-10684314D01*
X12553714Y-10698600D01*
X12568000Y-10712886D01*
X12582286Y-10741457D01*
X12582286Y-10827172D01*
X12568000Y-10855743D01*
X12553714Y-10870029D01*
X12525143Y-10884314D01*
X12482286Y-10884314D01*
X12753714Y-10884314D02*
X12725143Y-10870029D01*
X12710857Y-10841457D01*
X12710857Y-10584314D01*
X12982286Y-10870029D02*
X12953714Y-10884314D01*
X12896571Y-10884314D01*
X12868000Y-10870029D01*
X12853714Y-10841457D01*
X12853714Y-10727172D01*
X12868000Y-10698600D01*
X12896571Y-10684314D01*
X12953714Y-10684314D01*
X12982286Y-10698600D01*
X12996571Y-10727172D01*
X12996571Y-10755743D01*
X12853714Y-10784314D01*
X13110857Y-10870029D02*
X13139428Y-10884314D01*
X13196571Y-10884314D01*
X13225143Y-10870029D01*
X13239428Y-10841457D01*
X13239428Y-10827172D01*
X13225143Y-10798600D01*
X13196571Y-10784314D01*
X13153714Y-10784314D01*
X13125143Y-10770029D01*
X13110857Y-10741457D01*
X13110857Y-10727172D01*
X13125143Y-10698600D01*
X13153714Y-10684314D01*
X13196571Y-10684314D01*
X13225143Y-10698600D01*
X13596571Y-10770029D02*
X13825143Y-10770029D01*
X13710857Y-10884314D02*
X13710857Y-10655743D01*
X14325143Y-10584314D02*
X14268000Y-10584314D01*
X14239428Y-10598600D01*
X14225143Y-10612886D01*
X14196571Y-10655743D01*
X14182286Y-10712886D01*
X14182286Y-10827172D01*
X14196571Y-10855743D01*
X14210857Y-10870029D01*
X14239428Y-10884314D01*
X14296571Y-10884314D01*
X14325143Y-10870029D01*
X14339428Y-10855743D01*
X14353714Y-10827172D01*
X14353714Y-10755743D01*
X14339428Y-10727172D01*
X14325143Y-10712886D01*
X14296571Y-10698600D01*
X14239428Y-10698600D01*
X14210857Y-10712886D01*
X14196571Y-10727172D01*
X14182286Y-10755743D01*
X14696571Y-10870029D02*
X14725143Y-10884314D01*
X14782286Y-10884314D01*
X14810857Y-10870029D01*
X14825143Y-10841457D01*
X14825143Y-10827172D01*
X14810857Y-10798600D01*
X14782286Y-10784314D01*
X14739428Y-10784314D01*
X14710857Y-10770029D01*
X14696571Y-10741457D01*
X14696571Y-10727172D01*
X14710857Y-10698600D01*
X14739428Y-10684314D01*
X14782286Y-10684314D01*
X14810857Y-10698600D01*
X14996571Y-10884314D02*
X14968000Y-10870029D01*
X14953714Y-10841457D01*
X14953714Y-10584314D01*
X15153714Y-10884314D02*
X15125143Y-10870029D01*
X15110857Y-10855743D01*
X15096571Y-10827172D01*
X15096571Y-10741457D01*
X15110857Y-10712886D01*
X15125143Y-10698600D01*
X15153714Y-10684314D01*
X15196571Y-10684314D01*
X15225143Y-10698600D01*
X15239428Y-10712886D01*
X15253714Y-10741457D01*
X15253714Y-10827172D01*
X15239428Y-10855743D01*
X15225143Y-10870029D01*
X15196571Y-10884314D01*
X15153714Y-10884314D01*
X15339428Y-10684314D02*
X15453714Y-10684314D01*
X15382286Y-10584314D02*
X15382286Y-10841457D01*
X15396571Y-10870029D01*
X15425143Y-10884314D01*
X15453714Y-10884314D01*
X15539428Y-10870029D02*
X15568000Y-10884314D01*
X15625143Y-10884314D01*
X15653714Y-10870029D01*
X15668000Y-10841457D01*
X15668000Y-10827172D01*
X15653714Y-10798600D01*
X15625143Y-10784314D01*
X15582286Y-10784314D01*
X15553714Y-10770029D01*
X15539428Y-10741457D01*
X15539428Y-10727172D01*
X15553714Y-10698600D01*
X15582286Y-10684314D01*
X15625143Y-10684314D01*
X15653714Y-10698600D01*
X15768000Y-10998600D02*
X15782286Y-10984314D01*
X15810857Y-10941457D01*
X15825143Y-10912886D01*
X15839428Y-10870029D01*
X15853714Y-10798600D01*
X15853714Y-10741457D01*
X15839428Y-10670029D01*
X15825143Y-10627172D01*
X15810857Y-10598600D01*
X15782286Y-10555743D01*
X15768000Y-10541457D01*
X6839088Y-11178188D02*
X6839088Y-11111012D01*
X6771912Y-11111012D01*
X6771912Y-11178188D01*
X6839088Y-11178188D01*
X7196571Y-10980314D02*
X7225143Y-10980314D01*
X7253714Y-10994600D01*
X7268000Y-11008886D01*
X7282286Y-11037457D01*
X7296571Y-11094600D01*
X7296571Y-11166029D01*
X7282286Y-11223171D01*
X7268000Y-11251743D01*
X7253714Y-11266029D01*
X7225143Y-11280314D01*
X7196571Y-11280314D01*
X7168000Y-11266029D01*
X7153714Y-11251743D01*
X7139428Y-11223171D01*
X7125143Y-11166029D01*
X7125143Y-11094600D01*
X7139428Y-11037457D01*
X7153714Y-11008886D01*
X7168000Y-10994600D01*
X7196571Y-10980314D01*
X7425143Y-11251743D02*
X7439428Y-11266029D01*
X7425143Y-11280314D01*
X7410857Y-11266029D01*
X7425143Y-11251743D01*
X7425143Y-11280314D01*
X7582286Y-11280314D02*
X7639428Y-11280314D01*
X7668000Y-11266029D01*
X7682286Y-11251743D01*
X7710857Y-11208886D01*
X7725143Y-11151743D01*
X7725143Y-11037457D01*
X7710857Y-11008886D01*
X7696571Y-10994600D01*
X7668000Y-10980314D01*
X7610857Y-10980314D01*
X7582286Y-10994600D01*
X7568000Y-11008886D01*
X7553714Y-11037457D01*
X7553714Y-11108886D01*
X7568000Y-11137457D01*
X7582286Y-11151743D01*
X7610857Y-11166029D01*
X7668000Y-11166029D01*
X7696571Y-11151743D01*
X7710857Y-11137457D01*
X7725143Y-11108886D01*
X7996571Y-10980314D02*
X7853714Y-10980314D01*
X7839428Y-11123172D01*
X7853714Y-11108886D01*
X7882286Y-11094600D01*
X7953714Y-11094600D01*
X7982286Y-11108886D01*
X7996571Y-11123172D01*
X8010857Y-11151743D01*
X8010857Y-11223171D01*
X7996571Y-11251743D01*
X7982286Y-11266029D01*
X7953714Y-11280314D01*
X7882286Y-11280314D01*
X7853714Y-11266029D01*
X7839428Y-11251743D01*
X8139428Y-11280314D02*
X8139428Y-11080314D01*
X8139428Y-11108886D02*
X8153714Y-11094600D01*
X8182286Y-11080314D01*
X8225143Y-11080314D01*
X8253714Y-11094600D01*
X8268000Y-11123172D01*
X8268000Y-11280314D01*
X8268000Y-11123172D02*
X8282286Y-11094600D01*
X8310857Y-11080314D01*
X8353714Y-11080314D01*
X8382286Y-11094600D01*
X8396571Y-11123172D01*
X8396571Y-11280314D01*
X8539428Y-11280314D02*
X8539428Y-11080314D01*
X8539428Y-11108886D02*
X8553714Y-11094600D01*
X8582286Y-11080314D01*
X8625143Y-11080314D01*
X8653714Y-11094600D01*
X8668000Y-11123172D01*
X8668000Y-11280314D01*
X8668000Y-11123172D02*
X8682286Y-11094600D01*
X8710857Y-11080314D01*
X8753714Y-11080314D01*
X8782286Y-11094600D01*
X8796571Y-11123172D01*
X8796571Y-11280314D01*
X9382286Y-10966029D02*
X9125143Y-11351743D01*
X9768000Y-10980314D02*
X9796571Y-10980314D01*
X9825143Y-10994600D01*
X9839428Y-11008886D01*
X9853714Y-11037457D01*
X9868000Y-11094600D01*
X9868000Y-11166029D01*
X9853714Y-11223171D01*
X9839428Y-11251743D01*
X9825143Y-11266029D01*
X9796571Y-11280314D01*
X9768000Y-11280314D01*
X9739428Y-11266029D01*
X9725143Y-11251743D01*
X9710857Y-11223171D01*
X9696571Y-11166029D01*
X9696571Y-11094600D01*
X9710857Y-11037457D01*
X9725143Y-11008886D01*
X9739428Y-10994600D01*
X9768000Y-10980314D01*
X9996571Y-11251743D02*
X10010857Y-11266029D01*
X9996571Y-11280314D01*
X9982286Y-11266029D01*
X9996571Y-11251743D01*
X9996571Y-11280314D01*
X10196571Y-10980314D02*
X10225143Y-10980314D01*
X10253714Y-10994600D01*
X10268000Y-11008886D01*
X10282286Y-11037457D01*
X10296571Y-11094600D01*
X10296571Y-11166029D01*
X10282286Y-11223171D01*
X10268000Y-11251743D01*
X10253714Y-11266029D01*
X10225143Y-11280314D01*
X10196571Y-11280314D01*
X10168000Y-11266029D01*
X10153714Y-11251743D01*
X10139428Y-11223171D01*
X10125143Y-11166029D01*
X10125143Y-11094600D01*
X10139428Y-11037457D01*
X10153714Y-11008886D01*
X10168000Y-10994600D01*
X10196571Y-10980314D01*
X10396571Y-10980314D02*
X10582286Y-10980314D01*
X10482286Y-11094600D01*
X10525143Y-11094600D01*
X10553714Y-11108886D01*
X10568000Y-11123172D01*
X10582286Y-11151743D01*
X10582286Y-11223171D01*
X10568000Y-11251743D01*
X10553714Y-11266029D01*
X10525143Y-11280314D01*
X10439428Y-11280314D01*
X10410857Y-11266029D01*
X10396571Y-11251743D01*
X10682286Y-10980314D02*
X10882286Y-10980314D01*
X10753714Y-11280314D01*
X10982286Y-10980314D02*
X10982286Y-11037457D01*
X11096571Y-10980314D02*
X11096571Y-11037457D01*
X11539428Y-11394600D02*
X11525143Y-11380314D01*
X11496571Y-11337457D01*
X11482286Y-11308886D01*
X11468000Y-11266029D01*
X11453714Y-11194600D01*
X11453714Y-11137457D01*
X11468000Y-11066029D01*
X11482286Y-11023172D01*
X11496571Y-10994600D01*
X11525143Y-10951743D01*
X11539428Y-10937457D01*
X11625143Y-10980314D02*
X11810857Y-10980314D01*
X11710857Y-11094600D01*
X11753714Y-11094600D01*
X11782286Y-11108886D01*
X11796571Y-11123172D01*
X11810857Y-11151743D01*
X11810857Y-11223171D01*
X11796571Y-11251743D01*
X11782286Y-11266029D01*
X11753714Y-11280314D01*
X11668000Y-11280314D01*
X11639428Y-11266029D01*
X11625143Y-11251743D01*
X12168000Y-11280314D02*
X12168000Y-10980314D01*
X12296571Y-11280314D02*
X12296571Y-11123172D01*
X12282286Y-11094600D01*
X12253714Y-11080314D01*
X12210857Y-11080314D01*
X12182286Y-11094600D01*
X12168000Y-11108886D01*
X12482286Y-11280314D02*
X12453714Y-11266029D01*
X12439428Y-11251743D01*
X12425143Y-11223171D01*
X12425143Y-11137457D01*
X12439428Y-11108886D01*
X12453714Y-11094600D01*
X12482286Y-11080314D01*
X12525143Y-11080314D01*
X12553714Y-11094600D01*
X12568000Y-11108886D01*
X12582286Y-11137457D01*
X12582286Y-11223171D01*
X12568000Y-11251743D01*
X12553714Y-11266029D01*
X12525143Y-11280314D01*
X12482286Y-11280314D01*
X12753714Y-11280314D02*
X12725143Y-11266029D01*
X12710857Y-11237457D01*
X12710857Y-10980314D01*
X12982286Y-11266029D02*
X12953714Y-11280314D01*
X12896571Y-11280314D01*
X12868000Y-11266029D01*
X12853714Y-11237457D01*
X12853714Y-11123172D01*
X12868000Y-11094600D01*
X12896571Y-11080314D01*
X12953714Y-11080314D01*
X12982286Y-11094600D01*
X12996571Y-11123172D01*
X12996571Y-11151743D01*
X12853714Y-11180314D01*
X13110857Y-11266029D02*
X13139428Y-11280314D01*
X13196571Y-11280314D01*
X13225143Y-11266029D01*
X13239428Y-11237457D01*
X13239428Y-11223171D01*
X13225143Y-11194600D01*
X13196571Y-11180314D01*
X13153714Y-11180314D01*
X13125143Y-11166029D01*
X13110857Y-11137457D01*
X13110857Y-11123172D01*
X13125143Y-11094600D01*
X13153714Y-11080314D01*
X13196571Y-11080314D01*
X13225143Y-11094600D01*
X13339428Y-11394600D02*
X13353714Y-11380314D01*
X13382286Y-11337457D01*
X13396571Y-11308886D01*
X13410857Y-11266029D01*
X13425143Y-11194600D01*
X13425143Y-11137457D01*
X13410857Y-11066029D01*
X13396571Y-11023172D01*
X13382286Y-10994600D01*
X13353714Y-10951743D01*
X13339428Y-10937457D01*
X6803000Y-11590600D02*
X6853000Y-11540600D01*
X6803000Y-11490600D01*
X6753000Y-11540600D01*
X6803000Y-11590600D01*
X7296571Y-11676314D02*
X7125143Y-11676314D01*
X7210857Y-11676314D02*
X7210857Y-11376314D01*
X7182286Y-11419171D01*
X7153714Y-11447743D01*
X7125143Y-11462029D01*
X7425143Y-11647743D02*
X7439428Y-11662029D01*
X7425143Y-11676314D01*
X7410857Y-11662029D01*
X7425143Y-11647743D01*
X7425143Y-11676314D01*
X7625143Y-11376314D02*
X7653714Y-11376314D01*
X7682286Y-11390600D01*
X7696571Y-11404886D01*
X7710857Y-11433457D01*
X7725143Y-11490600D01*
X7725143Y-11562029D01*
X7710857Y-11619171D01*
X7696571Y-11647743D01*
X7682286Y-11662029D01*
X7653714Y-11676314D01*
X7625143Y-11676314D01*
X7596571Y-11662029D01*
X7582286Y-11647743D01*
X7568000Y-11619171D01*
X7553714Y-11562029D01*
X7553714Y-11490600D01*
X7568000Y-11433457D01*
X7582286Y-11404886D01*
X7596571Y-11390600D01*
X7625143Y-11376314D01*
X7910857Y-11376314D02*
X7939428Y-11376314D01*
X7968000Y-11390600D01*
X7982286Y-11404886D01*
X7996571Y-11433457D01*
X8010857Y-11490600D01*
X8010857Y-11562029D01*
X7996571Y-11619171D01*
X7982286Y-11647743D01*
X7968000Y-11662029D01*
X7939428Y-11676314D01*
X7910857Y-11676314D01*
X7882286Y-11662029D01*
X7868000Y-11647743D01*
X7853714Y-11619171D01*
X7839428Y-11562029D01*
X7839428Y-11490600D01*
X7853714Y-11433457D01*
X7868000Y-11404886D01*
X7882286Y-11390600D01*
X7910857Y-11376314D01*
X8139428Y-11676314D02*
X8139428Y-11476314D01*
X8139428Y-11504886D02*
X8153714Y-11490600D01*
X8182286Y-11476314D01*
X8225143Y-11476314D01*
X8253714Y-11490600D01*
X8268000Y-11519171D01*
X8268000Y-11676314D01*
X8268000Y-11519171D02*
X8282286Y-11490600D01*
X8310857Y-11476314D01*
X8353714Y-11476314D01*
X8382286Y-11490600D01*
X8396571Y-11519171D01*
X8396571Y-11676314D01*
X8539428Y-11676314D02*
X8539428Y-11476314D01*
X8539428Y-11504886D02*
X8553714Y-11490600D01*
X8582286Y-11476314D01*
X8625143Y-11476314D01*
X8653714Y-11490600D01*
X8668000Y-11519171D01*
X8668000Y-11676314D01*
X8668000Y-11519171D02*
X8682286Y-11490600D01*
X8710857Y-11476314D01*
X8753714Y-11476314D01*
X8782286Y-11490600D01*
X8796571Y-11519171D01*
X8796571Y-11676314D01*
X9382286Y-11362029D02*
X9125143Y-11747743D01*
X9768000Y-11376314D02*
X9796571Y-11376314D01*
X9825143Y-11390600D01*
X9839428Y-11404886D01*
X9853714Y-11433457D01*
X9868000Y-11490600D01*
X9868000Y-11562029D01*
X9853714Y-11619171D01*
X9839428Y-11647743D01*
X9825143Y-11662029D01*
X9796571Y-11676314D01*
X9768000Y-11676314D01*
X9739428Y-11662029D01*
X9725143Y-11647743D01*
X9710857Y-11619171D01*
X9696571Y-11562029D01*
X9696571Y-11490600D01*
X9710857Y-11433457D01*
X9725143Y-11404886D01*
X9739428Y-11390600D01*
X9768000Y-11376314D01*
X9996571Y-11647743D02*
X10010857Y-11662029D01*
X9996571Y-11676314D01*
X9982286Y-11662029D01*
X9996571Y-11647743D01*
X9996571Y-11676314D01*
X10196571Y-11376314D02*
X10225143Y-11376314D01*
X10253714Y-11390600D01*
X10268000Y-11404886D01*
X10282286Y-11433457D01*
X10296571Y-11490600D01*
X10296571Y-11562029D01*
X10282286Y-11619171D01*
X10268000Y-11647743D01*
X10253714Y-11662029D01*
X10225143Y-11676314D01*
X10196571Y-11676314D01*
X10168000Y-11662029D01*
X10153714Y-11647743D01*
X10139428Y-11619171D01*
X10125143Y-11562029D01*
X10125143Y-11490600D01*
X10139428Y-11433457D01*
X10153714Y-11404886D01*
X10168000Y-11390600D01*
X10196571Y-11376314D01*
X10396571Y-11376314D02*
X10582286Y-11376314D01*
X10482286Y-11490600D01*
X10525143Y-11490600D01*
X10553714Y-11504886D01*
X10568000Y-11519171D01*
X10582286Y-11547743D01*
X10582286Y-11619171D01*
X10568000Y-11647743D01*
X10553714Y-11662029D01*
X10525143Y-11676314D01*
X10439428Y-11676314D01*
X10410857Y-11662029D01*
X10396571Y-11647743D01*
X10725143Y-11676314D02*
X10782286Y-11676314D01*
X10810857Y-11662029D01*
X10825143Y-11647743D01*
X10853714Y-11604886D01*
X10868000Y-11547743D01*
X10868000Y-11433457D01*
X10853714Y-11404886D01*
X10839428Y-11390600D01*
X10810857Y-11376314D01*
X10753714Y-11376314D01*
X10725143Y-11390600D01*
X10710857Y-11404886D01*
X10696571Y-11433457D01*
X10696571Y-11504886D01*
X10710857Y-11533457D01*
X10725143Y-11547743D01*
X10753714Y-11562029D01*
X10810857Y-11562029D01*
X10839428Y-11547743D01*
X10853714Y-11533457D01*
X10868000Y-11504886D01*
X10982286Y-11376314D02*
X10982286Y-11433457D01*
X11096571Y-11376314D02*
X11096571Y-11433457D01*
X11539428Y-11790600D02*
X11525143Y-11776314D01*
X11496571Y-11733457D01*
X11482286Y-11704886D01*
X11468000Y-11662029D01*
X11453714Y-11590600D01*
X11453714Y-11533457D01*
X11468000Y-11462029D01*
X11482286Y-11419171D01*
X11496571Y-11390600D01*
X11525143Y-11347743D01*
X11539428Y-11333457D01*
X11782286Y-11476314D02*
X11782286Y-11676314D01*
X11710857Y-11362029D02*
X11639428Y-11576314D01*
X11825143Y-11576314D01*
X11996571Y-11376314D02*
X12025143Y-11376314D01*
X12053714Y-11390600D01*
X12068000Y-11404886D01*
X12082286Y-11433457D01*
X12096571Y-11490600D01*
X12096571Y-11562029D01*
X12082286Y-11619171D01*
X12068000Y-11647743D01*
X12053714Y-11662029D01*
X12025143Y-11676314D01*
X11996571Y-11676314D01*
X11968000Y-11662029D01*
X11953714Y-11647743D01*
X11939428Y-11619171D01*
X11925143Y-11562029D01*
X11925143Y-11490600D01*
X11939428Y-11433457D01*
X11953714Y-11404886D01*
X11968000Y-11390600D01*
X11996571Y-11376314D01*
X12453714Y-11676314D02*
X12453714Y-11376314D01*
X12582286Y-11676314D02*
X12582286Y-11519171D01*
X12568000Y-11490600D01*
X12539428Y-11476314D01*
X12496571Y-11476314D01*
X12468000Y-11490600D01*
X12453714Y-11504886D01*
X12768000Y-11676314D02*
X12739428Y-11662029D01*
X12725143Y-11647743D01*
X12710857Y-11619171D01*
X12710857Y-11533457D01*
X12725143Y-11504886D01*
X12739428Y-11490600D01*
X12768000Y-11476314D01*
X12810857Y-11476314D01*
X12839428Y-11490600D01*
X12853714Y-11504886D01*
X12868000Y-11533457D01*
X12868000Y-11619171D01*
X12853714Y-11647743D01*
X12839428Y-11662029D01*
X12810857Y-11676314D01*
X12768000Y-11676314D01*
X13039428Y-11676314D02*
X13010857Y-11662029D01*
X12996571Y-11633457D01*
X12996571Y-11376314D01*
X13268000Y-11662029D02*
X13239428Y-11676314D01*
X13182286Y-11676314D01*
X13153714Y-11662029D01*
X13139428Y-11633457D01*
X13139428Y-11519171D01*
X13153714Y-11490600D01*
X13182286Y-11476314D01*
X13239428Y-11476314D01*
X13268000Y-11490600D01*
X13282286Y-11519171D01*
X13282286Y-11547743D01*
X13139428Y-11576314D01*
X13396571Y-11662029D02*
X13425143Y-11676314D01*
X13482286Y-11676314D01*
X13510857Y-11662029D01*
X13525143Y-11633457D01*
X13525143Y-11619171D01*
X13510857Y-11590600D01*
X13482286Y-11576314D01*
X13439428Y-11576314D01*
X13410857Y-11562029D01*
X13396571Y-11533457D01*
X13396571Y-11519171D01*
X13410857Y-11490600D01*
X13439428Y-11476314D01*
X13482286Y-11476314D01*
X13510857Y-11490600D01*
X13625143Y-11790600D02*
X13639428Y-11776314D01*
X13668000Y-11733457D01*
X13682286Y-11704886D01*
X13696571Y-11662029D01*
X13710857Y-11590600D01*
X13710857Y-11533457D01*
X13696571Y-11462029D01*
X13682286Y-11419171D01*
X13668000Y-11390600D01*
X13639428Y-11347743D01*
X13625143Y-11333457D01*
M02*
