M48
; DRILL file {KiCad 5.1.9+dfsg1-1~bpo10+1} date Sat Feb 19 16:25:07 2022
; FORMAT={2:4/ absolute / inch / suppress leading zeros}
; #@! TF.CreationDate,2022-02-19T16:25:07+08:00
; #@! TF.GenerationSoftware,Kicad,Pcbnew,5.1.9+dfsg1-1~bpo10+1
FMAT,2
INCH,TZ
T1C0.0157
T2C0.0315
T3C0.0354
T4C0.0374
T5C0.0394
%
G90
G05
T1
X27375Y-18075
X27375Y-20450
X27550Y-31525
X27725Y-19725
X27775Y-18375
X29000Y-19875
X29225Y-19325
X29300Y-18125
X29625Y-25625
X29650Y-18900
X29650Y-26225
X29775Y-17950
X29950Y-20050
X30700Y-24775
X30725Y-25125
X30750Y-22175
X30850Y-22800
X30850Y-30350
X30950Y-21600
X31025Y-29825
X31200Y-19275
X31325Y-26450
X31600Y-24375
X31975Y-16275
X31975Y-16700
X32025Y-25600
X32225Y-34275
X32375Y-33425
X32600Y-32550
X32825Y-17025
X33000Y-33975
X33150Y-24625
X33150Y-32850
X33225Y-16350
X33525Y-24650
X33550Y-32275
X33750Y-17100
X34700Y-18900
X34800Y-18300
X34900Y-32400
X35500Y-31900
X36100Y-18550
X36700Y-18950
X36850Y-32400
X37250Y-32250
X38200Y-18600
X38250Y-32050
X38750Y-19100
X38900Y-32450
T2
X32150Y-23500
X32150Y-26500
X32650Y-18266
X32650Y-19250
X32650Y-21000
X32650Y-21984
X33350Y-23500
X33350Y-26500
T3
X28350Y-33600
X29350Y-33600
X30450Y-33600
X31450Y-33600
T4
X28400Y-17050
X29384Y-17050
X30369Y-17050
T5
X28650Y-20800
X28650Y-21800
X28650Y-22800
X28650Y-23800
X28650Y-24800
X29650Y-20800
X29650Y-21800
X29650Y-22800
X29650Y-23800
X29650Y-24800
X34700Y-20000
X34750Y-16250
X34750Y-17250
X34750Y-31000
X34750Y-33750
X34750Y-34750
X35700Y-20000
X35750Y-16250
X35750Y-17250
X35750Y-31000
X35750Y-33750
X35750Y-34750
X36700Y-20000
X36750Y-16250
X36750Y-17250
X36750Y-31000
X36750Y-33750
X36750Y-34750
X37700Y-20000
X37750Y-16250
X37750Y-17250
X37750Y-31000
X37750Y-33750
X37750Y-34750
X38700Y-20000
X38750Y-16250
X38750Y-17250
X38750Y-31000
X38750Y-33750
X38750Y-34750
T3
G00X28150Y-28349
M15
G01X28150Y-28861
M16
G05
G00X28150Y-30239
M15
G01X28150Y-30751
M16
G05
G00X30000Y-28349
M15
G01X30000Y-28861
M16
G05
G00X30000Y-30239
M15
G01X30000Y-30751
M16
G05
G00X31850Y-28349
M15
G01X31850Y-28861
M16
G05
G00X31850Y-30239
M15
G01X31850Y-30751
M16
G05
T0
M30
