%TF.GenerationSoftware,KiCad,Pcbnew,5.1.9+dfsg1-1~bpo10+1*%
%TF.CreationDate,2022-02-19T16:25:08+08:00*%
%TF.ProjectId,euro2breadboard,6575726f-3262-4726-9561-64626f617264,rev?*%
%TF.SameCoordinates,Original*%
%TF.FileFunction,Legend,Top*%
%TF.FilePolarity,Positive*%
%FSLAX46Y46*%
G04 Gerber Fmt 4.6, Leading zero omitted, Abs format (unit mm)*
G04 Created by KiCad (PCBNEW 5.1.9+dfsg1-1~bpo10+1) date 2022-02-19 16:25:08*
%MOMM*%
%LPD*%
G01*
G04 APERTURE LIST*
%ADD10C,0.150000*%
%ADD11C,0.120000*%
G04 APERTURE END LIST*
D10*
X83272380Y-75803047D02*
X83272380Y-75612571D01*
X83320000Y-75517333D01*
X83415238Y-75422095D01*
X83605714Y-75374476D01*
X83939047Y-75374476D01*
X84129523Y-75422095D01*
X84224761Y-75517333D01*
X84272380Y-75612571D01*
X84272380Y-75803047D01*
X84224761Y-75898285D01*
X84129523Y-75993523D01*
X83939047Y-76041142D01*
X83605714Y-76041142D01*
X83415238Y-75993523D01*
X83320000Y-75898285D01*
X83272380Y-75803047D01*
X84272380Y-74945904D02*
X83272380Y-74945904D01*
X84272380Y-74374476D01*
X83272380Y-74374476D01*
X87046514Y-81938761D02*
X86951276Y-81986380D01*
X86760800Y-81986380D01*
X86665561Y-81938761D01*
X86617942Y-81843523D01*
X86617942Y-81462571D01*
X86665561Y-81367333D01*
X86760800Y-81319714D01*
X86951276Y-81319714D01*
X87046514Y-81367333D01*
X87094133Y-81462571D01*
X87094133Y-81557809D01*
X86617942Y-81653047D01*
X87951276Y-81319714D02*
X87951276Y-81986380D01*
X87522704Y-81319714D02*
X87522704Y-81843523D01*
X87570323Y-81938761D01*
X87665561Y-81986380D01*
X87808419Y-81986380D01*
X87903657Y-81938761D01*
X87951276Y-81891142D01*
X88427466Y-81986380D02*
X88427466Y-81319714D01*
X88427466Y-81510190D02*
X88475085Y-81414952D01*
X88522704Y-81367333D01*
X88617942Y-81319714D01*
X88713180Y-81319714D01*
X89189371Y-81986380D02*
X89094133Y-81938761D01*
X89046514Y-81891142D01*
X88998895Y-81795904D01*
X88998895Y-81510190D01*
X89046514Y-81414952D01*
X89094133Y-81367333D01*
X89189371Y-81319714D01*
X89332228Y-81319714D01*
X89427466Y-81367333D01*
X89475085Y-81414952D01*
X89522704Y-81510190D01*
X89522704Y-81795904D01*
X89475085Y-81891142D01*
X89427466Y-81938761D01*
X89332228Y-81986380D01*
X89189371Y-81986380D01*
X89903657Y-81081619D02*
X89951276Y-81034000D01*
X90046514Y-80986380D01*
X90284609Y-80986380D01*
X90379847Y-81034000D01*
X90427466Y-81081619D01*
X90475085Y-81176857D01*
X90475085Y-81272095D01*
X90427466Y-81414952D01*
X89856038Y-81986380D01*
X90475085Y-81986380D01*
X90903657Y-81986380D02*
X90903657Y-80986380D01*
X90903657Y-81367333D02*
X90998895Y-81319714D01*
X91189371Y-81319714D01*
X91284609Y-81367333D01*
X91332228Y-81414952D01*
X91379847Y-81510190D01*
X91379847Y-81795904D01*
X91332228Y-81891142D01*
X91284609Y-81938761D01*
X91189371Y-81986380D01*
X90998895Y-81986380D01*
X90903657Y-81938761D01*
X91808419Y-81986380D02*
X91808419Y-81319714D01*
X91808419Y-81510190D02*
X91856038Y-81414952D01*
X91903657Y-81367333D01*
X91998895Y-81319714D01*
X92094133Y-81319714D01*
X92808419Y-81938761D02*
X92713180Y-81986380D01*
X92522704Y-81986380D01*
X92427466Y-81938761D01*
X92379847Y-81843523D01*
X92379847Y-81462571D01*
X92427466Y-81367333D01*
X92522704Y-81319714D01*
X92713180Y-81319714D01*
X92808419Y-81367333D01*
X92856038Y-81462571D01*
X92856038Y-81557809D01*
X92379847Y-81653047D01*
X93713180Y-81986380D02*
X93713180Y-81462571D01*
X93665561Y-81367333D01*
X93570323Y-81319714D01*
X93379847Y-81319714D01*
X93284609Y-81367333D01*
X93713180Y-81938761D02*
X93617942Y-81986380D01*
X93379847Y-81986380D01*
X93284609Y-81938761D01*
X93236990Y-81843523D01*
X93236990Y-81748285D01*
X93284609Y-81653047D01*
X93379847Y-81605428D01*
X93617942Y-81605428D01*
X93713180Y-81557809D01*
X94617942Y-81986380D02*
X94617942Y-80986380D01*
X94617942Y-81938761D02*
X94522704Y-81986380D01*
X94332228Y-81986380D01*
X94236990Y-81938761D01*
X94189371Y-81891142D01*
X94141752Y-81795904D01*
X94141752Y-81510190D01*
X94189371Y-81414952D01*
X94236990Y-81367333D01*
X94332228Y-81319714D01*
X94522704Y-81319714D01*
X94617942Y-81367333D01*
X95094133Y-81986380D02*
X95094133Y-80986380D01*
X95094133Y-81367333D02*
X95189371Y-81319714D01*
X95379847Y-81319714D01*
X95475085Y-81367333D01*
X95522704Y-81414952D01*
X95570323Y-81510190D01*
X95570323Y-81795904D01*
X95522704Y-81891142D01*
X95475085Y-81938761D01*
X95379847Y-81986380D01*
X95189371Y-81986380D01*
X95094133Y-81938761D01*
X96141752Y-81986380D02*
X96046514Y-81938761D01*
X95998895Y-81891142D01*
X95951276Y-81795904D01*
X95951276Y-81510190D01*
X95998895Y-81414952D01*
X96046514Y-81367333D01*
X96141752Y-81319714D01*
X96284609Y-81319714D01*
X96379847Y-81367333D01*
X96427466Y-81414952D01*
X96475085Y-81510190D01*
X96475085Y-81795904D01*
X96427466Y-81891142D01*
X96379847Y-81938761D01*
X96284609Y-81986380D01*
X96141752Y-81986380D01*
X97332228Y-81986380D02*
X97332228Y-81462571D01*
X97284609Y-81367333D01*
X97189371Y-81319714D01*
X96998895Y-81319714D01*
X96903657Y-81367333D01*
X97332228Y-81938761D02*
X97236990Y-81986380D01*
X96998895Y-81986380D01*
X96903657Y-81938761D01*
X96856038Y-81843523D01*
X96856038Y-81748285D01*
X96903657Y-81653047D01*
X96998895Y-81605428D01*
X97236990Y-81605428D01*
X97332228Y-81557809D01*
X97808419Y-81986380D02*
X97808419Y-81319714D01*
X97808419Y-81510190D02*
X97856038Y-81414952D01*
X97903657Y-81367333D01*
X97998895Y-81319714D01*
X98094133Y-81319714D01*
X98856038Y-81986380D02*
X98856038Y-80986380D01*
X98856038Y-81938761D02*
X98760800Y-81986380D01*
X98570323Y-81986380D01*
X98475085Y-81938761D01*
X98427466Y-81891142D01*
X98379847Y-81795904D01*
X98379847Y-81510190D01*
X98427466Y-81414952D01*
X98475085Y-81367333D01*
X98570323Y-81319714D01*
X98760800Y-81319714D01*
X98856038Y-81367333D01*
X86659123Y-83115104D02*
X86659123Y-82315104D01*
X86659123Y-82619866D02*
X86735314Y-82581771D01*
X86887695Y-82581771D01*
X86963885Y-82619866D01*
X87001980Y-82657961D01*
X87040076Y-82734152D01*
X87040076Y-82962723D01*
X87001980Y-83038914D01*
X86963885Y-83077009D01*
X86887695Y-83115104D01*
X86735314Y-83115104D01*
X86659123Y-83077009D01*
X87306742Y-82581771D02*
X87497219Y-83115104D01*
X87687695Y-82581771D02*
X87497219Y-83115104D01*
X87421028Y-83305580D01*
X87382933Y-83343676D01*
X87306742Y-83381771D01*
X88601980Y-83115104D02*
X88601980Y-82315104D01*
X88601980Y-82619866D02*
X88678171Y-82581771D01*
X88830552Y-82581771D01*
X88906742Y-82619866D01*
X88944838Y-82657961D01*
X88982933Y-82734152D01*
X88982933Y-82962723D01*
X88944838Y-83038914D01*
X88906742Y-83077009D01*
X88830552Y-83115104D01*
X88678171Y-83115104D01*
X88601980Y-83077009D01*
X89630552Y-83077009D02*
X89554361Y-83115104D01*
X89401980Y-83115104D01*
X89325790Y-83077009D01*
X89287695Y-83000819D01*
X89287695Y-82696057D01*
X89325790Y-82619866D01*
X89401980Y-82581771D01*
X89554361Y-82581771D01*
X89630552Y-82619866D01*
X89668647Y-82696057D01*
X89668647Y-82772247D01*
X89287695Y-82848438D01*
X90011504Y-82581771D02*
X90011504Y-83115104D01*
X90011504Y-82657961D02*
X90049599Y-82619866D01*
X90125790Y-82581771D01*
X90240076Y-82581771D01*
X90316266Y-82619866D01*
X90354361Y-82696057D01*
X90354361Y-83115104D01*
X90735314Y-82581771D02*
X90735314Y-83267485D01*
X90697219Y-83343676D01*
X90621028Y-83381771D01*
X90582933Y-83381771D01*
X90735314Y-82315104D02*
X90697219Y-82353200D01*
X90735314Y-82391295D01*
X90773409Y-82353200D01*
X90735314Y-82315104D01*
X90735314Y-82391295D01*
X91116266Y-83115104D02*
X91116266Y-82581771D01*
X91116266Y-82315104D02*
X91078171Y-82353200D01*
X91116266Y-82391295D01*
X91154361Y-82353200D01*
X91116266Y-82315104D01*
X91116266Y-82391295D01*
X91840076Y-83115104D02*
X91840076Y-82696057D01*
X91801980Y-82619866D01*
X91725790Y-82581771D01*
X91573409Y-82581771D01*
X91497219Y-82619866D01*
X91840076Y-83077009D02*
X91763885Y-83115104D01*
X91573409Y-83115104D01*
X91497219Y-83077009D01*
X91459123Y-83000819D01*
X91459123Y-82924628D01*
X91497219Y-82848438D01*
X91573409Y-82810342D01*
X91763885Y-82810342D01*
X91840076Y-82772247D01*
X92335314Y-83115104D02*
X92259123Y-83077009D01*
X92221028Y-83038914D01*
X92182933Y-82962723D01*
X92182933Y-82734152D01*
X92221028Y-82657961D01*
X92259123Y-82619866D01*
X92335314Y-82581771D01*
X92449599Y-82581771D01*
X92525790Y-82619866D01*
X92563885Y-82657961D01*
X92601980Y-82734152D01*
X92601980Y-82962723D01*
X92563885Y-83038914D01*
X92525790Y-83077009D01*
X92449599Y-83115104D01*
X92335314Y-83115104D01*
X92944838Y-83115104D02*
X92944838Y-82581771D01*
X92944838Y-82657961D02*
X92982933Y-82619866D01*
X93059123Y-82581771D01*
X93173409Y-82581771D01*
X93249599Y-82619866D01*
X93287695Y-82696057D01*
X93287695Y-83115104D01*
X93287695Y-82696057D02*
X93325790Y-82619866D01*
X93401980Y-82581771D01*
X93516266Y-82581771D01*
X93592457Y-82619866D01*
X93630552Y-82696057D01*
X93630552Y-83115104D01*
X94125790Y-83115104D02*
X94049599Y-83077009D01*
X94011504Y-83038914D01*
X93973409Y-82962723D01*
X93973409Y-82734152D01*
X94011504Y-82657961D01*
X94049599Y-82619866D01*
X94125790Y-82581771D01*
X94240076Y-82581771D01*
X94316266Y-82619866D01*
X94354361Y-82657961D01*
X94392457Y-82734152D01*
X94392457Y-82962723D01*
X94354361Y-83038914D01*
X94316266Y-83077009D01*
X94240076Y-83115104D01*
X94125790Y-83115104D01*
X95078171Y-83115104D02*
X95078171Y-82315104D01*
X95078171Y-83077009D02*
X95001980Y-83115104D01*
X94849599Y-83115104D01*
X94773409Y-83077009D01*
X94735314Y-83038914D01*
X94697219Y-82962723D01*
X94697219Y-82734152D01*
X94735314Y-82657961D01*
X94773409Y-82619866D01*
X94849599Y-82581771D01*
X95001980Y-82581771D01*
X95078171Y-82619866D01*
X95801980Y-82581771D02*
X95801980Y-83115104D01*
X95459123Y-82581771D02*
X95459123Y-83000819D01*
X95497219Y-83077009D01*
X95573409Y-83115104D01*
X95687695Y-83115104D01*
X95763885Y-83077009D01*
X95801980Y-83038914D01*
X96297219Y-83115104D02*
X96221028Y-83077009D01*
X96182933Y-83000819D01*
X96182933Y-82315104D01*
X96944838Y-83115104D02*
X96944838Y-82696057D01*
X96906742Y-82619866D01*
X96830552Y-82581771D01*
X96678171Y-82581771D01*
X96601980Y-82619866D01*
X96944838Y-83077009D02*
X96868647Y-83115104D01*
X96678171Y-83115104D01*
X96601980Y-83077009D01*
X96563885Y-83000819D01*
X96563885Y-82924628D01*
X96601980Y-82848438D01*
X96678171Y-82810342D01*
X96868647Y-82810342D01*
X96944838Y-82772247D01*
X97325790Y-83115104D02*
X97325790Y-82581771D01*
X97325790Y-82734152D02*
X97363885Y-82657961D01*
X97401980Y-82619866D01*
X97478171Y-82581771D01*
X97554361Y-82581771D01*
X83983666Y-50850000D02*
X84517000Y-50850000D01*
X85217000Y-51116666D02*
X84817000Y-51116666D01*
X85017000Y-51116666D02*
X85017000Y-50416666D01*
X84950333Y-50516666D01*
X84883666Y-50583333D01*
X84817000Y-50616666D01*
X85483666Y-50483333D02*
X85517000Y-50450000D01*
X85583666Y-50416666D01*
X85750333Y-50416666D01*
X85817000Y-50450000D01*
X85850333Y-50483333D01*
X85883666Y-50550000D01*
X85883666Y-50616666D01*
X85850333Y-50716666D01*
X85450333Y-51116666D01*
X85883666Y-51116666D01*
X86083666Y-50416666D02*
X86317000Y-51116666D01*
X86550333Y-50416666D01*
X84491666Y-78790000D02*
X85025000Y-78790000D01*
X85725000Y-79056666D02*
X85325000Y-79056666D01*
X85525000Y-79056666D02*
X85525000Y-78356666D01*
X85458333Y-78456666D01*
X85391666Y-78523333D01*
X85325000Y-78556666D01*
X85991666Y-78423333D02*
X86025000Y-78390000D01*
X86091666Y-78356666D01*
X86258333Y-78356666D01*
X86325000Y-78390000D01*
X86358333Y-78423333D01*
X86391666Y-78490000D01*
X86391666Y-78556666D01*
X86358333Y-78656666D01*
X85958333Y-79056666D01*
X86391666Y-79056666D01*
X86591666Y-78356666D02*
X86825000Y-79056666D01*
X87058333Y-78356666D01*
X85064666Y-85629000D02*
X84998000Y-85595666D01*
X84898000Y-85595666D01*
X84798000Y-85629000D01*
X84731333Y-85695666D01*
X84698000Y-85762333D01*
X84664666Y-85895666D01*
X84664666Y-85995666D01*
X84698000Y-86129000D01*
X84731333Y-86195666D01*
X84798000Y-86262333D01*
X84898000Y-86295666D01*
X84964666Y-86295666D01*
X85064666Y-86262333D01*
X85098000Y-86229000D01*
X85098000Y-85995666D01*
X84964666Y-85995666D01*
X85398000Y-86295666D02*
X85398000Y-85595666D01*
X85798000Y-86295666D01*
X85798000Y-85595666D01*
X86131333Y-86295666D02*
X86131333Y-85595666D01*
X86298000Y-85595666D01*
X86398000Y-85629000D01*
X86464666Y-85695666D01*
X86498000Y-85762333D01*
X86531333Y-85895666D01*
X86531333Y-85995666D01*
X86498000Y-86129000D01*
X86464666Y-86195666D01*
X86398000Y-86262333D01*
X86298000Y-86295666D01*
X86131333Y-86295666D01*
X83983666Y-88442000D02*
X84517000Y-88442000D01*
X84250333Y-88708666D02*
X84250333Y-88175333D01*
X85217000Y-88708666D02*
X84817000Y-88708666D01*
X85017000Y-88708666D02*
X85017000Y-88008666D01*
X84950333Y-88108666D01*
X84883666Y-88175333D01*
X84817000Y-88208666D01*
X85483666Y-88075333D02*
X85517000Y-88042000D01*
X85583666Y-88008666D01*
X85750333Y-88008666D01*
X85817000Y-88042000D01*
X85850333Y-88075333D01*
X85883666Y-88142000D01*
X85883666Y-88208666D01*
X85850333Y-88308666D01*
X85450333Y-88708666D01*
X85883666Y-88708666D01*
X86083666Y-88008666D02*
X86317000Y-88708666D01*
X86550333Y-88008666D01*
X84237666Y-43738000D02*
X84771000Y-43738000D01*
X84504333Y-44004666D02*
X84504333Y-43471333D01*
X85471000Y-44004666D02*
X85071000Y-44004666D01*
X85271000Y-44004666D02*
X85271000Y-43304666D01*
X85204333Y-43404666D01*
X85137666Y-43471333D01*
X85071000Y-43504666D01*
X85737666Y-43371333D02*
X85771000Y-43338000D01*
X85837666Y-43304666D01*
X86004333Y-43304666D01*
X86071000Y-43338000D01*
X86104333Y-43371333D01*
X86137666Y-43438000D01*
X86137666Y-43504666D01*
X86104333Y-43604666D01*
X85704333Y-44004666D01*
X86137666Y-44004666D01*
X86337666Y-43304666D02*
X86571000Y-44004666D01*
X86804333Y-43304666D01*
X85318666Y-40798000D02*
X85252000Y-40764666D01*
X85152000Y-40764666D01*
X85052000Y-40798000D01*
X84985333Y-40864666D01*
X84952000Y-40931333D01*
X84918666Y-41064666D01*
X84918666Y-41164666D01*
X84952000Y-41298000D01*
X84985333Y-41364666D01*
X85052000Y-41431333D01*
X85152000Y-41464666D01*
X85218666Y-41464666D01*
X85318666Y-41431333D01*
X85352000Y-41398000D01*
X85352000Y-41164666D01*
X85218666Y-41164666D01*
X85652000Y-41464666D02*
X85652000Y-40764666D01*
X86052000Y-41464666D01*
X86052000Y-40764666D01*
X86385333Y-41464666D02*
X86385333Y-40764666D01*
X86552000Y-40764666D01*
X86652000Y-40798000D01*
X86718666Y-40864666D01*
X86752000Y-40931333D01*
X86785333Y-41064666D01*
X86785333Y-41164666D01*
X86752000Y-41298000D01*
X86718666Y-41364666D01*
X86652000Y-41431333D01*
X86552000Y-41464666D01*
X86385333Y-41464666D01*
D11*
%TO.C,C1*%
X81206000Y-50199775D02*
X81706000Y-50199775D01*
X81456000Y-50449775D02*
X81456000Y-49949775D01*
X82647000Y-45044000D02*
X83215000Y-45044000D01*
X82413000Y-45084000D02*
X83449000Y-45084000D01*
X82254000Y-45124000D02*
X83608000Y-45124000D01*
X82126000Y-45164000D02*
X83736000Y-45164000D01*
X82016000Y-45204000D02*
X83846000Y-45204000D01*
X81920000Y-45244000D02*
X83942000Y-45244000D01*
X81833000Y-45284000D02*
X84029000Y-45284000D01*
X81753000Y-45324000D02*
X84109000Y-45324000D01*
X83971000Y-45364000D02*
X84182000Y-45364000D01*
X81680000Y-45364000D02*
X81891000Y-45364000D01*
X83971000Y-45404000D02*
X84250000Y-45404000D01*
X81612000Y-45404000D02*
X81891000Y-45404000D01*
X83971000Y-45444000D02*
X84314000Y-45444000D01*
X81548000Y-45444000D02*
X81891000Y-45444000D01*
X83971000Y-45484000D02*
X84374000Y-45484000D01*
X81488000Y-45484000D02*
X81891000Y-45484000D01*
X83971000Y-45524000D02*
X84431000Y-45524000D01*
X81431000Y-45524000D02*
X81891000Y-45524000D01*
X83971000Y-45564000D02*
X84485000Y-45564000D01*
X81377000Y-45564000D02*
X81891000Y-45564000D01*
X83971000Y-45604000D02*
X84536000Y-45604000D01*
X81326000Y-45604000D02*
X81891000Y-45604000D01*
X83971000Y-45644000D02*
X84584000Y-45644000D01*
X81278000Y-45644000D02*
X81891000Y-45644000D01*
X83971000Y-45684000D02*
X84630000Y-45684000D01*
X81232000Y-45684000D02*
X81891000Y-45684000D01*
X83971000Y-45724000D02*
X84674000Y-45724000D01*
X81188000Y-45724000D02*
X81891000Y-45724000D01*
X83971000Y-45764000D02*
X84716000Y-45764000D01*
X81146000Y-45764000D02*
X81891000Y-45764000D01*
X83971000Y-45804000D02*
X84757000Y-45804000D01*
X81105000Y-45804000D02*
X81891000Y-45804000D01*
X83971000Y-45844000D02*
X84795000Y-45844000D01*
X81067000Y-45844000D02*
X81891000Y-45844000D01*
X83971000Y-45884000D02*
X84832000Y-45884000D01*
X81030000Y-45884000D02*
X81891000Y-45884000D01*
X83971000Y-45924000D02*
X84868000Y-45924000D01*
X80994000Y-45924000D02*
X81891000Y-45924000D01*
X83971000Y-45964000D02*
X84902000Y-45964000D01*
X80960000Y-45964000D02*
X81891000Y-45964000D01*
X83971000Y-46004000D02*
X84935000Y-46004000D01*
X80927000Y-46004000D02*
X81891000Y-46004000D01*
X83971000Y-46044000D02*
X84966000Y-46044000D01*
X80896000Y-46044000D02*
X81891000Y-46044000D01*
X83971000Y-46084000D02*
X84996000Y-46084000D01*
X80866000Y-46084000D02*
X81891000Y-46084000D01*
X83971000Y-46124000D02*
X85026000Y-46124000D01*
X80836000Y-46124000D02*
X81891000Y-46124000D01*
X83971000Y-46164000D02*
X85053000Y-46164000D01*
X80809000Y-46164000D02*
X81891000Y-46164000D01*
X83971000Y-46204000D02*
X85080000Y-46204000D01*
X80782000Y-46204000D02*
X81891000Y-46204000D01*
X83971000Y-46244000D02*
X85106000Y-46244000D01*
X80756000Y-46244000D02*
X81891000Y-46244000D01*
X83971000Y-46284000D02*
X85131000Y-46284000D01*
X80731000Y-46284000D02*
X81891000Y-46284000D01*
X83971000Y-46324000D02*
X85155000Y-46324000D01*
X80707000Y-46324000D02*
X81891000Y-46324000D01*
X83971000Y-46364000D02*
X85178000Y-46364000D01*
X80684000Y-46364000D02*
X81891000Y-46364000D01*
X83971000Y-46404000D02*
X85199000Y-46404000D01*
X80663000Y-46404000D02*
X81891000Y-46404000D01*
X83971000Y-46444000D02*
X85221000Y-46444000D01*
X80641000Y-46444000D02*
X81891000Y-46444000D01*
X83971000Y-46484000D02*
X85241000Y-46484000D01*
X80621000Y-46484000D02*
X81891000Y-46484000D01*
X83971000Y-46524000D02*
X85260000Y-46524000D01*
X80602000Y-46524000D02*
X81891000Y-46524000D01*
X83971000Y-46564000D02*
X85279000Y-46564000D01*
X80583000Y-46564000D02*
X81891000Y-46564000D01*
X83971000Y-46604000D02*
X85296000Y-46604000D01*
X80566000Y-46604000D02*
X81891000Y-46604000D01*
X83971000Y-46644000D02*
X85313000Y-46644000D01*
X80549000Y-46644000D02*
X81891000Y-46644000D01*
X83971000Y-46684000D02*
X85329000Y-46684000D01*
X80533000Y-46684000D02*
X81891000Y-46684000D01*
X83971000Y-46724000D02*
X85345000Y-46724000D01*
X80517000Y-46724000D02*
X81891000Y-46724000D01*
X83971000Y-46764000D02*
X85359000Y-46764000D01*
X80503000Y-46764000D02*
X81891000Y-46764000D01*
X83971000Y-46804000D02*
X85373000Y-46804000D01*
X80489000Y-46804000D02*
X81891000Y-46804000D01*
X83971000Y-46844000D02*
X85386000Y-46844000D01*
X80476000Y-46844000D02*
X81891000Y-46844000D01*
X83971000Y-46884000D02*
X85399000Y-46884000D01*
X80463000Y-46884000D02*
X81891000Y-46884000D01*
X83971000Y-46924000D02*
X85411000Y-46924000D01*
X80451000Y-46924000D02*
X81891000Y-46924000D01*
X83971000Y-46965000D02*
X85422000Y-46965000D01*
X80440000Y-46965000D02*
X81891000Y-46965000D01*
X83971000Y-47005000D02*
X85432000Y-47005000D01*
X80430000Y-47005000D02*
X81891000Y-47005000D01*
X83971000Y-47045000D02*
X85442000Y-47045000D01*
X80420000Y-47045000D02*
X81891000Y-47045000D01*
X83971000Y-47085000D02*
X85451000Y-47085000D01*
X80411000Y-47085000D02*
X81891000Y-47085000D01*
X83971000Y-47125000D02*
X85459000Y-47125000D01*
X80403000Y-47125000D02*
X81891000Y-47125000D01*
X83971000Y-47165000D02*
X85467000Y-47165000D01*
X80395000Y-47165000D02*
X81891000Y-47165000D01*
X83971000Y-47205000D02*
X85474000Y-47205000D01*
X80388000Y-47205000D02*
X81891000Y-47205000D01*
X83971000Y-47245000D02*
X85481000Y-47245000D01*
X80381000Y-47245000D02*
X81891000Y-47245000D01*
X83971000Y-47285000D02*
X85487000Y-47285000D01*
X80375000Y-47285000D02*
X81891000Y-47285000D01*
X83971000Y-47325000D02*
X85492000Y-47325000D01*
X80370000Y-47325000D02*
X81891000Y-47325000D01*
X83971000Y-47365000D02*
X85496000Y-47365000D01*
X80366000Y-47365000D02*
X81891000Y-47365000D01*
X83971000Y-47405000D02*
X85500000Y-47405000D01*
X80362000Y-47405000D02*
X81891000Y-47405000D01*
X80358000Y-47445000D02*
X85504000Y-47445000D01*
X80355000Y-47485000D02*
X85507000Y-47485000D01*
X80353000Y-47525000D02*
X85509000Y-47525000D01*
X80352000Y-47565000D02*
X85510000Y-47565000D01*
X80351000Y-47605000D02*
X85511000Y-47605000D01*
X80351000Y-47645000D02*
X85511000Y-47645000D01*
X85551000Y-47645000D02*
G75*
G03*
X85551000Y-47645000I-2620000J0D01*
G01*
%TO.C,C2*%
X85551000Y-54590000D02*
G75*
G03*
X85551000Y-54590000I-2620000J0D01*
G01*
X85511000Y-54590000D02*
X80351000Y-54590000D01*
X85511000Y-54630000D02*
X80351000Y-54630000D01*
X85510000Y-54670000D02*
X80352000Y-54670000D01*
X85509000Y-54710000D02*
X80353000Y-54710000D01*
X85507000Y-54750000D02*
X80355000Y-54750000D01*
X85504000Y-54790000D02*
X80358000Y-54790000D01*
X85500000Y-54830000D02*
X83971000Y-54830000D01*
X81891000Y-54830000D02*
X80362000Y-54830000D01*
X85496000Y-54870000D02*
X83971000Y-54870000D01*
X81891000Y-54870000D02*
X80366000Y-54870000D01*
X85492000Y-54910000D02*
X83971000Y-54910000D01*
X81891000Y-54910000D02*
X80370000Y-54910000D01*
X85487000Y-54950000D02*
X83971000Y-54950000D01*
X81891000Y-54950000D02*
X80375000Y-54950000D01*
X85481000Y-54990000D02*
X83971000Y-54990000D01*
X81891000Y-54990000D02*
X80381000Y-54990000D01*
X85474000Y-55030000D02*
X83971000Y-55030000D01*
X81891000Y-55030000D02*
X80388000Y-55030000D01*
X85467000Y-55070000D02*
X83971000Y-55070000D01*
X81891000Y-55070000D02*
X80395000Y-55070000D01*
X85459000Y-55110000D02*
X83971000Y-55110000D01*
X81891000Y-55110000D02*
X80403000Y-55110000D01*
X85451000Y-55150000D02*
X83971000Y-55150000D01*
X81891000Y-55150000D02*
X80411000Y-55150000D01*
X85442000Y-55190000D02*
X83971000Y-55190000D01*
X81891000Y-55190000D02*
X80420000Y-55190000D01*
X85432000Y-55230000D02*
X83971000Y-55230000D01*
X81891000Y-55230000D02*
X80430000Y-55230000D01*
X85422000Y-55270000D02*
X83971000Y-55270000D01*
X81891000Y-55270000D02*
X80440000Y-55270000D01*
X85411000Y-55311000D02*
X83971000Y-55311000D01*
X81891000Y-55311000D02*
X80451000Y-55311000D01*
X85399000Y-55351000D02*
X83971000Y-55351000D01*
X81891000Y-55351000D02*
X80463000Y-55351000D01*
X85386000Y-55391000D02*
X83971000Y-55391000D01*
X81891000Y-55391000D02*
X80476000Y-55391000D01*
X85373000Y-55431000D02*
X83971000Y-55431000D01*
X81891000Y-55431000D02*
X80489000Y-55431000D01*
X85359000Y-55471000D02*
X83971000Y-55471000D01*
X81891000Y-55471000D02*
X80503000Y-55471000D01*
X85345000Y-55511000D02*
X83971000Y-55511000D01*
X81891000Y-55511000D02*
X80517000Y-55511000D01*
X85329000Y-55551000D02*
X83971000Y-55551000D01*
X81891000Y-55551000D02*
X80533000Y-55551000D01*
X85313000Y-55591000D02*
X83971000Y-55591000D01*
X81891000Y-55591000D02*
X80549000Y-55591000D01*
X85296000Y-55631000D02*
X83971000Y-55631000D01*
X81891000Y-55631000D02*
X80566000Y-55631000D01*
X85279000Y-55671000D02*
X83971000Y-55671000D01*
X81891000Y-55671000D02*
X80583000Y-55671000D01*
X85260000Y-55711000D02*
X83971000Y-55711000D01*
X81891000Y-55711000D02*
X80602000Y-55711000D01*
X85241000Y-55751000D02*
X83971000Y-55751000D01*
X81891000Y-55751000D02*
X80621000Y-55751000D01*
X85221000Y-55791000D02*
X83971000Y-55791000D01*
X81891000Y-55791000D02*
X80641000Y-55791000D01*
X85199000Y-55831000D02*
X83971000Y-55831000D01*
X81891000Y-55831000D02*
X80663000Y-55831000D01*
X85178000Y-55871000D02*
X83971000Y-55871000D01*
X81891000Y-55871000D02*
X80684000Y-55871000D01*
X85155000Y-55911000D02*
X83971000Y-55911000D01*
X81891000Y-55911000D02*
X80707000Y-55911000D01*
X85131000Y-55951000D02*
X83971000Y-55951000D01*
X81891000Y-55951000D02*
X80731000Y-55951000D01*
X85106000Y-55991000D02*
X83971000Y-55991000D01*
X81891000Y-55991000D02*
X80756000Y-55991000D01*
X85080000Y-56031000D02*
X83971000Y-56031000D01*
X81891000Y-56031000D02*
X80782000Y-56031000D01*
X85053000Y-56071000D02*
X83971000Y-56071000D01*
X81891000Y-56071000D02*
X80809000Y-56071000D01*
X85026000Y-56111000D02*
X83971000Y-56111000D01*
X81891000Y-56111000D02*
X80836000Y-56111000D01*
X84996000Y-56151000D02*
X83971000Y-56151000D01*
X81891000Y-56151000D02*
X80866000Y-56151000D01*
X84966000Y-56191000D02*
X83971000Y-56191000D01*
X81891000Y-56191000D02*
X80896000Y-56191000D01*
X84935000Y-56231000D02*
X83971000Y-56231000D01*
X81891000Y-56231000D02*
X80927000Y-56231000D01*
X84902000Y-56271000D02*
X83971000Y-56271000D01*
X81891000Y-56271000D02*
X80960000Y-56271000D01*
X84868000Y-56311000D02*
X83971000Y-56311000D01*
X81891000Y-56311000D02*
X80994000Y-56311000D01*
X84832000Y-56351000D02*
X83971000Y-56351000D01*
X81891000Y-56351000D02*
X81030000Y-56351000D01*
X84795000Y-56391000D02*
X83971000Y-56391000D01*
X81891000Y-56391000D02*
X81067000Y-56391000D01*
X84757000Y-56431000D02*
X83971000Y-56431000D01*
X81891000Y-56431000D02*
X81105000Y-56431000D01*
X84716000Y-56471000D02*
X83971000Y-56471000D01*
X81891000Y-56471000D02*
X81146000Y-56471000D01*
X84674000Y-56511000D02*
X83971000Y-56511000D01*
X81891000Y-56511000D02*
X81188000Y-56511000D01*
X84630000Y-56551000D02*
X83971000Y-56551000D01*
X81891000Y-56551000D02*
X81232000Y-56551000D01*
X84584000Y-56591000D02*
X83971000Y-56591000D01*
X81891000Y-56591000D02*
X81278000Y-56591000D01*
X84536000Y-56631000D02*
X83971000Y-56631000D01*
X81891000Y-56631000D02*
X81326000Y-56631000D01*
X84485000Y-56671000D02*
X83971000Y-56671000D01*
X81891000Y-56671000D02*
X81377000Y-56671000D01*
X84431000Y-56711000D02*
X83971000Y-56711000D01*
X81891000Y-56711000D02*
X81431000Y-56711000D01*
X84374000Y-56751000D02*
X83971000Y-56751000D01*
X81891000Y-56751000D02*
X81488000Y-56751000D01*
X84314000Y-56791000D02*
X83971000Y-56791000D01*
X81891000Y-56791000D02*
X81548000Y-56791000D01*
X84250000Y-56831000D02*
X83971000Y-56831000D01*
X81891000Y-56831000D02*
X81612000Y-56831000D01*
X84182000Y-56871000D02*
X83971000Y-56871000D01*
X81891000Y-56871000D02*
X81680000Y-56871000D01*
X84109000Y-56911000D02*
X81753000Y-56911000D01*
X84029000Y-56951000D02*
X81833000Y-56951000D01*
X83942000Y-56991000D02*
X81920000Y-56991000D01*
X83846000Y-57031000D02*
X82016000Y-57031000D01*
X83736000Y-57071000D02*
X82126000Y-57071000D01*
X83608000Y-57111000D02*
X82254000Y-57111000D01*
X83449000Y-57151000D02*
X82413000Y-57151000D01*
X83215000Y-57191000D02*
X82647000Y-57191000D01*
X84406000Y-51785225D02*
X84406000Y-52285225D01*
X84656000Y-52035225D02*
X84156000Y-52035225D01*
%TO.C,J2*%
X78601000Y-68202000D02*
X69481000Y-68202000D01*
X69481000Y-68202000D02*
X69481000Y-47622000D01*
X69481000Y-47622000D02*
X78601000Y-47622000D01*
X78601000Y-47622000D02*
X78601000Y-68202000D01*
X78601000Y-59962000D02*
X77291000Y-59962000D01*
X77291000Y-59962000D02*
X77291000Y-66902000D01*
X77291000Y-66902000D02*
X70791000Y-66902000D01*
X70791000Y-66902000D02*
X70791000Y-48922000D01*
X70791000Y-48922000D02*
X77291000Y-48922000D01*
X77291000Y-48922000D02*
X77291000Y-55862000D01*
X77291000Y-55862000D02*
X77291000Y-55862000D01*
X77291000Y-55862000D02*
X78601000Y-55862000D01*
X78991000Y-62992000D02*
X79991000Y-63492000D01*
X79991000Y-63492000D02*
X79991000Y-62492000D01*
X79991000Y-62492000D02*
X78991000Y-62992000D01*
%TO.C,J1*%
X69576000Y-40847000D02*
X69576000Y-46817000D01*
X69576000Y-46817000D02*
X79696000Y-46817000D01*
X79696000Y-46817000D02*
X79696000Y-40847000D01*
X79696000Y-40847000D02*
X69576000Y-40847000D01*
X72886000Y-40857000D02*
X72886000Y-41607000D01*
X72886000Y-41607000D02*
X76386000Y-41607000D01*
X76386000Y-41607000D02*
X76386000Y-40857000D01*
X76386000Y-40857000D02*
X72886000Y-40857000D01*
X69586000Y-40857000D02*
X69586000Y-41607000D01*
X69586000Y-41607000D02*
X71386000Y-41607000D01*
X71386000Y-41607000D02*
X71386000Y-40857000D01*
X71386000Y-40857000D02*
X69586000Y-40857000D01*
X77886000Y-40857000D02*
X77886000Y-41607000D01*
X77886000Y-41607000D02*
X79686000Y-41607000D01*
X79686000Y-41607000D02*
X79686000Y-40857000D01*
X79686000Y-40857000D02*
X77886000Y-40857000D01*
X69586000Y-43107000D02*
X70336000Y-43107000D01*
X70336000Y-43107000D02*
X70336000Y-46057000D01*
X70336000Y-46057000D02*
X74636000Y-46057000D01*
X79686000Y-43107000D02*
X78936000Y-43107000D01*
X78936000Y-43107000D02*
X78936000Y-46057000D01*
X78936000Y-46057000D02*
X74636000Y-46057000D01*
X70536000Y-40557000D02*
X69286000Y-40557000D01*
X69286000Y-40557000D02*
X69286000Y-41807000D01*
%TO.C,-12V*%
X74839000Y-84264000D02*
X74839000Y-84108000D01*
X74839000Y-86580000D02*
X74839000Y-86424000D01*
X72237870Y-84264163D02*
G75*
G02*
X74319961Y-84264000I1041130J-1079837D01*
G01*
X72237870Y-86423837D02*
G75*
G03*
X74319961Y-86424000I1041130J1079837D01*
G01*
X71606665Y-84265392D02*
G75*
G02*
X74839000Y-84108484I1672335J-1078608D01*
G01*
X71606665Y-86422608D02*
G75*
G03*
X74839000Y-86579516I1672335J1078608D01*
G01*
%TO.C,+12V*%
X80173000Y-86580000D02*
X80173000Y-86424000D01*
X80173000Y-84264000D02*
X80173000Y-84108000D01*
X76940665Y-86422608D02*
G75*
G03*
X80173000Y-86579516I1672335J1078608D01*
G01*
X76940665Y-84265392D02*
G75*
G02*
X80173000Y-84108484I1672335J-1078608D01*
G01*
X77571870Y-86423837D02*
G75*
G03*
X79653961Y-86424000I1041130J1079837D01*
G01*
X77571870Y-84264163D02*
G75*
G02*
X79653961Y-84264000I1041130J-1079837D01*
G01*
%TO.C,R1*%
X83339000Y-60230000D02*
X83669000Y-60230000D01*
X85749000Y-66770000D02*
X86079000Y-66770000D01*
X86079000Y-60230000D02*
X85749000Y-60230000D01*
X86079000Y-66770000D02*
X86079000Y-60230000D01*
X83669000Y-66770000D02*
X83339000Y-66770000D01*
X83339000Y-66770000D02*
X83339000Y-60230000D01*
%TO.C,R2*%
X80291000Y-66770000D02*
X80291000Y-60230000D01*
X80621000Y-66770000D02*
X80291000Y-66770000D01*
X83031000Y-66770000D02*
X83031000Y-60230000D01*
X83031000Y-60230000D02*
X82701000Y-60230000D01*
X82701000Y-66770000D02*
X83031000Y-66770000D01*
X80291000Y-60230000D02*
X80621000Y-60230000D01*
D10*
%TO.C,SW1*%
X69700000Y-81457000D02*
X69700000Y-68757000D01*
X69700000Y-68757000D02*
X82900000Y-68757000D01*
X82900000Y-81457000D02*
X69700000Y-81457000D01*
X82900000Y-68757000D02*
X82900000Y-81457000D01*
X79200417Y-75056584D02*
G75*
G03*
X79200417Y-75056584I-3000417J0D01*
G01*
%TO.C,C1*%
X80765666Y-44926214D02*
X80727571Y-44964309D01*
X80613285Y-45002404D01*
X80537095Y-45002404D01*
X80422809Y-44964309D01*
X80346619Y-44888119D01*
X80308523Y-44811928D01*
X80270428Y-44659547D01*
X80270428Y-44545261D01*
X80308523Y-44392880D01*
X80346619Y-44316690D01*
X80422809Y-44240500D01*
X80537095Y-44202404D01*
X80613285Y-44202404D01*
X80727571Y-44240500D01*
X80765666Y-44278595D01*
X81527571Y-45002404D02*
X81070428Y-45002404D01*
X81299000Y-45002404D02*
X81299000Y-44202404D01*
X81222809Y-44316690D01*
X81146619Y-44392880D01*
X81070428Y-44430976D01*
X79279904Y-51327004D02*
X78822761Y-51327004D01*
X79051333Y-51327004D02*
X79051333Y-50527004D01*
X78975142Y-50641290D01*
X78898952Y-50717480D01*
X78822761Y-50755576D01*
X79775142Y-50527004D02*
X79851333Y-50527004D01*
X79927523Y-50565100D01*
X79965619Y-50603195D01*
X80003714Y-50679385D01*
X80041809Y-50831766D01*
X80041809Y-51022242D01*
X80003714Y-51174623D01*
X79965619Y-51250814D01*
X79927523Y-51288909D01*
X79851333Y-51327004D01*
X79775142Y-51327004D01*
X79698952Y-51288909D01*
X79660857Y-51250814D01*
X79622761Y-51174623D01*
X79584666Y-51022242D01*
X79584666Y-50831766D01*
X79622761Y-50679385D01*
X79660857Y-50603195D01*
X79698952Y-50565100D01*
X79775142Y-50527004D01*
X80537047Y-50527004D02*
X80613238Y-50527004D01*
X80689428Y-50565100D01*
X80727523Y-50603195D01*
X80765619Y-50679385D01*
X80803714Y-50831766D01*
X80803714Y-51022242D01*
X80765619Y-51174623D01*
X80727523Y-51250814D01*
X80689428Y-51288909D01*
X80613238Y-51327004D01*
X80537047Y-51327004D01*
X80460857Y-51288909D01*
X80422761Y-51250814D01*
X80384666Y-51174623D01*
X80346571Y-51022242D01*
X80346571Y-50831766D01*
X80384666Y-50679385D01*
X80422761Y-50603195D01*
X80460857Y-50565100D01*
X80537047Y-50527004D01*
X81489428Y-50793671D02*
X81489428Y-51327004D01*
X81146571Y-50793671D02*
X81146571Y-51212719D01*
X81184666Y-51288909D01*
X81260857Y-51327004D01*
X81375142Y-51327004D01*
X81451333Y-51288909D01*
X81489428Y-51250814D01*
X82137047Y-50907957D02*
X81870380Y-50907957D01*
X81870380Y-51327004D02*
X81870380Y-50527004D01*
X82251333Y-50527004D01*
%TO.C,C2*%
X79876666Y-52609714D02*
X79838571Y-52647809D01*
X79724285Y-52685904D01*
X79648095Y-52685904D01*
X79533809Y-52647809D01*
X79457619Y-52571619D01*
X79419523Y-52495428D01*
X79381428Y-52343047D01*
X79381428Y-52228761D01*
X79419523Y-52076380D01*
X79457619Y-52000190D01*
X79533809Y-51924000D01*
X79648095Y-51885904D01*
X79724285Y-51885904D01*
X79838571Y-51924000D01*
X79876666Y-51962095D01*
X80181428Y-51962095D02*
X80219523Y-51924000D01*
X80295714Y-51885904D01*
X80486190Y-51885904D01*
X80562380Y-51924000D01*
X80600476Y-51962095D01*
X80638571Y-52038285D01*
X80638571Y-52114476D01*
X80600476Y-52228761D01*
X80143333Y-52685904D01*
X80638571Y-52685904D01*
X81718304Y-58299304D02*
X81261161Y-58299304D01*
X81489733Y-58299304D02*
X81489733Y-57499304D01*
X81413542Y-57613590D01*
X81337352Y-57689780D01*
X81261161Y-57727876D01*
X82213542Y-57499304D02*
X82289733Y-57499304D01*
X82365923Y-57537400D01*
X82404019Y-57575495D01*
X82442114Y-57651685D01*
X82480209Y-57804066D01*
X82480209Y-57994542D01*
X82442114Y-58146923D01*
X82404019Y-58223114D01*
X82365923Y-58261209D01*
X82289733Y-58299304D01*
X82213542Y-58299304D01*
X82137352Y-58261209D01*
X82099257Y-58223114D01*
X82061161Y-58146923D01*
X82023066Y-57994542D01*
X82023066Y-57804066D01*
X82061161Y-57651685D01*
X82099257Y-57575495D01*
X82137352Y-57537400D01*
X82213542Y-57499304D01*
X82975447Y-57499304D02*
X83051638Y-57499304D01*
X83127828Y-57537400D01*
X83165923Y-57575495D01*
X83204019Y-57651685D01*
X83242114Y-57804066D01*
X83242114Y-57994542D01*
X83204019Y-58146923D01*
X83165923Y-58223114D01*
X83127828Y-58261209D01*
X83051638Y-58299304D01*
X82975447Y-58299304D01*
X82899257Y-58261209D01*
X82861161Y-58223114D01*
X82823066Y-58146923D01*
X82784971Y-57994542D01*
X82784971Y-57804066D01*
X82823066Y-57651685D01*
X82861161Y-57575495D01*
X82899257Y-57537400D01*
X82975447Y-57499304D01*
X83927828Y-57765971D02*
X83927828Y-58299304D01*
X83584971Y-57765971D02*
X83584971Y-58185019D01*
X83623066Y-58261209D01*
X83699257Y-58299304D01*
X83813542Y-58299304D01*
X83889733Y-58261209D01*
X83927828Y-58223114D01*
X84575447Y-57880257D02*
X84308780Y-57880257D01*
X84308780Y-58299304D02*
X84308780Y-57499304D01*
X84689733Y-57499304D01*
%TO.C,-12V*%
X71263095Y-88209428D02*
X72025000Y-88209428D01*
X73025000Y-88590380D02*
X72453571Y-88590380D01*
X72739285Y-88590380D02*
X72739285Y-87590380D01*
X72644047Y-87733238D01*
X72548809Y-87828476D01*
X72453571Y-87876095D01*
X73405952Y-87685619D02*
X73453571Y-87638000D01*
X73548809Y-87590380D01*
X73786904Y-87590380D01*
X73882142Y-87638000D01*
X73929761Y-87685619D01*
X73977380Y-87780857D01*
X73977380Y-87876095D01*
X73929761Y-88018952D01*
X73358333Y-88590380D01*
X73977380Y-88590380D01*
X74263095Y-87590380D02*
X74596428Y-88590380D01*
X74929761Y-87590380D01*
%TO.C,+12V*%
X76724095Y-88209428D02*
X77486000Y-88209428D01*
X77105047Y-88590380D02*
X77105047Y-87828476D01*
X78486000Y-88590380D02*
X77914571Y-88590380D01*
X78200285Y-88590380D02*
X78200285Y-87590380D01*
X78105047Y-87733238D01*
X78009809Y-87828476D01*
X77914571Y-87876095D01*
X78866952Y-87685619D02*
X78914571Y-87638000D01*
X79009809Y-87590380D01*
X79247904Y-87590380D01*
X79343142Y-87638000D01*
X79390761Y-87685619D01*
X79438380Y-87780857D01*
X79438380Y-87876095D01*
X79390761Y-88018952D01*
X78819333Y-88590380D01*
X79438380Y-88590380D01*
X79724095Y-87590380D02*
X80057428Y-88590380D01*
X80390761Y-87590380D01*
%TO.C,R1*%
X84575666Y-69145104D02*
X84309000Y-68764152D01*
X84118523Y-69145104D02*
X84118523Y-68345104D01*
X84423285Y-68345104D01*
X84499476Y-68383200D01*
X84537571Y-68421295D01*
X84575666Y-68497485D01*
X84575666Y-68611771D01*
X84537571Y-68687961D01*
X84499476Y-68726057D01*
X84423285Y-68764152D01*
X84118523Y-68764152D01*
X85337571Y-69145104D02*
X84880428Y-69145104D01*
X85109000Y-69145104D02*
X85109000Y-68345104D01*
X85032809Y-68459390D01*
X84956619Y-68535580D01*
X84880428Y-68573676D01*
X85161380Y-63905238D02*
X85161380Y-64476666D01*
X85161380Y-64190952D02*
X84161380Y-64190952D01*
X84304238Y-64286190D01*
X84399476Y-64381428D01*
X84447095Y-64476666D01*
X84161380Y-63286190D02*
X84161380Y-63190952D01*
X84209000Y-63095714D01*
X84256619Y-63048095D01*
X84351857Y-63000476D01*
X84542333Y-62952857D01*
X84780428Y-62952857D01*
X84970904Y-63000476D01*
X85066142Y-63048095D01*
X85113761Y-63095714D01*
X85161380Y-63190952D01*
X85161380Y-63286190D01*
X85113761Y-63381428D01*
X85066142Y-63429047D01*
X84970904Y-63476666D01*
X84780428Y-63524285D01*
X84542333Y-63524285D01*
X84351857Y-63476666D01*
X84256619Y-63429047D01*
X84209000Y-63381428D01*
X84161380Y-63286190D01*
X85161380Y-62524285D02*
X84161380Y-62524285D01*
X84780428Y-62429047D02*
X85161380Y-62143333D01*
X84494714Y-62143333D02*
X84875666Y-62524285D01*
%TO.C,R2*%
X81527666Y-69145104D02*
X81261000Y-68764152D01*
X81070523Y-69145104D02*
X81070523Y-68345104D01*
X81375285Y-68345104D01*
X81451476Y-68383200D01*
X81489571Y-68421295D01*
X81527666Y-68497485D01*
X81527666Y-68611771D01*
X81489571Y-68687961D01*
X81451476Y-68726057D01*
X81375285Y-68764152D01*
X81070523Y-68764152D01*
X81832428Y-68421295D02*
X81870523Y-68383200D01*
X81946714Y-68345104D01*
X82137190Y-68345104D01*
X82213380Y-68383200D01*
X82251476Y-68421295D01*
X82289571Y-68497485D01*
X82289571Y-68573676D01*
X82251476Y-68687961D01*
X81794333Y-69145104D01*
X82289571Y-69145104D01*
X82113380Y-63905238D02*
X82113380Y-64476666D01*
X82113380Y-64190952D02*
X81113380Y-64190952D01*
X81256238Y-64286190D01*
X81351476Y-64381428D01*
X81399095Y-64476666D01*
X81113380Y-63286190D02*
X81113380Y-63190952D01*
X81161000Y-63095714D01*
X81208619Y-63048095D01*
X81303857Y-63000476D01*
X81494333Y-62952857D01*
X81732428Y-62952857D01*
X81922904Y-63000476D01*
X82018142Y-63048095D01*
X82065761Y-63095714D01*
X82113380Y-63190952D01*
X82113380Y-63286190D01*
X82065761Y-63381428D01*
X82018142Y-63429047D01*
X81922904Y-63476666D01*
X81732428Y-63524285D01*
X81494333Y-63524285D01*
X81303857Y-63476666D01*
X81208619Y-63429047D01*
X81161000Y-63381428D01*
X81113380Y-63286190D01*
X82113380Y-62524285D02*
X81113380Y-62524285D01*
X81732428Y-62429047D02*
X82113380Y-62143333D01*
X81446714Y-62143333D02*
X81827666Y-62524285D01*
%TD*%
M02*
